{
  "title" : "",
  "description" : "",
  "author" : "",
  "targetLoudness" : -18.0,
  "shouldApplyLoudnessNormalization" : true,
  "videoFormatFrameRate" : 60,
  "audioFormatSampleRate" : 44100,
  "width" : 1920.0,
  "height" : 1080.0,
  "version" : "5.0",
  "editRate" : 60,
  "authoringClientName" :  {
    "name" : "Camtasia",
    "platform" : "Windows",
    "version" : "21.0"
  },
  "sourceBin" : [
    {
      "id" : 1,
      "src" : "D:\\Kuliah\\UPB\\Pancasila\\Pertemuan 4\\Tugas\\y2mate.com - old film look paper texture  HD overlay_1080p.mp4",
      "rect" : [0, 0, 1920, 1080],
      "lastMod" : "20231022T122806",
      "loudnessNormalization" : true,
      "sourceTracks" : [
        {
          "range" : [0, 5005],
          "type" : 0,
          "editRate" : 1000,
          "trackRect" : [0, 0, 1920, 1080],
          "sampleRate" : "2997/100",
          "bitDepth" : 24,
          "numChannels" : 0,
          "integratedLUFS" : 100.0,
          "peakLevel" : -1.0,
          "metaData" : ""
        },
        {
          "range" : [0, 5062],
          "type" : 2,
          "editRate" : 1000,
          "trackRect" : [0, 0, 0, 0],
          "sampleRate" : 44100,
          "bitDepth" : 16,
          "numChannels" : 2,
          "integratedLUFS" : 0.0,
          "peakLevel" : 0.0,
          "metaData" : ""
        }
      ],
      "metadata" : {
        "timeAdded" : "20231022T123533.848973"
      }
    },
    {
      "id" : 2,
      "src" : "D:\\Kuliah\\UPB\\Pancasila\\Pertemuan 4\\Tugas\\y2mate.com - Vintage Film or Old Film or Super 8mm Free Overlay and Sound Effect No Copyright_1080p.mp4",
      "rect" : [0, 0, 1920, 1080],
      "lastMod" : "20231022T123837",
      "loudnessNormalization" : true,
      "sourceTracks" : [
        {
          "range" : [0, 69600],
          "type" : 0,
          "editRate" : 1000,
          "trackRect" : [0, 0, 1920, 1080],
          "sampleRate" : 30,
          "bitDepth" : 24,
          "numChannels" : 0,
          "integratedLUFS" : 100.0,
          "peakLevel" : -1.0,
          "metaData" : ""
        },
        {
          "range" : [0, 69660],
          "type" : 2,
          "editRate" : 1000,
          "trackRect" : [0, 0, 0, 0],
          "sampleRate" : 44100,
          "bitDepth" : 16,
          "numChannels" : 2,
          "integratedLUFS" : -19.3123489109411,
          "peakLevel" : 0.99866795539856,
          "metaData" : ""
        }
      ],
      "metadata" : {
        "timeAdded" : "20231022T124229.234704"
      }
    },
    {
      "id" : 3,
      "src" : "D:\\Kuliah\\UPB\\Pancasila\\Pertemuan 4\\Tugas\\y2mate.com - Pencil sound effect.mp3",
      "rect" : [0, 0, 0, 0],
      "lastMod" : "20231022T130430",
      "loudnessNormalization" : true,
      "sourceTracks" : [
        {
          "range" : [0, 19330000],
          "type" : 2,
          "editRate" : 10000000,
          "trackRect" : [0, 0, 0, 0],
          "sampleRate" : 44100,
          "bitDepth" : 0,
          "numChannels" : 2,
          "integratedLUFS" : 100.0,
          "peakLevel" : -1.0,
          "metaData" : ""
        }
      ],
      "metadata" : {
        "timeAdded" : "20231022T130458.362159"
      }
    },
    {
      "id" : 4,
      "src" : "D:\\Kuliah\\UPB\\Pancasila\\Pertemuan 4\\Tugas\\y2mate.com - Writing on Paper Sound Effects.mp3",
      "rect" : [0, 0, 0, 0],
      "lastMod" : "20231022T130252",
      "loudnessNormalization" : true,
      "sourceTracks" : [
        {
          "range" : [0, 102138125],
          "type" : 2,
          "editRate" : 10000000,
          "trackRect" : [0, 0, 0, 0],
          "sampleRate" : 44100,
          "bitDepth" : 0,
          "numChannels" : 2,
          "integratedLUFS" : -27.8883349124185,
          "peakLevel" : 0.204816624522209,
          "metaData" : ""
        }
      ],
      "metadata" : {
        "timeAdded" : "20231022T130458.363159"
      }
    },
    {
      "id" : 5,
      "src" : "D:\\Kuliah\\UPB\\Pancasila\\Pertemuan 4\\Tugas\\y2mate.com - Type Writer Machine Sound Effect  Royalty Free.mp3",
      "rect" : [0, 0, 0, 0],
      "lastMod" : "20231022T131159",
      "loudnessNormalization" : true,
      "sourceTracks" : [
        {
          "range" : [0, 232227500],
          "type" : 2,
          "editRate" : 10000000,
          "trackRect" : [0, 0, 0, 0],
          "sampleRate" : 44100,
          "bitDepth" : 0,
          "numChannels" : 2,
          "integratedLUFS" : -29.8788241041742,
          "peakLevel" : 0.600341737270355,
          "metaData" : ""
        }
      ],
      "metadata" : {
        "timeAdded" : "20231022T131220.826011"
      }
    },
    {
      "id" : 6,
      "src" : "D:\\Kuliah\\UPB\\Pancasila\\Pertemuan 4\\Tugas\\y2mate.com - Stop Motion Crumpled Paper Texture Background_1080p.mp4",
      "rect" : [0, 0, 1920, 1080],
      "lastMod" : "20231022T124032",
      "loudnessNormalization" : true,
      "sourceTracks" : [
        {
          "range" : [0, 25034],
          "type" : 0,
          "editRate" : 1000,
          "trackRect" : [0, 0, 1920, 1080],
          "sampleRate" : "150001/5000",
          "bitDepth" : 24,
          "numChannels" : 0,
          "integratedLUFS" : 100.0,
          "peakLevel" : -1.0,
          "metaData" : ""
        },
        {
          "range" : [0, 25101],
          "type" : 2,
          "editRate" : 1000,
          "trackRect" : [0, 0, 0, 0],
          "sampleRate" : 44100,
          "bitDepth" : 16,
          "numChannels" : 2,
          "integratedLUFS" : 0.0,
          "peakLevel" : 0.0,
          "metaData" : ""
        }
      ],
      "metadata" : {
        "timeAdded" : "20231022T131923.315620"
      }
    },
    {
      "id" : 7,
      "src" : "D:\\Kuliah\\UPB\\Pancasila\\Pertemuan 4\\Tugas\\Garuda_Pancasila,_Coat_of_Arms_of_Indonesia.svg.png",
      "rect" : [0, 0, 1200, 1301],
      "lastMod" : "20231022T132206",
      "loudnessNormalization" : true,
      "sourceTracks" : [
        {
          "range" : [0, 1],
          "type" : 1,
          "editRate" : 10000000,
          "trackRect" : [0, 0, 1200, 1301],
          "sampleRate" : 0,
          "bitDepth" : 32,
          "numChannels" : 0,
          "integratedLUFS" : 100.0,
          "peakLevel" : -1.0,
          "metaData" : ""
        }
      ],
      "metadata" : {
        "timeAdded" : "20231022T132211.329095"
      }
    },
    {
      "id" : 8,
      "src" : "D:\\Kuliah\\UPB\\Pancasila\\Pertemuan 4\\Tugas\\collage-hand-element-png (1).png",
      "rect" : [0, 0, 1920, 782],
      "lastMod" : "20231022T132522",
      "loudnessNormalization" : true,
      "sourceTracks" : [
        {
          "range" : [0, 1],
          "type" : 1,
          "editRate" : 10000000,
          "trackRect" : [0, 0, 1920, 782],
          "sampleRate" : 0,
          "bitDepth" : 32,
          "numChannels" : 0,
          "integratedLUFS" : 100.0,
          "peakLevel" : -1.0,
          "metaData" : ""
        }
      ],
      "metadata" : {
        "timeAdded" : "20231022T132526.491279"
      }
    },
    {
      "id" : 9,
      "src" : "D:\\Kuliah\\UPB\\Pancasila\\Pertemuan 4\\Tugas\\mp3-output-ttsfree(dot)com (1).mp3",
      "rect" : [0, 0, 0, 0],
      "lastMod" : "20231121T110339",
      "loudnessNormalization" : true,
      "sourceTracks" : [
        {
          "range" : [0, 191738125],
          "type" : 2,
          "editRate" : 10000000,
          "trackRect" : [0, 0, 0, 0],
          "sampleRate" : 44100,
          "bitDepth" : 0,
          "numChannels" : 2,
          "integratedLUFS" : -17.9359690891411,
          "peakLevel" : 0.445143073797226,
          "metaData" : ""
        }
      ],
      "metadata" : {
        "timeAdded" : "20231121T113504.451783"
      }
    },
    {
      "id" : 10,
      "src" : "D:\\Kuliah\\UPB\\Pancasila\\Pertemuan 4\\Tugas\\mp3-output-ttsfree(dot)com (2).mp3",
      "rect" : [0, 0, 0, 0],
      "lastMod" : "20231121T110433",
      "loudnessNormalization" : true,
      "sourceTracks" : [
        {
          "range" : [0, 211591250],
          "type" : 2,
          "editRate" : 10000000,
          "trackRect" : [0, 0, 0, 0],
          "sampleRate" : 44100,
          "bitDepth" : 0,
          "numChannels" : 2,
          "integratedLUFS" : -20.2104311033549,
          "peakLevel" : 0.420128405094147,
          "metaData" : ""
        }
      ],
      "metadata" : {
        "timeAdded" : "20231121T113504.467425"
      }
    },
    {
      "id" : 11,
      "src" : "D:\\Kuliah\\UPB\\Pancasila\\Pertemuan 4\\Tugas\\mp3-output-ttsfree(dot)com (3).mp3",
      "rect" : [0, 0, 0, 0],
      "lastMod" : "20231121T110536",
      "loudnessNormalization" : true,
      "sourceTracks" : [
        {
          "range" : [0, 215770625],
          "type" : 2,
          "editRate" : 10000000,
          "trackRect" : [0, 0, 0, 0],
          "sampleRate" : 44100,
          "bitDepth" : 0,
          "numChannels" : 2,
          "integratedLUFS" : -19.5748962123549,
          "peakLevel" : 0.520004212856293,
          "metaData" : ""
        }
      ],
      "metadata" : {
        "timeAdded" : "20231121T113504.467425"
      }
    },
    {
      "id" : 12,
      "src" : "D:\\Kuliah\\UPB\\Pancasila\\Pertemuan 4\\Tugas\\mp3-output-ttsfree(dot)com (4).mp3",
      "rect" : [0, 0, 0, 0],
      "lastMod" : "20231121T110703",
      "loudnessNormalization" : true,
      "sourceTracks" : [
        {
          "range" : [0, 222562500],
          "type" : 2,
          "editRate" : 10000000,
          "trackRect" : [0, 0, 0, 0],
          "sampleRate" : 44100,
          "bitDepth" : 0,
          "numChannels" : 2,
          "integratedLUFS" : -17.930322562472,
          "peakLevel" : 0.471767395734787,
          "metaData" : ""
        }
      ],
      "metadata" : {
        "timeAdded" : "20231121T113504.467425"
      }
    },
    {
      "id" : 13,
      "src" : "D:\\Kuliah\\UPB\\Pancasila\\Pertemuan 4\\Tugas\\mp3-output-ttsfree(dot)com (5).mp3",
      "rect" : [0, 0, 0, 0],
      "lastMod" : "20231121T110828",
      "loudnessNormalization" : true,
      "sourceTracks" : [
        {
          "range" : [0, 253648125],
          "type" : 2,
          "editRate" : 10000000,
          "trackRect" : [0, 0, 0, 0],
          "sampleRate" : 44100,
          "bitDepth" : 0,
          "numChannels" : 2,
          "integratedLUFS" : -17.9705846842323,
          "peakLevel" : 0.436519116163254,
          "metaData" : ""
        }
      ],
      "metadata" : {
        "timeAdded" : "20231121T113504.498654"
      }
    },
    {
      "id" : 14,
      "src" : "D:\\Kuliah\\UPB\\Pancasila\\Pertemuan 4\\Tugas\\mp3-output-ttsfree(dot)com (6).mp3",
      "rect" : [0, 0, 0, 0],
      "lastMod" : "20231121T111029",
      "loudnessNormalization" : true,
      "sourceTracks" : [
        {
          "range" : [0, 23509375],
          "type" : 2,
          "editRate" : 10000000,
          "trackRect" : [0, 0, 0, 0],
          "sampleRate" : 44100,
          "bitDepth" : 0,
          "numChannels" : 2,
          "integratedLUFS" : 100.0,
          "peakLevel" : -1.0,
          "metaData" : ""
        }
      ],
      "metadata" : {
        "timeAdded" : "20231121T113504.498654"
      }
    },
    {
      "id" : 15,
      "src" : "D:\\Kuliah\\UPB\\Pancasila\\Pertemuan 4\\Tugas\\mp3-output-ttsfree(dot)com (7).mp3",
      "rect" : [0, 0, 0, 0],
      "lastMod" : "20231121T111059",
      "loudnessNormalization" : true,
      "sourceTracks" : [
        {
          "range" : [0, 24293125],
          "type" : 2,
          "editRate" : 10000000,
          "trackRect" : [0, 0, 0, 0],
          "sampleRate" : 44100,
          "bitDepth" : 0,
          "numChannels" : 2,
          "integratedLUFS" : 100.0,
          "peakLevel" : -1.0,
          "metaData" : ""
        }
      ],
      "metadata" : {
        "timeAdded" : "20231121T113504.498654"
      }
    },
    {
      "id" : 16,
      "src" : "D:\\Kuliah\\UPB\\Pancasila\\Pertemuan 4\\Tugas\\mp3-output-ttsfree(dot)com.mp3",
      "rect" : [0, 0, 0, 0],
      "lastMod" : "20231121T110229",
      "loudnessNormalization" : true,
      "sourceTracks" : [
        {
          "range" : [0, 178415625],
          "type" : 2,
          "editRate" : 10000000,
          "trackRect" : [0, 0, 0, 0],
          "sampleRate" : 44100,
          "bitDepth" : 0,
          "numChannels" : 2,
          "integratedLUFS" : -17.9942068052981,
          "peakLevel" : 0.441173404455185,
          "metaData" : ""
        }
      ],
      "metadata" : {
        "timeAdded" : "20231121T113504.498654"
      }
    },
    {
      "id" : 17,
      "src" : "D:\\Kuliah\\UPB\\Pancasila\\Pertemuan 4\\Tugas\\1200px-Indonesia_Ethnic_Groups_Map_id.svg.png",
      "rect" : [0, 0, 1200, 508],
      "lastMod" : "20231121T101955",
      "loudnessNormalization" : true,
      "sourceTracks" : [
        {
          "range" : [0, 1],
          "type" : 1,
          "editRate" : 10000000,
          "trackRect" : [0, 0, 1200, 508],
          "sampleRate" : 0,
          "bitDepth" : 32,
          "numChannels" : 0,
          "integratedLUFS" : 100.0,
          "peakLevel" : -1.0,
          "metaData" : ""
        }
      ],
      "metadata" : {
        "timeAdded" : "20231121T113819.348262"
      }
    },
    {
      "id" : 18,
      "src" : "D:\\Kuliah\\UPB\\Pancasila\\Pertemuan 4\\Tugas\\y2mate.com - Simple grid squares pattern in blue white color  4K animated motion background_720p.mp4",
      "rect" : [0, 0, 1280, 720],
      "lastMod" : "20231022T124054",
      "loudnessNormalization" : true,
      "sourceTracks" : [
        {
          "range" : [0, 3788800],
          "type" : 0,
          "editRate" : 15360,
          "trackRect" : [0, 0, 1280, 720],
          "sampleRate" : "150001/5000",
          "bitDepth" : 24,
          "numChannels" : 0,
          "integratedLUFS" : 100.0,
          "peakLevel" : -1.0,
          "metaData" : ""
        },
        {
          "range" : [0, 10878976],
          "type" : 2,
          "editRate" : 44100,
          "trackRect" : [0, 0, 0, 0],
          "sampleRate" : 44100,
          "bitDepth" : 16,
          "numChannels" : 2,
          "integratedLUFS" : 0.0,
          "peakLevel" : 0.0,
          "metaData" : ""
        }
      ],
      "metadata" : {
        "timeAdded" : "20231121T113832.430975"
      }
    },
    {
      "id" : 19,
      "src" : "D:\\Kuliah\\UPB\\Pancasila\\Pertemuan 4\\Tugas\\intro.mp3",
      "rect" : [0, 0, 0, 0],
      "lastMod" : "20231121T115813",
      "loudnessNormalization" : true,
      "sourceTracks" : [
        {
          "range" : [0, 199835625],
          "type" : 2,
          "editRate" : 10000000,
          "trackRect" : [0, 0, 0, 0],
          "sampleRate" : 44100,
          "bitDepth" : 0,
          "numChannels" : 2,
          "integratedLUFS" : -17.7442163794047,
          "peakLevel" : 0.48788595199585,
          "metaData" : ""
        }
      ],
      "metadata" : {
        "timeAdded" : "20231121T115822.801667"
      }
    },
    {
      "id" : 20,
      "src" : "D:\\Kuliah\\UPB\\Pancasila\\Pertemuan 4\\Tugas\\312310277 EKA SALSABILA copy.png",
      "rect" : [0, 0, 433, 577],
      "lastMod" : "20231121T115552",
      "loudnessNormalization" : true,
      "sourceTracks" : [
        {
          "range" : [0, 1],
          "type" : 1,
          "editRate" : 10000000,
          "trackRect" : [0, 0, 433, 577],
          "sampleRate" : 0,
          "bitDepth" : 32,
          "numChannels" : 0,
          "integratedLUFS" : 100.0,
          "peakLevel" : -1.0,
          "metaData" : ""
        }
      ],
      "metadata" : {
        "timeAdded" : "20231121T115847.463016"
      }
    },
    {
      "id" : 21,
      "src" : "D:\\Kuliah\\UPB\\Pancasila\\Pertemuan 4\\Tugas\\312310242 DIAH AYU LESTARI copy.png",
      "rect" : [0, 0, 3120, 4160],
      "lastMod" : "20231121T115219",
      "loudnessNormalization" : true,
      "sourceTracks" : [
        {
          "range" : [0, 1],
          "type" : 1,
          "editRate" : 10000000,
          "trackRect" : [0, 0, 3120, 4160],
          "sampleRate" : 0,
          "bitDepth" : 32,
          "numChannels" : 0,
          "integratedLUFS" : 100.0,
          "peakLevel" : -1.0,
          "metaData" : ""
        }
      ],
      "metadata" : {
        "timeAdded" : "20231121T115847.463016"
      }
    },
    {
      "id" : 22,
      "src" : "D:\\Kuliah\\UPB\\Pancasila\\Pertemuan 4\\Tugas\\312310288 MAUDY APRILIA SAHARI copy.png",
      "rect" : [0, 0, 472, 709],
      "lastMod" : "20231121T121332",
      "loudnessNormalization" : true,
      "sourceTracks" : [
        {
          "range" : [0, 1],
          "type" : 1,
          "editRate" : 10000000,
          "trackRect" : [0, 0, 472, 709],
          "sampleRate" : 0,
          "bitDepth" : 32,
          "numChannels" : 0,
          "integratedLUFS" : 100.0,
          "peakLevel" : -1.0,
          "metaData" : ""
        }
      ],
      "metadata" : {
        "timeAdded" : "20231121T121349.795564"
      }
    },
    {
      "id" : 23,
      "src" : "D:\\Kuliah\\UPB\\Pancasila\\Pertemuan 4\\Tugas\\Nandang_Duryat_blue_light copy.png",
      "rect" : [0, 0, 465, 1435],
      "lastMod" : "20231121T122448",
      "loudnessNormalization" : true,
      "sourceTracks" : [
        {
          "range" : [0, 1],
          "type" : 1,
          "editRate" : 10000000,
          "trackRect" : [0, 0, 465, 1435],
          "sampleRate" : 0,
          "bitDepth" : 32,
          "numChannels" : 0,
          "integratedLUFS" : 100.0,
          "peakLevel" : -1.0,
          "metaData" : ""
        }
      ],
      "metadata" : {
        "timeAdded" : "20231121T122452.716029"
      }
    },
    {
      "id" : 24,
      "src" : "D:\\Kuliah\\UPB\\Pancasila\\Pertemuan 4\\Tugas\\312310301 ADAM MUBAROK copy.png",
      "rect" : [0, 0, 524, 786],
      "lastMod" : "20231121T123824",
      "loudnessNormalization" : true,
      "sourceTracks" : [
        {
          "range" : [0, 1],
          "type" : 1,
          "editRate" : 10000000,
          "trackRect" : [0, 0, 524, 786],
          "sampleRate" : 0,
          "bitDepth" : 32,
          "numChannels" : 0,
          "integratedLUFS" : 100.0,
          "peakLevel" : -1.0,
          "metaData" : ""
        }
      ],
      "metadata" : {
        "timeAdded" : "20231121T123828.389850"
      }
    },
    {
      "id" : 25,
      "src" : "D:\\Kuliah\\UPB\\Pancasila\\Pertemuan 4\\Tugas\\312310262 RIYADI copy.png",
      "rect" : [0, 0, 1024, 1242],
      "lastMod" : "20231121T125108",
      "loudnessNormalization" : true,
      "sourceTracks" : [
        {
          "range" : [0, 1],
          "type" : 1,
          "editRate" : 10000000,
          "trackRect" : [0, 0, 1024, 1242],
          "sampleRate" : 0,
          "bitDepth" : 32,
          "numChannels" : 0,
          "integratedLUFS" : 100.0,
          "peakLevel" : -1.0,
          "metaData" : ""
        }
      ],
      "metadata" : {
        "timeAdded" : "20231121T125115.237841"
      }
    },
    {
      "id" : 26,
      "src" : "D:\\Kuliah\\UPB\\Pancasila\\Pertemuan 4\\Tugas\\raspberrymusic - Politic Campaign.mp3",
      "rect" : [0, 0, 0, 0],
      "lastMod" : "20220705T054423",
      "loudnessNormalization" : true,
      "sourceTracks" : [
        {
          "range" : [0, 974628500],
          "type" : 2,
          "editRate" : 10000000,
          "trackRect" : [0, 0, 0, 0],
          "sampleRate" : 44100,
          "bitDepth" : 0,
          "numChannels" : 2,
          "integratedLUFS" : -11.0842338330831,
          "peakLevel" : 0.978004336357117,
          "metaData" : ""
        }
      ],
      "metadata" : {
        "timeAdded" : "20231121T130003.722061"
      }
    },
    {
      "id" : 27,
      "src" : "D:\\Kuliah\\UPB\\Pancasila\\Pertemuan 4\\Tugas\\0_2 (1).png",
      "rect" : [0, 0, 1024, 1024],
      "lastMod" : "20231121T130615",
      "loudnessNormalization" : true,
      "sourceTracks" : [
        {
          "range" : [0, 1],
          "type" : 1,
          "editRate" : 10000000,
          "trackRect" : [0, 0, 1024, 1024],
          "sampleRate" : 0,
          "bitDepth" : 32,
          "numChannels" : 0,
          "integratedLUFS" : 100.0,
          "peakLevel" : -1.0,
          "metaData" : ""
        }
      ],
      "metadata" : {
        "timeAdded" : "20231121T130620.051412"
      }
    },
    {
      "id" : 28,
      "src" : "D:\\Kuliah\\UPB\\Pancasila\\Pertemuan 4\\Tugas\\0_01.png",
      "rect" : [0, 0, 1456, 816],
      "lastMod" : "20231121T131152",
      "loudnessNormalization" : true,
      "sourceTracks" : [
        {
          "range" : [0, 1],
          "type" : 1,
          "editRate" : 10000000,
          "trackRect" : [0, 0, 1456, 816],
          "sampleRate" : 0,
          "bitDepth" : 32,
          "numChannels" : 0,
          "integratedLUFS" : 100.0,
          "peakLevel" : -1.0,
          "metaData" : ""
        }
      ],
      "metadata" : {
        "timeAdded" : "20231121T131159.715707"
      }
    },
    {
      "id" : 29,
      "src" : "D:\\Kuliah\\UPB\\Pancasila\\Pertemuan 4\\Tugas\\0_3.png",
      "rect" : [0, 0, 1024, 1024],
      "lastMod" : "20231121T131300",
      "loudnessNormalization" : true,
      "sourceTracks" : [
        {
          "range" : [0, 1],
          "type" : 1,
          "editRate" : 10000000,
          "trackRect" : [0, 0, 1024, 1024],
          "sampleRate" : 0,
          "bitDepth" : 32,
          "numChannels" : 0,
          "integratedLUFS" : 100.0,
          "peakLevel" : -1.0,
          "metaData" : ""
        }
      ],
      "metadata" : {
        "timeAdded" : "20231121T131312.090483"
      }
    },
    {
      "id" : 30,
      "src" : "D:\\Kuliah\\UPB\\Pancasila\\Pertemuan 4\\Tugas\\0_15.png",
      "rect" : [0, 0, 1456, 816],
      "lastMod" : "20231121T131629",
      "loudnessNormalization" : true,
      "sourceTracks" : [
        {
          "range" : [0, 1],
          "type" : 1,
          "editRate" : 10000000,
          "trackRect" : [0, 0, 1456, 816],
          "sampleRate" : 0,
          "bitDepth" : 32,
          "numChannels" : 0,
          "integratedLUFS" : 100.0,
          "peakLevel" : -1.0,
          "metaData" : ""
        }
      ],
      "metadata" : {
        "timeAdded" : "20231121T131634.140897"
      }
    },
    {
      "id" : 31,
      "src" : "D:\\Kuliah\\UPB\\Pancasila\\Pertemuan 4\\Tugas\\0_37.png",
      "rect" : [0, 0, 1344, 896],
      "lastMod" : "20231121T132504",
      "loudnessNormalization" : true,
      "sourceTracks" : [
        {
          "range" : [0, 1],
          "type" : 1,
          "editRate" : 10000000,
          "trackRect" : [0, 0, 1344, 896],
          "sampleRate" : 0,
          "bitDepth" : 32,
          "numChannels" : 0,
          "integratedLUFS" : 100.0,
          "peakLevel" : -1.0,
          "metaData" : ""
        }
      ],
      "metadata" : {
        "timeAdded" : "20231121T132510.003302"
      }
    },
    {
      "id" : 32,
      "src" : "D:\\Kuliah\\UPB\\Pancasila\\Pertemuan 4\\Tugas\\0_2 (1s).png",
      "rect" : [0, 0, 1024, 1024],
      "lastMod" : "20231121T132614",
      "loudnessNormalization" : true,
      "sourceTracks" : [
        {
          "range" : [0, 1],
          "type" : 1,
          "editRate" : 10000000,
          "trackRect" : [0, 0, 1024, 1024],
          "sampleRate" : 0,
          "bitDepth" : 32,
          "numChannels" : 0,
          "integratedLUFS" : 100.0,
          "peakLevel" : -1.0,
          "metaData" : ""
        }
      ],
      "metadata" : {
        "timeAdded" : "20231121T132619.907491"
      }
    },
    {
      "id" : 33,
      "src" : "D:\\Kuliah\\UPB\\Pancasila\\Pertemuan 4\\Tugas\\0_2 (1dd).png",
      "rect" : [0, 0, 1456, 816],
      "lastMod" : "20231121T133059",
      "loudnessNormalization" : true,
      "sourceTracks" : [
        {
          "range" : [0, 1],
          "type" : 1,
          "editRate" : 10000000,
          "trackRect" : [0, 0, 1456, 816],
          "sampleRate" : 0,
          "bitDepth" : 32,
          "numChannels" : 0,
          "integratedLUFS" : 100.0,
          "peakLevel" : -1.0,
          "metaData" : ""
        }
      ],
      "metadata" : {
        "timeAdded" : "20231121T133126.958090"
      }
    },
    {
      "id" : 34,
      "src" : "D:\\Kuliah\\UPB\\Pancasila\\Pertemuan 4\\Tugas\\0_1asa.png",
      "rect" : [0, 0, 1344, 896],
      "lastMod" : "20231121T133246",
      "loudnessNormalization" : true,
      "sourceTracks" : [
        {
          "range" : [0, 1],
          "type" : 1,
          "editRate" : 10000000,
          "trackRect" : [0, 0, 1344, 896],
          "sampleRate" : 0,
          "bitDepth" : 32,
          "numChannels" : 0,
          "integratedLUFS" : 100.0,
          "peakLevel" : -1.0,
          "metaData" : ""
        }
      ],
      "metadata" : {
        "timeAdded" : "20231121T133252.849271"
      }
    },
    {
      "id" : 35,
      "src" : "D:\\Kuliah\\UPB\\Pancasila\\Pertemuan 4\\Tugas\\0_1rr.png",
      "rect" : [0, 0, 1024, 1024],
      "lastMod" : "20231121T133420",
      "loudnessNormalization" : true,
      "sourceTracks" : [
        {
          "range" : [0, 1],
          "type" : 1,
          "editRate" : 10000000,
          "trackRect" : [0, 0, 1024, 1024],
          "sampleRate" : 0,
          "bitDepth" : 32,
          "numChannels" : 0,
          "integratedLUFS" : 100.0,
          "peakLevel" : -1.0,
          "metaData" : ""
        }
      ],
      "metadata" : {
        "timeAdded" : "20231121T133424.229418"
      }
    },
    {
      "id" : 36,
      "src" : "D:\\Kuliah\\UPB\\Pancasila\\Pertemuan 4\\Tugas\\0_2 (1)sdds.png",
      "rect" : [0, 0, 1024, 1024],
      "lastMod" : "20231121T133658",
      "loudnessNormalization" : true,
      "sourceTracks" : [
        {
          "range" : [0, 1],
          "type" : 1,
          "editRate" : 10000000,
          "trackRect" : [0, 0, 1024, 1024],
          "sampleRate" : 0,
          "bitDepth" : 32,
          "numChannels" : 0,
          "integratedLUFS" : 100.0,
          "peakLevel" : -1.0,
          "metaData" : ""
        }
      ],
      "metadata" : {
        "timeAdded" : "20231121T133704.039496"
      }
    },
    {
      "id" : 37,
      "src" : "D:\\Kuliah\\UPB\\Pancasila\\Pertemuan 4\\Tugas\\0_0sa.png",
      "rect" : [0, 0, 1344, 896],
      "lastMod" : "20231121T134838",
      "loudnessNormalization" : true,
      "sourceTracks" : [
        {
          "range" : [0, 1],
          "type" : 1,
          "editRate" : 10000000,
          "trackRect" : [0, 0, 1344, 896],
          "sampleRate" : 0,
          "bitDepth" : 32,
          "numChannels" : 0,
          "integratedLUFS" : 100.0,
          "peakLevel" : -1.0,
          "metaData" : ""
        }
      ],
      "metadata" : {
        "timeAdded" : "20231121T134842.794422"
      }
    },
    {
      "id" : 38,
      "src" : "D:\\Kuliah\\UPB\\Pancasila\\Pertemuan 4\\Tugas\\0_0sdsd.png",
      "rect" : [0, 0, 1024, 1024],
      "lastMod" : "20231121T135022",
      "loudnessNormalization" : true,
      "sourceTracks" : [
        {
          "range" : [0, 1],
          "type" : 1,
          "editRate" : 10000000,
          "trackRect" : [0, 0, 1024, 1024],
          "sampleRate" : 0,
          "bitDepth" : 32,
          "numChannels" : 0,
          "integratedLUFS" : 100.0,
          "peakLevel" : -1.0,
          "metaData" : ""
        }
      ],
      "metadata" : {
        "timeAdded" : "20231121T135026.811479"
      }
    },
    {
      "id" : 39,
      "src" : "C:\\ProgramData\\TechSmith\\Camtasia Studio 21\\Library 4.0\\Camtasia Libraries\\Camtasia 2021\\Icons\\Education\\pin-01.asset\\pin-01.png",
      "rect" : [0, 0, 1122, 1124],
      "lastMod" : "20210217T082140",
      "loudnessNormalization" : true,
      "sourceTracks" : [
        {
          "range" : [0, 1],
          "type" : 1,
          "editRate" : 10000000,
          "trackRect" : [0, 0, 1122, 1124],
          "sampleRate" : 0,
          "bitDepth" : 32,
          "numChannels" : 0,
          "integratedLUFS" : 100.0,
          "peakLevel" : -1.0,
          "metaData" : ""
        }
      ],
      "metadata" : {
        "assetLibraryId" : "c2ee770c-9087-46c5-8fb0-fdaaecd8d614",
        "timeAdded" : "20231121T154714.857958"
      }
    },
    {
      "id" : 40,
      "src" : "D:\\Kuliah\\UPB\\Pancasila\\Pertemuan 4\\Tugas\\0_0saa.png",
      "rect" : [0, 0, 1456, 816],
      "lastMod" : "20231121T155804",
      "loudnessNormalization" : true,
      "sourceTracks" : [
        {
          "range" : [0, 1],
          "type" : 1,
          "editRate" : 10000000,
          "trackRect" : [0, 0, 1456, 816],
          "sampleRate" : 0,
          "bitDepth" : 32,
          "numChannels" : 0,
          "integratedLUFS" : 100.0,
          "peakLevel" : -1.0,
          "metaData" : ""
        }
      ],
      "metadata" : {
        "timeAdded" : "20231121T155810.270605"
      }
    },
    {
      "id" : 41,
      "src" : "D:\\Kuliah\\UPB\\Pancasila\\Pertemuan 4\\Tugas\\0_2 (1)5.png",
      "rect" : [0, 0, 1024, 1024],
      "lastMod" : "20231121T155954",
      "loudnessNormalization" : true,
      "sourceTracks" : [
        {
          "range" : [0, 1],
          "type" : 1,
          "editRate" : 10000000,
          "trackRect" : [0, 0, 1024, 1024],
          "sampleRate" : 0,
          "bitDepth" : 32,
          "numChannels" : 0,
          "integratedLUFS" : 100.0,
          "peakLevel" : -1.0,
          "metaData" : ""
        }
      ],
      "metadata" : {
        "timeAdded" : "20231121T155958.565807"
      }
    },
    {
      "id" : 42,
      "src" : "D:\\Kuliah\\UPB\\Pancasila\\Pertemuan 4\\Tugas\\10-tanahair.jpg",
      "rect" : [0, 0, 1075, 896],
      "lastMod" : "20231121T160404",
      "loudnessNormalization" : true,
      "sourceTracks" : [
        {
          "range" : [0, 1],
          "type" : 1,
          "editRate" : 10000000,
          "trackRect" : [0, 0, 1075, 896],
          "sampleRate" : 0,
          "bitDepth" : 24,
          "numChannels" : 0,
          "integratedLUFS" : 100.0,
          "peakLevel" : -1.0,
          "metaData" : ""
        }
      ],
      "metadata" : {
        "timeAdded" : "20231121T160408.661370"
      }
    },
    {
      "id" : 43,
      "src" : "D:\\Kuliah\\UPB\\Pancasila\\Pertemuan 4\\Tugas\\WhatsApp Image 2023-11-21 at 23.20.16.jpeg",
      "rect" : [0, 0, 1600, 900],
      "lastMod" : "20231121T162027",
      "loudnessNormalization" : true,
      "sourceTracks" : [
        {
          "range" : [0, 1],
          "type" : 1,
          "editRate" : 10000000,
          "trackRect" : [0, 0, 1600, 900],
          "sampleRate" : 0,
          "bitDepth" : 24,
          "numChannels" : 0,
          "integratedLUFS" : 100.0,
          "peakLevel" : -1.0,
          "metaData" : ""
        }
      ],
      "metadata" : {
        "timeAdded" : "20231121T162032.110955"
      }
    },
    {
      "id" : 44,
      "src" : "D:\\Kuliah\\UPB\\Pancasila\\Pertemuan 4\\Tugas\\c3122-belajar2bdari2bkeberagaman_0002.jpg",
      "rect" : [0, 0, 1600, 1071],
      "lastMod" : "20231121T162358",
      "loudnessNormalization" : true,
      "sourceTracks" : [
        {
          "range" : [0, 1],
          "type" : 1,
          "editRate" : 10000000,
          "trackRect" : [0, 0, 1600, 1071],
          "sampleRate" : 0,
          "bitDepth" : 24,
          "numChannels" : 0,
          "integratedLUFS" : 100.0,
          "peakLevel" : -1.0,
          "metaData" : ""
        }
      ],
      "metadata" : {
        "timeAdded" : "20231121T162403.452793"
      }
    },
    {
      "id" : 45,
      "src" : "D:\\Kuliah\\UPB\\Pancasila\\Pertemuan 4\\Tugas\\x2mate.com-Pembacaan teks proklamasi kemerdekaan Bangsa Indonesia-(480p).mp4",
      "rect" : [0, 0, 854, 480],
      "lastMod" : "20231121T163143",
      "loudnessNormalization" : true,
      "sourceTracks" : [
        {
          "range" : [0, 68520],
          "type" : 0,
          "editRate" : 1000,
          "trackRect" : [0, 0, 854, 480],
          "sampleRate" : 25,
          "bitDepth" : 24,
          "numChannels" : 0,
          "integratedLUFS" : 100.0,
          "peakLevel" : -1.0,
          "metaData" : ""
        },
        {
          "range" : [0, 68476],
          "type" : 2,
          "editRate" : 1000,
          "trackRect" : [0, 0, 0, 0],
          "sampleRate" : 44100,
          "bitDepth" : 16,
          "numChannels" : 2,
          "integratedLUFS" : -8.30258745502474,
          "peakLevel" : 1.08455300331116,
          "metaData" : ""
        }
      ],
      "metadata" : {
        "timeAdded" : "20231121T163147.805353"
      }
    },
    {
      "id" : 46,
      "src" : "D:\\Kuliah\\UPB\\Pancasila\\Pertemuan 4\\Tugas\\x2mate.com-FLAG ANIMATION BENDERA MERAH PUTIH GARUDA - Free to Use.mp4",
      "rect" : [0, 0, 1280, 720],
      "lastMod" : "20231121T163426",
      "loudnessNormalization" : true,
      "sourceTracks" : [
        {
          "range" : [0, 1795072],
          "type" : 0,
          "editRate" : 12800,
          "trackRect" : [0, 0, 1280, 720],
          "sampleRate" : 25,
          "bitDepth" : 24,
          "numChannels" : 0,
          "integratedLUFS" : 100.0,
          "peakLevel" : -1.0,
          "metaData" : ""
        },
        {
          "range" : [0, 6184960],
          "type" : 2,
          "editRate" : 44100,
          "trackRect" : [0, 0, 0, 0],
          "sampleRate" : 44100,
          "bitDepth" : 16,
          "numChannels" : 2,
          "integratedLUFS" : -11.4861641249583,
          "peakLevel" : 0.993310630321503,
          "metaData" : ""
        }
      ],
      "metadata" : {
        "timeAdded" : "20231121T163435.344038"
      }
    },
    {
      "id" : 47,
      "src" : "D:\\Kuliah\\UPB\\Pancasila\\Pertemuan 4\\Tugas\\x2mate.com-FREE FOOTAGE HD _ DRONE DJI MAVIC _ SAWAH-(1080p).mp4",
      "rect" : [0, 0, 1920, 1080],
      "lastMod" : "20231121T163738",
      "loudnessNormalization" : true,
      "sourceTracks" : [
        {
          "range" : [0, 20388],
          "type" : 0,
          "editRate" : 1000,
          "trackRect" : [0, 0, 1920, 1080],
          "sampleRate" : "2997/100",
          "bitDepth" : 24,
          "numChannels" : 0,
          "integratedLUFS" : 100.0,
          "peakLevel" : -1.0,
          "metaData" : ""
        },
        {
          "range" : [0, 20364],
          "type" : 2,
          "editRate" : 1000,
          "trackRect" : [0, 0, 0, 0],
          "sampleRate" : 44100,
          "bitDepth" : 16,
          "numChannels" : 2,
          "integratedLUFS" : -1.79769313486232e+308,
          "peakLevel" : 0.0,
          "metaData" : ""
        }
      ],
      "metadata" : {
        "timeAdded" : "20231121T163746.277817"
      }
    },
    {
      "id" : 48,
      "src" : "D:\\Kuliah\\UPB\\Pancasila\\Pertemuan 4\\Tugas\\x2mate.com-KEMBALI PADA KARAKTER DAN JATI DIRI BANGSA-(480p).mp4",
      "rect" : [0, 0, 854, 480],
      "lastMod" : "20231121T164444",
      "loudnessNormalization" : true,
      "sourceTracks" : [
        {
          "range" : [0, 799240],
          "type" : 0,
          "editRate" : 1000,
          "trackRect" : [0, 0, 854, 480],
          "sampleRate" : 25,
          "bitDepth" : 24,
          "numChannels" : 0,
          "integratedLUFS" : 100.0,
          "peakLevel" : -1.0,
          "metaData" : ""
        },
        {
          "range" : [0, 799185],
          "type" : 2,
          "editRate" : 1000,
          "trackRect" : [0, 0, 0, 0],
          "sampleRate" : 44100,
          "bitDepth" : 16,
          "numChannels" : 2,
          "integratedLUFS" : -14.7521634790239,
          "peakLevel" : 1.04071700572968,
          "metaData" : ""
        }
      ],
      "metadata" : {
        "timeAdded" : "20231121T164451.120022"
      }
    },
    {
      "id" : 49,
      "src" : "D:\\Kuliah\\UPB\\Pancasila\\Pertemuan 4\\Tugas\\LOGO_UPB_NEW-1.png",
      "rect" : [0, 0, 850, 770],
      "lastMod" : "20231121T164956",
      "loudnessNormalization" : true,
      "sourceTracks" : [
        {
          "range" : [0, 1],
          "type" : 1,
          "editRate" : 10000000,
          "trackRect" : [0, 0, 850, 770],
          "sampleRate" : 0,
          "bitDepth" : 32,
          "numChannels" : 0,
          "integratedLUFS" : 100.0,
          "peakLevel" : -1.0,
          "metaData" : ""
        }
      ],
      "metadata" : {
        "timeAdded" : "20231121T165000.977091"
      }
    },
    {
      "id" : 50,
      "src" : "D:\\Kuliah\\UPB\\Pancasila\\Pertemuan 4\\Tugas\\x2mate.com - Swish, Swoosh, Cutscene Sound Effect (128 kbps).mp3",
      "rect" : [0, 0, 0, 0],
      "lastMod" : "20231121T170050",
      "loudnessNormalization" : true,
      "sourceTracks" : [
        {
          "range" : [0, 125760000],
          "type" : 2,
          "editRate" : 10000000,
          "trackRect" : [0, 0, 0, 0],
          "sampleRate" : 48000,
          "bitDepth" : 0,
          "numChannels" : 2,
          "integratedLUFS" : -20.1021595534794,
          "peakLevel" : 0.547850489616394,
          "metaData" : ""
        }
      ],
      "metadata" : {
        "timeAdded" : "20231121T170111.416963"
      }
    },
    {
      "id" : 51,
      "src" : "D:\\Kuliah\\UPB\\Pancasila\\Pertemuan 4\\Tugas\\312310232 GILANG PRAYOGA copy2.png",
      "rect" : [0, 0, 365, 965],
      "lastMod" : "20231121T173136",
      "loudnessNormalization" : true,
      "sourceTracks" : [
        {
          "range" : [0, 1],
          "type" : 1,
          "editRate" : 10000000,
          "trackRect" : [0, 0, 365, 965],
          "sampleRate" : 0,
          "bitDepth" : 32,
          "numChannels" : 0,
          "integratedLUFS" : 100.0,
          "peakLevel" : -1.0,
          "metaData" : ""
        }
      ],
      "metadata" : {
        "timeAdded" : "20231121T173150.643787"
      }
    }
  ],
  "timeline" : {
    "id" : 52,
    "sceneTrack" : {
      "scenes" : [
        {
          "csml" : {
            "tracks" : [
              {
                "trackIndex" : 0,
                "medias" : [
                  {
                    "id" : 53,
                    "_type" : "UnifiedMedia",
                    "video" : 
                        {
                          "id" : 54,
                          "_type" : "VMFile",
                          "src" : 2,
                          "trackNumber" : 0,
                          "attributes" : {
                            "ident" : "y2mate.com - Vintage Film or Old Film or Super 8mm Free Overlay and Sound Effect No Copyright_1080p"
                          },
                          "parameters" : {
                            "sourceCrop0" : 0.0,
                            "sourceCrop1" : 0.0,
                            "sourceCrop2" : 0.0,
                            "sourceCrop3" : 0.0,
                            "geometryCrop0" : 0.0,
                            "geometryCrop1" : 0.0,
                            "geometryCrop2" : 0.0,
                            "geometryCrop3" : 0.0
                          },
                          "effects" : [

                          ],
                          "start" : 0,
                          "duration" : 3981,
                          "mediaStart" : 195,
                          "mediaDuration" : 3981,
                          "scalar" : 1,
                          "animationTracks" : {

                          }
                        },
                    "audio" : 
                        {
                          "id" : 55,
                          "_type" : "AMFile",
                          "src" : 2,
                          "trackNumber" : 1,
                          "attributes" : {
                            "ident" : "",
                            "gain" : 0.1,
                            "mixToMono" : false,
                            "loudnessNormalization" : true,
                            "sourceFileOffset" : 0
                          },
                            "channelNumber" : "0,1",
                          "effects" : [

                          ],
                          "start" : 0,
                          "duration" : 3981,
                          "mediaStart" : 195,
                          "mediaDuration" : 3981,
                          "scalar" : 1,
                          "animationTracks" : {

                          }
                        }
,
                    "start" : 0,
                    "duration" : 3981,
                    "mediaStart" : 0,
                    "mediaDuration" : 4176,
                    "scalar" : 1,
                    "metadata" : {
                      "clipSpeedAttribute" : false
                    }
                  }
                ]
              },
              {
                "trackIndex" : 1,
                "medias" : [
                  {
                    "id" : 56,
                    "_type" : "UnifiedMedia",
                    "video" : 
                        {
                          "id" : 57,
                          "_type" : "VMFile",
                          "src" : 6,
                          "trackNumber" : 0,
                          "attributes" : {
                            "ident" : "y2mate.com - Stop Motion Crumpled Paper Texture Background_1080p"
                          },
                          "parameters" : {
                            "sourceCrop0" : 0.0,
                            "sourceCrop1" : 0.0,
                            "sourceCrop2" : 0.0,
                            "sourceCrop3" : 0.0,
                            "geometryCrop0" : 0.0,
                            "geometryCrop1" : 0.0,
                            "geometryCrop2" : 0.0,
                            "geometryCrop3" : 0.0
                          },
                          "effects" : [

                          ],
                          "start" : 0,
                          "duration" : 1501,
                          "mediaStart" : 0,
                          "mediaDuration" : 1501,
                          "scalar" : 1,
                          "animationTracks" : {

                          }
                        },
                    "audio" : 
                        {
                          "id" : 58,
                          "_type" : "AMFile",
                          "src" : 6,
                          "trackNumber" : 1,
                          "attributes" : {
                            "ident" : "",
                            "gain" : 1.0,
                            "mixToMono" : false,
                            "loudnessNormalization" : true,
                            "sourceFileOffset" : 0
                          },
                            "channelNumber" : "0,1",
                          "effects" : [

                          ],
                          "start" : 0,
                          "duration" : 1501,
                          "mediaStart" : 0,
                          "mediaDuration" : 1501,
                          "scalar" : 1,
                          "animationTracks" : {

                          }
                        }
,
                    "start" : 0,
                    "duration" : 1501,
                    "mediaStart" : 0,
                    "mediaDuration" : 1501,
                    "scalar" : 1,
                    "metadata" : {
                      "clipSpeedAttribute" : false
                    }
                  }
                ]
              },
              {
                "trackIndex" : 2,
                "medias" : [
                  {
                    "id" : 59,
                    "_type" : "Callout",
                    "def" : {
                      "kind" : "remix",
                      "shape" : "text",
                      "style" : "basic",
                      "enable-ligatures" : 1.0,
                      "height" : 563.333333333333,
                      "line-spacing" : 0.23,
                      "width" : 1500.0,
                      "word-wrap" : 1.0,
                      "horizontal-alignment" : "center",
                      "resize-behavior" : "resizeText",
                      "text" : "Persatuan Indonesia \rdalam\rPANCASILA",
                      "vertical-alignment" : "center",
                      "font" : {
                        "color-blue" : 1.0,
                        "color-green" : 1.0,
                        "color-red" : 1.0,
                        "size" : 64.0,
                        "tracking" : 0.0,
                        "name" : "Montserrat",
                        "weight" : "Regular"
                      },
                      "textAttributes" : {
                        "type" : "textAttributeList",
                        "keyframes" : [
                          {
                            "endTime" : 0,
                            "time" : 0,
                            "value" : [{"name":"kerning","rangeEnd":36,"rangeStart":0,"value":0,"valueType":"double"},{"name":"fgColor","rangeEnd":36,"rangeStart":0,"value":"(0,0,0,255)","valueType":"color"},{"name":"fontSize","rangeEnd":36,"rangeStart":0,"value":158,"valueType":"double"},{"name":"strikethrough","rangeEnd":36,"rangeStart":0,"value":0,"valueType":"int"},{"name":"fontWeight","rangeEnd":36,"rangeStart":0,"value":700,"valueType":"int"},{"name":"fontName","rangeEnd":36,"rangeStart":0,"value":"JMH Typewriter","valueType":"string"},{"name":"fontItalic","rangeEnd":36,"rangeStart":0,"value":0,"valueType":"int"},{"name":"underline","rangeEnd":36,"rangeStart":0,"value":0,"valueType":"int"}],
                            "duration" : 0
                          }
                        ]
                      }
                    },
                    "attributes" : {
                      "ident" : "",
                      "autoRotateText" : true
                    },
                    "parameters" : {
                      "translation0" : -23.3333333333333,
                      "translation1" : 32.5555555555557,
                      "sourceCrop0" : 0.0,
                      "sourceCrop1" : 0.0,
                      "sourceCrop2" : 0.0,
                      "sourceCrop3" : 0.0,
                      "geometryCrop0" : 0.0,
                      "geometryCrop1" : 0.0,
                      "geometryCrop2" : 0.0,
                      "geometryCrop3" : 0.0
                    },
                    "effects" : [
                        {
                          "_type" : "GenericBehaviorEffect",
                          "effectName" : "reveal",
                          "bypassed" : false,
                          "start" : 0,
                          "duration" : 503                        ,
                          "in" : {
                            "attributes" : {
                              "name" : "sliding",
                              "type" : 0,
                              "characterOrder" : 7,
                              "offsetBetweenCharacters" : "3/2",
                              "suggestedDurationPerCharacter" : 30,
                              "overlapProportion" : "11/20",
                              "movement" : 16,
                              "springDamping" : 5.0,
                              "springStiffness" : 50.0,
                              "bounceBounciness" : 0.45
                            },
                            "parameters" : {
                              "direction" : {
                                "type" : "int",
                                "valueBounds" : {
                                  "minValue" : 0,
                                  "maxValue" : 3,
                                  "defaultValue" : 0
                                },
                                "uiHints" : {
                                  "userInterfaceType" : 2,
                                  "unitType" : 0
                                },
                                "keyframes" : [
                                  {
                                    "endTime" : 0,
                                    "time" : 0,
                                    "value" : 3,
                                    "duration" : 0
                                  }
                                ]
                              }
                            }
                          
                          },
                          "center" : {
                            "attributes" : {
                              "name" : "shifting",
                              "type" : 0,
                              "characterOrder" : 3,
                              "offsetBetweenCharacters" : 0,
                              "secondsPerLoop" : "11/50",
                              "numberOfLoops" : -1,
                              "delayBetweenLoops" : 0
                            },
                            "parameters" : {
                              "movement" : {
                                "type" : "int",
                                "valueBounds" : {
                                  "minValue" : 0,
                                  "maxValue" : 31,
                                  "defaultValue" : 12
                                },
                                "uiHints" : {
                                  "userInterfaceType" : 4,
                                  "unitType" : 0
                                },
                                "keyframes" : [
                                  {
                                    "endTime" : 0,
                                    "time" : 0,
                                    "value" : 23,
                                    "duration" : 0
                                  }
                                ]
                              },
                              "shift" : {
                                "type" : "double",
                                "defaultValue" : 1.66333333333333,
                                "valueBounds" : {
                                  "minValue" : 0.0,
                                  "maxValue" : 100.0,
                                  "defaultValue" : 5.0
                                },
                                "uiHints" : {
                                  "userInterfaceType" : 1,
                                  "unitType" : 0
                                }
                              }
                            }
                          
                          },
                          "out" : {
                            "attributes" : {
                              "name" : "drop",
                              "type" : 0,
                              "characterOrder" : 6,
                              "offsetBetweenCharacters" : "5/2",
                              "suggestedDurationPerCharacter" : 15,
                              "overlapProportion" : "1/5",
                              "movement" : 0,
                              "springDamping" : 5.0,
                              "springStiffness" : 50.0,
                              "bounceBounciness" : 0.45
                            },
                            "parameters" : {
                              "direction" : {
                                "type" : "int",
                                "valueBounds" : {
                                  "minValue" : 0,
                                  "maxValue" : 3,
                                  "defaultValue" : 3
                                },
                                "uiHints" : {
                                  "userInterfaceType" : 2,
                                  "unitType" : 0
                                },
                                "keyframes" : [
                                  {
                                    "endTime" : 0,
                                    "time" : 0,
                                    "value" : 0,
                                    "duration" : 0
                                  }
                                ]
                              }
                            }
                          
                          },
                          "metadata" : {
                            "default-behavior-center-delay" : 0.0,
                            "default-behavior-center-movement" : 12,
                            "default-behavior-center-secondsperloop" : 3.17,
                            "default-behavior-center-shift" : 5.0,
                            "default-behavior-center-style" : "reveal",
                            "default-behavior-center-type" : 1.0,
                            "default-behavior-in-direction" : 0,
                            "default-behavior-in-style" : "reveal",
                            "default-behavior-in-type" : 1.0,
                            "default-behavior-out-direction" : 3,
                            "default-behavior-out-movement" : 6.0,
                            "default-behavior-out-style" : "reveal",
                            "default-behavior-out-type" : 1.0,
                            "presetName" : "Reveal"
                          }
                        }
                    ],
                    "start" : 0,
                    "duration" : 503,
                    "mediaStart" : 0,
                    "mediaDuration" : 503,
                    "scalar" : 1,
                    "metadata" : {
                      "clipSpeedAttribute" : false,
                      "default-HAlign" : "center",
                      "default-LineSpace" : 0.0,
                      "default-VAlign" : "center",
                      "default-height" : 378.888888888889,
                      "default-text-attributes" : "[{\"name\":\"fontName\",\"rangeEnd\":44,\"rangeStart\":0,\"value\":\"Bernard MT Condensed\",\"valueType\":\"string\"},{\"name\":\"kerning\",\"rangeEnd\":44,\"rangeStart\":0,\"value\":0,\"valueType\":\"double\"},{\"name\":\"fgColor\",\"rangeEnd\":44,\"rangeStart\":0,\"value\":\"(0,0,0,255)\",\"valueType\":\"color\"},{\"name\":\"strikethrough\",\"rangeEnd\":44,\"rangeStart\":0,\"value\":0,\"valueType\":\"int\"},{\"name\":\"underline\",\"rangeEnd\":44,\"rangeStart\":0,\"value\":0,\"valueType\":\"int\"},{\"name\":\"fontItalic\",\"rangeEnd\":44,\"rangeStart\":0,\"value\":0,\"valueType\":\"int\"},{\"name\":\"fontSize\",\"rangeEnd\":44,\"rangeStart\":0,\"value\":158,\"valueType\":\"double\"},{\"name\":\"fontWeight\",\"rangeEnd\":44,\"rangeStart\":0,\"value\":400,\"valueType\":\"int\"}]",
                      "default-translation0" : 0.0,
                      "default-translation1" : 0.0,
                      "default-width" : 855.555555555556
                    },
                    "animationTracks" : {

                    }
                  },
                  {
                    "id" : 60,
                    "_type" : "UnifiedMedia",
                    "video" : 
                        {
                          "id" : 61,
                          "_type" : "VMFile",
                          "src" : 18,
                          "trackNumber" : 0,
                          "attributes" : {
                            "ident" : "y2mate.com - Simple grid squares pattern in blue white color  4K animated motion background_720p"
                          },
                          "parameters" : {
                            "scale0" : 1.5,
                            "scale1" : 1.5,
                            "sourceCrop0" : 0.0,
                            "sourceCrop1" : 0.0,
                            "sourceCrop2" : 0.0,
                            "sourceCrop3" : 0.0,
                            "geometryCrop0" : 0.0,
                            "geometryCrop1" : 0.0,
                            "geometryCrop2" : 0.0,
                            "geometryCrop3" : 0.0
                          },
                          "effects" : [

                          ],
                          "start" : 503,
                          "duration" : 11775,
                          "mediaStart" : 0,
                          "mediaDuration" : 11775,
                          "scalar" : 1,
                          "animationTracks" : {

                          }
                        },
                    "audio" : 
                        {
                          "id" : 62,
                          "_type" : "AMFile",
                          "src" : 18,
                          "trackNumber" : 1,
                          "attributes" : {
                            "ident" : "",
                            "gain" : 1.0,
                            "mixToMono" : false,
                            "loudnessNormalization" : true,
                            "sourceFileOffset" : 0
                          },
                            "channelNumber" : "0,1",
                          "effects" : [

                          ],
                          "start" : 503,
                          "duration" : 11775,
                          "mediaStart" : 0,
                          "mediaDuration" : 11775,
                          "scalar" : 1,
                          "animationTracks" : {

                          }
                        }
,
                    "start" : 503,
                    "duration" : 11775,
                    "mediaStart" : 0,
                    "mediaDuration" : 14800,
                    "scalar" : 1,
                    "metadata" : {
                      "clipSpeedAttribute" : false,
                      "default-height" : 720.0,
                      "default-scale0" : 1.0,
                      "default-scale1" : 1.0,
                      "default-width" : 1280.0
                    }
                  }
                ],
                "transitions" : [
                  {
                    "name" : "FadeThroughBlack",
                    "duration" : 83,
                    "leftMedia" : 60,
                    "attributes" : {
                      "Color-blue" : 0.0,
                      "Color-green" : 0.0,
                      "Color-red" : 0.0,
                      "bypass" : false,
                      "reverse" : false,
                      "trivial" : false,
                      "useAudioPreRoll" : true,
                      "useVisualPreRoll" : true
                    }

                  }
                ]
              },
              {
                "trackIndex" : 3,
                "medias" : [
                  {
                    "id" : 63,
                    "_type" : "AMFile",
                    "src" : 3,
                    "trackNumber" : 0,
                    "attributes" : {
                      "ident" : "y2mate.com - Pencil sound effect",
                      "gain" : 1.0,
                      "mixToMono" : false,
                      "loudnessNormalization" : true,
                      "sourceFileOffset" : 0
                    },
                      "channelNumber" : "0,1",
                    "effects" : [

                    ],
                    "start" : 23,
                    "duration" : 115,
                    "mediaStart" : 0,
                    "mediaDuration" : 115,
                    "scalar" : 1,
                    "metadata" : {
                      "clipSpeedAttribute" : false
                    },
                    "animationTracks" : {

                    }
                  },
                  {
                    "id" : 64,
                    "_type" : "IMFile",
                    "src" : 17,
                    "trackNumber" : 0,
                    "trimStartSum" : 0,
                    "attributes" : {
                      "ident" : "1200px-Indonesia_Ethnic_Groups_Map_id.svg"
                    },
                    "parameters" : {
                      "scale0" : {
                        "type" : "double",
                        "defaultValue" : 1.0,
                        "keyframes" : [
                          {
                            "endTime" : 112,
                            "time" : 100,
                            "value" : 1.6,
                            "duration" : 12
                          }
                        ]
                      },
                      "scale1" : {
                        "type" : "double",
                        "defaultValue" : 1.0,
                        "keyframes" : [
                          {
                            "endTime" : 112,
                            "time" : 100,
                            "value" : 1.6,
                            "duration" : 12
                          }
                        ]
                      },
                      "sourceCrop0" : 0.0,
                      "sourceCrop1" : 0.0,
                      "sourceCrop2" : 0.0,
                      "sourceCrop3" : 0.0,
                      "geometryCrop0" : 0.0,
                      "geometryCrop1" : 0.0,
                      "geometryCrop2" : 0.0,
                      "geometryCrop3" : 0.0
                    },
                    "effects" : [
                        {
                          "_type" : "GenericBehaviorEffect",
                          "effectName" : "reveal",
                          "bypassed" : false,
                          "start" : 0,
                          "duration" : 1269                        ,
                          "in" : {
                            "attributes" : {
                              "name" : "sliding",
                              "type" : 0,
                              "characterOrder" : 7,
                              "offsetBetweenCharacters" : "3/2",
                              "suggestedDurationPerCharacter" : 30,
                              "overlapProportion" : "11/20",
                              "movement" : 16,
                              "springDamping" : 5.0,
                              "springStiffness" : 50.0,
                              "bounceBounciness" : 0.45
                            },
                            "parameters" : {
                              "direction" : {
                                "type" : "int",
                                "valueBounds" : {
                                  "minValue" : 0,
                                  "maxValue" : 3,
                                  "defaultValue" : 0
                                },
                                "uiHints" : {
                                  "userInterfaceType" : 2,
                                  "unitType" : 0
                                },
                                "keyframes" : [
                                  {
                                    "endTime" : 0,
                                    "time" : 0,
                                    "value" : 3,
                                    "duration" : 0
                                  }
                                ]
                              }
                            }
                          
                          },
                          "center" : {
                            "attributes" : {
                              "name" : "shifting",
                              "type" : 0,
                              "characterOrder" : 3,
                              "offsetBetweenCharacters" : 0,
                              "secondsPerLoop" : "11/50",
                              "numberOfLoops" : -1,
                              "delayBetweenLoops" : 0
                            },
                            "parameters" : {
                              "movement" : {
                                "type" : "int",
                                "valueBounds" : {
                                  "minValue" : 0,
                                  "maxValue" : 31,
                                  "defaultValue" : 12
                                },
                                "uiHints" : {
                                  "userInterfaceType" : 4,
                                  "unitType" : 0
                                },
                                "keyframes" : [
                                  {
                                    "endTime" : 0,
                                    "time" : 0,
                                    "value" : 23,
                                    "duration" : 0
                                  }
                                ]
                              },
                              "shift" : {
                                "type" : "double",
                                "defaultValue" : 1.66333333333333,
                                "valueBounds" : {
                                  "minValue" : 0.0,
                                  "maxValue" : 100.0,
                                  "defaultValue" : 5.0
                                },
                                "uiHints" : {
                                  "userInterfaceType" : 1,
                                  "unitType" : 0
                                }
                              }
                            }
                          
                          },
                          "out" : {
                            "attributes" : {
                              "name" : "drop",
                              "type" : 0,
                              "characterOrder" : 6,
                              "offsetBetweenCharacters" : "5/2",
                              "suggestedDurationPerCharacter" : 15,
                              "overlapProportion" : "1/5",
                              "movement" : 0,
                              "springDamping" : 5.0,
                              "springStiffness" : 50.0,
                              "bounceBounciness" : 0.45
                            },
                            "parameters" : {
                              "direction" : {
                                "type" : "int",
                                "valueBounds" : {
                                  "minValue" : 0,
                                  "maxValue" : 3,
                                  "defaultValue" : 3
                                },
                                "uiHints" : {
                                  "userInterfaceType" : 2,
                                  "unitType" : 0
                                },
                                "keyframes" : [
                                  {
                                    "endTime" : 0,
                                    "time" : 0,
                                    "value" : 0,
                                    "duration" : 0
                                  }
                                ]
                              }
                            }
                          
                          },
                          "metadata" : {
                            "default-behavior-center-delay" : 0.0,
                            "default-behavior-center-movement" : 12,
                            "default-behavior-center-secondsperloop" : 3.17,
                            "default-behavior-center-shift" : 5.0,
                            "default-behavior-center-style" : "reveal",
                            "default-behavior-center-type" : 1.0,
                            "default-behavior-in-direction" : 0,
                            "default-behavior-in-style" : "reveal",
                            "default-behavior-in-type" : 1.0,
                            "default-behavior-out-direction" : 3,
                            "default-behavior-out-movement" : 6.0,
                            "default-behavior-out-style" : "reveal",
                            "default-behavior-out-type" : 1.0,
                            "presetName" : "Reveal"
                          }
                        }
                    ],
                    "start" : 503,
                    "duration" : 1269,
                    "mediaStart" : 0,
                    "mediaDuration" : 1,
                    "scalar" : 1,
                    "metadata" : {
                      "clipSpeedAttribute" : false,
                      "default-height" : 508.0,
                      "default-scale0" : 1.0,
                      "default-scale1" : 1.0,
                      "default-width" : 1200.0
                    },
                    "animationTracks" : {
                      "visual" : [
                        {
                          "endTime" : 112,
                          "duration" : 12,
                          "range" : [ 100, 12]
                        }
                      ]
                    }
                  },
                  {
                    "id" : 65,
                    "_type" : "IMFile",
                    "src" : 17,
                    "trackNumber" : 0,
                    "trimStartSum" : 32,
                    "attributes" : {
                      "ident" : "1200px-Indonesia_Ethnic_Groups_Map_id.svg"
                    },
                    "parameters" : {
                      "scale0" : {
                        "type" : "double",
                        "defaultValue" : 1.0,
                        "keyframes" : [
                          {
                            "endTime" : 98,
                            "time" : 86,
                            "value" : 1.6,
                            "duration" : 12
                          }
                        ]
                      },
                      "scale1" : {
                        "type" : "double",
                        "defaultValue" : 1.0,
                        "keyframes" : [
                          {
                            "endTime" : 98,
                            "time" : 86,
                            "value" : 1.6,
                            "duration" : 12
                          }
                        ]
                      },
                      "sourceCrop0" : 0.0,
                      "sourceCrop1" : 0.0,
                      "sourceCrop2" : 0.0,
                      "sourceCrop3" : 0.0,
                      "geometryCrop0" : 0.0,
                      "geometryCrop1" : 0.0,
                      "geometryCrop2" : 0.0,
                      "geometryCrop3" : 0.0
                    },
                    "effects" : [
                        {
                          "_type" : "GenericBehaviorEffect",
                          "effectName" : "reveal",
                          "bypassed" : false,
                          "start" : 32,
                          "duration" : 323                        ,
                          "in" : {
                            "attributes" : {
                              "name" : "sliding",
                              "type" : 0,
                              "characterOrder" : 7,
                              "offsetBetweenCharacters" : "3/2",
                              "suggestedDurationPerCharacter" : 30,
                              "overlapProportion" : "11/20",
                              "movement" : 16,
                              "springDamping" : 5.0,
                              "springStiffness" : 50.0,
                              "bounceBounciness" : 0.45
                            },
                            "parameters" : {
                              "direction" : {
                                "type" : "int",
                                "valueBounds" : {
                                  "minValue" : 0,
                                  "maxValue" : 3,
                                  "defaultValue" : 0
                                },
                                "uiHints" : {
                                  "userInterfaceType" : 2,
                                  "unitType" : 0
                                },
                                "keyframes" : [
                                  {
                                    "endTime" : 0,
                                    "time" : 0,
                                    "value" : 3,
                                    "duration" : 0
                                  }
                                ]
                              }
                            }
                          
                          },
                          "center" : {
                            "attributes" : {
                              "name" : "shifting",
                              "type" : 0,
                              "characterOrder" : 3,
                              "offsetBetweenCharacters" : 0,
                              "secondsPerLoop" : "11/50",
                              "numberOfLoops" : -1,
                              "delayBetweenLoops" : 0
                            },
                            "parameters" : {
                              "movement" : {
                                "type" : "int",
                                "valueBounds" : {
                                  "minValue" : 0,
                                  "maxValue" : 31,
                                  "defaultValue" : 12
                                },
                                "uiHints" : {
                                  "userInterfaceType" : 4,
                                  "unitType" : 0
                                },
                                "keyframes" : [
                                  {
                                    "endTime" : 0,
                                    "time" : 0,
                                    "value" : 23,
                                    "duration" : 0
                                  }
                                ]
                              },
                              "shift" : {
                                "type" : "double",
                                "defaultValue" : 1.66333333333333,
                                "valueBounds" : {
                                  "minValue" : 0.0,
                                  "maxValue" : 100.0,
                                  "defaultValue" : 5.0
                                },
                                "uiHints" : {
                                  "userInterfaceType" : 1,
                                  "unitType" : 0
                                }
                              }
                            }
                          
                          },
                          "out" : {
                            "attributes" : {
                              "name" : "drop",
                              "type" : 0,
                              "characterOrder" : 6,
                              "offsetBetweenCharacters" : "5/2",
                              "suggestedDurationPerCharacter" : 15,
                              "overlapProportion" : "1/5",
                              "movement" : 0,
                              "springDamping" : 5.0,
                              "springStiffness" : 50.0,
                              "bounceBounciness" : 0.45
                            },
                            "parameters" : {
                              "direction" : {
                                "type" : "int",
                                "valueBounds" : {
                                  "minValue" : 0,
                                  "maxValue" : 3,
                                  "defaultValue" : 3
                                },
                                "uiHints" : {
                                  "userInterfaceType" : 2,
                                  "unitType" : 0
                                },
                                "keyframes" : [
                                  {
                                    "endTime" : 0,
                                    "time" : 0,
                                    "value" : 0,
                                    "duration" : 0
                                  }
                                ]
                              }
                            }
                          
                          },
                          "metadata" : {
                            "default-behavior-center-delay" : 0.0,
                            "default-behavior-center-movement" : 12,
                            "default-behavior-center-secondsperloop" : 3.17,
                            "default-behavior-center-shift" : 5.0,
                            "default-behavior-center-style" : "reveal",
                            "default-behavior-center-type" : 1.0,
                            "default-behavior-in-direction" : 0,
                            "default-behavior-in-style" : "reveal",
                            "default-behavior-in-type" : 1.0,
                            "default-behavior-out-direction" : 3,
                            "default-behavior-out-movement" : 6.0,
                            "default-behavior-out-style" : "reveal",
                            "default-behavior-out-type" : 1.0,
                            "presetName" : "Reveal"
                          }
                        }
                    ],
                    "start" : 2410,
                    "duration" : 323,
                    "mediaStart" : 0,
                    "mediaDuration" : 1,
                    "scalar" : 1,
                    "metadata" : {
                      "clipSpeedAttribute" : false,
                      "default-height" : 508.0,
                      "default-scale0" : 1.0,
                      "default-scale1" : 1.0,
                      "default-width" : 1200.0
                    },
                    "animationTracks" : {
                      "visual" : [
                        {
                          "endTime" : 98,
                          "duration" : 12,
                          "range" : [ 86, 12]
                        }
                      ]
                    }
                  }
                ]
              },
              {
                "trackIndex" : 4,
                "medias" : [
                  {
                    "id" : 66,
                    "_type" : "Callout",
                    "def" : {
                      "kind" : "TypeWinHighlighter",
                      "shape" : "",
                      "style" : "",
                      "fill-color-opacity" : 1.0,
                      "fill-invert" : 0.0,
                      "fillColorBlue" : 0.0,
                      "fillColorGreen" : 1.0,
                      "fillColorRed" : 1.0,
                      "height" : 270.0,
                      "width" : 480.0,
                      "filename" : "C:\\Users\\Nandang.Duryat\\AppData\\Local\\TechSmith\\Camtasia Studio\\21.0\\Features\\Tools\\Annotations\\Defaults\\highlighter_100x100.xml",
                      "name" : "",
                      "xmlContent" : "﻿<?xml version=\"1.0\"?>\n\n<Overlay version=\"1.0.1\">\n\n<Overlay_Filename>highlighter_100x100.png</Overlay_Filename>\n<Overlay_Name>Highlighter</Overlay_Name>\n<Text_Top>0</Text_Top>\n<Text_Left>0</Text_Left>\n<Text_Bottom>0</Text_Bottom>\n<Text_Right>0</Text_Right>\n<Fill_Color>1</Fill_Color>\n<Border_Color>0</Border_Color>\n</Overlay>"
                    },
                    "attributes" : {
                      "ident" : "",
                      "autoRotateText" : true
                    },
                    "parameters" : {
                      "translation0" : {
                        "type" : "double",
                        "defaultValue" : -407.777777777778,
                        "keyframes" : [
                          {
                            "endTime" : -97,
                            "time" : -120,
                            "value" : -63.3333333333334,
                            "duration" : 23
                          },
                          {
                            "endTime" : 299,
                            "time" : 272,
                            "value" : -1395.46485260771,
                            "duration" : 27
                          },
                          {
                            "endTime" : 300,
                            "time" : 299,
                            "value" : -1032.22222222222,
                            "duration" : 1
                          }
                        ]
                      },
                      "translation1" : {
                        "type" : "double",
                        "defaultValue" : -163.333333333333,
                        "keyframes" : [
                          {
                            "endTime" : -97,
                            "time" : -120,
                            "value" : -163.333333333333,
                            "duration" : 23
                          },
                          {
                            "endTime" : 299,
                            "time" : 272,
                            "value" : -163.333333333333,
                            "duration" : 27
                          },
                          {
                            "endTime" : 300,
                            "time" : 299,
                            "value" : -163.333333333333,
                            "duration" : 1
                          }
                        ]
                      },
                      "scale0" : {
                        "type" : "double",
                        "defaultValue" : 0.00462962962962972,
                        "keyframes" : [
                          {
                            "endTime" : -97,
                            "time" : -120,
                            "value" : 1.43981481481481,
                            "duration" : 23
                          }
                        ]
                      },
                      "scale1" : {
                        "type" : "double",
                        "defaultValue" : 0.637860082304527,
                        "keyframes" : [
                          {
                            "endTime" : -97,
                            "time" : -120,
                            "value" : 0.637860082304527,
                            "duration" : 23
                          }
                        ]
                      },
                      "sourceCrop0" : 0.0,
                      "sourceCrop1" : 0.0,
                      "sourceCrop2" : 0.0,
                      "sourceCrop3" : 0.0,
                      "geometryCrop0" : 0.0,
                      "geometryCrop1" : 0.0,
                      "geometryCrop2" : 0.0,
                      "geometryCrop3" : 0.0
                    },
                    "effects" : [

                    ],
                    "start" : 8,
                    "duration" : 495,
                    "mediaStart" : -195,
                    "mediaDuration" : 495,
                    "scalar" : 1,
                    "metadata" : {
                      "clipSpeedAttribute" : false,
                      "default-height" : 270.0,
                      "default-scale0" : 1.0,
                      "default-scale1" : 1.0,
                      "default-translation0" : 0.0,
                      "default-translation1" : 0.0,
                      "default-width" : 480.0
                    },
                    "animationTracks" : {
                      "visual" : [
                        {
                          "endTime" : -97,
                          "duration" : 23,
                          "range" : [ -120, 23]
                        },
                        {
                          "endTime" : 299,
                          "duration" : 27,
                          "range" : [ 272, 27]
                        },
                        {
                          "endTime" : 300,
                          "duration" : 1,
                          "range" : [ 299, 1]
                        }
                      ]
                    }
                  },
                  {
                    "id" : 67,
                    "_type" : "AMFile",
                    "src" : 26,
                    "trackNumber" : 0,
                    "attributes" : {
                      "ident" : "raspberrymusic - Politic Campaign",
                      "gain" : 1.0,
                      "mixToMono" : false,
                      "loudnessNormalization" : true,
                      "sourceFileOffset" : 0
                    },
                      "channelNumber" : "0,1",
                    "effects" : [

                    ],
                    "start" : 503,
                    "duration" : 5848,
                    "mediaStart" : 0,
                    "mediaDuration" : 5848,
                    "scalar" : 1,
                    "metadata" : {
                      "clipSpeedAttribute" : false
                    },
                    "animationTracks" : {

                    }
                  }
                ]
              },
              {
                "trackIndex" : 5,
                "medias" : [
                  {
                    "id" : 68,
                    "_type" : "AMFile",
                    "src" : 5,
                    "trackNumber" : 0,
                    "attributes" : {
                      "ident" : "y2mate.com - Type Writer Machine Sound Effect  Royalty Free",
                      "gain" : 0.8,
                      "mixToMono" : false,
                      "loudnessNormalization" : true,
                      "sourceFileOffset" : 0
                    },
                      "channelNumber" : "0,1",
                    "effects" : [

                    ],
                    "start" : 70,
                    "duration" : 252,
                    "mediaStart" : 0,
                    "mediaDuration" : "351036/1163",
                    "scalar" : "1163/1393",
                    "metadata" : {
                      "clipSpeedAttribute" : true
                    },
                    "animationTracks" : {

                    }
                  },
                  {
                    "id" : 69,
                    "_type" : "AMFile",
                    "src" : 16,
                    "trackNumber" : 0,
                    "attributes" : {
                      "ident" : "mp3-output-ttsfree(dot)com",
                      "gain" : 1.0,
                      "mixToMono" : false,
                      "loudnessNormalization" : true,
                      "sourceFileOffset" : 0
                    },
                      "channelNumber" : "0,1",
                    "effects" : [

                    ],
                    "start" : 1772,
                    "duration" : 854,
                    "mediaStart" : 0,
                    "mediaDuration" : 854,
                    "scalar" : 1,
                    "metadata" : {
                      "clipSpeedAttribute" : false
                    },
                    "animationTracks" : {

                    }
                  },
                  {
                    "id" : 70,
                    "_type" : "AMFile",
                    "src" : 16,
                    "trackNumber" : 0,
                    "attributes" : {
                      "ident" : "mp3-output-ttsfree(dot)com",
                      "gain" : 1.0,
                      "mixToMono" : false,
                      "loudnessNormalization" : true,
                      "sourceFileOffset" : 0
                    },
                      "channelNumber" : "0,1",
                    "effects" : [

                    ],
                    "start" : 2678,
                    "duration" : 215,
                    "mediaStart" : 854,
                    "mediaDuration" : 215,
                    "scalar" : 1,
                    "metadata" : {
                      "clipSpeedAttribute" : false
                    },
                    "animationTracks" : {

                    }
                  },
                  {
                    "id" : 71,
                    "_type" : "AMFile",
                    "src" : 9,
                    "trackNumber" : 0,
                    "attributes" : {
                      "ident" : "mp3-output-ttsfree(dot)com (1)",
                      "gain" : 1.0,
                      "mixToMono" : false,
                      "loudnessNormalization" : true,
                      "sourceFileOffset" : 0
                    },
                      "channelNumber" : "0,1",
                    "effects" : [

                    ],
                    "start" : 2961,
                    "duration" : 1150,
                    "mediaStart" : 0,
                    "mediaDuration" : 1150,
                    "scalar" : 1,
                    "metadata" : {
                      "clipSpeedAttribute" : false
                    },
                    "animationTracks" : {

                    }
                  },
                  {
                    "id" : 72,
                    "_type" : "AMFile",
                    "src" : 10,
                    "trackNumber" : 0,
                    "attributes" : {
                      "ident" : "mp3-output-ttsfree(dot)com (2)",
                      "gain" : 1.0,
                      "mixToMono" : false,
                      "loudnessNormalization" : true,
                      "sourceFileOffset" : 0
                    },
                      "channelNumber" : "0,1",
                    "effects" : [

                    ],
                    "start" : 4198,
                    "duration" : 1270,
                    "mediaStart" : 0,
                    "mediaDuration" : 1270,
                    "scalar" : 1,
                    "metadata" : {
                      "clipSpeedAttribute" : false
                    },
                    "animationTracks" : {

                    }
                  },
                  {
                    "id" : 73,
                    "_type" : "AMFile",
                    "src" : 11,
                    "trackNumber" : 0,
                    "attributes" : {
                      "ident" : "mp3-output-ttsfree(dot)com (3)",
                      "gain" : 1.0,
                      "mixToMono" : false,
                      "loudnessNormalization" : true,
                      "sourceFileOffset" : 0
                    },
                      "channelNumber" : "0,1",
                    "effects" : [

                    ],
                    "start" : 5502,
                    "duration" : 1294,
                    "mediaStart" : 0,
                    "mediaDuration" : 1294,
                    "scalar" : 1,
                    "metadata" : {
                      "clipSpeedAttribute" : false
                    },
                    "animationTracks" : {

                    }
                  },
                  {
                    "id" : 74,
                    "_type" : "AMFile",
                    "src" : 13,
                    "trackNumber" : 0,
                    "attributes" : {
                      "ident" : "mp3-output-ttsfree(dot)com (5)",
                      "gain" : 1.0,
                      "mixToMono" : false,
                      "loudnessNormalization" : true,
                      "sourceFileOffset" : 0
                    },
                      "channelNumber" : "0,1",
                    "effects" : [

                    ],
                    "start" : 9658,
                    "duration" : 1522,
                    "mediaStart" : 0,
                    "mediaDuration" : 1522,
                    "scalar" : 1,
                    "metadata" : {
                      "clipSpeedAttribute" : false
                    },
                    "animationTracks" : {

                    }
                  }
                ]
              },
              {
                "trackIndex" : 6,
                "medias" : [
                  {
                    "id" : 75,
                    "_type" : "Callout",
                    "def" : {
                      "kind" : "remix",
                      "shape" : "text",
                      "style" : "basic",
                      "enable-ligatures" : 1.0,
                      "height" : 101.111111111111,
                      "line-spacing" : 0.0,
                      "width" : 1395.55555555556,
                      "word-wrap" : 1.0,
                      "horizontal-alignment" : "center",
                      "resize-behavior" : "resizeText",
                      "text" : "Kelompok 5 - TI.23.C4 UPB",
                      "vertical-alignment" : "center",
                      "font" : {
                        "color-blue" : 1.0,
                        "color-green" : 1.0,
                        "color-red" : 1.0,
                        "size" : 64.0,
                        "tracking" : 0.0,
                        "name" : "Montserrat",
                        "weight" : "Regular"
                      },
                      "textAttributes" : {
                        "type" : "textAttributeList",
                        "keyframes" : [
                          {
                            "endTime" : 0,
                            "time" : 0,
                            "value" : [{"name":"kerning","rangeEnd":25,"rangeStart":0,"value":0,"valueType":"double"},{"name":"fontSize","rangeEnd":25,"rangeStart":0,"value":64,"valueType":"double"},{"name":"underline","rangeEnd":25,"rangeStart":0,"value":0,"valueType":"int"},{"name":"fontName","rangeEnd":25,"rangeStart":0,"value":"1942 report","valueType":"string"},{"name":"fgColor","rangeEnd":25,"rangeStart":0,"value":"(0,0,0,255)","valueType":"color"},{"name":"strikethrough","rangeEnd":25,"rangeStart":0,"value":0,"valueType":"int"},{"name":"fontWeight","rangeEnd":25,"rangeStart":0,"value":700,"valueType":"int"},{"name":"fontItalic","rangeEnd":25,"rangeStart":0,"value":0,"valueType":"int"}],
                            "duration" : 0
                          }
                        ]
                      }
                    },
                    "attributes" : {
                      "ident" : "",
                      "autoRotateText" : true
                    },
                    "parameters" : {
                      "translation0" : -63.1111111111112,
                      "translation1" : -366.222222222222,
                      "sourceCrop0" : 0.0,
                      "sourceCrop1" : 0.0,
                      "sourceCrop2" : 0.0,
                      "sourceCrop3" : 0.0,
                      "geometryCrop0" : 0.0,
                      "geometryCrop1" : 0.0,
                      "geometryCrop2" : 0.0,
                      "geometryCrop3" : 0.0
                    },
                    "effects" : [
                        {
                          "_type" : "GenericBehaviorEffect",
                          "effectName" : "fade",
                          "bypassed" : false,
                          "start" : 0,
                          "duration" : 433                        ,
                          "in" : {
                            "attributes" : {
                              "name" : "fadeIn",
                              "type" : 1,
                              "characterOrder" : 6,
                              "offsetBetweenCharacters" : "1249/100",
                              "suggestedDurationPerCharacter" : 0,
                              "overlapProportion" : 0,
                              "movement" : 0,
                              "springDamping" : 5.0,
                              "springStiffness" : 50.0,
                              "bounceBounciness" : 0.45
                            }
                          
                          },
                          "center" : {
                            "attributes" : {
                              "name" : "none",
                              "type" : 1,
                              "characterOrder" : 6,
                              "offsetBetweenCharacters" : 0,
                              "secondsPerLoop" : 1,
                              "numberOfLoops" : -1,
                              "delayBetweenLoops" : 0
                            }
                          
                          },
                          "out" : {
                            "attributes" : {
                              "name" : "none",
                              "type" : 1,
                              "characterOrder" : 6,
                              "offsetBetweenCharacters" : 0,
                              "suggestedDurationPerCharacter" : 0,
                              "overlapProportion" : 0,
                              "movement" : -1,
                              "springDamping" : 5.0,
                              "springStiffness" : 50.0,
                              "bounceBounciness" : 0.45
                            }
                          
                          },
                          "metadata" : {
                            "default-behavior-in-bounciness" : 0.45,
                            "default-behavior-in-characterorder" : 7.0,
                            "default-behavior-in-duration" : 22.0,
                            "default-behavior-in-movement" : 16.0,
                            "default-behavior-in-offset" : 1.5,
                            "default-behavior-in-style" : "fadeIn",
                            "default-behavior-in-type" : 1.0,
                            "default-behavior-out-style" : "fadeOut",
                            "presetName" : "Fade"
                          }
                        }
                    ],
                    "start" : 70,
                    "duration" : 433,
                    "mediaStart" : 0,
                    "mediaDuration" : 433,
                    "scalar" : 1,
                    "metadata" : {
                      "clipSpeedAttribute" : false,
                      "default-HAlign" : "center",
                      "default-LineSpace" : 0.0,
                      "default-VAlign" : "center",
                      "default-height" : 250.0,
                      "default-text-attributes" : "[{\"name\":\"fgColor\",\"rangeEnd\":25,\"rangeStart\":0,\"value\":\"(0,0,0,255)\",\"valueType\":\"color\"},{\"name\":\"kerning\",\"rangeEnd\":25,\"rangeStart\":0,\"value\":0,\"valueType\":\"double\"},{\"name\":\"underline\",\"rangeEnd\":25,\"rangeStart\":0,\"value\":0,\"valueType\":\"int\"},{\"name\":\"strikethrough\",\"rangeEnd\":25,\"rangeStart\":0,\"value\":0,\"valueType\":\"int\"},{\"name\":\"fontWeight\",\"rangeEnd\":25,\"rangeStart\":0,\"value\":700,\"valueType\":\"int\"},{\"name\":\"fontItalic\",\"rangeEnd\":25,\"rangeStart\":0,\"value\":0,\"valueType\":\"int\"},{\"name\":\"fontName\",\"rangeEnd\":25,\"rangeStart\":0,\"value\":\"Courier New\",\"valueType\":\"string\"},{\"name\":\"fontSize\",\"rangeEnd\":25,\"rangeStart\":0,\"value\":64,\"valueType\":\"double\"}]",
                      "default-translation0" : 0.0,
                      "default-translation1" : 0.0,
                      "default-width" : 400.0
                    },
                    "animationTracks" : {

                    }
                  },
                  {
                    "id" : 76,
                    "_type" : "IMFile",
                    "src" : 27,
                    "trackNumber" : 0,
                    "trimStartSum" : 0,
                    "attributes" : {
                      "ident" : "0_2 (1)"
                    },
                    "parameters" : {
                      "scale0" : 1.0546875,
                      "scale1" : 1.0546875,
                      "sourceCrop0" : 0.0,
                      "sourceCrop1" : 0.0,
                      "sourceCrop2" : 0.0,
                      "sourceCrop3" : 0.0,
                      "geometryCrop0" : 0.0,
                      "geometryCrop1" : 0.0,
                      "geometryCrop2" : 0.0,
                      "geometryCrop3" : 0.0
                    },
                    "effects" : [

                    ],
                    "start" : 2160,
                    "duration" : 250,
                    "mediaStart" : 0,
                    "mediaDuration" : 1,
                    "scalar" : 1,
                    "metadata" : {
                      "clipSpeedAttribute" : false,
                      "default-height" : 1024.0,
                      "default-scale0" : 1.0,
                      "default-scale1" : 1.0,
                      "default-width" : 1024.0
                    },
                    "animationTracks" : {

                    }
                  },
                  {
                    "id" : 77,
                    "_type" : "IMFile",
                    "src" : 30,
                    "trackNumber" : 0,
                    "trimStartSum" : 192,
                    "attributes" : {
                      "ident" : "0_15"
                    },
                    "parameters" : {
                      "sourceCrop0" : 0.0,
                      "sourceCrop1" : 0.0,
                      "sourceCrop2" : 0.0,
                      "sourceCrop3" : 0.0,
                      "geometryCrop0" : 0.0,
                      "geometryCrop1" : 0.0,
                      "geometryCrop2" : 0.0,
                      "geometryCrop3" : 0.0
                    },
                    "effects" : [
                        {
                          "_type" : "GenericBehaviorEffect",
                          "effectName" : "reveal",
                          "bypassed" : false,
                          "start" : 192,
                          "duration" : 219                        ,
                          "in" : {
                            "attributes" : {
                              "name" : "sliding",
                              "type" : 0,
                              "characterOrder" : 7,
                              "offsetBetweenCharacters" : "3/2",
                              "suggestedDurationPerCharacter" : 30,
                              "overlapProportion" : "11/20",
                              "movement" : 16,
                              "springDamping" : 5.0,
                              "springStiffness" : 50.0,
                              "bounceBounciness" : 0.45
                            },
                            "parameters" : {
                              "direction" : {
                                "type" : "int",
                                "valueBounds" : {
                                  "minValue" : 0,
                                  "maxValue" : 3,
                                  "defaultValue" : 0
                                },
                                "uiHints" : {
                                  "userInterfaceType" : 2,
                                  "unitType" : 0
                                },
                                "keyframes" : [
                                  {
                                    "endTime" : 0,
                                    "time" : 0,
                                    "value" : 2,
                                    "duration" : 0
                                  }
                                ]
                              }
                            }
                          
                          },
                          "center" : {
                            "attributes" : {
                              "name" : "shifting",
                              "type" : 0,
                              "characterOrder" : 3,
                              "offsetBetweenCharacters" : 0,
                              "secondsPerLoop" : "11/50",
                              "numberOfLoops" : -1,
                              "delayBetweenLoops" : 0
                            },
                            "parameters" : {
                              "movement" : {
                                "type" : "int",
                                "valueBounds" : {
                                  "minValue" : 0,
                                  "maxValue" : 31,
                                  "defaultValue" : 12
                                },
                                "uiHints" : {
                                  "userInterfaceType" : 4,
                                  "unitType" : 0
                                },
                                "keyframes" : [
                                  {
                                    "endTime" : 0,
                                    "time" : 0,
                                    "value" : 23,
                                    "duration" : 0
                                  }
                                ]
                              },
                              "shift" : {
                                "type" : "double",
                                "defaultValue" : 1.66333333333333,
                                "valueBounds" : {
                                  "minValue" : 0.0,
                                  "maxValue" : 100.0,
                                  "defaultValue" : 5.0
                                },
                                "uiHints" : {
                                  "userInterfaceType" : 1,
                                  "unitType" : 0
                                }
                              }
                            }
                          
                          },
                          "out" : {
                            "attributes" : {
                              "name" : "drop",
                              "type" : 0,
                              "characterOrder" : 6,
                              "offsetBetweenCharacters" : "5/2",
                              "suggestedDurationPerCharacter" : 15,
                              "overlapProportion" : "1/5",
                              "movement" : 0,
                              "springDamping" : 5.0,
                              "springStiffness" : 50.0,
                              "bounceBounciness" : 0.45
                            },
                            "parameters" : {
                              "direction" : {
                                "type" : "int",
                                "valueBounds" : {
                                  "minValue" : 0,
                                  "maxValue" : 3,
                                  "defaultValue" : 3
                                },
                                "uiHints" : {
                                  "userInterfaceType" : 2,
                                  "unitType" : 0
                                },
                                "keyframes" : [
                                  {
                                    "endTime" : 0,
                                    "time" : 0,
                                    "value" : 0,
                                    "duration" : 0
                                  }
                                ]
                              }
                            }
                          
                          },
                          "metadata" : {
                            "default-behavior-center-delay" : 0.0,
                            "default-behavior-center-movement" : 12,
                            "default-behavior-center-secondsperloop" : 3.17,
                            "default-behavior-center-shift" : 5.0,
                            "default-behavior-center-style" : "reveal",
                            "default-behavior-center-type" : 1.0,
                            "default-behavior-in-direction" : 0,
                            "default-behavior-in-style" : "reveal",
                            "default-behavior-in-type" : 1.0,
                            "default-behavior-out-direction" : 3,
                            "default-behavior-out-movement" : 6.0,
                            "default-behavior-out-style" : "reveal",
                            "default-behavior-out-type" : 1.0,
                            "presetName" : "Reveal"
                          }
                        }
                    ],
                    "start" : 2712,
                    "duration" : 219,
                    "mediaStart" : 0,
                    "mediaDuration" : 1,
                    "scalar" : 1,
                    "metadata" : {
                      "clipSpeedAttribute" : false
                    },
                    "animationTracks" : {

                    }
                  },
                  {
                    "id" : 78,
                    "_type" : "IMFile",
                    "src" : 31,
                    "trackNumber" : 0,
                    "trimStartSum" : 15,
                    "attributes" : {
                      "ident" : "0_37"
                    },
                    "parameters" : {
                      "sourceCrop0" : 0.0,
                      "sourceCrop1" : 0.0,
                      "sourceCrop2" : 0.0,
                      "sourceCrop3" : 0.0,
                      "geometryCrop0" : 0.0,
                      "geometryCrop1" : 0.0,
                      "geometryCrop2" : 0.0,
                      "geometryCrop3" : 0.0
                    },
                    "effects" : [

                    ],
                    "start" : 2976,
                    "duration" : 88,
                    "mediaStart" : 0,
                    "mediaDuration" : 1,
                    "scalar" : 1,
                    "metadata" : {
                      "clipSpeedAttribute" : false
                    },
                    "animationTracks" : {

                    }
                  },
                  {
                    "id" : 79,
                    "_type" : "IMFile",
                    "src" : 32,
                    "trackNumber" : 0,
                    "trimStartSum" : 14,
                    "attributes" : {
                      "ident" : "0_2 (1s)"
                    },
                    "parameters" : {
                      "translation1" : -5.6843418860808e-14,
                      "scale0" : 1.0546875,
                      "scale1" : 1.0546875,
                      "sourceCrop0" : 0.0,
                      "sourceCrop1" : 0.0,
                      "sourceCrop2" : 0.0,
                      "sourceCrop3" : 0.0,
                      "geometryCrop0" : 0.0,
                      "geometryCrop1" : 0.0,
                      "geometryCrop2" : 0.0,
                      "geometryCrop3" : 0.0
                    },
                    "effects" : [

                    ],
                    "start" : 3078,
                    "duration" : 93,
                    "mediaStart" : 0,
                    "mediaDuration" : 1,
                    "scalar" : 1,
                    "metadata" : {
                      "clipSpeedAttribute" : false,
                      "default-height" : 1024.0,
                      "default-scale0" : 1.0,
                      "default-scale1" : 1.0,
                      "default-translation0" : 0.0,
                      "default-translation1" : 0.0,
                      "default-width" : 1024.0
                    },
                    "animationTracks" : {

                    }
                  },
                  {
                    "id" : 80,
                    "_type" : "IMFile",
                    "src" : 34,
                    "trackNumber" : 0,
                    "trimStartSum" : 0,
                    "attributes" : {
                      "ident" : "0_1asa"
                    },
                    "parameters" : {
                      "sourceCrop0" : 0.0,
                      "sourceCrop1" : 0.0,
                      "sourceCrop2" : 0.0,
                      "sourceCrop3" : 0.0,
                      "geometryCrop0" : 0.0,
                      "geometryCrop1" : 0.0,
                      "geometryCrop2" : 0.0,
                      "geometryCrop3" : 0.0
                    },
                    "effects" : [

                    ],
                    "start" : 3538,
                    "duration" : 151,
                    "mediaStart" : 0,
                    "mediaDuration" : 1,
                    "scalar" : 1,
                    "metadata" : {
                      "clipSpeedAttribute" : false
                    },
                    "animationTracks" : {

                    }
                  },
                  {
                    "id" : 81,
                    "_type" : "IMFile",
                    "src" : 36,
                    "trackNumber" : 0,
                    "trimStartSum" : 0,
                    "attributes" : {
                      "ident" : "0_2 (1)sdds"
                    },
                    "parameters" : {
                      "sourceCrop0" : 0.0,
                      "sourceCrop1" : 0.0,
                      "sourceCrop2" : 0.0,
                      "sourceCrop3" : 0.0,
                      "geometryCrop0" : 0.0,
                      "geometryCrop1" : 0.0,
                      "geometryCrop2" : 0.0,
                      "geometryCrop3" : 0.0
                    },
                    "effects" : [

                    ],
                    "start" : 3864,
                    "duration" : 300,
                    "mediaStart" : 0,
                    "mediaDuration" : 1,
                    "scalar" : 1,
                    "metadata" : {
                      "clipSpeedAttribute" : false
                    },
                    "animationTracks" : {

                    }
                  },
                  {
                    "id" : 82,
                    "_type" : "IMFile",
                    "src" : 37,
                    "trackNumber" : 0,
                    "trimStartSum" : 125,
                    "attributes" : {
                      "ident" : "0_0sa"
                    },
                    "parameters" : {
                      "sourceCrop0" : 0.0,
                      "sourceCrop1" : 0.0,
                      "sourceCrop2" : 0.0,
                      "sourceCrop3" : 0.0,
                      "geometryCrop0" : 0.0,
                      "geometryCrop1" : 0.0,
                      "geometryCrop2" : 0.0,
                      "geometryCrop3" : 0.0
                    },
                    "effects" : [

                    ],
                    "start" : 4323,
                    "duration" : 175,
                    "mediaStart" : 0,
                    "mediaDuration" : 1,
                    "scalar" : 1,
                    "metadata" : {
                      "clipSpeedAttribute" : false
                    },
                    "animationTracks" : {

                    }
                  },
                  {
                    "id" : 83,
                    "_type" : "IMFile",
                    "src" : 40,
                    "trackNumber" : 0,
                    "trimStartSum" : 0,
                    "attributes" : {
                      "ident" : "0_0saa"
                    },
                    "parameters" : {
                      "sourceCrop0" : {
                        "type" : "double",
                        "defaultValue" : 0.0,
                        "interp" : "eioe"
                      },
                      "sourceCrop1" : {
                        "type" : "double",
                        "defaultValue" : 0.0,
                        "interp" : "eioe"
                      },
                      "sourceCrop2" : {
                        "type" : "double",
                        "defaultValue" : 0.0,
                        "interp" : "eioe"
                      },
                      "sourceCrop3" : {
                        "type" : "double",
                        "defaultValue" : 0.0,
                        "interp" : "eioe"
                      },
                      "geometryCrop0" : {
                        "type" : "double",
                        "defaultValue" : 0.0,
                        "interp" : "eioe"
                      },
                      "geometryCrop1" : {
                        "type" : "double",
                        "defaultValue" : 0.0,
                        "interp" : "eioe"
                      },
                      "geometryCrop2" : {
                        "type" : "double",
                        "defaultValue" : 0.0,
                        "interp" : "eioe"
                      },
                      "geometryCrop3" : {
                        "type" : "double",
                        "defaultValue" : 0.0,
                        "interp" : "eioe"
                      }
                    },
                    "effects" : [

                    ],
                    "start" : 4676,
                    "duration" : 162,
                    "mediaStart" : 0,
                    "mediaDuration" : 1,
                    "scalar" : 1,
                    "metadata" : {
                      "clipSpeedAttribute" : false
                    },
                    "animationTracks" : {

                    }
                  },
                  {
                    "id" : 84,
                    "_type" : "IMFile",
                    "src" : 41,
                    "trackNumber" : 0,
                    "trimStartSum" : 0,
                    "attributes" : {
                      "ident" : "0_2 (1)5"
                    },
                    "parameters" : {
                      "sourceCrop0" : {
                        "type" : "double",
                        "defaultValue" : 0.0,
                        "interp" : "eioe"
                      },
                      "sourceCrop1" : {
                        "type" : "double",
                        "defaultValue" : 0.0,
                        "interp" : "eioe"
                      },
                      "sourceCrop2" : {
                        "type" : "double",
                        "defaultValue" : 0.0,
                        "interp" : "eioe"
                      },
                      "sourceCrop3" : {
                        "type" : "double",
                        "defaultValue" : 0.0,
                        "interp" : "eioe"
                      },
                      "geometryCrop0" : {
                        "type" : "double",
                        "defaultValue" : 0.0,
                        "interp" : "eioe"
                      },
                      "geometryCrop1" : {
                        "type" : "double",
                        "defaultValue" : 0.0,
                        "interp" : "eioe"
                      },
                      "geometryCrop2" : {
                        "type" : "double",
                        "defaultValue" : 0.0,
                        "interp" : "eioe"
                      },
                      "geometryCrop3" : {
                        "type" : "double",
                        "defaultValue" : 0.0,
                        "interp" : "eioe"
                      }
                    },
                    "effects" : [

                    ],
                    "start" : 4851,
                    "duration" : 153,
                    "mediaStart" : 0,
                    "mediaDuration" : 1,
                    "scalar" : 1,
                    "metadata" : {
                      "clipSpeedAttribute" : false
                    },
                    "animationTracks" : {

                    }
                  },
                  {
                    "id" : 85,
                    "_type" : "IMFile",
                    "src" : 44,
                    "trackNumber" : 0,
                    "trimStartSum" : 0,
                    "attributes" : {
                      "ident" : "c3122-belajar2bdari2bkeberagaman_0002"
                    },
                    "parameters" : {
                      "translation1" : {
                        "type" : "double",
                        "defaultValue" : -0.5,
                        "interp" : "eioe"
                      },
                      "sourceCrop0" : {
                        "type" : "double",
                        "defaultValue" : 0.0,
                        "interp" : "eioe"
                      },
                      "sourceCrop1" : {
                        "type" : "double",
                        "defaultValue" : 0.0,
                        "interp" : "eioe"
                      },
                      "sourceCrop2" : {
                        "type" : "double",
                        "defaultValue" : 0.0,
                        "interp" : "eioe"
                      },
                      "sourceCrop3" : {
                        "type" : "double",
                        "defaultValue" : 0.0,
                        "interp" : "eioe"
                      },
                      "geometryCrop0" : {
                        "type" : "double",
                        "defaultValue" : 0.0,
                        "interp" : "eioe"
                      },
                      "geometryCrop1" : {
                        "type" : "double",
                        "defaultValue" : 0.0,
                        "interp" : "eioe"
                      },
                      "geometryCrop2" : {
                        "type" : "double",
                        "defaultValue" : 0.0,
                        "interp" : "eioe"
                      },
                      "geometryCrop3" : {
                        "type" : "double",
                        "defaultValue" : 0.0,
                        "interp" : "eioe"
                      }
                    },
                    "effects" : [

                    ],
                    "start" : 5068,
                    "duration" : 363,
                    "mediaStart" : 0,
                    "mediaDuration" : 1,
                    "scalar" : 1,
                    "metadata" : {
                      "clipSpeedAttribute" : false
                    },
                    "animationTracks" : {

                    }
                  },
                  {
                    "id" : 86,
                    "_type" : "UnifiedMedia",
                    "video" : 
                        {
                          "id" : 87,
                          "_type" : "VMFile",
                          "src" : 46,
                          "trackNumber" : 0,
                          "attributes" : {
                            "ident" : "x2mate.com-FLAG ANIMATION BENDERA MERAH PUTIH GARUDA - Free to Use"
                          },
                          "parameters" : {
                            "scale0" : {
                              "type" : "double",
                              "defaultValue" : 1.5,
                              "interp" : "eioe"
                            },
                            "scale1" : {
                              "type" : "double",
                              "defaultValue" : 1.5,
                              "interp" : "eioe"
                            },
                            "sourceCrop0" : {
                              "type" : "double",
                              "defaultValue" : 0.0,
                              "interp" : "eioe"
                            },
                            "sourceCrop1" : {
                              "type" : "double",
                              "defaultValue" : 0.0,
                              "interp" : "eioe"
                            },
                            "sourceCrop2" : {
                              "type" : "double",
                              "defaultValue" : 0.0,
                              "interp" : "eioe"
                            },
                            "sourceCrop3" : {
                              "type" : "double",
                              "defaultValue" : 0.0,
                              "interp" : "eioe"
                            },
                            "geometryCrop0" : {
                              "type" : "double",
                              "defaultValue" : 0.0,
                              "interp" : "eioe"
                            },
                            "geometryCrop1" : {
                              "type" : "double",
                              "defaultValue" : 0.0,
                              "interp" : "eioe"
                            },
                            "geometryCrop2" : {
                              "type" : "double",
                              "defaultValue" : 0.0,
                              "interp" : "eioe"
                            },
                            "geometryCrop3" : {
                              "type" : "double",
                              "defaultValue" : 0.0,
                              "interp" : "eioe"
                            }
                          },
                          "effects" : [

                          ],
                          "start" : 5502,
                          "duration" : 1199,
                          "mediaStart" : 693,
                          "mediaDuration" : 1199,
                          "scalar" : 1,
                          "animationTracks" : {

                          }
                        },
                    "audio" : 
                        {
                          "id" : 88,
                          "_type" : "AMFile",
                          "src" : 46,
                          "trackNumber" : 1,
                          "attributes" : {
                            "ident" : "",
                            "gain" : 1.0,
                            "mixToMono" : false,
                            "loudnessNormalization" : true,
                            "sourceFileOffset" : 0
                          },
                            "channelNumber" : "0,1",
                          "parameters" : {
                            "volume" : 0.0
                          },
                          "effects" : [

                          ],
                          "start" : 5502,
                          "duration" : 1199,
                          "mediaStart" : 693,
                          "mediaDuration" : 1199,
                          "scalar" : 1,
                          "animationTracks" : {

                          }
                        }
,
                    "start" : 5502,
                    "duration" : 1199,
                    "mediaStart" : 0,
                    "mediaDuration" : 8414,
                    "scalar" : 1,
                    "metadata" : {
                      "clipSpeedAttribute" : false,
                      "default-height" : 720.0,
                      "default-scale0" : 1.0,
                      "default-scale1" : 1.0,
                      "default-width" : 1280.0
                    }
                  },
                  {
                    "id" : 89,
                    "_type" : "UnifiedMedia",
                    "video" : 
                        {
                          "id" : 90,
                          "_type" : "VMFile",
                          "src" : 45,
                          "trackNumber" : 0,
                          "attributes" : {
                            "ident" : "x2mate.com-Pembacaan teks proklamasi kemerdekaan Bangsa Indonesia-(480p)"
                          },
                          "parameters" : {
                            "scale0" : {
                              "type" : "double",
                              "defaultValue" : 1.82000669120107,
                              "interp" : "eioe"
                            },
                            "scale1" : {
                              "type" : "double",
                              "defaultValue" : 1.82000669120107,
                              "interp" : "eioe"
                            },
                            "sourceCrop0" : {
                              "type" : "double",
                              "defaultValue" : 0.0,
                              "interp" : "eioe"
                            },
                            "sourceCrop1" : {
                              "type" : "double",
                              "defaultValue" : 0.0,
                              "interp" : "eioe"
                            },
                            "sourceCrop2" : {
                              "type" : "double",
                              "defaultValue" : 0.0,
                              "interp" : "eioe"
                            },
                            "sourceCrop3" : {
                              "type" : "double",
                              "defaultValue" : 0.0,
                              "interp" : "eioe"
                            },
                            "geometryCrop0" : {
                              "type" : "double",
                              "defaultValue" : 0.0,
                              "interp" : "eioe"
                            },
                            "geometryCrop1" : {
                              "type" : "double",
                              "defaultValue" : 0.0,
                              "interp" : "eioe"
                            },
                            "geometryCrop2" : {
                              "type" : "double",
                              "defaultValue" : 0.0,
                              "interp" : "eioe"
                            },
                            "geometryCrop3" : {
                              "type" : "double",
                              "defaultValue" : 0.0,
                              "interp" : "eioe"
                            }
                          },
                          "effects" : [

                          ],
                          "start" : 6701,
                          "duration" : 3260,
                          "mediaStart" : 250,
                          "mediaDuration" : 3260,
                          "scalar" : 1,
                          "animationTracks" : {

                          }
                        },
                    "audio" : 
                        {
                          "id" : 91,
                          "_type" : "AMFile",
                          "src" : 45,
                          "trackNumber" : 1,
                          "attributes" : {
                            "ident" : "",
                            "gain" : 1.0,
                            "mixToMono" : false,
                            "loudnessNormalization" : true,
                            "sourceFileOffset" : 0
                          },
                            "channelNumber" : "0,1",
                          "effects" : [

                          ],
                          "start" : 6701,
                          "duration" : 3260,
                          "mediaStart" : 250,
                          "mediaDuration" : 3260,
                          "scalar" : 1,
                          "animationTracks" : {

                          }
                        }
,
                    "start" : 6701,
                    "duration" : 3260,
                    "mediaStart" : 0,
                    "mediaDuration" : 4108,
                    "scalar" : 1,
                    "metadata" : {
                      "clipSpeedAttribute" : false,
                      "default-height" : 480.0,
                      "default-scale0" : 1.0,
                      "default-scale1" : 1.0,
                      "default-translation0" : 0.0,
                      "default-translation1" : 0.0,
                      "default-width" : 854.0
                    }
                  }
                ],
                "transitions" : [
                  {
                    "name" : "Fade",
                    "duration" : 28,
                    "leftMedia" : 75,
                    "attributes" : {
                      "bypass" : false,
                      "reverse" : false,
                      "trivial" : false,
                      "useAudioPreRoll" : true,
                      "useVisualPreRoll" : true
                    }

                  },
                  {
                    "name" : "Fade",
                    "duration" : 24,
                    "leftMedia" : 85,
                    "attributes" : {
                      "bypass" : false,
                      "reverse" : false,
                      "trivial" : false,
                      "useAudioPreRoll" : true,
                      "useVisualPreRoll" : true
                    }

                  },
                  {
                    "name" : "Fade",
                    "duration" : 60,
                    "rightMedia" : 86,
                    "attributes" : {
                      "bypass" : false,
                      "reverse" : false,
                      "trivial" : false,
                      "useAudioPreRoll" : true,
                      "useVisualPreRoll" : true
                    }

                  },
                  {
                    "name" : "FadeThroughBlack",
                    "duration" : 30,
                    "leftMedia" : 86,
                    "rightMedia" : 89,
                    "attributes" : {
                      "Color-blue" : 0.0,
                      "Color-green" : 0.0,
                      "Color-red" : 0.0,
                      "bypass" : false,
                      "reverse" : false,
                      "trivial" : false,
                      "useAudioPreRoll" : true,
                      "useVisualPreRoll" : true
                    }

                  }
                ]
              },
              {
                "trackIndex" : 7,
                "medias" : [
                  {
                    "id" : 92,
                    "_type" : "Group",
                    "parameters" : {
                      "translation0" : {
                        "type" : "double",
                        "defaultValue" : 1309.06683257335,
                        "keyframes" : [
                          {
                            "endTime" : 22,
                            "time" : 0,
                            "value" : 573.06683257335,
                            "duration" : 22
                          }
                        ]
                      },
                      "translation1" : {
                        "type" : "double",
                        "defaultValue" : -198.222222222222,
                        "keyframes" : [
                          {
                            "endTime" : 22,
                            "time" : 0,
                            "value" : -114.222222222222,
                            "duration" : 22
                          }
                        ]
                      },
                      "rotation2" : {
                        "type" : "double",
                        "defaultValue" : 0.0,
                        "keyframes" : [
                          {
                            "endTime" : 22,
                            "time" : 0,
                            "value" : 0.0,
                            "duration" : 22
                          }
                        ]
                      },
                      "sourceCrop0" : 0.0,
                      "sourceCrop1" : 0.0,
                      "sourceCrop2" : 0.0,
                      "sourceCrop3" : 0.0,
                      "geometryCrop0" : 0.0,
                      "geometryCrop1" : 0.0,
                      "geometryCrop2" : 0.0,
                      "geometryCrop3" : 0.0,
                      "volume" : 1.0
                    },
                    "tracks" : [
                      {
                        "trackIndex" : 0,
                        "medias" : [
                          {
                            "id" : 93,
                            "_type" : "IMFile",
                            "src" : 7,
                            "trackNumber" : 0,
                            "trimStartSum" : 0,
                            "attributes" : {
                              "ident" : "Garuda_Pancasila,_Coat_of_Arms_of_Indonesia.svg"
                            },
                            "parameters" : {
                              "translation0" : 0.444444444444571,
                              "translation1" : -0.333333333333115,
                              "rotation2" : -0.0658387693026938,
                              "scale0" : 0.316612150197854,
                              "scale1" : 0.316612150197854,
                              "sourceCrop0" : 0.0,
                              "sourceCrop1" : 0.0,
                              "sourceCrop2" : 0.0,
                              "sourceCrop3" : 0.0,
                              "geometryCrop0" : 0.0,
                              "geometryCrop1" : 0.0,
                              "geometryCrop2" : 0.0,
                              "geometryCrop3" : 0.0
                            },
                            "effects" : [
                                {
                                  "effectName" : "ColorAdjustment",
                                  "bypassed" : false,
                                  "category" : "categoryVisualEffects",
                                  "parameters" : {
                                    "brightness" : 1.0,
                                    "contrast" : 0.25,
                                    "saturation" : 0.0
                                  },
                                  "metadata" : {
                                    "default-ColorAdjustment_brightness" : 0.64,
                                    "default-ColorAdjustment_contrast" : 3.98,
                                    "default-ColorAdjustment_saturation" : 0.0,
                                    "presetName" : "Color Adjustment"
                                  }
                                }
                            ],
                            "start" : 0,
                            "duration" : 409,
                            "mediaStart" : 0,
                            "mediaDuration" : 1,
                            "scalar" : 1,
                            "metadata" : {
                              "clipSpeedAttribute" : false,
                              "default-height" : 1080.0,
                              "default-rotation2" : 0.0,
                              "default-scale0" : 0.830130668716372,
                              "default-scale1" : 0.830130668716372,
                              "default-translation0" : 0.0,
                              "default-translation1" : 0.0,
                              "default-width" : 996.156802459646
                            },
                            "animationTracks" : {

                            }
                          }
                        ],
                          "ident" : "",
                          "audioMuted" : false,
                          "videoHidden" : false,
                          "magnetic" : false,
                          "matte" : 0,
                          "solo" : false,
                          "metadata" : {
                            "IsLocked" : "False",
                            "WinTrackHeight" : "56"
                          }
                      },
                      {
                        "trackIndex" : 1,
                        "medias" : [
                          {
                            "id" : 94,
                            "_type" : "IMFile",
                            "src" : 7,
                            "trackNumber" : 0,
                            "trimStartSum" : 0,
                            "attributes" : {
                              "ident" : "Garuda_Pancasila,_Coat_of_Arms_of_Indonesia.svg"
                            },
                            "parameters" : {
                              "translation0" : 0.444444444444343,
                              "translation1" : -0.333333333333087,
                              "scale0" : 0.300623452045435,
                              "scale1" : 0.300623452045435,
                              "sourceCrop0" : 0.0,
                              "sourceCrop1" : 0.0,
                              "sourceCrop2" : 0.0,
                              "sourceCrop3" : 0.0,
                              "geometryCrop0" : 0.0,
                              "geometryCrop1" : 0.0,
                              "geometryCrop2" : 0.0,
                              "geometryCrop3" : 0.0
                            },
                            "effects" : [

                            ],
                            "start" : 0,
                            "duration" : 409,
                            "mediaStart" : 0,
                            "mediaDuration" : 1,
                            "scalar" : 1,
                            "metadata" : {
                              "clipSpeedAttribute" : false,
                              "default-height" : 1080.0,
                              "default-scale0" : 0.830130668716372,
                              "default-scale1" : 0.830130668716372,
                              "default-translation0" : 0.0,
                              "default-translation1" : 0.0,
                              "default-width" : 996.156802459646
                            },
                            "animationTracks" : {

                            }
                          }
                        ],
                          "ident" : "",
                          "audioMuted" : false,
                          "videoHidden" : false,
                          "magnetic" : false,
                          "matte" : 0,
                          "solo" : false,
                          "metadata" : {
                            "IsLocked" : "False",
                            "WinTrackHeight" : "56"
                          }
                      }
                    ],
                    "attributes" : {
                      "ident" : "Group 1",
                      "widthAttr" : 408.0,
                      "heightAttr" : 438.0,
                      "gain" : 1.0,
                      "mixToMono" : false,
                      "assetProperties" : [
                      ]
                    },
                    "effects" : [

                    ],
                    "start" : 94,
                    "duration" : 409,
                    "mediaStart" : 0.0,
                    "mediaDuration" : 409.0,
                    "scalar" : 1,
                    "metadata" : {
                      "clipSpeedAttribute" : false,
                      "default-height" : 438.0,
                      "default-rotation2" : 0.0,
                      "default-translation0" : 634.0,
                      "default-translation1" : -163.0,
                      "default-width" : 408.0
                    },
                    "animationTracks" : {
                      "visual" : [
                        {
                          "endTime" : 22,
                          "duration" : 22,
                          "range" : [ 0, 22]
                        }
                      ]
                    }
                  },
                  {
                    "id" : 95,
                    "_type" : "IMFile",
                    "src" : 28,
                    "trackNumber" : 0,
                    "trimStartSum" : 0,
                    "attributes" : {
                      "ident" : "0_01"
                    },
                    "parameters" : {
                      "translation0" : {
                        "type" : "double",
                        "defaultValue" : 0.0,
                        "keyframes" : [
                          {
                            "endTime" : 209,
                            "time" : 0,
                            "value" : 0.0,
                            "interp" : "linr",
                            "duration" : 209
                          }
                        ]
                      },
                      "translation1" : {
                        "type" : "double",
                        "defaultValue" : 0.0,
                        "keyframes" : [
                          {
                            "endTime" : 209,
                            "time" : 0,
                            "value" : 0.0,
                            "interp" : "linr",
                            "duration" : 209
                          }
                        ]
                      },
                      "scale0" : {
                        "type" : "double",
                        "defaultValue" : 1.32352941176471,
                        "keyframes" : [
                          {
                            "endTime" : 209,
                            "time" : 0,
                            "value" : 1.39301874595992,
                            "interp" : "linr",
                            "duration" : 209
                          }
                        ]
                      },
                      "scale1" : {
                        "type" : "double",
                        "defaultValue" : 1.32352941176471,
                        "keyframes" : [
                          {
                            "endTime" : 209,
                            "time" : 0,
                            "value" : 1.39301874595992,
                            "interp" : "linr",
                            "duration" : 209
                          }
                        ]
                      },
                      "sourceCrop0" : 0.0,
                      "sourceCrop1" : 0.0,
                      "sourceCrop2" : 0.0,
                      "sourceCrop3" : 0.0,
                      "geometryCrop0" : 0.0,
                      "geometryCrop1" : 0.0,
                      "geometryCrop2" : 0.0,
                      "geometryCrop3" : 0.0
                    },
                    "effects" : [

                    ],
                    "start" : 1772,
                    "duration" : 209,
                    "mediaStart" : 0,
                    "mediaDuration" : 1,
                    "scalar" : 1,
                    "metadata" : {
                      "clipSpeedAttribute" : false,
                      "default-height" : 816.0,
                      "default-scale0" : 1.0,
                      "default-scale1" : 1.0,
                      "default-translation0" : 0.0,
                      "default-translation1" : 0.0,
                      "default-width" : 1456.0
                    },
                    "animationTracks" : {
                      "visual" : [
                        {
                          "endTime" : 209,
                          "duration" : 209,
                          "range" : [ 0, 209],
                          "interp" : "linr"
                        }
                      ]
                    }
                  },
                  {
                    "id" : 96,
                    "_type" : "IMFile",
                    "src" : 33,
                    "trackNumber" : 0,
                    "trimStartSum" : -17,
                    "attributes" : {
                      "ident" : "0_2 (1dd)"
                    },
                    "parameters" : {
                      "sourceCrop0" : 0.0,
                      "sourceCrop1" : 0.0,
                      "sourceCrop2" : 0.0,
                      "sourceCrop3" : 0.0,
                      "geometryCrop0" : 0.0,
                      "geometryCrop1" : 0.0,
                      "geometryCrop2" : 0.0,
                      "geometryCrop3" : 0.0
                    },
                    "effects" : [

                    ],
                    "start" : 3183,
                    "duration" : 215,
                    "mediaStart" : 0,
                    "mediaDuration" : 1,
                    "scalar" : 1,
                    "metadata" : {
                      "clipSpeedAttribute" : false
                    },
                    "animationTracks" : {

                    }
                  },
                  {
                    "id" : 97,
                    "_type" : "IMFile",
                    "src" : 35,
                    "trackNumber" : 0,
                    "trimStartSum" : 0,
                    "attributes" : {
                      "ident" : "0_1rr"
                    },
                    "parameters" : {
                      "sourceCrop0" : 0.0,
                      "sourceCrop1" : 0.0,
                      "sourceCrop2" : 0.0,
                      "sourceCrop3" : 0.0,
                      "geometryCrop0" : 0.0,
                      "geometryCrop1" : 0.0,
                      "geometryCrop2" : 0.0,
                      "geometryCrop3" : 0.0
                    },
                    "effects" : [

                    ],
                    "start" : 3689,
                    "duration" : 175,
                    "mediaStart" : 0,
                    "mediaDuration" : 1,
                    "scalar" : 1,
                    "metadata" : {
                      "clipSpeedAttribute" : false
                    },
                    "animationTracks" : {

                    }
                  },
                  {
                    "id" : 98,
                    "_type" : "IMFile",
                    "src" : 43,
                    "trackNumber" : 0,
                    "trimStartSum" : 0,
                    "attributes" : {
                      "ident" : "WhatsApp Image 2023-11-21 at 23.20.16"
                    },
                    "parameters" : {
                      "sourceCrop0" : {
                        "type" : "double",
                        "defaultValue" : 0.0,
                        "interp" : "eioe"
                      },
                      "sourceCrop1" : {
                        "type" : "double",
                        "defaultValue" : 0.0,
                        "interp" : "eioe"
                      },
                      "sourceCrop2" : {
                        "type" : "double",
                        "defaultValue" : 0.0,
                        "interp" : "eioe"
                      },
                      "sourceCrop3" : {
                        "type" : "double",
                        "defaultValue" : 0.0,
                        "interp" : "eioe"
                      },
                      "geometryCrop0" : {
                        "type" : "double",
                        "defaultValue" : 0.0,
                        "interp" : "eioe"
                      },
                      "geometryCrop1" : {
                        "type" : "double",
                        "defaultValue" : 0.0,
                        "interp" : "eioe"
                      },
                      "geometryCrop2" : {
                        "type" : "double",
                        "defaultValue" : 0.0,
                        "interp" : "eioe"
                      },
                      "geometryCrop3" : {
                        "type" : "double",
                        "defaultValue" : 0.0,
                        "interp" : "eioe"
                      }
                    },
                    "effects" : [
                        {
                          "effectName" : "LutEffect",
                          "bypassed" : false,
                          "category" : "categoryVisualEffects",
                          "parameters" : {
                            "lutSource" : "Azrael 93.CUBE",
                            "lut_intensity" : {
                              "type" : "double",
                              "defaultValue" : 1.0,
                              "interp" : "linr",
                              "uiHints" : {
                                "userInterfaceType" : 0,
                                "unitType" : 0
                              }
                            }
                          },
                          "metadata" : {
                            "default-LutEffect_lutSource" : "Enhance Contrast (Default).cube",
                            "presetName" : "Color LUT"
                          }
                        }
                    ],
                    "start" : 4524,
                    "duration" : 131,
                    "mediaStart" : 0,
                    "mediaDuration" : 1,
                    "scalar" : 1,
                    "metadata" : {
                      "clipSpeedAttribute" : false
                    },
                    "animationTracks" : {

                    }
                  },
                  {
                    "id" : 99,
                    "_type" : "UnifiedMedia",
                    "video" : 
                        {
                          "id" : 100,
                          "_type" : "VMFile",
                          "src" : 47,
                          "trackNumber" : 0,
                          "attributes" : {
                            "ident" : "x2mate.com-FREE FOOTAGE HD _ DRONE DJI MAVIC _ SAWAH-(1080p)"
                          },
                          "parameters" : {
                            "sourceCrop0" : {
                              "type" : "double",
                              "defaultValue" : 0.0,
                              "interp" : "eioe"
                            },
                            "sourceCrop1" : {
                              "type" : "double",
                              "defaultValue" : 0.0,
                              "interp" : "eioe"
                            },
                            "sourceCrop2" : {
                              "type" : "double",
                              "defaultValue" : 0.0,
                              "interp" : "eioe"
                            },
                            "sourceCrop3" : {
                              "type" : "double",
                              "defaultValue" : 0.0,
                              "interp" : "eioe"
                            },
                            "geometryCrop0" : {
                              "type" : "double",
                              "defaultValue" : 0.0,
                              "interp" : "eioe"
                            },
                            "geometryCrop1" : {
                              "type" : "double",
                              "defaultValue" : 0.0,
                              "interp" : "eioe"
                            },
                            "geometryCrop2" : {
                              "type" : "double",
                              "defaultValue" : 0.0,
                              "interp" : "eioe"
                            },
                            "geometryCrop3" : {
                              "type" : "double",
                              "defaultValue" : 0.0,
                              "interp" : "eioe"
                            }
                          },
                          "effects" : [

                          ],
                          "start" : 5808,
                          "duration" : 747,
                          "mediaStart" : 0,
                          "mediaDuration" : 747,
                          "scalar" : 1,
                          "animationTracks" : {

                          }
                        },
                    "audio" : 
                        {
                          "id" : 101,
                          "_type" : "AMFile",
                          "src" : 47,
                          "trackNumber" : 1,
                          "attributes" : {
                            "ident" : "",
                            "gain" : 1.0,
                            "mixToMono" : false,
                            "loudnessNormalization" : true,
                            "sourceFileOffset" : 0
                          },
                            "channelNumber" : "0,1",
                          "effects" : [

                          ],
                          "start" : 5808,
                          "duration" : 747,
                          "mediaStart" : 0,
                          "mediaDuration" : 747,
                          "scalar" : 1,
                          "animationTracks" : {

                          }
                        }
,
                    "start" : 5808,
                    "duration" : 747,
                    "mediaStart" : 0,
                    "mediaDuration" : 1222,
                    "scalar" : 1,
                    "metadata" : {
                      "clipSpeedAttribute" : false
                    }
                  },
                  {
                    "id" : 102,
                    "_type" : "UnifiedMedia",
                    "video" : 
                        {
                          "id" : 103,
                          "_type" : "VMFile",
                          "src" : 48,
                          "trackNumber" : 0,
                          "attributes" : {
                            "ident" : "x2mate.com-KEMBALI PADA KARAKTER DAN JATI DIRI BANGSA-(480p)"
                          },
                          "parameters" : {
                            "translation0" : {
                              "type" : "double",
                              "defaultValue" : -5.6843418860808e-14,
                              "interp" : "eioe"
                            },
                            "translation1" : {
                              "type" : "double",
                              "defaultValue" : -5.6843418860808e-14,
                              "interp" : "eioe"
                            },
                            "scale0" : {
                              "type" : "double",
                              "defaultValue" : 1.82000669120107,
                              "interp" : "eioe"
                            },
                            "scale1" : {
                              "type" : "double",
                              "defaultValue" : 1.82000669120107,
                              "interp" : "eioe"
                            },
                            "sourceCrop0" : {
                              "type" : "double",
                              "defaultValue" : 0.0,
                              "interp" : "eioe"
                            },
                            "sourceCrop1" : {
                              "type" : "double",
                              "defaultValue" : 0.0,
                              "interp" : "eioe"
                            },
                            "sourceCrop2" : {
                              "type" : "double",
                              "defaultValue" : 0.0,
                              "interp" : "eioe"
                            },
                            "sourceCrop3" : {
                              "type" : "double",
                              "defaultValue" : 0.0,
                              "interp" : "eioe"
                            },
                            "geometryCrop0" : {
                              "type" : "double",
                              "defaultValue" : 0.0,
                              "interp" : "eioe"
                            },
                            "geometryCrop1" : {
                              "type" : "double",
                              "defaultValue" : 0.0,
                              "interp" : "eioe"
                            },
                            "geometryCrop2" : {
                              "type" : "double",
                              "defaultValue" : 0.0,
                              "interp" : "eioe"
                            },
                            "geometryCrop3" : {
                              "type" : "double",
                              "defaultValue" : 0.0,
                              "interp" : "eioe"
                            }
                          },
                          "effects" : [

                          ],
                          "start" : 9961,
                          "duration" : 2284,
                          "mediaStart" : 319,
                          "mediaDuration" : 2284,
                          "scalar" : 1,
                          "animationTracks" : {

                          }
                        },
                    "audio" : 
                        {
                          "id" : 104,
                          "_type" : "AMFile",
                          "src" : 48,
                          "trackNumber" : 1,
                          "attributes" : {
                            "ident" : "",
                            "gain" : 1.0,
                            "mixToMono" : false,
                            "loudnessNormalization" : true,
                            "sourceFileOffset" : 0
                          },
                            "channelNumber" : "0,1",
                          "effects" : [

                          ],
                          "start" : 9961,
                          "duration" : 2284,
                          "mediaStart" : 319,
                          "mediaDuration" : 2284,
                          "scalar" : 1,
                          "animationTracks" : {

                          }
                        }
,
                    "start" : 9961,
                    "duration" : 2284,
                    "mediaStart" : 0,
                    "mediaDuration" : 47950,
                    "scalar" : 1,
                    "metadata" : {
                      "clipSpeedAttribute" : false,
                      "default-height" : 480.0,
                      "default-scale0" : 1.0,
                      "default-scale1" : 1.0,
                      "default-translation0" : 0.0,
                      "default-translation1" : 0.0,
                      "default-width" : 854.0
                    }
                  }
                ],
                "transitions" : [
                  {
                    "name" : "Fade",
                    "duration" : 28,
                    "leftMedia" : 92,
                    "attributes" : {
                      "bypass" : false,
                      "reverse" : false,
                      "trivial" : false,
                      "useAudioPreRoll" : true,
                      "useVisualPreRoll" : true
                    }

                  },
                  {
                    "name" : "Fade",
                    "duration" : 60,
                    "rightMedia" : 99,
                    "attributes" : {
                      "bypass" : false,
                      "reverse" : false,
                      "trivial" : false,
                      "useAudioPreRoll" : true,
                      "useVisualPreRoll" : true
                    }

                  },
                  {
                    "name" : "Fade",
                    "duration" : 60,
                    "leftMedia" : 99,
                    "attributes" : {
                      "bypass" : false,
                      "reverse" : false,
                      "trivial" : false,
                      "useAudioPreRoll" : true,
                      "useVisualPreRoll" : true
                    }

                  },
                  {
                    "name" : "Fade",
                    "duration" : 576,
                    "leftMedia" : 102,
                    "attributes" : {
                      "bypass" : false,
                      "reverse" : false,
                      "trivial" : false,
                      "useAudioPreRoll" : true,
                      "useVisualPreRoll" : true
                    }

                  }
                ]
              },
              {
                "trackIndex" : 8,
                "medias" : [
                  {
                    "id" : 105,
                    "_type" : "UnifiedMedia",
                    "video" : 
                        {
                          "id" : 106,
                          "_type" : "VMFile",
                          "src" : 1,
                          "trackNumber" : 0,
                          "attributes" : {
                            "ident" : "y2mate.com - old film look paper texture  HD overlay_1080p"
                          },
                          "parameters" : {
                            "sourceCrop0" : 0.0,
                            "sourceCrop1" : 0.0,
                            "sourceCrop2" : 0.0,
                            "sourceCrop3" : 0.0,
                            "geometryCrop0" : 0.0,
                            "geometryCrop1" : 0.0,
                            "geometryCrop2" : 0.0,
                            "geometryCrop3" : 0.0,
                            "opacity" : 0.119152542372881
                          },
                          "effects" : [

                          ],
                          "start" : 0,
                          "duration" : 300,
                          "mediaStart" : 0,
                          "mediaDuration" : 300,
                          "scalar" : 1,
                          "animationTracks" : {

                          }
                        },
                    "audio" : 
                        {
                          "id" : 107,
                          "_type" : "AMFile",
                          "src" : 1,
                          "trackNumber" : 1,
                          "attributes" : {
                            "ident" : "",
                            "gain" : 1.0,
                            "mixToMono" : false,
                            "loudnessNormalization" : true,
                            "sourceFileOffset" : 0
                          },
                            "channelNumber" : "0,1",
                          "effects" : [

                          ],
                          "start" : 0,
                          "duration" : 300,
                          "mediaStart" : 0,
                          "mediaDuration" : 300,
                          "scalar" : 1,
                          "animationTracks" : {

                          }
                        }
,
                    "start" : 0,
                    "duration" : 300,
                    "mediaStart" : 0,
                    "mediaDuration" : 300,
                    "scalar" : 1,
                    "metadata" : {
                      "clipSpeedAttribute" : false,
                      "default-height" : 1080.0,
                      "default-opacity" : 1.0,
                      "default-width" : 1920.0
                    }
                  },
                  {
                    "id" : 108,
                    "_type" : "UnifiedMedia",
                    "video" : 
                        {
                          "id" : 109,
                          "_type" : "VMFile",
                          "src" : 1,
                          "trackNumber" : 0,
                          "attributes" : {
                            "ident" : "y2mate.com - old film look paper texture  HD overlay_1080p"
                          },
                          "parameters" : {
                            "sourceCrop0" : 0.0,
                            "sourceCrop1" : 0.0,
                            "sourceCrop2" : 0.0,
                            "sourceCrop3" : 0.0,
                            "geometryCrop0" : 0.0,
                            "geometryCrop1" : 0.0,
                            "geometryCrop2" : 0.0,
                            "geometryCrop3" : 0.0,
                            "opacity" : 0.119152542372881
                          },
                          "effects" : [

                          ],
                          "start" : 300,
                          "duration" : 203,
                          "mediaStart" : 0,
                          "mediaDuration" : 203,
                          "scalar" : 1,
                          "animationTracks" : {

                          }
                        },
                    "audio" : 
                        {
                          "id" : 110,
                          "_type" : "AMFile",
                          "src" : 1,
                          "trackNumber" : 1,
                          "attributes" : {
                            "ident" : "",
                            "gain" : 1.0,
                            "mixToMono" : false,
                            "loudnessNormalization" : true,
                            "sourceFileOffset" : 0
                          },
                            "channelNumber" : "0,1",
                          "effects" : [

                          ],
                          "start" : 300,
                          "duration" : 203,
                          "mediaStart" : 0,
                          "mediaDuration" : 203,
                          "scalar" : 1,
                          "animationTracks" : {

                          }
                        }
,
                    "start" : 300,
                    "duration" : 203,
                    "mediaStart" : 0,
                    "mediaDuration" : 300,
                    "scalar" : 1,
                    "metadata" : {
                      "clipSpeedAttribute" : false,
                      "default-height" : 1080.0,
                      "default-opacity" : 1.0,
                      "default-width" : 1920.0
                    }
                  }
                ]
              },
              {
                "trackIndex" : 9,
                "medias" : [
                  {
                    "id" : 111,
                    "_type" : "IMFile",
                    "src" : 8,
                    "trackNumber" : 0,
                    "trimStartSum" : 0,
                    "attributes" : {
                      "ident" : "collage-hand-element-png (1)"
                    },
                    "parameters" : {
                      "translation0" : {
                        "type" : "double",
                        "defaultValue" : 1615.74367718102,
                        "keyframes" : [
                          {
                            "endTime" : 22,
                            "time" : 0,
                            "value" : 879.743677181016,
                            "duration" : 22
                          },
                          {
                            "endTime" : 65,
                            "time" : 44,
                            "value" : 1271.17224860959,
                            "duration" : 21
                          }
                        ]
                      },
                      "translation1" : {
                        "type" : "double",
                        "defaultValue" : -149.100910752727,
                        "keyframes" : [
                          {
                            "endTime" : 22,
                            "time" : 0,
                            "value" : -65.1009107527267,
                            "duration" : 22
                          },
                          {
                            "endTime" : 65,
                            "time" : 44,
                            "value" : -82.2437678955839,
                            "duration" : 21
                          }
                        ]
                      },
                      "rotation2" : {
                        "type" : "double",
                        "defaultValue" : -0.725767450266281,
                        "keyframes" : [
                          {
                            "endTime" : 22,
                            "time" : 0,
                            "value" : -0.725767450266281,
                            "duration" : 22
                          },
                          {
                            "endTime" : 44,
                            "time" : 22,
                            "value" : -1.2605086890347,
                            "duration" : 22
                          }
                        ]
                      },
                      "scale0" : {
                        "type" : "double",
                        "defaultValue" : 0.354627176957739,
                        "keyframes" : [
                          {
                            "endTime" : 22,
                            "time" : 0,
                            "value" : 0.354627176957739,
                            "duration" : 22
                          },
                          {
                            "endTime" : 44,
                            "time" : 22,
                            "value" : 0.354627176957739,
                            "duration" : 22
                          },
                          {
                            "endTime" : 65,
                            "time" : 44,
                            "value" : 0.354627176957739,
                            "duration" : 21
                          }
                        ]
                      },
                      "scale1" : {
                        "type" : "double",
                        "defaultValue" : 0.354627176957739,
                        "keyframes" : [
                          {
                            "endTime" : 22,
                            "time" : 0,
                            "value" : 0.354627176957739,
                            "duration" : 22
                          },
                          {
                            "endTime" : 44,
                            "time" : 22,
                            "value" : 0.354627176957739,
                            "duration" : 22
                          },
                          {
                            "endTime" : 65,
                            "time" : 44,
                            "value" : 0.354627176957739,
                            "duration" : 21
                          }
                        ]
                      },
                      "sourceCrop0" : 0.0,
                      "sourceCrop1" : 0.0,
                      "sourceCrop2" : 0.0,
                      "sourceCrop3" : 0.0,
                      "geometryCrop0" : 0.0,
                      "geometryCrop1" : 0.0,
                      "geometryCrop2" : 0.0,
                      "geometryCrop3" : 0.0
                    },
                    "effects" : [

                    ],
                    "start" : 94,
                    "duration" : 300,
                    "mediaStart" : 0,
                    "mediaDuration" : 1,
                    "scalar" : 1,
                    "metadata" : {
                      "clipSpeedAttribute" : false,
                      "default-height" : 782.0,
                      "default-rotation2" : 0.0,
                      "default-scale0" : 1.0,
                      "default-scale1" : 1.0,
                      "default-translation0" : 0.0,
                      "default-translation1" : 0.0,
                      "default-width" : 1920.0
                    },
                    "animationTracks" : {
                      "visual" : [
                        {
                          "endTime" : 22,
                          "duration" : 22,
                          "range" : [ 0, 22]
                        },
                        {
                          "endTime" : 44,
                          "duration" : 22,
                          "range" : [ 22, 22]
                        },
                        {
                          "endTime" : 65,
                          "duration" : 21,
                          "range" : [ 44, 21]
                        }
                      ]
                    }
                  },
                  {
                    "id" : 112,
                    "_type" : "IMFile",
                    "src" : 29,
                    "trackNumber" : 0,
                    "trimStartSum" : 0,
                    "attributes" : {
                      "ident" : "0_3"
                    },
                    "parameters" : {
                      "translation0" : {
                        "type" : "double",
                        "defaultValue" : 1.31450406115619e-13,
                        "keyframes" : [
                          {
                            "endTime" : 179,
                            "time" : 0,
                            "value" : 1.4210854715202e-14,
                            "interp" : "linr",
                            "duration" : 179
                          }
                        ]
                      },
                      "translation1" : {
                        "type" : "double",
                        "defaultValue" : 0.0,
                        "keyframes" : [
                          {
                            "endTime" : 179,
                            "time" : 0,
                            "value" : 40.0,
                            "interp" : "linr",
                            "duration" : 179
                          }
                        ]
                      },
                      "scale0" : {
                        "type" : "double",
                        "defaultValue" : 1.56529017857143,
                        "keyframes" : [
                          {
                            "endTime" : 179,
                            "time" : 0,
                            "value" : 1.46205357142857,
                            "interp" : "linr",
                            "duration" : 179
                          }
                        ]
                      },
                      "scale1" : {
                        "type" : "double",
                        "defaultValue" : 1.56529017857143,
                        "keyframes" : [
                          {
                            "endTime" : 179,
                            "time" : 0,
                            "value" : 1.46205357142857,
                            "interp" : "linr",
                            "duration" : 179
                          }
                        ]
                      },
                      "sourceCrop0" : 0.0,
                      "sourceCrop1" : 0.0,
                      "sourceCrop2" : 0.0,
                      "sourceCrop3" : 0.0,
                      "geometryCrop0" : 0.0,
                      "geometryCrop1" : 0.0,
                      "geometryCrop2" : 0.0,
                      "geometryCrop3" : 0.0
                    },
                    "effects" : [

                    ],
                    "start" : 1981,
                    "duration" : 179,
                    "mediaStart" : 0,
                    "mediaDuration" : 1,
                    "scalar" : 1,
                    "metadata" : {
                      "clipSpeedAttribute" : false,
                      "default-height" : 1024.0,
                      "default-scale0" : 1.0,
                      "default-scale1" : 1.0,
                      "default-translation0" : 0.0,
                      "default-translation1" : 0.0,
                      "default-width" : 1024.0
                    },
                    "animationTracks" : {
                      "visual" : [
                        {
                          "endTime" : 179,
                          "duration" : 179,
                          "range" : [ 0, 179],
                          "interp" : "linr"
                        }
                      ]
                    }
                  },
                  {
                    "id" : 113,
                    "_type" : "IMFile",
                    "src" : 39,
                    "trackNumber" : 0,
                    "trimStartSum" : 0,
                    "attributes" : {
                      "ident" : "pin-01"
                    },
                    "parameters" : {
                      "translation0" : {
                        "type" : "double",
                        "defaultValue" : 197.096758200655,
                        "interp" : "eioe"
                      },
                      "translation1" : {
                        "type" : "double",
                        "defaultValue" : -304.796219240922,
                        "interp" : "eioe"
                      },
                      "rotation2" : {
                        "type" : "double",
                        "defaultValue" : -0.751760413030013,
                        "interp" : "eioe"
                      },
                      "scale0" : {
                        "type" : "double",
                        "defaultValue" : 0.10906612507131,
                        "interp" : "eioe"
                      },
                      "scale1" : {
                        "type" : "double",
                        "defaultValue" : 0.10906612507131,
                        "interp" : "eioe"
                      },
                      "sourceCrop0" : {
                        "type" : "double",
                        "defaultValue" : 0.0,
                        "interp" : "eioe"
                      },
                      "sourceCrop1" : {
                        "type" : "double",
                        "defaultValue" : 0.0,
                        "interp" : "eioe"
                      },
                      "sourceCrop2" : {
                        "type" : "double",
                        "defaultValue" : 0.0,
                        "interp" : "eioe"
                      },
                      "sourceCrop3" : {
                        "type" : "double",
                        "defaultValue" : 0.0,
                        "interp" : "eioe"
                      },
                      "geometryCrop0" : {
                        "type" : "double",
                        "defaultValue" : 0.0,
                        "interp" : "eioe"
                      },
                      "geometryCrop1" : {
                        "type" : "double",
                        "defaultValue" : 0.0,
                        "interp" : "eioe"
                      },
                      "geometryCrop2" : {
                        "type" : "double",
                        "defaultValue" : 0.0,
                        "interp" : "eioe"
                      },
                      "geometryCrop3" : {
                        "type" : "double",
                        "defaultValue" : 0.0,
                        "interp" : "eioe"
                      }
                    },
                    "effects" : [
                        {
                          "_type" : "GenericBehaviorEffect",
                          "effectName" : "reveal",
                          "bypassed" : false,
                          "start" : 0,
                          "duration" : 129                        ,
                          "in" : {
                            "attributes" : {
                              "name" : "sliding",
                              "type" : 0,
                              "characterOrder" : 7,
                              "offsetBetweenCharacters" : "3/2",
                              "suggestedDurationPerCharacter" : 30,
                              "overlapProportion" : "11/20",
                              "movement" : 16,
                              "springDamping" : 5.0,
                              "springStiffness" : 50.0,
                              "bounceBounciness" : 0.45
                            },
                            "parameters" : {
                              "direction" : {
                                "type" : "int",
                                "valueBounds" : {
                                  "minValue" : 0,
                                  "maxValue" : 3,
                                  "defaultValue" : 0
                                },
                                "uiHints" : {
                                  "userInterfaceType" : 2,
                                  "unitType" : 0
                                },
                                "keyframes" : [
                                  {
                                    "endTime" : 0,
                                    "time" : 0,
                                    "value" : 1,
                                    "duration" : 0
                                  }
                                ]
                              }
                            }
                          
                          },
                          "center" : {
                            "attributes" : {
                              "name" : "none",
                              "type" : 0,
                              "characterOrder" : 6,
                              "offsetBetweenCharacters" : 0,
                              "secondsPerLoop" : 1,
                              "numberOfLoops" : -1,
                              "delayBetweenLoops" : 0
                            }
                          
                          },
                          "out" : {
                            "attributes" : {
                              "name" : "drop",
                              "type" : 0,
                              "characterOrder" : 6,
                              "offsetBetweenCharacters" : "5/2",
                              "suggestedDurationPerCharacter" : 15,
                              "overlapProportion" : "1/5",
                              "movement" : 0,
                              "springDamping" : 5.0,
                              "springStiffness" : 50.0,
                              "bounceBounciness" : 0.45
                            },
                            "parameters" : {
                              "direction" : {
                                "type" : "int",
                                "valueBounds" : {
                                  "minValue" : 0,
                                  "maxValue" : 3,
                                  "defaultValue" : 3
                                },
                                "uiHints" : {
                                  "userInterfaceType" : 2,
                                  "unitType" : 0
                                },
                                "keyframes" : [
                                  {
                                    "endTime" : 0,
                                    "time" : 0,
                                    "value" : 1,
                                    "duration" : 0
                                  }
                                ]
                              }
                            }
                          
                          },
                          "metadata" : {
                            "default-behavior-center-delay" : 0.0,
                            "default-behavior-center-movement" : 12,
                            "default-behavior-center-secondsperloop" : 3.17,
                            "default-behavior-center-shift" : 5.0,
                            "default-behavior-center-style" : "reveal",
                            "default-behavior-center-type" : 1.0,
                            "default-behavior-in-direction" : 0,
                            "default-behavior-in-style" : "reveal",
                            "default-behavior-in-type" : 1.0,
                            "default-behavior-out-direction" : 3,
                            "default-behavior-out-movement" : 6.0,
                            "default-behavior-out-style" : "reveal",
                            "default-behavior-out-type" : 1.0,
                            "presetName" : "Reveal"
                          }
                        }
                    ],
                    "start" : 2583,
                    "duration" : 129,
                    "mediaStart" : 0,
                    "mediaDuration" : 300,
                    "scalar" : 1,
                    "metadata" : {
                      "clipSpeedAttribute" : false,
                      "default-height" : 1080.0000231266,
                      "default-rotation2" : 0.0,
                      "default-scale0" : 0.960854113101959,
                      "default-scale1" : 0.960854113101959,
                      "default-translation0" : 0.0,
                      "default-translation1" : 0.0,
                      "default-width" : 1078.0783149004
                    },
                    "animationTracks" : {

                    }
                  },
                  {
                    "id" : 114,
                    "_type" : "AMFile",
                    "src" : 50,
                    "trackNumber" : 0,
                    "attributes" : {
                      "ident" : "x2mate.com - Swish, Swoosh, Cutscene Sound Effect (128 kbps)",
                      "gain" : 0.583345303073829,
                      "mixToMono" : false,
                      "loudnessNormalization" : true,
                      "sourceFileOffset" : 0
                    },
                      "channelNumber" : "0,1",
                    "effects" : [

                    ],
                    "start" : 2976,
                    "duration" : 26,
                    "mediaStart" : 261,
                    "mediaDuration" : 26,
                    "scalar" : 1,
                    "metadata" : {
                      "clipSpeedAttribute" : false
                    },
                    "animationTracks" : {

                    }
                  },
                  {
                    "id" : 115,
                    "_type" : "AMFile",
                    "src" : 50,
                    "trackNumber" : 0,
                    "attributes" : {
                      "ident" : "x2mate.com - Swish, Swoosh, Cutscene Sound Effect (128 kbps)",
                      "gain" : 0.583345303073829,
                      "mixToMono" : false,
                      "loudnessNormalization" : true,
                      "sourceFileOffset" : 0
                    },
                      "channelNumber" : "0,1",
                    "effects" : [

                    ],
                    "start" : 3078,
                    "duration" : 26,
                    "mediaStart" : 261,
                    "mediaDuration" : 26,
                    "scalar" : 1,
                    "metadata" : {
                      "clipSpeedAttribute" : false
                    },
                    "animationTracks" : {

                    }
                  },
                  {
                    "id" : 116,
                    "_type" : "AMFile",
                    "src" : 50,
                    "trackNumber" : 0,
                    "attributes" : {
                      "ident" : "x2mate.com - Swish, Swoosh, Cutscene Sound Effect (128 kbps)",
                      "gain" : 0.583345303073829,
                      "mixToMono" : false,
                      "loudnessNormalization" : true,
                      "sourceFileOffset" : 0
                    },
                      "channelNumber" : "0,1",
                    "effects" : [

                    ],
                    "start" : 3183,
                    "duration" : 26,
                    "mediaStart" : 261,
                    "mediaDuration" : 26,
                    "scalar" : 1,
                    "metadata" : {
                      "clipSpeedAttribute" : false
                    },
                    "animationTracks" : {

                    }
                  },
                  {
                    "id" : 117,
                    "_type" : "AMFile",
                    "src" : 50,
                    "trackNumber" : 0,
                    "attributes" : {
                      "ident" : "x2mate.com - Swish, Swoosh, Cutscene Sound Effect (128 kbps)",
                      "gain" : 0.583345303073829,
                      "mixToMono" : false,
                      "loudnessNormalization" : true,
                      "sourceFileOffset" : 0
                    },
                      "channelNumber" : "0,1",
                    "effects" : [

                    ],
                    "start" : 3538,
                    "duration" : 26,
                    "mediaStart" : 261,
                    "mediaDuration" : 26,
                    "scalar" : 1,
                    "metadata" : {
                      "clipSpeedAttribute" : false
                    },
                    "animationTracks" : {

                    }
                  },
                  {
                    "id" : 118,
                    "_type" : "AMFile",
                    "src" : 50,
                    "trackNumber" : 0,
                    "attributes" : {
                      "ident" : "x2mate.com - Swish, Swoosh, Cutscene Sound Effect (128 kbps)",
                      "gain" : 0.583345303073829,
                      "mixToMono" : false,
                      "loudnessNormalization" : true,
                      "sourceFileOffset" : 0
                    },
                      "channelNumber" : "0,1",
                    "effects" : [

                    ],
                    "start" : 3689,
                    "duration" : 26,
                    "mediaStart" : 261,
                    "mediaDuration" : 26,
                    "scalar" : 1,
                    "metadata" : {
                      "clipSpeedAttribute" : false
                    },
                    "animationTracks" : {

                    }
                  },
                  {
                    "id" : 119,
                    "_type" : "AMFile",
                    "src" : 50,
                    "trackNumber" : 0,
                    "attributes" : {
                      "ident" : "x2mate.com - Swish, Swoosh, Cutscene Sound Effect (128 kbps)",
                      "gain" : 0.583345303073829,
                      "mixToMono" : false,
                      "loudnessNormalization" : true,
                      "sourceFileOffset" : 0
                    },
                      "channelNumber" : "0,1",
                    "effects" : [

                    ],
                    "start" : 3861,
                    "duration" : 26,
                    "mediaStart" : 261,
                    "mediaDuration" : 26,
                    "scalar" : 1,
                    "metadata" : {
                      "clipSpeedAttribute" : false
                    },
                    "animationTracks" : {

                    }
                  },
                  {
                    "id" : 120,
                    "_type" : "AMFile",
                    "src" : 50,
                    "trackNumber" : 0,
                    "attributes" : {
                      "ident" : "x2mate.com - Swish, Swoosh, Cutscene Sound Effect (128 kbps)",
                      "gain" : 0.583345303073829,
                      "mixToMono" : false,
                      "loudnessNormalization" : true,
                      "sourceFileOffset" : 0
                    },
                      "channelNumber" : "0,1",
                    "effects" : [

                    ],
                    "start" : 4323,
                    "duration" : 26,
                    "mediaStart" : 261,
                    "mediaDuration" : 26,
                    "scalar" : 1,
                    "metadata" : {
                      "clipSpeedAttribute" : false
                    },
                    "animationTracks" : {

                    }
                  },
                  {
                    "id" : 121,
                    "_type" : "AMFile",
                    "src" : 50,
                    "trackNumber" : 0,
                    "attributes" : {
                      "ident" : "x2mate.com - Swish, Swoosh, Cutscene Sound Effect (128 kbps)",
                      "gain" : 0.583345303073829,
                      "mixToMono" : false,
                      "loudnessNormalization" : true,
                      "sourceFileOffset" : 0
                    },
                      "channelNumber" : "0,1",
                    "effects" : [

                    ],
                    "start" : 4524,
                    "duration" : 26,
                    "mediaStart" : 261,
                    "mediaDuration" : 26,
                    "scalar" : 1,
                    "metadata" : {
                      "clipSpeedAttribute" : false
                    },
                    "animationTracks" : {

                    }
                  },
                  {
                    "id" : 122,
                    "_type" : "AMFile",
                    "src" : 50,
                    "trackNumber" : 0,
                    "attributes" : {
                      "ident" : "x2mate.com - Swish, Swoosh, Cutscene Sound Effect (128 kbps)",
                      "gain" : 0.583345303073829,
                      "mixToMono" : false,
                      "loudnessNormalization" : true,
                      "sourceFileOffset" : 0
                    },
                      "channelNumber" : "0,1",
                    "effects" : [

                    ],
                    "start" : 4676,
                    "duration" : 26,
                    "mediaStart" : 261,
                    "mediaDuration" : 26,
                    "scalar" : 1,
                    "metadata" : {
                      "clipSpeedAttribute" : false
                    },
                    "animationTracks" : {

                    }
                  },
                  {
                    "id" : 123,
                    "_type" : "AMFile",
                    "src" : 50,
                    "trackNumber" : 0,
                    "attributes" : {
                      "ident" : "x2mate.com - Swish, Swoosh, Cutscene Sound Effect (128 kbps)",
                      "gain" : 0.583345303073829,
                      "mixToMono" : false,
                      "loudnessNormalization" : true,
                      "sourceFileOffset" : 0
                    },
                      "channelNumber" : "0,1",
                    "effects" : [

                    ],
                    "start" : 4851,
                    "duration" : 26,
                    "mediaStart" : 261,
                    "mediaDuration" : 26,
                    "scalar" : 1,
                    "metadata" : {
                      "clipSpeedAttribute" : false
                    },
                    "animationTracks" : {

                    }
                  },
                  {
                    "id" : 124,
                    "_type" : "AMFile",
                    "src" : 50,
                    "trackNumber" : 0,
                    "attributes" : {
                      "ident" : "x2mate.com - Swish, Swoosh, Cutscene Sound Effect (128 kbps)",
                      "gain" : 0.583345303073829,
                      "mixToMono" : false,
                      "loudnessNormalization" : true,
                      "sourceFileOffset" : 0
                    },
                      "channelNumber" : "0,1",
                    "effects" : [

                    ],
                    "start" : 5068,
                    "duration" : 26,
                    "mediaStart" : 261,
                    "mediaDuration" : 26,
                    "scalar" : 1,
                    "metadata" : {
                      "clipSpeedAttribute" : false
                    },
                    "animationTracks" : {

                    }
                  },
                  {
                    "id" : 125,
                    "_type" : "IMFile",
                    "src" : 22,
                    "trackNumber" : 0,
                    "trimStartSum" : 8,
                    "attributes" : {
                      "ident" : "312310288 MAUDY APRILIA SAHARI copy"
                    },
                    "parameters" : {
                      "translation0" : {
                        "type" : "double",
                        "defaultValue" : 54.8604612329673,
                        "interp" : "eioe"
                      },
                      "translation1" : {
                        "type" : "double",
                        "defaultValue" : 17.5984126984111,
                        "interp" : "eioe"
                      },
                      "scale0" : {
                        "type" : "double",
                        "defaultValue" : 0.906911142454161,
                        "interp" : "eioe"
                      },
                      "scale1" : {
                        "type" : "double",
                        "defaultValue" : 0.906911142454161,
                        "interp" : "eioe"
                      },
                      "sourceCrop0" : {
                        "type" : "double",
                        "defaultValue" : 0.0,
                        "interp" : "eioe"
                      },
                      "sourceCrop1" : {
                        "type" : "double",
                        "defaultValue" : 0.0,
                        "interp" : "eioe"
                      },
                      "sourceCrop2" : {
                        "type" : "double",
                        "defaultValue" : 0.0,
                        "interp" : "eioe"
                      },
                      "sourceCrop3" : {
                        "type" : "double",
                        "defaultValue" : 0.0,
                        "interp" : "eioe"
                      },
                      "geometryCrop0" : {
                        "type" : "double",
                        "defaultValue" : 0.0,
                        "interp" : "eioe"
                      },
                      "geometryCrop1" : {
                        "type" : "double",
                        "defaultValue" : 0.0,
                        "interp" : "eioe"
                      },
                      "geometryCrop2" : {
                        "type" : "double",
                        "defaultValue" : 0.0,
                        "interp" : "eioe"
                      },
                      "geometryCrop3" : {
                        "type" : "double",
                        "defaultValue" : 0.0,
                        "interp" : "eioe"
                      }
                    },
                    "effects" : [
                        {
                          "_type" : "GenericBehaviorEffect",
                          "effectName" : "reveal",
                          "bypassed" : false,
                          "start" : 8,
                          "duration" : 430                        ,
                          "in" : {
                            "attributes" : {
                              "name" : "sliding",
                              "type" : 0,
                              "characterOrder" : 7,
                              "offsetBetweenCharacters" : "3/2",
                              "suggestedDurationPerCharacter" : 30,
                              "overlapProportion" : "11/20",
                              "movement" : 16,
                              "springDamping" : 5.0,
                              "springStiffness" : 50.0,
                              "bounceBounciness" : 0.45
                            },
                            "parameters" : {
                              "direction" : {
                                "type" : "int",
                                "valueBounds" : {
                                  "minValue" : 0,
                                  "maxValue" : 3,
                                  "defaultValue" : 0
                                },
                                "uiHints" : {
                                  "userInterfaceType" : 2,
                                  "unitType" : 0
                                },
                                "keyframes" : [
                                  {
                                    "endTime" : 0,
                                    "time" : 0,
                                    "value" : 3,
                                    "duration" : 0
                                  }
                                ]
                              }
                            }
                          
                          },
                          "center" : {
                            "attributes" : {
                              "name" : "shifting",
                              "type" : 0,
                              "characterOrder" : 3,
                              "offsetBetweenCharacters" : 0,
                              "secondsPerLoop" : "11/50",
                              "numberOfLoops" : -1,
                              "delayBetweenLoops" : "5999/100"
                            },
                            "parameters" : {
                              "movement" : {
                                "type" : "int",
                                "valueBounds" : {
                                  "minValue" : 0,
                                  "maxValue" : 31,
                                  "defaultValue" : 12
                                },
                                "uiHints" : {
                                  "userInterfaceType" : 4,
                                  "unitType" : 0
                                },
                                "keyframes" : [
                                  {
                                    "endTime" : 0,
                                    "time" : 0,
                                    "value" : 15,
                                    "duration" : 0
                                  }
                                ]
                              },
                              "shift" : {
                                "type" : "double",
                                "defaultValue" : 1.0,
                                "interp" : "linr",
                                "valueBounds" : {
                                  "minValue" : 0.0,
                                  "maxValue" : 100.0,
                                  "defaultValue" : 5.0
                                },
                                "uiHints" : {
                                  "userInterfaceType" : 1,
                                  "unitType" : 0
                                }
                              }
                            }
                          
                          },
                          "out" : {
                            "attributes" : {
                              "name" : "drop",
                              "type" : 0,
                              "characterOrder" : 6,
                              "offsetBetweenCharacters" : "5/2",
                              "suggestedDurationPerCharacter" : 15,
                              "overlapProportion" : "1/5",
                              "movement" : 0,
                              "springDamping" : 5.0,
                              "springStiffness" : 50.0,
                              "bounceBounciness" : 0.45
                            },
                            "parameters" : {
                              "direction" : {
                                "type" : "int",
                                "valueBounds" : {
                                  "minValue" : 0,
                                  "maxValue" : 3,
                                  "defaultValue" : 3
                                },
                                "uiHints" : {
                                  "userInterfaceType" : 2,
                                  "unitType" : 0
                                },
                                "keyframes" : [
                                  {
                                    "endTime" : 0,
                                    "time" : 0,
                                    "value" : 3,
                                    "duration" : 0
                                  }
                                ]
                              }
                            }
                          
                          },
                          "metadata" : {
                            "default-behavior-center-delay" : 0.0,
                            "default-behavior-center-movement" : 12,
                            "default-behavior-center-secondsperloop" : 3.17,
                            "default-behavior-center-shift" : 5.0,
                            "default-behavior-center-style" : "reveal",
                            "default-behavior-center-type" : 1.0,
                            "default-behavior-in-direction" : 0,
                            "default-behavior-in-style" : "reveal",
                            "default-behavior-in-type" : 1.0,
                            "default-behavior-out-direction" : 3,
                            "default-behavior-out-movement" : 6.0,
                            "default-behavior-out-style" : "reveal",
                            "default-behavior-out-type" : 1.0,
                            "presetName" : "Reveal"
                          }
                        },
                        {
                          "effectName" : "Tonal",
                          "bypassed" : false,
                          "category" : "categoryVisualEffects",
                          "parameters" : {
                            "color-alpha" : {
                              "type" : "double",
                              "defaultValue" : 1.0,
                              "interp" : "linr",
                              "uiHints" : {
                                "userInterfaceType" : 0,
                                "unitType" : 0
                              }
                            },
                            "color-blue" : {
                              "type" : "double",
                              "defaultValue" : 0.33,
                              "interp" : "linr",
                              "uiHints" : {
                                "userInterfaceType" : 0,
                                "unitType" : 0
                              }
                            },
                            "color-green" : {
                              "type" : "double",
                              "defaultValue" : 0.18,
                              "interp" : "linr",
                              "uiHints" : {
                                "userInterfaceType" : 0,
                                "unitType" : 0
                              }
                            },
                            "color-red" : {
                              "type" : "double",
                              "defaultValue" : 1.0,
                              "interp" : "linr",
                              "uiHints" : {
                                "userInterfaceType" : 0,
                                "unitType" : 0
                              }
                            },
                            "desaturation" : {
                              "type" : "double",
                              "defaultValue" : 0.254237288135593,
                              "interp" : "linr",
                              "uiHints" : {
                                "userInterfaceType" : 0,
                                "unitType" : 0
                              }
                            },
                            "intensity" : {
                              "type" : "double",
                              "defaultValue" : 0.161016949152543,
                              "interp" : "linr",
                              "uiHints" : {
                                "userInterfaceType" : 0,
                                "unitType" : 0
                              }
                            },
                            "secondColor-alpha" : {
                              "type" : "double",
                              "defaultValue" : 1.0,
                              "interp" : "linr",
                              "uiHints" : {
                                "userInterfaceType" : 0,
                                "unitType" : 0
                              }
                            },
                            "secondColor-blue" : {
                              "type" : "double",
                              "defaultValue" : 0.84,
                              "interp" : "linr",
                              "uiHints" : {
                                "userInterfaceType" : 0,
                                "unitType" : 0
                              }
                            },
                            "secondColor-green" : {
                              "type" : "double",
                              "defaultValue" : 0.34,
                              "interp" : "linr",
                              "uiHints" : {
                                "userInterfaceType" : 0,
                                "unitType" : 0
                              }
                            },
                            "secondColor-red" : {
                              "type" : "double",
                              "defaultValue" : 0.35,
                              "interp" : "linr",
                              "uiHints" : {
                                "userInterfaceType" : 0,
                                "unitType" : 0
                              }
                            }
                          },
                          "metadata" : {
                            "default-Tonal_desaturation" : 0.5,
                            "default-Tonal_intensity" : 0.5,
                            "presetName" : "Color Tint"
                          }
                        }
                    ],
                    "start" : 11701,
                    "duration" : 430,
                    "mediaStart" : 0,
                    "mediaDuration" : 1,
                    "scalar" : 1,
                    "metadata" : {
                      "clipSpeedAttribute" : false,
                      "default-height" : 709.0,
                      "default-scale0" : 1.0,
                      "default-scale1" : 1.0,
                      "default-translation0" : 0.0,
                      "default-translation1" : -0.5,
                      "default-width" : 472.0
                    },
                    "animationTracks" : {

                    }
                  }
                ]
              },
              {
                "trackIndex" : 10,
                "medias" : [
                  {
                    "id" : 126,
                    "_type" : "AMFile",
                    "src" : 19,
                    "trackNumber" : 0,
                    "attributes" : {
                      "ident" : "intro",
                      "gain" : 1.0,
                      "mixToMono" : false,
                      "loudnessNormalization" : true,
                      "sourceFileOffset" : 0
                    },
                      "channelNumber" : "0,1",
                    "effects" : [

                    ],
                    "start" : 503,
                    "duration" : 1198,
                    "mediaStart" : 0,
                    "mediaDuration" : 1198,
                    "scalar" : 1,
                    "metadata" : {
                      "clipSpeedAttribute" : false
                    },
                    "animationTracks" : {

                    }
                  },
                  {
                    "id" : 127,
                    "_type" : "IMFile",
                    "src" : 39,
                    "trackNumber" : 0,
                    "trimStartSum" : 0,
                    "attributes" : {
                      "ident" : "pin-01"
                    },
                    "parameters" : {
                      "translation0" : {
                        "type" : "double",
                        "defaultValue" : 379.953901057798,
                        "interp" : "eioe"
                      },
                      "translation1" : {
                        "type" : "double",
                        "defaultValue" : 318.06092361622,
                        "interp" : "eioe"
                      },
                      "rotation2" : {
                        "type" : "double",
                        "defaultValue" : -1.07752594153289,
                        "interp" : "eioe"
                      },
                      "scale0" : {
                        "type" : "double",
                        "defaultValue" : 0.10906612507131,
                        "interp" : "eioe"
                      },
                      "scale1" : {
                        "type" : "double",
                        "defaultValue" : 0.10906612507131,
                        "interp" : "eioe"
                      },
                      "sourceCrop0" : {
                        "type" : "double",
                        "defaultValue" : 0.0,
                        "interp" : "eioe"
                      },
                      "sourceCrop1" : {
                        "type" : "double",
                        "defaultValue" : 0.0,
                        "interp" : "eioe"
                      },
                      "sourceCrop2" : {
                        "type" : "double",
                        "defaultValue" : 0.0,
                        "interp" : "eioe"
                      },
                      "sourceCrop3" : {
                        "type" : "double",
                        "defaultValue" : 0.0,
                        "interp" : "eioe"
                      },
                      "geometryCrop0" : {
                        "type" : "double",
                        "defaultValue" : 0.0,
                        "interp" : "eioe"
                      },
                      "geometryCrop1" : {
                        "type" : "double",
                        "defaultValue" : 0.0,
                        "interp" : "eioe"
                      },
                      "geometryCrop2" : {
                        "type" : "double",
                        "defaultValue" : 0.0,
                        "interp" : "eioe"
                      },
                      "geometryCrop3" : {
                        "type" : "double",
                        "defaultValue" : 0.0,
                        "interp" : "eioe"
                      }
                    },
                    "effects" : [
                        {
                          "_type" : "GenericBehaviorEffect",
                          "effectName" : "reveal",
                          "bypassed" : false,
                          "start" : 0,
                          "duration" : 142                        ,
                          "in" : {
                            "attributes" : {
                              "name" : "sliding",
                              "type" : 0,
                              "characterOrder" : 7,
                              "offsetBetweenCharacters" : "3/2",
                              "suggestedDurationPerCharacter" : 30,
                              "overlapProportion" : "11/20",
                              "movement" : 16,
                              "springDamping" : 5.0,
                              "springStiffness" : 50.0,
                              "bounceBounciness" : 0.45
                            },
                            "parameters" : {
                              "direction" : {
                                "type" : "int",
                                "valueBounds" : {
                                  "minValue" : 0,
                                  "maxValue" : 3,
                                  "defaultValue" : 0
                                },
                                "uiHints" : {
                                  "userInterfaceType" : 2,
                                  "unitType" : 0
                                },
                                "keyframes" : [
                                  {
                                    "endTime" : 0,
                                    "time" : 0,
                                    "value" : 1,
                                    "duration" : 0
                                  }
                                ]
                              }
                            }
                          
                          },
                          "center" : {
                            "attributes" : {
                              "name" : "none",
                              "type" : 0,
                              "characterOrder" : 6,
                              "offsetBetweenCharacters" : 0,
                              "secondsPerLoop" : 1,
                              "numberOfLoops" : -1,
                              "delayBetweenLoops" : 0
                            }
                          
                          },
                          "out" : {
                            "attributes" : {
                              "name" : "drop",
                              "type" : 0,
                              "characterOrder" : 6,
                              "offsetBetweenCharacters" : "5/2",
                              "suggestedDurationPerCharacter" : 15,
                              "overlapProportion" : "1/5",
                              "movement" : 0,
                              "springDamping" : 5.0,
                              "springStiffness" : 50.0,
                              "bounceBounciness" : 0.45
                            },
                            "parameters" : {
                              "direction" : {
                                "type" : "int",
                                "valueBounds" : {
                                  "minValue" : 0,
                                  "maxValue" : 3,
                                  "defaultValue" : 3
                                },
                                "uiHints" : {
                                  "userInterfaceType" : 2,
                                  "unitType" : 0
                                },
                                "keyframes" : [
                                  {
                                    "endTime" : 0,
                                    "time" : 0,
                                    "value" : 1,
                                    "duration" : 0
                                  }
                                ]
                              }
                            }
                          
                          },
                          "metadata" : {
                            "default-behavior-center-delay" : 0.0,
                            "default-behavior-center-movement" : 12,
                            "default-behavior-center-secondsperloop" : 3.17,
                            "default-behavior-center-shift" : 5.0,
                            "default-behavior-center-style" : "reveal",
                            "default-behavior-center-type" : 1.0,
                            "default-behavior-in-direction" : 0,
                            "default-behavior-in-style" : "reveal",
                            "default-behavior-in-type" : 1.0,
                            "default-behavior-out-direction" : 3,
                            "default-behavior-out-movement" : 6.0,
                            "default-behavior-out-style" : "reveal",
                            "default-behavior-out-type" : 1.0,
                            "presetName" : "Reveal"
                          }
                        }
                    ],
                    "start" : 2570,
                    "duration" : 142,
                    "mediaStart" : 0,
                    "mediaDuration" : 300,
                    "scalar" : 1,
                    "metadata" : {
                      "clipSpeedAttribute" : false,
                      "default-height" : 1080.0000231266,
                      "default-rotation2" : 0.0,
                      "default-scale0" : 0.960854113101959,
                      "default-scale1" : 0.960854113101959,
                      "default-translation0" : 0.0,
                      "default-translation1" : 0.0,
                      "default-width" : 1078.0783149004
                    },
                    "animationTracks" : {

                    }
                  },
                  {
                    "id" : 128,
                    "_type" : "Callout",
                    "def" : {
                      "kind" : "TypeWinHighlighter",
                      "shape" : "",
                      "style" : "",
                      "fill-color-opacity" : {
                        "type" : "double",
                        "defaultValue" : 1.0,
                        "interp" : "linr"
                      },
                      "fill-invert" : 0.0,
                      "fillColorBlue" : {
                        "type" : "double",
                        "defaultValue" : 0.0,
                        "interp" : "linr"
                      },
                      "fillColorGreen" : {
                        "type" : "double",
                        "defaultValue" : 1.0,
                        "interp" : "linr"
                      },
                      "fillColorRed" : {
                        "type" : "double",
                        "defaultValue" : 1.0,
                        "interp" : "linr"
                      },
                      "height" : {
                        "type" : "double",
                        "defaultValue" : 270.0,
                        "interp" : "linr"
                      },
                      "width" : {
                        "type" : "double",
                        "defaultValue" : 480.0,
                        "interp" : "linr"
                      },
                      "filename" : "C:\\Users\\Nandang.Duryat\\AppData\\Local\\TechSmith\\Camtasia Studio\\21.0\\Features\\Tools\\Annotations\\Defaults\\highlighter_100x100.xml",
                      "name" : "",
                      "xmlContent" : "﻿<?xml version=\"1.0\"?>\n\n<Overlay version=\"1.0.1\">\n\n<Overlay_Filename>highlighter_100x100.png</Overlay_Filename>\n<Overlay_Name>Highlighter</Overlay_Name>\n<Text_Top>0</Text_Top>\n<Text_Left>0</Text_Left>\n<Text_Bottom>0</Text_Bottom>\n<Text_Right>0</Text_Right>\n<Fill_Color>1</Fill_Color>\n<Border_Color>0</Border_Color>\n</Overlay>"
                    },
                    "attributes" : {
                      "ident" : "",
                      "autoRotateText" : true
                    },
                    "parameters" : {
                      "translation0" : {
                        "type" : "double",
                        "defaultValue" : -795.773809523809,
                        "interp" : "eioe",
                        "keyframes" : [
                          {
                            "endTime" : -123,
                            "time" : -146,
                            "value" : -511.329365079364,
                            "duration" : 23
                          }
                        ]
                      },
                      "translation1" : {
                        "type" : "double",
                        "defaultValue" : 410.460317460317,
                        "interp" : "eioe",
                        "keyframes" : [
                          {
                            "endTime" : -123,
                            "time" : -146,
                            "value" : 410.460317460317,
                            "duration" : 23
                          }
                        ]
                      },
                      "scale0" : {
                        "type" : "double",
                        "defaultValue" : 0.00371155450488408,
                        "interp" : "eioe",
                        "keyframes" : [
                          {
                            "endTime" : -123,
                            "time" : -146,
                            "value" : 1.20279431216931,
                            "duration" : 23
                          }
                        ]
                      },
                      "scale1" : {
                        "type" : "double",
                        "defaultValue" : 0.447383891828337,
                        "interp" : "eioe",
                        "keyframes" : [
                          {
                            "endTime" : -123,
                            "time" : -146,
                            "value" : 0.447383891828337,
                            "duration" : 23
                          }
                        ]
                      },
                      "sourceCrop0" : {
                        "type" : "double",
                        "defaultValue" : 0.0,
                        "interp" : "eioe"
                      },
                      "sourceCrop1" : {
                        "type" : "double",
                        "defaultValue" : 0.0,
                        "interp" : "eioe"
                      },
                      "sourceCrop2" : {
                        "type" : "double",
                        "defaultValue" : 0.0,
                        "interp" : "eioe"
                      },
                      "sourceCrop3" : {
                        "type" : "double",
                        "defaultValue" : 0.0,
                        "interp" : "eioe"
                      },
                      "geometryCrop0" : {
                        "type" : "double",
                        "defaultValue" : 0.0,
                        "interp" : "eioe"
                      },
                      "geometryCrop1" : {
                        "type" : "double",
                        "defaultValue" : 0.0,
                        "interp" : "eioe"
                      },
                      "geometryCrop2" : {
                        "type" : "double",
                        "defaultValue" : 0.0,
                        "interp" : "eioe"
                      },
                      "geometryCrop3" : {
                        "type" : "double",
                        "defaultValue" : 0.0,
                        "interp" : "eioe"
                      }
                    },
                    "effects" : [

                    ],
                    "start" : 5093,
                    "duration" : 338,
                    "mediaStart" : -195,
                    "mediaDuration" : 338,
                    "scalar" : 1,
                    "metadata" : {
                      "clipSpeedAttribute" : false,
                      "default-height" : 270.0,
                      "default-opacity" : 1.0,
                      "default-rotation0" : 0.0,
                      "default-rotation1" : 0.0,
                      "default-rotation2" : 0.0,
                      "default-scale0" : 1.0,
                      "default-scale1" : 1.0,
                      "default-translation0" : 0.0,
                      "default-translation1" : 0.0,
                      "default-translation2" : 0.0,
                      "default-width" : 480.0
                    },
                    "animationTracks" : {
                      "visual" : [
                        {
                          "endTime" : -123,
                          "duration" : 23,
                          "range" : [ -146, 23]
                        }
                      ]
                    }
                  },
                  {
                    "id" : 129,
                    "_type" : "IMFile",
                    "src" : 20,
                    "trackNumber" : 0,
                    "trimStartSum" : 150,
                    "attributes" : {
                      "ident" : "312310277 EKA SALSABILA copy"
                    },
                    "parameters" : {
                      "translation0" : {
                        "type" : "double",
                        "defaultValue" : 237.08268345519,
                        "interp" : "eioe"
                      },
                      "translation1" : {
                        "type" : "double",
                        "defaultValue" : -89.9608380072596,
                        "interp" : "eioe"
                      },
                      "scale0" : {
                        "type" : "double",
                        "defaultValue" : 1.55992777120534,
                        "interp" : "eioe"
                      },
                      "scale1" : {
                        "type" : "double",
                        "defaultValue" : 1.55992777120534,
                        "interp" : "eioe"
                      },
                      "sourceCrop0" : {
                        "type" : "double",
                        "defaultValue" : 0.0,
                        "interp" : "eioe"
                      },
                      "sourceCrop1" : {
                        "type" : "double",
                        "defaultValue" : 0.0,
                        "interp" : "eioe"
                      },
                      "sourceCrop2" : {
                        "type" : "double",
                        "defaultValue" : 0.0,
                        "interp" : "eioe"
                      },
                      "sourceCrop3" : {
                        "type" : "double",
                        "defaultValue" : 0.0,
                        "interp" : "eioe"
                      },
                      "geometryCrop0" : {
                        "type" : "double",
                        "defaultValue" : 0.0,
                        "interp" : "eioe"
                      },
                      "geometryCrop1" : {
                        "type" : "double",
                        "defaultValue" : 0.0,
                        "interp" : "eioe"
                      },
                      "geometryCrop2" : {
                        "type" : "double",
                        "defaultValue" : 0.0,
                        "interp" : "eioe"
                      },
                      "geometryCrop3" : {
                        "type" : "double",
                        "defaultValue" : 0.0,
                        "interp" : "eioe"
                      }
                    },
                    "effects" : [
                        {
                          "_type" : "GenericBehaviorEffect",
                          "effectName" : "reveal",
                          "bypassed" : false,
                          "start" : 150,
                          "duration" : 430                        ,
                          "in" : {
                            "attributes" : {
                              "name" : "sliding",
                              "type" : 0,
                              "characterOrder" : 7,
                              "offsetBetweenCharacters" : "3/2",
                              "suggestedDurationPerCharacter" : 30,
                              "overlapProportion" : "11/20",
                              "movement" : 16,
                              "springDamping" : 5.0,
                              "springStiffness" : 50.0,
                              "bounceBounciness" : 0.45
                            },
                            "parameters" : {
                              "direction" : {
                                "type" : "int",
                                "valueBounds" : {
                                  "minValue" : 0,
                                  "maxValue" : 3,
                                  "defaultValue" : 0
                                },
                                "uiHints" : {
                                  "userInterfaceType" : 2,
                                  "unitType" : 0
                                },
                                "keyframes" : [
                                  {
                                    "endTime" : 0,
                                    "time" : 0,
                                    "value" : 3,
                                    "duration" : 0
                                  }
                                ]
                              }
                            }
                          
                          },
                          "center" : {
                            "attributes" : {
                              "name" : "shifting",
                              "type" : 0,
                              "characterOrder" : 3,
                              "offsetBetweenCharacters" : 0,
                              "secondsPerLoop" : "11/50",
                              "numberOfLoops" : -1,
                              "delayBetweenLoops" : "5999/100"
                            },
                            "parameters" : {
                              "movement" : {
                                "type" : "int",
                                "valueBounds" : {
                                  "minValue" : 0,
                                  "maxValue" : 31,
                                  "defaultValue" : 12
                                },
                                "uiHints" : {
                                  "userInterfaceType" : 4,
                                  "unitType" : 0
                                },
                                "keyframes" : [
                                  {
                                    "endTime" : 0,
                                    "time" : 0,
                                    "value" : 15,
                                    "duration" : 0
                                  }
                                ]
                              },
                              "shift" : {
                                "type" : "double",
                                "defaultValue" : 1.0,
                                "interp" : "linr",
                                "valueBounds" : {
                                  "minValue" : 0.0,
                                  "maxValue" : 100.0,
                                  "defaultValue" : 5.0
                                },
                                "uiHints" : {
                                  "userInterfaceType" : 1,
                                  "unitType" : 0
                                }
                              }
                            }
                          
                          },
                          "out" : {
                            "attributes" : {
                              "name" : "drop",
                              "type" : 0,
                              "characterOrder" : 6,
                              "offsetBetweenCharacters" : "5/2",
                              "suggestedDurationPerCharacter" : 15,
                              "overlapProportion" : "1/5",
                              "movement" : 0,
                              "springDamping" : 5.0,
                              "springStiffness" : 50.0,
                              "bounceBounciness" : 0.45
                            },
                            "parameters" : {
                              "direction" : {
                                "type" : "int",
                                "valueBounds" : {
                                  "minValue" : 0,
                                  "maxValue" : 3,
                                  "defaultValue" : 3
                                },
                                "uiHints" : {
                                  "userInterfaceType" : 2,
                                  "unitType" : 0
                                },
                                "keyframes" : [
                                  {
                                    "endTime" : 0,
                                    "time" : 0,
                                    "value" : 3,
                                    "duration" : 0
                                  }
                                ]
                              }
                            }
                          
                          },
                          "metadata" : {
                            "default-behavior-center-delay" : 0.0,
                            "default-behavior-center-movement" : 12,
                            "default-behavior-center-secondsperloop" : 3.17,
                            "default-behavior-center-shift" : 5.0,
                            "default-behavior-center-style" : "reveal",
                            "default-behavior-center-type" : 1.0,
                            "default-behavior-in-direction" : 0,
                            "default-behavior-in-style" : "reveal",
                            "default-behavior-in-type" : 1.0,
                            "default-behavior-out-direction" : 3,
                            "default-behavior-out-movement" : 6.0,
                            "default-behavior-out-style" : "reveal",
                            "default-behavior-out-type" : 1.0,
                            "presetName" : "Reveal"
                          }
                        }
                    ],
                    "start" : 11701,
                    "duration" : 430,
                    "mediaStart" : 0,
                    "mediaDuration" : 1,
                    "scalar" : 1,
                    "metadata" : {
                      "clipSpeedAttribute" : false,
                      "default-height" : 577.0,
                      "default-scale0" : 1.0,
                      "default-scale1" : 1.0,
                      "default-translation0" : -0.5,
                      "default-translation1" : -0.5,
                      "default-width" : 433.0
                    },
                    "animationTracks" : {

                    }
                  }
                ],
                "transitions" : [
                  {
                    "name" : "Fade",
                    "duration" : 24,
                    "leftMedia" : 128,
                    "attributes" : {
                      "bypass" : false,
                      "reverse" : false,
                      "trivial" : false,
                      "useAudioPreRoll" : true,
                      "useVisualPreRoll" : true
                    }

                  }
                ]
              },
              {
                "trackIndex" : 11,
                "medias" : [
                  {
                    "id" : 130,
                    "_type" : "AMFile",
                    "src" : 15,
                    "trackNumber" : 0,
                    "attributes" : {
                      "ident" : "mp3-output-ttsfree(dot)com (7)",
                      "gain" : 1.0,
                      "mixToMono" : false,
                      "loudnessNormalization" : true,
                      "sourceFileOffset" : 0
                    },
                      "channelNumber" : "0,1",
                    "effects" : [

                    ],
                    "start" : 70,
                    "duration" : 145,
                    "mediaStart" : 0,
                    "mediaDuration" : 145,
                    "scalar" : 1,
                    "metadata" : {
                      "clipSpeedAttribute" : false
                    },
                    "animationTracks" : {

                    }
                  },
                  {
                    "id" : 131,
                    "_type" : "IMFile",
                    "src" : 22,
                    "trackNumber" : 0,
                    "trimStartSum" : 0,
                    "attributes" : {
                      "ident" : "312310288 MAUDY APRILIA SAHARI copy"
                    },
                    "parameters" : {
                      "translation0" : 82.9637919176924,
                      "translation1" : -16.6873015873013,
                      "scale0" : 0.906911142454161,
                      "scale1" : 0.906911142454161,
                      "sourceCrop0" : 0.0,
                      "sourceCrop1" : 0.0,
                      "sourceCrop2" : 0.0,
                      "sourceCrop3" : 0.0,
                      "geometryCrop0" : 0.0,
                      "geometryCrop1" : 0.0,
                      "geometryCrop2" : 0.0,
                      "geometryCrop3" : 0.0
                    },
                    "effects" : [
                        {
                          "_type" : "GenericBehaviorEffect",
                          "effectName" : "reveal",
                          "bypassed" : false,
                          "start" : 0,
                          "duration" : 606                        ,
                          "in" : {
                            "attributes" : {
                              "name" : "sliding",
                              "type" : 0,
                              "characterOrder" : 7,
                              "offsetBetweenCharacters" : "3/2",
                              "suggestedDurationPerCharacter" : 30,
                              "overlapProportion" : "11/20",
                              "movement" : 16,
                              "springDamping" : 5.0,
                              "springStiffness" : 50.0,
                              "bounceBounciness" : 0.45
                            },
                            "parameters" : {
                              "direction" : {
                                "type" : "int",
                                "valueBounds" : {
                                  "minValue" : 0,
                                  "maxValue" : 3,
                                  "defaultValue" : 0
                                },
                                "uiHints" : {
                                  "userInterfaceType" : 2,
                                  "unitType" : 0
                                },
                                "keyframes" : [
                                  {
                                    "endTime" : 0,
                                    "time" : 0,
                                    "value" : 3,
                                    "duration" : 0
                                  }
                                ]
                              }
                            }
                          
                          },
                          "center" : {
                            "attributes" : {
                              "name" : "shifting",
                              "type" : 0,
                              "characterOrder" : 3,
                              "offsetBetweenCharacters" : 0,
                              "secondsPerLoop" : "11/50",
                              "numberOfLoops" : -1,
                              "delayBetweenLoops" : "5999/100"
                            },
                            "parameters" : {
                              "movement" : {
                                "type" : "int",
                                "valueBounds" : {
                                  "minValue" : 0,
                                  "maxValue" : 31,
                                  "defaultValue" : 12
                                },
                                "uiHints" : {
                                  "userInterfaceType" : 4,
                                  "unitType" : 0
                                },
                                "keyframes" : [
                                  {
                                    "endTime" : 0,
                                    "time" : 0,
                                    "value" : 15,
                                    "duration" : 0
                                  }
                                ]
                              },
                              "shift" : {
                                "type" : "double",
                                "defaultValue" : 1.0,
                                "valueBounds" : {
                                  "minValue" : 0.0,
                                  "maxValue" : 100.0,
                                  "defaultValue" : 5.0
                                },
                                "uiHints" : {
                                  "userInterfaceType" : 1,
                                  "unitType" : 0
                                }
                              }
                            }
                          
                          },
                          "out" : {
                            "attributes" : {
                              "name" : "drop",
                              "type" : 0,
                              "characterOrder" : 6,
                              "offsetBetweenCharacters" : "5/2",
                              "suggestedDurationPerCharacter" : 15,
                              "overlapProportion" : "1/5",
                              "movement" : 0,
                              "springDamping" : 5.0,
                              "springStiffness" : 50.0,
                              "bounceBounciness" : 0.45
                            },
                            "parameters" : {
                              "direction" : {
                                "type" : "int",
                                "valueBounds" : {
                                  "minValue" : 0,
                                  "maxValue" : 3,
                                  "defaultValue" : 3
                                },
                                "uiHints" : {
                                  "userInterfaceType" : 2,
                                  "unitType" : 0
                                },
                                "keyframes" : [
                                  {
                                    "endTime" : 0,
                                    "time" : 0,
                                    "value" : 3,
                                    "duration" : 0
                                  }
                                ]
                              }
                            }
                          
                          },
                          "metadata" : {
                            "default-behavior-center-delay" : 0.0,
                            "default-behavior-center-movement" : 12,
                            "default-behavior-center-secondsperloop" : 3.17,
                            "default-behavior-center-shift" : 5.0,
                            "default-behavior-center-style" : "reveal",
                            "default-behavior-center-type" : 1.0,
                            "default-behavior-in-direction" : 0,
                            "default-behavior-in-style" : "reveal",
                            "default-behavior-in-type" : 1.0,
                            "default-behavior-out-direction" : 3,
                            "default-behavior-out-movement" : 6.0,
                            "default-behavior-out-style" : "reveal",
                            "default-behavior-out-type" : 1.0,
                            "presetName" : "Reveal"
                          }
                        },
                        {
                          "effectName" : "Tonal",
                          "bypassed" : false,
                          "category" : "categoryVisualEffects",
                          "parameters" : {
                            "color-alpha" : 1.0,
                            "color-blue" : 0.33,
                            "color-green" : 0.18,
                            "color-red" : 1.0,
                            "desaturation" : 0.254237288135593,
                            "intensity" : 0.161016949152543,
                            "secondColor-alpha" : 1.0,
                            "secondColor-blue" : 0.84,
                            "secondColor-green" : 0.34,
                            "secondColor-red" : 0.35
                          },
                          "metadata" : {
                            "default-Tonal_desaturation" : 0.5,
                            "default-Tonal_intensity" : 0.5,
                            "presetName" : "Color Tint"
                          }
                        }
                    ],
                    "start" : 1034,
                    "duration" : 606,
                    "mediaStart" : 0,
                    "mediaDuration" : 1,
                    "scalar" : 1,
                    "metadata" : {
                      "clipSpeedAttribute" : false,
                      "default-height" : 709.0,
                      "default-scale0" : 1.0,
                      "default-scale1" : 1.0,
                      "default-translation0" : 0.0,
                      "default-translation1" : -0.5,
                      "default-width" : 472.0
                    },
                    "animationTracks" : {

                    }
                  },
                  {
                    "id" : 132,
                    "_type" : "IMFile",
                    "src" : 39,
                    "trackNumber" : 0,
                    "trimStartSum" : 0,
                    "attributes" : {
                      "ident" : "pin-01"
                    },
                    "parameters" : {
                      "translation0" : {
                        "type" : "double",
                        "defaultValue" : 902.81104391494,
                        "interp" : "eioe"
                      },
                      "translation1" : {
                        "type" : "double",
                        "defaultValue" : -213.367647812351,
                        "interp" : "eioe"
                      },
                      "rotation2" : {
                        "type" : "double",
                        "defaultValue" : -0.487876633757956,
                        "interp" : "eioe"
                      },
                      "scale0" : {
                        "type" : "double",
                        "defaultValue" : 0.10906612507131,
                        "interp" : "eioe"
                      },
                      "scale1" : {
                        "type" : "double",
                        "defaultValue" : 0.10906612507131,
                        "interp" : "eioe"
                      },
                      "sourceCrop0" : {
                        "type" : "double",
                        "defaultValue" : 0.0,
                        "interp" : "eioe"
                      },
                      "sourceCrop1" : {
                        "type" : "double",
                        "defaultValue" : 0.0,
                        "interp" : "eioe"
                      },
                      "sourceCrop2" : {
                        "type" : "double",
                        "defaultValue" : 0.0,
                        "interp" : "eioe"
                      },
                      "sourceCrop3" : {
                        "type" : "double",
                        "defaultValue" : 0.0,
                        "interp" : "eioe"
                      },
                      "geometryCrop0" : {
                        "type" : "double",
                        "defaultValue" : 0.0,
                        "interp" : "eioe"
                      },
                      "geometryCrop1" : {
                        "type" : "double",
                        "defaultValue" : 0.0,
                        "interp" : "eioe"
                      },
                      "geometryCrop2" : {
                        "type" : "double",
                        "defaultValue" : 0.0,
                        "interp" : "eioe"
                      },
                      "geometryCrop3" : {
                        "type" : "double",
                        "defaultValue" : 0.0,
                        "interp" : "eioe"
                      }
                    },
                    "effects" : [
                        {
                          "_type" : "GenericBehaviorEffect",
                          "effectName" : "reveal",
                          "bypassed" : false,
                          "start" : 0,
                          "duration" : 221                        ,
                          "in" : {
                            "attributes" : {
                              "name" : "sliding",
                              "type" : 0,
                              "characterOrder" : 7,
                              "offsetBetweenCharacters" : "3/2",
                              "suggestedDurationPerCharacter" : 30,
                              "overlapProportion" : "11/20",
                              "movement" : 16,
                              "springDamping" : 5.0,
                              "springStiffness" : 50.0,
                              "bounceBounciness" : 0.45
                            },
                            "parameters" : {
                              "direction" : {
                                "type" : "int",
                                "valueBounds" : {
                                  "minValue" : 0,
                                  "maxValue" : 3,
                                  "defaultValue" : 0
                                },
                                "uiHints" : {
                                  "userInterfaceType" : 2,
                                  "unitType" : 0
                                },
                                "keyframes" : [
                                  {
                                    "endTime" : 0,
                                    "time" : 0,
                                    "value" : 1,
                                    "duration" : 0
                                  }
                                ]
                              }
                            }
                          
                          },
                          "center" : {
                            "attributes" : {
                              "name" : "none",
                              "type" : 0,
                              "characterOrder" : 6,
                              "offsetBetweenCharacters" : 0,
                              "secondsPerLoop" : 1,
                              "numberOfLoops" : -1,
                              "delayBetweenLoops" : 0
                            }
                          
                          },
                          "out" : {
                            "attributes" : {
                              "name" : "drop",
                              "type" : 0,
                              "characterOrder" : 6,
                              "offsetBetweenCharacters" : "5/2",
                              "suggestedDurationPerCharacter" : 15,
                              "overlapProportion" : "1/5",
                              "movement" : 0,
                              "springDamping" : 5.0,
                              "springStiffness" : 50.0,
                              "bounceBounciness" : 0.45
                            },
                            "parameters" : {
                              "direction" : {
                                "type" : "int",
                                "valueBounds" : {
                                  "minValue" : 0,
                                  "maxValue" : 3,
                                  "defaultValue" : 3
                                },
                                "uiHints" : {
                                  "userInterfaceType" : 2,
                                  "unitType" : 0
                                },
                                "keyframes" : [
                                  {
                                    "endTime" : 0,
                                    "time" : 0,
                                    "value" : 1,
                                    "duration" : 0
                                  }
                                ]
                              }
                            }
                          
                          },
                          "metadata" : {
                            "default-behavior-center-delay" : 0.0,
                            "default-behavior-center-movement" : 12,
                            "default-behavior-center-secondsperloop" : 3.17,
                            "default-behavior-center-shift" : 5.0,
                            "default-behavior-center-style" : "reveal",
                            "default-behavior-center-type" : 1.0,
                            "default-behavior-in-direction" : 0,
                            "default-behavior-in-style" : "reveal",
                            "default-behavior-in-type" : 1.0,
                            "default-behavior-out-direction" : 3,
                            "default-behavior-out-movement" : 6.0,
                            "default-behavior-out-style" : "reveal",
                            "default-behavior-out-type" : 1.0,
                            "presetName" : "Reveal"
                          }
                        }
                    ],
                    "start" : 2491,
                    "duration" : 221,
                    "mediaStart" : 0,
                    "mediaDuration" : 300,
                    "scalar" : 1,
                    "metadata" : {
                      "clipSpeedAttribute" : false,
                      "default-height" : 1080.0000231266,
                      "default-rotation2" : 0.0,
                      "default-scale0" : 0.960854113101959,
                      "default-scale1" : 0.960854113101959,
                      "default-translation0" : 0.0,
                      "default-translation1" : 0.0,
                      "default-width" : 1078.0783149004
                    },
                    "animationTracks" : {

                    }
                  },
                  {
                    "id" : 133,
                    "_type" : "AMFile",
                    "src" : 3,
                    "trackNumber" : 0,
                    "attributes" : {
                      "ident" : "y2mate.com - Pencil sound effect",
                      "gain" : 1.0,
                      "mixToMono" : false,
                      "loudnessNormalization" : true,
                      "sourceFileOffset" : 0
                    },
                      "channelNumber" : "0,1",
                    "effects" : [

                    ],
                    "start" : 5093,
                    "duration" : 115,
                    "mediaStart" : 0,
                    "mediaDuration" : 115,
                    "scalar" : 1,
                    "metadata" : {
                      "clipSpeedAttribute" : false
                    },
                    "animationTracks" : {

                    }
                  },
                  {
                    "id" : 134,
                    "_type" : "IMFile",
                    "src" : 21,
                    "trackNumber" : 0,
                    "trimStartSum" : 256,
                    "attributes" : {
                      "ident" : "312310242 DIAH AYU LESTARI copy"
                    },
                    "parameters" : {
                      "translation0" : {
                        "type" : "double",
                        "defaultValue" : -121.90082260823,
                        "interp" : "eioe"
                      },
                      "translation1" : {
                        "type" : "double",
                        "defaultValue" : -279.484149135242,
                        "interp" : "eioe"
                      },
                      "scale0" : {
                        "type" : "double",
                        "defaultValue" : 0.329751994776558,
                        "interp" : "eioe"
                      },
                      "scale1" : {
                        "type" : "double",
                        "defaultValue" : 0.329751994776558,
                        "interp" : "eioe"
                      },
                      "sourceCrop0" : {
                        "type" : "double",
                        "defaultValue" : 0.0,
                        "interp" : "eioe"
                      },
                      "sourceCrop1" : {
                        "type" : "double",
                        "defaultValue" : 0.0,
                        "interp" : "eioe"
                      },
                      "sourceCrop2" : {
                        "type" : "double",
                        "defaultValue" : 0.0,
                        "interp" : "eioe"
                      },
                      "sourceCrop3" : {
                        "type" : "double",
                        "defaultValue" : 0.0,
                        "interp" : "eioe"
                      },
                      "geometryCrop0" : {
                        "type" : "double",
                        "defaultValue" : 755.673833089136,
                        "interp" : "eioe"
                      },
                      "geometryCrop1" : {
                        "type" : "double",
                        "defaultValue" : 0.0,
                        "interp" : "eioe"
                      },
                      "geometryCrop2" : {
                        "type" : "double",
                        "defaultValue" : 626.733636006373,
                        "interp" : "eioe"
                      },
                      "geometryCrop3" : {
                        "type" : "double",
                        "defaultValue" : 0.0,
                        "interp" : "eioe"
                      }
                    },
                    "effects" : [
                        {
                          "_type" : "GenericBehaviorEffect",
                          "effectName" : "reveal",
                          "bypassed" : false,
                          "start" : 256,
                          "duration" : 430                        ,
                          "in" : {
                            "attributes" : {
                              "name" : "sliding",
                              "type" : 0,
                              "characterOrder" : 7,
                              "offsetBetweenCharacters" : "3/2",
                              "suggestedDurationPerCharacter" : 30,
                              "overlapProportion" : "11/20",
                              "movement" : 16,
                              "springDamping" : 5.0,
                              "springStiffness" : 50.0,
                              "bounceBounciness" : 0.45
                            },
                            "parameters" : {
                              "direction" : {
                                "type" : "int",
                                "valueBounds" : {
                                  "minValue" : 0,
                                  "maxValue" : 3,
                                  "defaultValue" : 0
                                },
                                "uiHints" : {
                                  "userInterfaceType" : 2,
                                  "unitType" : 0
                                },
                                "keyframes" : [
                                  {
                                    "endTime" : 0,
                                    "time" : 0,
                                    "value" : 3,
                                    "duration" : 0
                                  }
                                ]
                              }
                            }
                          
                          },
                          "center" : {
                            "attributes" : {
                              "name" : "shifting",
                              "type" : 0,
                              "characterOrder" : 3,
                              "offsetBetweenCharacters" : 0,
                              "secondsPerLoop" : "11/50",
                              "numberOfLoops" : -1,
                              "delayBetweenLoops" : "5999/100"
                            },
                            "parameters" : {
                              "movement" : {
                                "type" : "int",
                                "valueBounds" : {
                                  "minValue" : 0,
                                  "maxValue" : 31,
                                  "defaultValue" : 12
                                },
                                "uiHints" : {
                                  "userInterfaceType" : 4,
                                  "unitType" : 0
                                },
                                "keyframes" : [
                                  {
                                    "endTime" : 0,
                                    "time" : 0,
                                    "value" : 15,
                                    "duration" : 0
                                  }
                                ]
                              },
                              "shift" : {
                                "type" : "double",
                                "defaultValue" : 1.0,
                                "interp" : "linr",
                                "valueBounds" : {
                                  "minValue" : 0.0,
                                  "maxValue" : 100.0,
                                  "defaultValue" : 5.0
                                },
                                "uiHints" : {
                                  "userInterfaceType" : 1,
                                  "unitType" : 0
                                }
                              }
                            }
                          
                          },
                          "out" : {
                            "attributes" : {
                              "name" : "drop",
                              "type" : 0,
                              "characterOrder" : 6,
                              "offsetBetweenCharacters" : "5/2",
                              "suggestedDurationPerCharacter" : 15,
                              "overlapProportion" : "1/5",
                              "movement" : 0,
                              "springDamping" : 5.0,
                              "springStiffness" : 50.0,
                              "bounceBounciness" : 0.45
                            },
                            "parameters" : {
                              "direction" : {
                                "type" : "int",
                                "valueBounds" : {
                                  "minValue" : 0,
                                  "maxValue" : 3,
                                  "defaultValue" : 3
                                },
                                "uiHints" : {
                                  "userInterfaceType" : 2,
                                  "unitType" : 0
                                },
                                "keyframes" : [
                                  {
                                    "endTime" : 0,
                                    "time" : 0,
                                    "value" : 3,
                                    "duration" : 0
                                  }
                                ]
                              }
                            }
                          
                          },
                          "metadata" : {
                            "default-behavior-center-delay" : 0.0,
                            "default-behavior-center-movement" : 12,
                            "default-behavior-center-secondsperloop" : 3.17,
                            "default-behavior-center-shift" : 5.0,
                            "default-behavior-center-style" : "reveal",
                            "default-behavior-center-type" : 1.0,
                            "default-behavior-in-direction" : 0,
                            "default-behavior-in-style" : "reveal",
                            "default-behavior-in-type" : 1.0,
                            "default-behavior-out-direction" : 3,
                            "default-behavior-out-movement" : 6.0,
                            "default-behavior-out-style" : "reveal",
                            "default-behavior-out-type" : 1.0,
                            "presetName" : "Reveal"
                          }
                        }
                    ],
                    "start" : 11701,
                    "duration" : 430,
                    "mediaStart" : 0,
                    "mediaDuration" : 1,
                    "scalar" : 1,
                    "metadata" : {
                      "clipSpeedAttribute" : false,
                      "default-height" : 1080.0,
                      "default-scale0" : 0.259615384615385,
                      "default-scale1" : 0.259615384615385,
                      "default-translation0" : 0.0,
                      "default-translation1" : 0.0,
                      "default-width" : 810.0
                    },
                    "animationTracks" : {

                    }
                  }
                ]
              },
              {
                "trackIndex" : 12,
                "medias" : [
                  {
                    "id" : 135,
                    "_type" : "IMFile",
                    "src" : 20,
                    "trackNumber" : 0,
                    "trimStartSum" : 0,
                    "attributes" : {
                      "ident" : "312310277 EKA SALSABILA copy"
                    },
                    "parameters" : {
                      "translation0" : 265.186014139915,
                      "translation1" : -124.246552292972,
                      "scale0" : 1.55992777120534,
                      "scale1" : 1.55992777120534,
                      "sourceCrop0" : 0.0,
                      "sourceCrop1" : 0.0,
                      "sourceCrop2" : 0.0,
                      "sourceCrop3" : 0.0,
                      "geometryCrop0" : 0.0,
                      "geometryCrop1" : 0.0,
                      "geometryCrop2" : 0.0,
                      "geometryCrop3" : 0.0
                    },
                    "effects" : [
                        {
                          "_type" : "GenericBehaviorEffect",
                          "effectName" : "reveal",
                          "bypassed" : false,
                          "start" : 0,
                          "duration" : 748                        ,
                          "in" : {
                            "attributes" : {
                              "name" : "sliding",
                              "type" : 0,
                              "characterOrder" : 7,
                              "offsetBetweenCharacters" : "3/2",
                              "suggestedDurationPerCharacter" : 30,
                              "overlapProportion" : "11/20",
                              "movement" : 16,
                              "springDamping" : 5.0,
                              "springStiffness" : 50.0,
                              "bounceBounciness" : 0.45
                            },
                            "parameters" : {
                              "direction" : {
                                "type" : "int",
                                "valueBounds" : {
                                  "minValue" : 0,
                                  "maxValue" : 3,
                                  "defaultValue" : 0
                                },
                                "uiHints" : {
                                  "userInterfaceType" : 2,
                                  "unitType" : 0
                                },
                                "keyframes" : [
                                  {
                                    "endTime" : 0,
                                    "time" : 0,
                                    "value" : 3,
                                    "duration" : 0
                                  }
                                ]
                              }
                            }
                          
                          },
                          "center" : {
                            "attributes" : {
                              "name" : "shifting",
                              "type" : 0,
                              "characterOrder" : 3,
                              "offsetBetweenCharacters" : 0,
                              "secondsPerLoop" : "11/50",
                              "numberOfLoops" : -1,
                              "delayBetweenLoops" : "5999/100"
                            },
                            "parameters" : {
                              "movement" : {
                                "type" : "int",
                                "valueBounds" : {
                                  "minValue" : 0,
                                  "maxValue" : 31,
                                  "defaultValue" : 12
                                },
                                "uiHints" : {
                                  "userInterfaceType" : 4,
                                  "unitType" : 0
                                },
                                "keyframes" : [
                                  {
                                    "endTime" : 0,
                                    "time" : 0,
                                    "value" : 15,
                                    "duration" : 0
                                  }
                                ]
                              },
                              "shift" : {
                                "type" : "double",
                                "defaultValue" : 1.0,
                                "valueBounds" : {
                                  "minValue" : 0.0,
                                  "maxValue" : 100.0,
                                  "defaultValue" : 5.0
                                },
                                "uiHints" : {
                                  "userInterfaceType" : 1,
                                  "unitType" : 0
                                }
                              }
                            }
                          
                          },
                          "out" : {
                            "attributes" : {
                              "name" : "drop",
                              "type" : 0,
                              "characterOrder" : 6,
                              "offsetBetweenCharacters" : "5/2",
                              "suggestedDurationPerCharacter" : 15,
                              "overlapProportion" : "1/5",
                              "movement" : 0,
                              "springDamping" : 5.0,
                              "springStiffness" : 50.0,
                              "bounceBounciness" : 0.45
                            },
                            "parameters" : {
                              "direction" : {
                                "type" : "int",
                                "valueBounds" : {
                                  "minValue" : 0,
                                  "maxValue" : 3,
                                  "defaultValue" : 3
                                },
                                "uiHints" : {
                                  "userInterfaceType" : 2,
                                  "unitType" : 0
                                },
                                "keyframes" : [
                                  {
                                    "endTime" : 0,
                                    "time" : 0,
                                    "value" : 3,
                                    "duration" : 0
                                  }
                                ]
                              }
                            }
                          
                          },
                          "metadata" : {
                            "default-behavior-center-delay" : 0.0,
                            "default-behavior-center-movement" : 12,
                            "default-behavior-center-secondsperloop" : 3.17,
                            "default-behavior-center-shift" : 5.0,
                            "default-behavior-center-style" : "reveal",
                            "default-behavior-center-type" : 1.0,
                            "default-behavior-in-direction" : 0,
                            "default-behavior-in-style" : "reveal",
                            "default-behavior-in-type" : 1.0,
                            "default-behavior-out-direction" : 3,
                            "default-behavior-out-movement" : 6.0,
                            "default-behavior-out-style" : "reveal",
                            "default-behavior-out-type" : 1.0,
                            "presetName" : "Reveal"
                          }
                        }
                    ],
                    "start" : 892,
                    "duration" : 748,
                    "mediaStart" : 0,
                    "mediaDuration" : 1,
                    "scalar" : 1,
                    "metadata" : {
                      "clipSpeedAttribute" : false,
                      "default-height" : 577.0,
                      "default-scale0" : 1.0,
                      "default-scale1" : 1.0,
                      "default-translation0" : -0.5,
                      "default-translation1" : -0.5,
                      "default-width" : 433.0
                    },
                    "animationTracks" : {

                    }
                  },
                  {
                    "id" : 136,
                    "_type" : "IMFile",
                    "src" : 39,
                    "trackNumber" : 0,
                    "trimStartSum" : 0,
                    "attributes" : {
                      "ident" : "pin-01"
                    },
                    "parameters" : {
                      "translation0" : {
                        "type" : "double",
                        "defaultValue" : -891.474670370773,
                        "interp" : "eioe"
                      },
                      "translation1" : {
                        "type" : "double",
                        "defaultValue" : 378.060923616221,
                        "interp" : "eioe"
                      },
                      "rotation2" : {
                        "type" : "double",
                        "defaultValue" : -1.1941559098041,
                        "interp" : "eioe"
                      },
                      "scale0" : {
                        "type" : "double",
                        "defaultValue" : 0.10906612507131,
                        "interp" : "eioe"
                      },
                      "scale1" : {
                        "type" : "double",
                        "defaultValue" : 0.10906612507131,
                        "interp" : "eioe"
                      },
                      "sourceCrop0" : {
                        "type" : "double",
                        "defaultValue" : 0.0,
                        "interp" : "eioe"
                      },
                      "sourceCrop1" : {
                        "type" : "double",
                        "defaultValue" : 0.0,
                        "interp" : "eioe"
                      },
                      "sourceCrop2" : {
                        "type" : "double",
                        "defaultValue" : 0.0,
                        "interp" : "eioe"
                      },
                      "sourceCrop3" : {
                        "type" : "double",
                        "defaultValue" : 0.0,
                        "interp" : "eioe"
                      },
                      "geometryCrop0" : {
                        "type" : "double",
                        "defaultValue" : 0.0,
                        "interp" : "eioe"
                      },
                      "geometryCrop1" : {
                        "type" : "double",
                        "defaultValue" : 0.0,
                        "interp" : "eioe"
                      },
                      "geometryCrop2" : {
                        "type" : "double",
                        "defaultValue" : 0.0,
                        "interp" : "eioe"
                      },
                      "geometryCrop3" : {
                        "type" : "double",
                        "defaultValue" : 0.0,
                        "interp" : "eioe"
                      }
                    },
                    "effects" : [
                        {
                          "_type" : "GenericBehaviorEffect",
                          "effectName" : "reveal",
                          "bypassed" : false,
                          "start" : 0,
                          "duration" : 236                        ,
                          "in" : {
                            "attributes" : {
                              "name" : "sliding",
                              "type" : 0,
                              "characterOrder" : 7,
                              "offsetBetweenCharacters" : "3/2",
                              "suggestedDurationPerCharacter" : 30,
                              "overlapProportion" : "11/20",
                              "movement" : 16,
                              "springDamping" : 5.0,
                              "springStiffness" : 50.0,
                              "bounceBounciness" : 0.45
                            },
                            "parameters" : {
                              "direction" : {
                                "type" : "int",
                                "valueBounds" : {
                                  "minValue" : 0,
                                  "maxValue" : 3,
                                  "defaultValue" : 0
                                },
                                "uiHints" : {
                                  "userInterfaceType" : 2,
                                  "unitType" : 0
                                },
                                "keyframes" : [
                                  {
                                    "endTime" : 0,
                                    "time" : 0,
                                    "value" : 1,
                                    "duration" : 0
                                  }
                                ]
                              }
                            }
                          
                          },
                          "center" : {
                            "attributes" : {
                              "name" : "none",
                              "type" : 0,
                              "characterOrder" : 6,
                              "offsetBetweenCharacters" : 0,
                              "secondsPerLoop" : 1,
                              "numberOfLoops" : -1,
                              "delayBetweenLoops" : 0
                            }
                          
                          },
                          "out" : {
                            "attributes" : {
                              "name" : "drop",
                              "type" : 0,
                              "characterOrder" : 6,
                              "offsetBetweenCharacters" : "5/2",
                              "suggestedDurationPerCharacter" : 15,
                              "overlapProportion" : "1/5",
                              "movement" : 0,
                              "springDamping" : 5.0,
                              "springStiffness" : 50.0,
                              "bounceBounciness" : 0.45
                            },
                            "parameters" : {
                              "direction" : {
                                "type" : "int",
                                "valueBounds" : {
                                  "minValue" : 0,
                                  "maxValue" : 3,
                                  "defaultValue" : 3
                                },
                                "uiHints" : {
                                  "userInterfaceType" : 2,
                                  "unitType" : 0
                                },
                                "keyframes" : [
                                  {
                                    "endTime" : 0,
                                    "time" : 0,
                                    "value" : 1,
                                    "duration" : 0
                                  }
                                ]
                              }
                            }
                          
                          },
                          "metadata" : {
                            "default-behavior-center-delay" : 0.0,
                            "default-behavior-center-movement" : 12,
                            "default-behavior-center-secondsperloop" : 3.17,
                            "default-behavior-center-shift" : 5.0,
                            "default-behavior-center-style" : "reveal",
                            "default-behavior-center-type" : 1.0,
                            "default-behavior-in-direction" : 0,
                            "default-behavior-in-style" : "reveal",
                            "default-behavior-in-type" : 1.0,
                            "default-behavior-out-direction" : 3,
                            "default-behavior-out-movement" : 6.0,
                            "default-behavior-out-style" : "reveal",
                            "default-behavior-out-type" : 1.0,
                            "presetName" : "Reveal"
                          }
                        }
                    ],
                    "start" : 2476,
                    "duration" : 236,
                    "mediaStart" : 0,
                    "mediaDuration" : 300,
                    "scalar" : 1,
                    "metadata" : {
                      "clipSpeedAttribute" : false,
                      "default-height" : 1080.0000231266,
                      "default-rotation2" : 0.0,
                      "default-scale0" : 0.960854113101959,
                      "default-scale1" : 0.960854113101959,
                      "default-translation0" : 0.0,
                      "default-translation1" : 0.0,
                      "default-width" : 1078.0783149004
                    },
                    "animationTracks" : {

                    }
                  },
                  {
                    "id" : 137,
                    "_type" : "Callout",
                    "def" : {
                      "kind" : "TypeWinHighlighter",
                      "shape" : "",
                      "style" : "",
                      "fill-color-opacity" : {
                        "type" : "double",
                        "defaultValue" : 1.0,
                        "interp" : "linr"
                      },
                      "fill-invert" : 0.0,
                      "fillColorBlue" : {
                        "type" : "double",
                        "defaultValue" : 0.0,
                        "interp" : "linr"
                      },
                      "fillColorGreen" : {
                        "type" : "double",
                        "defaultValue" : 1.0,
                        "interp" : "linr"
                      },
                      "fillColorRed" : {
                        "type" : "double",
                        "defaultValue" : 1.0,
                        "interp" : "linr"
                      },
                      "height" : {
                        "type" : "double",
                        "defaultValue" : 270.0,
                        "interp" : "linr"
                      },
                      "width" : {
                        "type" : "double",
                        "defaultValue" : 480.0,
                        "interp" : "linr"
                      },
                      "filename" : "C:\\Users\\Nandang.Duryat\\AppData\\Local\\TechSmith\\Camtasia Studio\\21.0\\Features\\Tools\\Annotations\\Defaults\\highlighter_100x100.xml",
                      "name" : "",
                      "xmlContent" : "﻿<?xml version=\"1.0\"?>\n\n<Overlay version=\"1.0.1\">\n\n<Overlay_Filename>highlighter_100x100.png</Overlay_Filename>\n<Overlay_Name>Highlighter</Overlay_Name>\n<Text_Top>0</Text_Top>\n<Text_Left>0</Text_Left>\n<Text_Bottom>0</Text_Bottom>\n<Text_Right>0</Text_Right>\n<Fill_Color>1</Fill_Color>\n<Border_Color>0</Border_Color>\n</Overlay>"
                    },
                    "attributes" : {
                      "ident" : "",
                      "autoRotateText" : true
                    },
                    "parameters" : {
                      "translation0" : {
                        "type" : "double",
                        "defaultValue" : -795.773809523809,
                        "interp" : "eioe",
                        "keyframes" : [
                          {
                            "endTime" : -123,
                            "time" : -146,
                            "value" : -455.615079365078,
                            "duration" : 23
                          }
                        ]
                      },
                      "translation1" : {
                        "type" : "double",
                        "defaultValue" : 304.746031746031,
                        "interp" : "eioe",
                        "keyframes" : [
                          {
                            "endTime" : -123,
                            "time" : -146,
                            "value" : 304.746031746031,
                            "duration" : 23
                          }
                        ]
                      },
                      "scale0" : {
                        "type" : "double",
                        "defaultValue" : 0.00371155450488408,
                        "interp" : "eioe",
                        "keyframes" : [
                          {
                            "endTime" : -123,
                            "time" : -146,
                            "value" : 1.43493716931217,
                            "duration" : 23
                          }
                        ]
                      },
                      "scale1" : {
                        "type" : "double",
                        "defaultValue" : 0.447383891828337,
                        "interp" : "eioe",
                        "keyframes" : [
                          {
                            "endTime" : -123,
                            "time" : -146,
                            "value" : 0.447383891828337,
                            "duration" : 23
                          }
                        ]
                      },
                      "sourceCrop0" : {
                        "type" : "double",
                        "defaultValue" : 0.0,
                        "interp" : "eioe"
                      },
                      "sourceCrop1" : {
                        "type" : "double",
                        "defaultValue" : 0.0,
                        "interp" : "eioe"
                      },
                      "sourceCrop2" : {
                        "type" : "double",
                        "defaultValue" : 0.0,
                        "interp" : "eioe"
                      },
                      "sourceCrop3" : {
                        "type" : "double",
                        "defaultValue" : 0.0,
                        "interp" : "eioe"
                      },
                      "geometryCrop0" : {
                        "type" : "double",
                        "defaultValue" : 0.0,
                        "interp" : "eioe"
                      },
                      "geometryCrop1" : {
                        "type" : "double",
                        "defaultValue" : 0.0,
                        "interp" : "eioe"
                      },
                      "geometryCrop2" : {
                        "type" : "double",
                        "defaultValue" : 0.0,
                        "interp" : "eioe"
                      },
                      "geometryCrop3" : {
                        "type" : "double",
                        "defaultValue" : 0.0,
                        "interp" : "eioe"
                      }
                    },
                    "effects" : [

                    ],
                    "start" : 5142,
                    "duration" : 289,
                    "mediaStart" : -195,
                    "mediaDuration" : 289,
                    "scalar" : 1,
                    "metadata" : {
                      "clipSpeedAttribute" : false,
                      "default-height" : 270.0,
                      "default-opacity" : 1.0,
                      "default-rotation0" : 0.0,
                      "default-rotation1" : 0.0,
                      "default-rotation2" : 0.0,
                      "default-scale0" : 1.0,
                      "default-scale1" : 1.0,
                      "default-translation0" : 0.0,
                      "default-translation1" : 0.0,
                      "default-translation2" : 0.0,
                      "default-width" : 480.0
                    },
                    "animationTracks" : {
                      "visual" : [
                        {
                          "endTime" : -123,
                          "duration" : 23,
                          "range" : [ -146, 23]
                        }
                      ]
                    }
                  },
                  {
                    "id" : 138,
                    "_type" : "IMFile",
                    "src" : 23,
                    "trackNumber" : 0,
                    "trimStartSum" : 338,
                    "attributes" : {
                      "ident" : "Nandang_Duryat_blue_light copy"
                    },
                    "parameters" : {
                      "translation0" : {
                        "type" : "double",
                        "defaultValue" : -397.888072661147,
                        "interp" : "eioe"
                      },
                      "translation1" : {
                        "type" : "double",
                        "defaultValue" : -372.114285714288,
                        "interp" : "eioe"
                      },
                      "scale0" : {
                        "type" : "double",
                        "defaultValue" : 0.838634745794462,
                        "interp" : "eioe"
                      },
                      "scale1" : {
                        "type" : "double",
                        "defaultValue" : 0.838634745794462,
                        "interp" : "eioe"
                      },
                      "sourceCrop0" : {
                        "type" : "double",
                        "defaultValue" : 0.0,
                        "interp" : "eioe"
                      },
                      "sourceCrop1" : {
                        "type" : "double",
                        "defaultValue" : 0.0,
                        "interp" : "eioe"
                      },
                      "sourceCrop2" : {
                        "type" : "double",
                        "defaultValue" : 0.0,
                        "interp" : "eioe"
                      },
                      "sourceCrop3" : {
                        "type" : "double",
                        "defaultValue" : 0.0,
                        "interp" : "eioe"
                      },
                      "geometryCrop0" : {
                        "type" : "double",
                        "defaultValue" : 0.0,
                        "interp" : "eioe"
                      },
                      "geometryCrop1" : {
                        "type" : "double",
                        "defaultValue" : 0.0,
                        "interp" : "eioe"
                      },
                      "geometryCrop2" : {
                        "type" : "double",
                        "defaultValue" : 0.0,
                        "interp" : "eioe"
                      },
                      "geometryCrop3" : {
                        "type" : "double",
                        "defaultValue" : 0.0,
                        "interp" : "eioe"
                      }
                    },
                    "effects" : [
                        {
                          "_type" : "GenericBehaviorEffect",
                          "effectName" : "reveal",
                          "bypassed" : false,
                          "start" : 338,
                          "duration" : 430                        ,
                          "in" : {
                            "attributes" : {
                              "name" : "sliding",
                              "type" : 0,
                              "characterOrder" : 7,
                              "offsetBetweenCharacters" : "3/2",
                              "suggestedDurationPerCharacter" : 30,
                              "overlapProportion" : "11/20",
                              "movement" : 16,
                              "springDamping" : 5.0,
                              "springStiffness" : 50.0,
                              "bounceBounciness" : 0.45
                            },
                            "parameters" : {
                              "direction" : {
                                "type" : "int",
                                "valueBounds" : {
                                  "minValue" : 0,
                                  "maxValue" : 3,
                                  "defaultValue" : 0
                                },
                                "uiHints" : {
                                  "userInterfaceType" : 2,
                                  "unitType" : 0
                                },
                                "keyframes" : [
                                  {
                                    "endTime" : 0,
                                    "time" : 0,
                                    "value" : 3,
                                    "duration" : 0
                                  }
                                ]
                              }
                            }
                          
                          },
                          "center" : {
                            "attributes" : {
                              "name" : "shifting",
                              "type" : 0,
                              "characterOrder" : 3,
                              "offsetBetweenCharacters" : 0,
                              "secondsPerLoop" : "11/50",
                              "numberOfLoops" : -1,
                              "delayBetweenLoops" : "5999/100"
                            },
                            "parameters" : {
                              "movement" : {
                                "type" : "int",
                                "valueBounds" : {
                                  "minValue" : 0,
                                  "maxValue" : 31,
                                  "defaultValue" : 12
                                },
                                "uiHints" : {
                                  "userInterfaceType" : 4,
                                  "unitType" : 0
                                },
                                "keyframes" : [
                                  {
                                    "endTime" : 0,
                                    "time" : 0,
                                    "value" : 15,
                                    "duration" : 0
                                  }
                                ]
                              },
                              "shift" : {
                                "type" : "double",
                                "defaultValue" : 1.0,
                                "interp" : "linr",
                                "valueBounds" : {
                                  "minValue" : 0.0,
                                  "maxValue" : 100.0,
                                  "defaultValue" : 5.0
                                },
                                "uiHints" : {
                                  "userInterfaceType" : 1,
                                  "unitType" : 0
                                }
                              }
                            }
                          
                          },
                          "out" : {
                            "attributes" : {
                              "name" : "drop",
                              "type" : 0,
                              "characterOrder" : 6,
                              "offsetBetweenCharacters" : "5/2",
                              "suggestedDurationPerCharacter" : 15,
                              "overlapProportion" : "1/5",
                              "movement" : 0,
                              "springDamping" : 5.0,
                              "springStiffness" : 50.0,
                              "bounceBounciness" : 0.45
                            },
                            "parameters" : {
                              "direction" : {
                                "type" : "int",
                                "valueBounds" : {
                                  "minValue" : 0,
                                  "maxValue" : 3,
                                  "defaultValue" : 3
                                },
                                "uiHints" : {
                                  "userInterfaceType" : 2,
                                  "unitType" : 0
                                },
                                "keyframes" : [
                                  {
                                    "endTime" : 0,
                                    "time" : 0,
                                    "value" : 3,
                                    "duration" : 0
                                  }
                                ]
                              }
                            }
                          
                          },
                          "metadata" : {
                            "default-behavior-center-delay" : 0.0,
                            "default-behavior-center-movement" : 12,
                            "default-behavior-center-secondsperloop" : 3.17,
                            "default-behavior-center-shift" : 5.0,
                            "default-behavior-center-style" : "reveal",
                            "default-behavior-center-type" : 1.0,
                            "default-behavior-in-direction" : 0,
                            "default-behavior-in-style" : "reveal",
                            "default-behavior-in-type" : 1.0,
                            "default-behavior-out-direction" : 3,
                            "default-behavior-out-movement" : 6.0,
                            "default-behavior-out-style" : "reveal",
                            "default-behavior-out-type" : 1.0,
                            "presetName" : "Reveal"
                          }
                        }
                    ],
                    "start" : 11701,
                    "duration" : 430,
                    "mediaStart" : 0,
                    "mediaDuration" : 1,
                    "scalar" : 1,
                    "metadata" : {
                      "clipSpeedAttribute" : false,
                      "default-height" : 1080.0,
                      "default-scale0" : 0.752613240418119,
                      "default-scale1" : 0.752613240418119,
                      "default-translation0" : 0.0,
                      "default-translation1" : 0.0,
                      "default-width" : 349.965156794425
                    },
                    "animationTracks" : {

                    }
                  }
                ],
                "transitions" : [
                  {
                    "name" : "Fade",
                    "duration" : 24,
                    "leftMedia" : 137,
                    "attributes" : {
                      "bypass" : false,
                      "reverse" : false,
                      "trivial" : false,
                      "useAudioPreRoll" : true,
                      "useVisualPreRoll" : true
                    }

                  }
                ]
              },
              {
                "trackIndex" : 13,
                "medias" : [
                  {
                    "id" : 139,
                    "_type" : "Callout",
                    "def" : {
                      "kind" : "remix",
                      "shape" : "text",
                      "style" : "basic",
                      "enable-ligatures" : {
                        "type" : "double",
                        "defaultValue" : 1.0,
                        "interp" : "linr"
                      },
                      "height" : {
                        "type" : "double",
                        "defaultValue" : 101.111111111111,
                        "interp" : "linr"
                      },
                      "line-spacing" : {
                        "type" : "double",
                        "defaultValue" : 0.0,
                        "interp" : "linr"
                      },
                      "width" : {
                        "type" : "double",
                        "defaultValue" : 1395.55555555556,
                        "interp" : "linr"
                      },
                      "word-wrap" : {
                        "type" : "double",
                        "defaultValue" : 1.0,
                        "interp" : "linr"
                      },
                      "horizontal-alignment" : "center",
                      "resize-behavior" : "resizeText",
                      "text" : "Mata Kuliah Pancasila",
                      "vertical-alignment" : "center",
                      "font" : {
                        "color-blue" : {
                          "type" : "double",
                          "defaultValue" : 1.0,
                          "interp" : "linr"
                        },
                        "color-green" : {
                          "type" : "double",
                          "defaultValue" : 1.0,
                          "interp" : "linr"
                        },
                        "color-red" : {
                          "type" : "double",
                          "defaultValue" : 1.0,
                          "interp" : "linr"
                        },
                        "size" : {
                          "type" : "double",
                          "defaultValue" : 64.0,
                          "interp" : "linr"
                        },
                        "tracking" : {
                          "type" : "double",
                          "defaultValue" : 0.0,
                          "interp" : "linr"
                        },
                        "name" : "Montserrat",
                        "weight" : "Regular"
                      },
                      "textAttributes" : {
                        "type" : "textAttributeList",
                        "keyframes" : [
                          {
                            "endTime" : 0,
                            "time" : 0,
                            "value" : [{"name":"kerning","rangeEnd":21,"rangeStart":0,"value":0,"valueType":"double"},{"name":"fontWeight","rangeEnd":21,"rangeStart":0,"value":700,"valueType":"int"},{"name":"fgColor","rangeEnd":21,"rangeStart":0,"value":"(0,0,0,255)","valueType":"color"},{"name":"fontSize","rangeEnd":21,"rangeStart":0,"value":64,"valueType":"double"},{"name":"underline","rangeEnd":21,"rangeStart":0,"value":0,"valueType":"int"},{"name":"fontItalic","rangeEnd":21,"rangeStart":0,"value":0,"valueType":"int"},{"name":"fontName","rangeEnd":21,"rangeStart":0,"value":"1942 report","valueType":"string"},{"name":"strikethrough","rangeEnd":21,"rangeStart":0,"value":0,"valueType":"int"}],
                            "duration" : 0
                          }
                        ]
                      }
                    },
                    "attributes" : {
                      "ident" : "",
                      "autoRotateText" : true
                    },
                    "parameters" : {
                      "translation0" : {
                        "type" : "double",
                        "defaultValue" : 0.222222222219798,
                        "interp" : "eioe"
                      },
                      "translation1" : {
                        "type" : "double",
                        "defaultValue" : 457.400001695421,
                        "interp" : "eioe"
                      },
                      "sourceCrop0" : {
                        "type" : "double",
                        "defaultValue" : 0.0,
                        "interp" : "eioe"
                      },
                      "sourceCrop1" : {
                        "type" : "double",
                        "defaultValue" : 0.0,
                        "interp" : "eioe"
                      },
                      "sourceCrop2" : {
                        "type" : "double",
                        "defaultValue" : 0.0,
                        "interp" : "eioe"
                      },
                      "sourceCrop3" : {
                        "type" : "double",
                        "defaultValue" : 0.0,
                        "interp" : "eioe"
                      },
                      "geometryCrop0" : {
                        "type" : "double",
                        "defaultValue" : 0.0,
                        "interp" : "eioe"
                      },
                      "geometryCrop1" : {
                        "type" : "double",
                        "defaultValue" : 0.0,
                        "interp" : "eioe"
                      },
                      "geometryCrop2" : {
                        "type" : "double",
                        "defaultValue" : 0.0,
                        "interp" : "eioe"
                      },
                      "geometryCrop3" : {
                        "type" : "double",
                        "defaultValue" : 0.0,
                        "interp" : "eioe"
                      }
                    },
                    "effects" : [
                        {
                          "_type" : "GenericBehaviorEffect",
                          "effectName" : "fade",
                          "bypassed" : false,
                          "start" : 0,
                          "duration" : 1158                        ,
                          "in" : {
                            "attributes" : {
                              "name" : "fadeIn",
                              "type" : 1,
                              "characterOrder" : 6,
                              "offsetBetweenCharacters" : "499/100",
                              "suggestedDurationPerCharacter" : 0,
                              "overlapProportion" : 0,
                              "movement" : 0,
                              "springDamping" : 5.0,
                              "springStiffness" : 50.0,
                              "bounceBounciness" : 0.45
                            }
                          
                          },
                          "center" : {
                            "attributes" : {
                              "name" : "none",
                              "type" : 1,
                              "characterOrder" : 6,
                              "offsetBetweenCharacters" : 0,
                              "secondsPerLoop" : 1,
                              "numberOfLoops" : -1,
                              "delayBetweenLoops" : 0
                            }
                          
                          },
                          "out" : {
                            "attributes" : {
                              "name" : "none",
                              "type" : 1,
                              "characterOrder" : 6,
                              "offsetBetweenCharacters" : 0,
                              "suggestedDurationPerCharacter" : 0,
                              "overlapProportion" : 0,
                              "movement" : -1,
                              "springDamping" : 5.0,
                              "springStiffness" : 50.0,
                              "bounceBounciness" : 0.45
                            }
                          
                          },
                          "metadata" : {
                            "default-behavior-in-bounciness" : 0.45,
                            "default-behavior-in-characterorder" : 7.0,
                            "default-behavior-in-duration" : 22.0,
                            "default-behavior-in-movement" : 16.0,
                            "default-behavior-in-offset" : 1.5,
                            "default-behavior-in-style" : "fadeIn",
                            "default-behavior-in-type" : 1.0,
                            "default-behavior-out-style" : "fadeOut",
                            "presetName" : "Fade"
                          }
                        }
                    ],
                    "start" : 482,
                    "duration" : 1158,
                    "mediaStart" : 0,
                    "mediaDuration" : 1158,
                    "scalar" : 1,
                    "metadata" : {
                      "clipSpeedAttribute" : false,
                      "default-HAlign" : "center",
                      "default-LineSpace" : 0.0,
                      "default-VAlign" : "center",
                      "default-height" : 250.0,
                      "default-text-attributes" : "[{\"name\":\"fgColor\",\"rangeEnd\":25,\"rangeStart\":0,\"value\":\"(0,0,0,255)\",\"valueType\":\"color\"},{\"name\":\"kerning\",\"rangeEnd\":25,\"rangeStart\":0,\"value\":0,\"valueType\":\"double\"},{\"name\":\"underline\",\"rangeEnd\":25,\"rangeStart\":0,\"value\":0,\"valueType\":\"int\"},{\"name\":\"strikethrough\",\"rangeEnd\":25,\"rangeStart\":0,\"value\":0,\"valueType\":\"int\"},{\"name\":\"fontWeight\",\"rangeEnd\":25,\"rangeStart\":0,\"value\":700,\"valueType\":\"int\"},{\"name\":\"fontItalic\",\"rangeEnd\":25,\"rangeStart\":0,\"value\":0,\"valueType\":\"int\"},{\"name\":\"fontName\",\"rangeEnd\":25,\"rangeStart\":0,\"value\":\"Courier New\",\"valueType\":\"string\"},{\"name\":\"fontSize\",\"rangeEnd\":25,\"rangeStart\":0,\"value\":64,\"valueType\":\"double\"}]",
                      "default-translation0" : 0.0,
                      "default-translation1" : 0.0,
                      "default-width" : 400.0
                    },
                    "animationTracks" : {

                    }
                  },
                  {
                    "id" : 140,
                    "_type" : "IMFile",
                    "src" : 42,
                    "trackNumber" : 0,
                    "trimStartSum" : 0,
                    "attributes" : {
                      "ident" : "10-tanahair"
                    },
                    "parameters" : {
                      "translation0" : {
                        "type" : "double",
                        "defaultValue" : 9.32587340685131e-15,
                        "interp" : "eioe"
                      },
                      "translation1" : {
                        "type" : "double",
                        "defaultValue" : -42.8571428571429,
                        "interp" : "eioe"
                      },
                      "sourceCrop0" : {
                        "type" : "double",
                        "defaultValue" : 0.0,
                        "interp" : "eioe"
                      },
                      "sourceCrop1" : {
                        "type" : "double",
                        "defaultValue" : 0.0,
                        "interp" : "eioe"
                      },
                      "sourceCrop2" : {
                        "type" : "double",
                        "defaultValue" : 0.0,
                        "interp" : "eioe"
                      },
                      "sourceCrop3" : {
                        "type" : "double",
                        "defaultValue" : 0.0,
                        "interp" : "eioe"
                      },
                      "geometryCrop0" : {
                        "type" : "double",
                        "defaultValue" : 0.0,
                        "interp" : "eioe"
                      },
                      "geometryCrop1" : {
                        "type" : "double",
                        "defaultValue" : 0.0,
                        "interp" : "eioe"
                      },
                      "geometryCrop2" : {
                        "type" : "double",
                        "defaultValue" : 0.0,
                        "interp" : "eioe"
                      },
                      "geometryCrop3" : {
                        "type" : "double",
                        "defaultValue" : 0.0,
                        "interp" : "eioe"
                      }
                    },
                    "effects" : [

                    ],
                    "start" : 1772,
                    "duration" : 209,
                    "mediaStart" : 0,
                    "mediaDuration" : 1,
                    "scalar" : 1,
                    "metadata" : {
                      "clipSpeedAttribute" : false,
                      "default-height" : 896.0,
                      "default-translation0" : -0.5,
                      "default-translation1" : 0.0,
                      "default-width" : 1075.0
                    },
                    "animationTracks" : {

                    }
                  },
                  {
                    "id" : 141,
                    "_type" : "AMFile",
                    "src" : 3,
                    "trackNumber" : 0,
                    "attributes" : {
                      "ident" : "y2mate.com - Pencil sound effect",
                      "gain" : 1.0,
                      "mixToMono" : false,
                      "loudnessNormalization" : true,
                      "sourceFileOffset" : 0
                    },
                      "channelNumber" : "0,1",
                    "effects" : [

                    ],
                    "start" : 5142,
                    "duration" : 115,
                    "mediaStart" : 0,
                    "mediaDuration" : 115,
                    "scalar" : 1,
                    "metadata" : {
                      "clipSpeedAttribute" : false
                    },
                    "animationTracks" : {

                    }
                  },
                  {
                    "id" : 142,
                    "_type" : "IMFile",
                    "src" : 24,
                    "trackNumber" : 0,
                    "trimStartSum" : 268,
                    "attributes" : {
                      "ident" : "312310301 ADAM MUBAROK copy"
                    },
                    "parameters" : {
                      "translation0" : {
                        "type" : "double",
                        "defaultValue" : 185.845622576534,
                        "interp" : "eioe"
                      },
                      "translation1" : {
                        "type" : "double",
                        "defaultValue" : -267.463218959641,
                        "interp" : "eioe"
                      },
                      "scale0" : {
                        "type" : "double",
                        "defaultValue" : 0.983839524797337,
                        "interp" : "eioe"
                      },
                      "scale1" : {
                        "type" : "double",
                        "defaultValue" : 0.983839524797337,
                        "interp" : "eioe"
                      },
                      "sourceCrop0" : {
                        "type" : "double",
                        "defaultValue" : 0.0,
                        "interp" : "eioe"
                      },
                      "sourceCrop1" : {
                        "type" : "double",
                        "defaultValue" : 0.0,
                        "interp" : "eioe"
                      },
                      "sourceCrop2" : {
                        "type" : "double",
                        "defaultValue" : 0.0,
                        "interp" : "eioe"
                      },
                      "sourceCrop3" : {
                        "type" : "double",
                        "defaultValue" : 0.0,
                        "interp" : "eioe"
                      },
                      "geometryCrop0" : {
                        "type" : "double",
                        "defaultValue" : 0.0,
                        "interp" : "eioe"
                      },
                      "geometryCrop1" : {
                        "type" : "double",
                        "defaultValue" : 0.0,
                        "interp" : "eioe"
                      },
                      "geometryCrop2" : {
                        "type" : "double",
                        "defaultValue" : 0.0,
                        "interp" : "eioe"
                      },
                      "geometryCrop3" : {
                        "type" : "double",
                        "defaultValue" : 0.0,
                        "interp" : "eioe"
                      }
                    },
                    "effects" : [
                        {
                          "_type" : "GenericBehaviorEffect",
                          "effectName" : "reveal",
                          "bypassed" : false,
                          "start" : 268,
                          "duration" : 430                        ,
                          "in" : {
                            "attributes" : {
                              "name" : "sliding",
                              "type" : 0,
                              "characterOrder" : 7,
                              "offsetBetweenCharacters" : "3/2",
                              "suggestedDurationPerCharacter" : 30,
                              "overlapProportion" : "11/20",
                              "movement" : 16,
                              "springDamping" : 5.0,
                              "springStiffness" : 50.0,
                              "bounceBounciness" : 0.45
                            },
                            "parameters" : {
                              "direction" : {
                                "type" : "int",
                                "valueBounds" : {
                                  "minValue" : 0,
                                  "maxValue" : 3,
                                  "defaultValue" : 0
                                },
                                "uiHints" : {
                                  "userInterfaceType" : 2,
                                  "unitType" : 0
                                },
                                "keyframes" : [
                                  {
                                    "endTime" : 0,
                                    "time" : 0,
                                    "value" : 3,
                                    "duration" : 0
                                  }
                                ]
                              }
                            }
                          
                          },
                          "center" : {
                            "attributes" : {
                              "name" : "shifting",
                              "type" : 0,
                              "characterOrder" : 3,
                              "offsetBetweenCharacters" : 0,
                              "secondsPerLoop" : "11/50",
                              "numberOfLoops" : -1,
                              "delayBetweenLoops" : "5999/100"
                            },
                            "parameters" : {
                              "movement" : {
                                "type" : "int",
                                "valueBounds" : {
                                  "minValue" : 0,
                                  "maxValue" : 31,
                                  "defaultValue" : 12
                                },
                                "uiHints" : {
                                  "userInterfaceType" : 4,
                                  "unitType" : 0
                                },
                                "keyframes" : [
                                  {
                                    "endTime" : 0,
                                    "time" : 0,
                                    "value" : 15,
                                    "duration" : 0
                                  }
                                ]
                              },
                              "shift" : {
                                "type" : "double",
                                "defaultValue" : 1.0,
                                "interp" : "linr",
                                "valueBounds" : {
                                  "minValue" : 0.0,
                                  "maxValue" : 100.0,
                                  "defaultValue" : 5.0
                                },
                                "uiHints" : {
                                  "userInterfaceType" : 1,
                                  "unitType" : 0
                                }
                              }
                            }
                          
                          },
                          "out" : {
                            "attributes" : {
                              "name" : "drop",
                              "type" : 0,
                              "characterOrder" : 6,
                              "offsetBetweenCharacters" : "5/2",
                              "suggestedDurationPerCharacter" : 15,
                              "overlapProportion" : "1/5",
                              "movement" : 0,
                              "springDamping" : 5.0,
                              "springStiffness" : 50.0,
                              "bounceBounciness" : 0.45
                            },
                            "parameters" : {
                              "direction" : {
                                "type" : "int",
                                "valueBounds" : {
                                  "minValue" : 0,
                                  "maxValue" : 3,
                                  "defaultValue" : 3
                                },
                                "uiHints" : {
                                  "userInterfaceType" : 2,
                                  "unitType" : 0
                                },
                                "keyframes" : [
                                  {
                                    "endTime" : 0,
                                    "time" : 0,
                                    "value" : 3,
                                    "duration" : 0
                                  }
                                ]
                              }
                            }
                          
                          },
                          "metadata" : {
                            "default-behavior-center-delay" : 0.0,
                            "default-behavior-center-movement" : 12,
                            "default-behavior-center-secondsperloop" : 3.17,
                            "default-behavior-center-shift" : 5.0,
                            "default-behavior-center-style" : "reveal",
                            "default-behavior-center-type" : 1.0,
                            "default-behavior-in-direction" : 0,
                            "default-behavior-in-style" : "reveal",
                            "default-behavior-in-type" : 1.0,
                            "default-behavior-out-direction" : 3,
                            "default-behavior-out-movement" : 6.0,
                            "default-behavior-out-style" : "reveal",
                            "default-behavior-out-type" : 1.0,
                            "presetName" : "Reveal"
                          }
                        }
                    ],
                    "start" : 11701,
                    "duration" : 430,
                    "mediaStart" : 0,
                    "mediaDuration" : 1,
                    "scalar" : 1,
                    "metadata" : {
                      "clipSpeedAttribute" : false,
                      "default-height" : 786.0,
                      "default-rotation2" : 0.0,
                      "default-scale0" : 1.0,
                      "default-scale1" : 1.0,
                      "default-translation0" : 0.0,
                      "default-translation1" : 0.0,
                      "default-width" : 524.0
                    },
                    "animationTracks" : {

                    }
                  }
                ],
                "transitions" : [
                  {
                    "name" : "Fade",
                    "duration" : 22,
                    "leftMedia" : 140,
                    "attributes" : {
                      "bypass" : false,
                      "reverse" : false,
                      "trivial" : false,
                      "useAudioPreRoll" : true,
                      "useVisualPreRoll" : true
                    }

                  }
                ]
              },
              {
                "trackIndex" : 14,
                "medias" : [
                  {
                    "id" : 143,
                    "_type" : "Callout",
                    "def" : {
                      "kind" : "TypeWinHighlighter",
                      "shape" : "",
                      "style" : "",
                      "fill-color-opacity" : {
                        "type" : "double",
                        "defaultValue" : 1.0,
                        "interp" : "linr"
                      },
                      "fill-invert" : 0.0,
                      "fillColorBlue" : {
                        "type" : "double",
                        "defaultValue" : 0.0,
                        "interp" : "linr"
                      },
                      "fillColorGreen" : {
                        "type" : "double",
                        "defaultValue" : 1.0,
                        "interp" : "linr"
                      },
                      "fillColorRed" : {
                        "type" : "double",
                        "defaultValue" : 1.0,
                        "interp" : "linr"
                      },
                      "height" : {
                        "type" : "double",
                        "defaultValue" : 270.0,
                        "interp" : "linr"
                      },
                      "width" : {
                        "type" : "double",
                        "defaultValue" : 480.0,
                        "interp" : "linr"
                      },
                      "filename" : "C:\\Users\\Nandang.Duryat\\AppData\\Local\\TechSmith\\Camtasia Studio\\21.0\\Features\\Tools\\Annotations\\Defaults\\highlighter_100x100.xml",
                      "name" : "",
                      "xmlContent" : "﻿<?xml version=\"1.0\"?>\n\n<Overlay version=\"1.0.1\">\n\n<Overlay_Filename>highlighter_100x100.png</Overlay_Filename>\n<Overlay_Name>Highlighter</Overlay_Name>\n<Text_Top>0</Text_Top>\n<Text_Left>0</Text_Left>\n<Text_Bottom>0</Text_Bottom>\n<Text_Right>0</Text_Right>\n<Fill_Color>1</Fill_Color>\n<Border_Color>0</Border_Color>\n</Overlay>"
                    },
                    "attributes" : {
                      "ident" : "",
                      "autoRotateText" : true
                    },
                    "parameters" : {
                      "translation0" : {
                        "type" : "double",
                        "defaultValue" : -331.587301587302,
                        "interp" : "eioe",
                        "keyframes" : [
                          {
                            "endTime" : -123,
                            "time" : -146,
                            "value" : 81.4285714285715,
                            "duration" : 23
                          }
                        ]
                      },
                      "translation1" : {
                        "type" : "double",
                        "defaultValue" : 349.031746031746,
                        "interp" : "eioe",
                        "keyframes" : [
                          {
                            "endTime" : -123,
                            "time" : -146,
                            "value" : 349.031746031746,
                            "duration" : 23
                          }
                        ]
                      },
                      "scale0" : {
                        "type" : "double",
                        "defaultValue" : 0.00578145468619758,
                        "interp" : "eioe",
                        "keyframes" : [
                          {
                            "endTime" : -123,
                            "time" : -146,
                            "value" : 1.76231812169312,
                            "duration" : 23
                          }
                        ]
                      },
                      "scale1" : {
                        "type" : "double",
                        "defaultValue" : 0.352145796590241,
                        "interp" : "eioe",
                        "keyframes" : [
                          {
                            "endTime" : -123,
                            "time" : -146,
                            "value" : 0.352145796590241,
                            "duration" : 23
                          }
                        ]
                      },
                      "sourceCrop0" : {
                        "type" : "double",
                        "defaultValue" : 0.0,
                        "interp" : "eioe"
                      },
                      "sourceCrop1" : {
                        "type" : "double",
                        "defaultValue" : 0.0,
                        "interp" : "eioe"
                      },
                      "sourceCrop2" : {
                        "type" : "double",
                        "defaultValue" : 0.0,
                        "interp" : "eioe"
                      },
                      "sourceCrop3" : {
                        "type" : "double",
                        "defaultValue" : 0.0,
                        "interp" : "eioe"
                      },
                      "geometryCrop0" : {
                        "type" : "double",
                        "defaultValue" : 0.0,
                        "interp" : "eioe"
                      },
                      "geometryCrop1" : {
                        "type" : "double",
                        "defaultValue" : 0.0,
                        "interp" : "eioe"
                      },
                      "geometryCrop2" : {
                        "type" : "double",
                        "defaultValue" : 0.0,
                        "interp" : "eioe"
                      },
                      "geometryCrop3" : {
                        "type" : "double",
                        "defaultValue" : 0.0,
                        "interp" : "eioe"
                      }
                    },
                    "effects" : [

                    ],
                    "start" : 1772,
                    "duration" : 211,
                    "mediaStart" : -195,
                    "mediaDuration" : 211,
                    "scalar" : 1,
                    "metadata" : {
                      "clipSpeedAttribute" : false,
                      "default-height" : 270.0,
                      "default-opacity" : 1.0,
                      "default-rotation0" : 0.0,
                      "default-rotation1" : 0.0,
                      "default-rotation2" : 0.0,
                      "default-scale0" : 1.0,
                      "default-scale1" : 1.0,
                      "default-translation0" : 0.0,
                      "default-translation1" : 0.0,
                      "default-translation2" : 0.0,
                      "default-width" : 480.0
                    },
                    "animationTracks" : {
                      "visual" : [
                        {
                          "endTime" : -123,
                          "duration" : 23,
                          "range" : [ -146, 23]
                        }
                      ]
                    }
                  },
                  {
                    "id" : 144,
                    "_type" : "IMFile",
                    "src" : 51,
                    "trackNumber" : 0,
                    "trimStartSum" : -110,
                    "attributes" : {
                      "ident" : "312310232 GILANG PRAYOGA copy2"
                    },
                    "parameters" : {
                      "translation0" : {
                        "type" : "double",
                        "defaultValue" : 481.494239859695,
                        "interp" : "eioe"
                      },
                      "translation1" : {
                        "type" : "double",
                        "defaultValue" : -363.794930875578,
                        "interp" : "eioe"
                      },
                      "scale0" : {
                        "type" : "double",
                        "defaultValue" : 1.20919679870414,
                        "interp" : "eioe"
                      },
                      "scale1" : {
                        "type" : "double",
                        "defaultValue" : 1.20919679870414,
                        "interp" : "eioe"
                      },
                      "sourceCrop0" : {
                        "type" : "double",
                        "defaultValue" : 0.0,
                        "interp" : "eioe"
                      },
                      "sourceCrop1" : {
                        "type" : "double",
                        "defaultValue" : 0.0,
                        "interp" : "eioe"
                      },
                      "sourceCrop2" : {
                        "type" : "double",
                        "defaultValue" : 0.0,
                        "interp" : "eioe"
                      },
                      "sourceCrop3" : {
                        "type" : "double",
                        "defaultValue" : 0.0,
                        "interp" : "eioe"
                      },
                      "geometryCrop0" : {
                        "type" : "double",
                        "defaultValue" : 0.0,
                        "interp" : "eioe"
                      },
                      "geometryCrop1" : {
                        "type" : "double",
                        "defaultValue" : 0.0,
                        "interp" : "eioe"
                      },
                      "geometryCrop2" : {
                        "type" : "double",
                        "defaultValue" : 0.0,
                        "interp" : "eioe"
                      },
                      "geometryCrop3" : {
                        "type" : "double",
                        "defaultValue" : 0.0,
                        "interp" : "eioe"
                      }
                    },
                    "effects" : [
                        {
                          "_type" : "GenericBehaviorEffect",
                          "effectName" : "reveal",
                          "bypassed" : false,
                          "start" : -110,
                          "duration" : 430                        ,
                          "in" : {
                            "attributes" : {
                              "name" : "sliding",
                              "type" : 0,
                              "characterOrder" : 7,
                              "offsetBetweenCharacters" : "3/2",
                              "suggestedDurationPerCharacter" : 30,
                              "overlapProportion" : "11/20",
                              "movement" : 16,
                              "springDamping" : 5.0,
                              "springStiffness" : 50.0,
                              "bounceBounciness" : 0.45
                            },
                            "parameters" : {
                              "direction" : {
                                "type" : "int",
                                "valueBounds" : {
                                  "minValue" : 0,
                                  "maxValue" : 3,
                                  "defaultValue" : 0
                                },
                                "uiHints" : {
                                  "userInterfaceType" : 2,
                                  "unitType" : 0
                                },
                                "keyframes" : [
                                  {
                                    "endTime" : 0,
                                    "time" : 0,
                                    "value" : 3,
                                    "duration" : 0
                                  }
                                ]
                              }
                            }
                          
                          },
                          "center" : {
                            "attributes" : {
                              "name" : "shifting",
                              "type" : 0,
                              "characterOrder" : 3,
                              "offsetBetweenCharacters" : 0,
                              "secondsPerLoop" : "11/50",
                              "numberOfLoops" : -1,
                              "delayBetweenLoops" : "5999/100"
                            },
                            "parameters" : {
                              "movement" : {
                                "type" : "int",
                                "valueBounds" : {
                                  "minValue" : 0,
                                  "maxValue" : 31,
                                  "defaultValue" : 12
                                },
                                "uiHints" : {
                                  "userInterfaceType" : 4,
                                  "unitType" : 0
                                },
                                "keyframes" : [
                                  {
                                    "endTime" : 0,
                                    "time" : 0,
                                    "value" : 15,
                                    "duration" : 0
                                  }
                                ]
                              },
                              "shift" : {
                                "type" : "double",
                                "defaultValue" : 1.0,
                                "interp" : "linr",
                                "valueBounds" : {
                                  "minValue" : 0.0,
                                  "maxValue" : 100.0,
                                  "defaultValue" : 5.0
                                },
                                "uiHints" : {
                                  "userInterfaceType" : 1,
                                  "unitType" : 0
                                }
                              }
                            }
                          
                          },
                          "out" : {
                            "attributes" : {
                              "name" : "drop",
                              "type" : 0,
                              "characterOrder" : 6,
                              "offsetBetweenCharacters" : "5/2",
                              "suggestedDurationPerCharacter" : 15,
                              "overlapProportion" : "1/5",
                              "movement" : 0,
                              "springDamping" : 5.0,
                              "springStiffness" : 50.0,
                              "bounceBounciness" : 0.45
                            },
                            "parameters" : {
                              "direction" : {
                                "type" : "int",
                                "valueBounds" : {
                                  "minValue" : 0,
                                  "maxValue" : 3,
                                  "defaultValue" : 3
                                },
                                "uiHints" : {
                                  "userInterfaceType" : 2,
                                  "unitType" : 0
                                },
                                "keyframes" : [
                                  {
                                    "endTime" : 0,
                                    "time" : 0,
                                    "value" : 3,
                                    "duration" : 0
                                  }
                                ]
                              }
                            }
                          
                          },
                          "metadata" : {
                            "default-behavior-center-delay" : 0.0,
                            "default-behavior-center-movement" : 12,
                            "default-behavior-center-secondsperloop" : 3.17,
                            "default-behavior-center-shift" : 5.0,
                            "default-behavior-center-style" : "reveal",
                            "default-behavior-center-type" : 1.0,
                            "default-behavior-in-direction" : 0,
                            "default-behavior-in-style" : "reveal",
                            "default-behavior-in-type" : 1.0,
                            "default-behavior-out-direction" : 3,
                            "default-behavior-out-movement" : 6.0,
                            "default-behavior-out-style" : "reveal",
                            "default-behavior-out-type" : 1.0,
                            "presetName" : "Reveal"
                          }
                        }
                    ],
                    "start" : 11701,
                    "duration" : 430,
                    "mediaStart" : 0,
                    "mediaDuration" : 1,
                    "scalar" : 1,
                    "metadata" : {
                      "clipSpeedAttribute" : false,
                      "default-height" : 1009.0,
                      "default-scale0" : 1.0,
                      "default-scale1" : 1.0,
                      "default-translation0" : -0.5,
                      "default-translation1" : -0.5,
                      "default-width" : 489.0
                    },
                    "animationTracks" : {

                    }
                  }
                ],
                "transitions" : [
                  {
                    "name" : "Fade",
                    "duration" : 24,
                    "leftMedia" : 143,
                    "attributes" : {
                      "bypass" : false,
                      "reverse" : false,
                      "trivial" : false,
                      "useAudioPreRoll" : true,
                      "useVisualPreRoll" : true
                    }

                  }
                ]
              },
              {
                "trackIndex" : 15,
                "medias" : [
                  {
                    "id" : 145,
                    "_type" : "IMFile",
                    "src" : 21,
                    "trackNumber" : 0,
                    "trimStartSum" : 15,
                    "attributes" : {
                      "ident" : "312310242 DIAH AYU LESTARI copy"
                    },
                    "parameters" : {
                      "translation0" : -93.7974919235046,
                      "translation1" : -313.769863420954,
                      "scale0" : 0.329751994776558,
                      "scale1" : 0.329751994776558,
                      "sourceCrop0" : 0.0,
                      "sourceCrop1" : 0.0,
                      "sourceCrop2" : 0.0,
                      "sourceCrop3" : 0.0,
                      "geometryCrop0" : 755.673833089136,
                      "geometryCrop1" : 0.0,
                      "geometryCrop2" : 626.733636006373,
                      "geometryCrop3" : 0.0
                    },
                    "effects" : [
                        {
                          "_type" : "GenericBehaviorEffect",
                          "effectName" : "reveal",
                          "bypassed" : false,
                          "start" : 15,
                          "duration" : 839                        ,
                          "in" : {
                            "attributes" : {
                              "name" : "sliding",
                              "type" : 0,
                              "characterOrder" : 7,
                              "offsetBetweenCharacters" : "3/2",
                              "suggestedDurationPerCharacter" : 30,
                              "overlapProportion" : "11/20",
                              "movement" : 16,
                              "springDamping" : 5.0,
                              "springStiffness" : 50.0,
                              "bounceBounciness" : 0.45
                            },
                            "parameters" : {
                              "direction" : {
                                "type" : "int",
                                "valueBounds" : {
                                  "minValue" : 0,
                                  "maxValue" : 3,
                                  "defaultValue" : 0
                                },
                                "uiHints" : {
                                  "userInterfaceType" : 2,
                                  "unitType" : 0
                                },
                                "keyframes" : [
                                  {
                                    "endTime" : 0,
                                    "time" : 0,
                                    "value" : 3,
                                    "duration" : 0
                                  }
                                ]
                              }
                            }
                          
                          },
                          "center" : {
                            "attributes" : {
                              "name" : "shifting",
                              "type" : 0,
                              "characterOrder" : 3,
                              "offsetBetweenCharacters" : 0,
                              "secondsPerLoop" : "11/50",
                              "numberOfLoops" : -1,
                              "delayBetweenLoops" : "5999/100"
                            },
                            "parameters" : {
                              "movement" : {
                                "type" : "int",
                                "valueBounds" : {
                                  "minValue" : 0,
                                  "maxValue" : 31,
                                  "defaultValue" : 12
                                },
                                "uiHints" : {
                                  "userInterfaceType" : 4,
                                  "unitType" : 0
                                },
                                "keyframes" : [
                                  {
                                    "endTime" : 0,
                                    "time" : 0,
                                    "value" : 15,
                                    "duration" : 0
                                  }
                                ]
                              },
                              "shift" : {
                                "type" : "double",
                                "defaultValue" : 1.0,
                                "valueBounds" : {
                                  "minValue" : 0.0,
                                  "maxValue" : 100.0,
                                  "defaultValue" : 5.0
                                },
                                "uiHints" : {
                                  "userInterfaceType" : 1,
                                  "unitType" : 0
                                }
                              }
                            }
                          
                          },
                          "out" : {
                            "attributes" : {
                              "name" : "drop",
                              "type" : 0,
                              "characterOrder" : 6,
                              "offsetBetweenCharacters" : "5/2",
                              "suggestedDurationPerCharacter" : 15,
                              "overlapProportion" : "1/5",
                              "movement" : 0,
                              "springDamping" : 5.0,
                              "springStiffness" : 50.0,
                              "bounceBounciness" : 0.45
                            },
                            "parameters" : {
                              "direction" : {
                                "type" : "int",
                                "valueBounds" : {
                                  "minValue" : 0,
                                  "maxValue" : 3,
                                  "defaultValue" : 3
                                },
                                "uiHints" : {
                                  "userInterfaceType" : 2,
                                  "unitType" : 0
                                },
                                "keyframes" : [
                                  {
                                    "endTime" : 0,
                                    "time" : 0,
                                    "value" : 3,
                                    "duration" : 0
                                  }
                                ]
                              }
                            }
                          
                          },
                          "metadata" : {
                            "default-behavior-center-delay" : 0.0,
                            "default-behavior-center-movement" : 12,
                            "default-behavior-center-secondsperloop" : 3.17,
                            "default-behavior-center-shift" : 5.0,
                            "default-behavior-center-style" : "reveal",
                            "default-behavior-center-type" : 1.0,
                            "default-behavior-in-direction" : 0,
                            "default-behavior-in-style" : "reveal",
                            "default-behavior-in-type" : 1.0,
                            "default-behavior-out-direction" : 3,
                            "default-behavior-out-movement" : 6.0,
                            "default-behavior-out-style" : "reveal",
                            "default-behavior-out-type" : 1.0,
                            "presetName" : "Reveal"
                          }
                        }
                    ],
                    "start" : 801,
                    "duration" : 839,
                    "mediaStart" : 0,
                    "mediaDuration" : 1,
                    "scalar" : 1,
                    "metadata" : {
                      "clipSpeedAttribute" : false,
                      "default-height" : 1080.0,
                      "default-scale0" : 0.259615384615385,
                      "default-scale1" : 0.259615384615385,
                      "default-translation0" : 0.0,
                      "default-translation1" : 0.0,
                      "default-width" : 810.0
                    },
                    "animationTracks" : {

                    }
                  },
                  {
                    "id" : 146,
                    "_type" : "AMFile",
                    "src" : 3,
                    "trackNumber" : 0,
                    "attributes" : {
                      "ident" : "y2mate.com - Pencil sound effect",
                      "gain" : 1.0,
                      "mixToMono" : false,
                      "loudnessNormalization" : true,
                      "sourceFileOffset" : 0
                    },
                      "channelNumber" : "0,1",
                    "effects" : [

                    ],
                    "start" : 1772,
                    "duration" : 115,
                    "mediaStart" : 0,
                    "mediaDuration" : 115,
                    "scalar" : 1,
                    "metadata" : {
                      "clipSpeedAttribute" : false
                    },
                    "animationTracks" : {

                    }
                  },
                  {
                    "id" : 147,
                    "_type" : "IMFile",
                    "src" : 25,
                    "trackNumber" : 0,
                    "trimStartSum" : -68,
                    "attributes" : {
                      "ident" : "312310262 RIYADI copy"
                    },
                    "parameters" : {
                      "translation0" : {
                        "type" : "double",
                        "defaultValue" : -91.0592157733401,
                        "interp" : "eioe"
                      },
                      "translation1" : {
                        "type" : "double",
                        "defaultValue" : -267.463218959641,
                        "interp" : "eioe"
                      },
                      "scale0" : {
                        "type" : "double",
                        "defaultValue" : 0.540829762402098,
                        "interp" : "eioe"
                      },
                      "scale1" : {
                        "type" : "double",
                        "defaultValue" : 0.540829762402098,
                        "interp" : "eioe"
                      },
                      "sourceCrop0" : {
                        "type" : "double",
                        "defaultValue" : 0.0,
                        "interp" : "eioe"
                      },
                      "sourceCrop1" : {
                        "type" : "double",
                        "defaultValue" : 0.0,
                        "interp" : "eioe"
                      },
                      "sourceCrop2" : {
                        "type" : "double",
                        "defaultValue" : 0.0,
                        "interp" : "eioe"
                      },
                      "sourceCrop3" : {
                        "type" : "double",
                        "defaultValue" : 0.0,
                        "interp" : "eioe"
                      },
                      "geometryCrop0" : {
                        "type" : "double",
                        "defaultValue" : 0.0,
                        "interp" : "eioe"
                      },
                      "geometryCrop1" : {
                        "type" : "double",
                        "defaultValue" : 0.0,
                        "interp" : "eioe"
                      },
                      "geometryCrop2" : {
                        "type" : "double",
                        "defaultValue" : 0.0,
                        "interp" : "eioe"
                      },
                      "geometryCrop3" : {
                        "type" : "double",
                        "defaultValue" : 0.0,
                        "interp" : "eioe"
                      }
                    },
                    "effects" : [
                        {
                          "_type" : "GenericBehaviorEffect",
                          "effectName" : "reveal",
                          "bypassed" : false,
                          "start" : -68,
                          "duration" : 430                        ,
                          "in" : {
                            "attributes" : {
                              "name" : "sliding",
                              "type" : 0,
                              "characterOrder" : 7,
                              "offsetBetweenCharacters" : "3/2",
                              "suggestedDurationPerCharacter" : 30,
                              "overlapProportion" : "11/20",
                              "movement" : 16,
                              "springDamping" : 5.0,
                              "springStiffness" : 50.0,
                              "bounceBounciness" : 0.45
                            },
                            "parameters" : {
                              "direction" : {
                                "type" : "int",
                                "valueBounds" : {
                                  "minValue" : 0,
                                  "maxValue" : 3,
                                  "defaultValue" : 0
                                },
                                "uiHints" : {
                                  "userInterfaceType" : 2,
                                  "unitType" : 0
                                },
                                "keyframes" : [
                                  {
                                    "endTime" : 0,
                                    "time" : 0,
                                    "value" : 3,
                                    "duration" : 0
                                  }
                                ]
                              }
                            }
                          
                          },
                          "center" : {
                            "attributes" : {
                              "name" : "shifting",
                              "type" : 0,
                              "characterOrder" : 3,
                              "offsetBetweenCharacters" : 0,
                              "secondsPerLoop" : "11/50",
                              "numberOfLoops" : -1,
                              "delayBetweenLoops" : "5999/100"
                            },
                            "parameters" : {
                              "movement" : {
                                "type" : "int",
                                "valueBounds" : {
                                  "minValue" : 0,
                                  "maxValue" : 31,
                                  "defaultValue" : 12
                                },
                                "uiHints" : {
                                  "userInterfaceType" : 4,
                                  "unitType" : 0
                                },
                                "keyframes" : [
                                  {
                                    "endTime" : 0,
                                    "time" : 0,
                                    "value" : 15,
                                    "duration" : 0
                                  }
                                ]
                              },
                              "shift" : {
                                "type" : "double",
                                "defaultValue" : 1.0,
                                "interp" : "linr",
                                "valueBounds" : {
                                  "minValue" : 0.0,
                                  "maxValue" : 100.0,
                                  "defaultValue" : 5.0
                                },
                                "uiHints" : {
                                  "userInterfaceType" : 1,
                                  "unitType" : 0
                                }
                              }
                            }
                          
                          },
                          "out" : {
                            "attributes" : {
                              "name" : "drop",
                              "type" : 0,
                              "characterOrder" : 6,
                              "offsetBetweenCharacters" : "5/2",
                              "suggestedDurationPerCharacter" : 15,
                              "overlapProportion" : "1/5",
                              "movement" : 0,
                              "springDamping" : 5.0,
                              "springStiffness" : 50.0,
                              "bounceBounciness" : 0.45
                            },
                            "parameters" : {
                              "direction" : {
                                "type" : "int",
                                "valueBounds" : {
                                  "minValue" : 0,
                                  "maxValue" : 3,
                                  "defaultValue" : 3
                                },
                                "uiHints" : {
                                  "userInterfaceType" : 2,
                                  "unitType" : 0
                                },
                                "keyframes" : [
                                  {
                                    "endTime" : 0,
                                    "time" : 0,
                                    "value" : 3,
                                    "duration" : 0
                                  }
                                ]
                              }
                            }
                          
                          },
                          "metadata" : {
                            "default-behavior-center-delay" : 0.0,
                            "default-behavior-center-movement" : 12,
                            "default-behavior-center-secondsperloop" : 3.17,
                            "default-behavior-center-shift" : 5.0,
                            "default-behavior-center-style" : "reveal",
                            "default-behavior-center-type" : 1.0,
                            "default-behavior-in-direction" : 0,
                            "default-behavior-in-style" : "reveal",
                            "default-behavior-in-type" : 1.0,
                            "default-behavior-out-direction" : 3,
                            "default-behavior-out-movement" : 6.0,
                            "default-behavior-out-style" : "reveal",
                            "default-behavior-out-type" : 1.0,
                            "presetName" : "Reveal"
                          }
                        }
                    ],
                    "start" : 11701,
                    "duration" : 430,
                    "mediaStart" : 0,
                    "mediaDuration" : 1,
                    "scalar" : 1,
                    "metadata" : {
                      "clipSpeedAttribute" : false,
                      "default-height" : 1080.0,
                      "default-scale0" : 0.869565217391304,
                      "default-scale1" : 0.869565217391304,
                      "default-translation0" : 0.0,
                      "default-translation1" : 0.0,
                      "default-width" : 890.434782608696
                    },
                    "animationTracks" : {

                    }
                  },
                  {
                    "id" : 148,
                    "_type" : "IMFile",
                    "src" : 49,
                    "trackNumber" : 0,
                    "trimStartSum" : 0,
                    "attributes" : {
                      "ident" : "LOGO_UPB_NEW-1"
                    },
                    "parameters" : {
                      "scale0" : {
                        "type" : "double",
                        "defaultValue" : 1.24201680672269,
                        "interp" : "eioe"
                      },
                      "scale1" : {
                        "type" : "double",
                        "defaultValue" : 1.24201680672269,
                        "interp" : "eioe"
                      },
                      "sourceCrop0" : {
                        "type" : "double",
                        "defaultValue" : 0.0,
                        "interp" : "eioe"
                      },
                      "sourceCrop1" : {
                        "type" : "double",
                        "defaultValue" : 0.0,
                        "interp" : "eioe"
                      },
                      "sourceCrop2" : {
                        "type" : "double",
                        "defaultValue" : 0.0,
                        "interp" : "eioe"
                      },
                      "sourceCrop3" : {
                        "type" : "double",
                        "defaultValue" : 0.0,
                        "interp" : "eioe"
                      },
                      "geometryCrop0" : {
                        "type" : "double",
                        "defaultValue" : 0.0,
                        "interp" : "eioe"
                      },
                      "geometryCrop1" : {
                        "type" : "double",
                        "defaultValue" : 0.0,
                        "interp" : "eioe"
                      },
                      "geometryCrop2" : {
                        "type" : "double",
                        "defaultValue" : 0.0,
                        "interp" : "eioe"
                      },
                      "geometryCrop3" : {
                        "type" : "double",
                        "defaultValue" : 0.0,
                        "interp" : "eioe"
                      }
                    },
                    "effects" : [
                        {
                          "_type" : "GenericBehaviorEffect",
                          "effectName" : "reveal",
                          "bypassed" : false,
                          "start" : 0,
                          "duration" : 147                        ,
                          "in" : {
                            "attributes" : {
                              "name" : "sliding",
                              "type" : 0,
                              "characterOrder" : 7,
                              "offsetBetweenCharacters" : "3/2",
                              "suggestedDurationPerCharacter" : 30,
                              "overlapProportion" : "11/20",
                              "movement" : 16,
                              "springDamping" : 5.0,
                              "springStiffness" : 50.0,
                              "bounceBounciness" : 0.45
                            },
                            "parameters" : {
                              "direction" : {
                                "type" : "int",
                                "valueBounds" : {
                                  "minValue" : 0,
                                  "maxValue" : 3,
                                  "defaultValue" : 0
                                },
                                "uiHints" : {
                                  "userInterfaceType" : 2,
                                  "unitType" : 0
                                },
                                "keyframes" : [
                                  {
                                    "endTime" : 0,
                                    "time" : 0,
                                    "value" : 1,
                                    "duration" : 0
                                  }
                                ]
                              }
                            }
                          
                          },
                          "center" : {
                            "attributes" : {
                              "name" : "none",
                              "type" : 0,
                              "characterOrder" : 6,
                              "offsetBetweenCharacters" : 0,
                              "secondsPerLoop" : 1,
                              "numberOfLoops" : -1,
                              "delayBetweenLoops" : 0
                            }
                          
                          },
                          "out" : {
                            "attributes" : {
                              "name" : "none",
                              "type" : 0,
                              "characterOrder" : 6,
                              "offsetBetweenCharacters" : 0,
                              "suggestedDurationPerCharacter" : 0,
                              "overlapProportion" : 0,
                              "movement" : -1,
                              "springDamping" : 5.0,
                              "springStiffness" : 50.0,
                              "bounceBounciness" : 0.45
                            }
                          
                          },
                          "metadata" : {
                            "default-behavior-center-delay" : 0.0,
                            "default-behavior-center-movement" : 12,
                            "default-behavior-center-secondsperloop" : 3.17,
                            "default-behavior-center-shift" : 5.0,
                            "default-behavior-center-style" : "reveal",
                            "default-behavior-center-type" : 1.0,
                            "default-behavior-in-direction" : 0,
                            "default-behavior-in-style" : "reveal",
                            "default-behavior-in-type" : 1.0,
                            "default-behavior-out-direction" : 3,
                            "default-behavior-out-movement" : 6.0,
                            "default-behavior-out-style" : "reveal",
                            "default-behavior-out-type" : 1.0,
                            "presetName" : "Reveal"
                          }
                        }
                    ],
                    "start" : 12131,
                    "duration" : 147,
                    "mediaStart" : 0,
                    "mediaDuration" : 1,
                    "scalar" : 1,
                    "metadata" : {
                      "clipSpeedAttribute" : false,
                      "default-height" : 770.0,
                      "default-scale0" : 1.0,
                      "default-scale1" : 1.0,
                      "default-translation0" : 0.0,
                      "default-translation1" : 0.0,
                      "default-width" : 850.0
                    },
                    "animationTracks" : {

                    }
                  }
                ],
                "transitions" : [
                  {
                    "name" : "Fade",
                    "duration" : 60,
                    "leftMedia" : 148,
                    "attributes" : {
                      "bypass" : false,
                      "reverse" : false,
                      "trivial" : false,
                      "useAudioPreRoll" : true,
                      "useVisualPreRoll" : true
                    }

                  }
                ]
              },
              {
                "trackIndex" : 16,
                "medias" : [
                  {
                    "id" : 149,
                    "_type" : "IMFile",
                    "src" : 23,
                    "trackNumber" : 0,
                    "trimStartSum" : 0,
                    "attributes" : {
                      "ident" : "Nandang_Duryat_blue_light copy"
                    },
                    "parameters" : {
                      "translation0" : -369.784741976422,
                      "translation1" : -406.4,
                      "scale0" : 0.838634745794462,
                      "scale1" : 0.838634745794462,
                      "sourceCrop0" : 0.0,
                      "sourceCrop1" : 0.0,
                      "sourceCrop2" : 0.0,
                      "sourceCrop3" : 0.0,
                      "geometryCrop0" : 0.0,
                      "geometryCrop1" : 0.0,
                      "geometryCrop2" : 0.0,
                      "geometryCrop3" : 0.0
                    },
                    "effects" : [
                        {
                          "_type" : "GenericBehaviorEffect",
                          "effectName" : "reveal",
                          "bypassed" : false,
                          "start" : 0,
                          "duration" : 936                        ,
                          "in" : {
                            "attributes" : {
                              "name" : "sliding",
                              "type" : 0,
                              "characterOrder" : 7,
                              "offsetBetweenCharacters" : "3/2",
                              "suggestedDurationPerCharacter" : 30,
                              "overlapProportion" : "11/20",
                              "movement" : 16,
                              "springDamping" : 5.0,
                              "springStiffness" : 50.0,
                              "bounceBounciness" : 0.45
                            },
                            "parameters" : {
                              "direction" : {
                                "type" : "int",
                                "valueBounds" : {
                                  "minValue" : 0,
                                  "maxValue" : 3,
                                  "defaultValue" : 0
                                },
                                "uiHints" : {
                                  "userInterfaceType" : 2,
                                  "unitType" : 0
                                },
                                "keyframes" : [
                                  {
                                    "endTime" : 0,
                                    "time" : 0,
                                    "value" : 3,
                                    "duration" : 0
                                  }
                                ]
                              }
                            }
                          
                          },
                          "center" : {
                            "attributes" : {
                              "name" : "shifting",
                              "type" : 0,
                              "characterOrder" : 3,
                              "offsetBetweenCharacters" : 0,
                              "secondsPerLoop" : "11/50",
                              "numberOfLoops" : -1,
                              "delayBetweenLoops" : "5999/100"
                            },
                            "parameters" : {
                              "movement" : {
                                "type" : "int",
                                "valueBounds" : {
                                  "minValue" : 0,
                                  "maxValue" : 31,
                                  "defaultValue" : 12
                                },
                                "uiHints" : {
                                  "userInterfaceType" : 4,
                                  "unitType" : 0
                                },
                                "keyframes" : [
                                  {
                                    "endTime" : 0,
                                    "time" : 0,
                                    "value" : 15,
                                    "duration" : 0
                                  }
                                ]
                              },
                              "shift" : {
                                "type" : "double",
                                "defaultValue" : 1.0,
                                "valueBounds" : {
                                  "minValue" : 0.0,
                                  "maxValue" : 100.0,
                                  "defaultValue" : 5.0
                                },
                                "uiHints" : {
                                  "userInterfaceType" : 1,
                                  "unitType" : 0
                                }
                              }
                            }
                          
                          },
                          "out" : {
                            "attributes" : {
                              "name" : "drop",
                              "type" : 0,
                              "characterOrder" : 6,
                              "offsetBetweenCharacters" : "5/2",
                              "suggestedDurationPerCharacter" : 15,
                              "overlapProportion" : "1/5",
                              "movement" : 0,
                              "springDamping" : 5.0,
                              "springStiffness" : 50.0,
                              "bounceBounciness" : 0.45
                            },
                            "parameters" : {
                              "direction" : {
                                "type" : "int",
                                "valueBounds" : {
                                  "minValue" : 0,
                                  "maxValue" : 3,
                                  "defaultValue" : 3
                                },
                                "uiHints" : {
                                  "userInterfaceType" : 2,
                                  "unitType" : 0
                                },
                                "keyframes" : [
                                  {
                                    "endTime" : 0,
                                    "time" : 0,
                                    "value" : 3,
                                    "duration" : 0
                                  }
                                ]
                              }
                            }
                          
                          },
                          "metadata" : {
                            "default-behavior-center-delay" : 0.0,
                            "default-behavior-center-movement" : 12,
                            "default-behavior-center-secondsperloop" : 3.17,
                            "default-behavior-center-shift" : 5.0,
                            "default-behavior-center-style" : "reveal",
                            "default-behavior-center-type" : 1.0,
                            "default-behavior-in-direction" : 0,
                            "default-behavior-in-style" : "reveal",
                            "default-behavior-in-type" : 1.0,
                            "default-behavior-out-direction" : 3,
                            "default-behavior-out-movement" : 6.0,
                            "default-behavior-out-style" : "reveal",
                            "default-behavior-out-type" : 1.0,
                            "presetName" : "Reveal"
                          }
                        }
                    ],
                    "start" : 704,
                    "duration" : 936,
                    "mediaStart" : 0,
                    "mediaDuration" : 1,
                    "scalar" : 1,
                    "metadata" : {
                      "clipSpeedAttribute" : false,
                      "default-height" : 1080.0,
                      "default-scale0" : 0.752613240418119,
                      "default-scale1" : 0.752613240418119,
                      "default-translation0" : 0.0,
                      "default-translation1" : 0.0,
                      "default-width" : 349.965156794425
                    },
                    "animationTracks" : {

                    }
                  },
                  {
                    "id" : 150,
                    "_type" : "AMFile",
                    "src" : 5,
                    "trackNumber" : 0,
                    "attributes" : {
                      "ident" : "y2mate.com - Type Writer Machine Sound Effect  Royalty Free",
                      "gain" : 0.8,
                      "mixToMono" : false,
                      "loudnessNormalization" : true,
                      "sourceFileOffset" : 0
                    },
                      "channelNumber" : "0,1",
                    "effects" : [

                    ],
                    "start" : 11703,
                    "duration" : 252,
                    "mediaStart" : 0,
                    "mediaDuration" : "351036/1163",
                    "scalar" : "1163/1393",
                    "metadata" : {
                      "clipSpeedAttribute" : true
                    },
                    "animationTracks" : {

                    }
                  }
                ]
              },
              {
                "trackIndex" : 17,
                "medias" : [
                  {
                    "id" : 151,
                    "_type" : "AMFile",
                    "src" : 50,
                    "trackNumber" : 0,
                    "attributes" : {
                      "ident" : "x2mate.com - Swish, Swoosh, Cutscene Sound Effect (128 kbps)",
                      "gain" : 1.0,
                      "mixToMono" : false,
                      "loudnessNormalization" : true,
                      "sourceFileOffset" : 0
                    },
                      "channelNumber" : "0,1",
                    "effects" : [

                    ],
                    "start" : 702,
                    "duration" : 26,
                    "mediaStart" : 261,
                    "mediaDuration" : 26,
                    "scalar" : 1,
                    "metadata" : {
                      "clipSpeedAttribute" : false
                    },
                    "animationTracks" : {

                    }
                  },
                  {
                    "id" : 152,
                    "_type" : "IMFile",
                    "src" : 24,
                    "trackNumber" : 0,
                    "trimStartSum" : -12,
                    "attributes" : {
                      "ident" : "312310301 ADAM MUBAROK copy"
                    },
                    "parameters" : {
                      "translation0" : 213.948953261259,
                      "translation1" : -301.748933245353,
                      "scale0" : 0.983839524797337,
                      "scale1" : 0.983839524797337,
                      "sourceCrop0" : 0.0,
                      "sourceCrop1" : 0.0,
                      "sourceCrop2" : 0.0,
                      "sourceCrop3" : 0.0,
                      "geometryCrop0" : 0.0,
                      "geometryCrop1" : 0.0,
                      "geometryCrop2" : 0.0,
                      "geometryCrop3" : 0.0
                    },
                    "effects" : [
                        {
                          "_type" : "GenericBehaviorEffect",
                          "effectName" : "reveal",
                          "bypassed" : false,
                          "start" : -12,
                          "duration" : 878                        ,
                          "in" : {
                            "attributes" : {
                              "name" : "sliding",
                              "type" : 0,
                              "characterOrder" : 7,
                              "offsetBetweenCharacters" : "3/2",
                              "suggestedDurationPerCharacter" : 30,
                              "overlapProportion" : "11/20",
                              "movement" : 16,
                              "springDamping" : 5.0,
                              "springStiffness" : 50.0,
                              "bounceBounciness" : 0.45
                            },
                            "parameters" : {
                              "direction" : {
                                "type" : "int",
                                "valueBounds" : {
                                  "minValue" : 0,
                                  "maxValue" : 3,
                                  "defaultValue" : 0
                                },
                                "uiHints" : {
                                  "userInterfaceType" : 2,
                                  "unitType" : 0
                                },
                                "keyframes" : [
                                  {
                                    "endTime" : 0,
                                    "time" : 0,
                                    "value" : 3,
                                    "duration" : 0
                                  }
                                ]
                              }
                            }
                          
                          },
                          "center" : {
                            "attributes" : {
                              "name" : "shifting",
                              "type" : 0,
                              "characterOrder" : 3,
                              "offsetBetweenCharacters" : 0,
                              "secondsPerLoop" : "11/50",
                              "numberOfLoops" : -1,
                              "delayBetweenLoops" : "5999/100"
                            },
                            "parameters" : {
                              "movement" : {
                                "type" : "int",
                                "valueBounds" : {
                                  "minValue" : 0,
                                  "maxValue" : 31,
                                  "defaultValue" : 12
                                },
                                "uiHints" : {
                                  "userInterfaceType" : 4,
                                  "unitType" : 0
                                },
                                "keyframes" : [
                                  {
                                    "endTime" : 0,
                                    "time" : 0,
                                    "value" : 15,
                                    "duration" : 0
                                  }
                                ]
                              },
                              "shift" : {
                                "type" : "double",
                                "defaultValue" : 1.0,
                                "valueBounds" : {
                                  "minValue" : 0.0,
                                  "maxValue" : 100.0,
                                  "defaultValue" : 5.0
                                },
                                "uiHints" : {
                                  "userInterfaceType" : 1,
                                  "unitType" : 0
                                }
                              }
                            }
                          
                          },
                          "out" : {
                            "attributes" : {
                              "name" : "drop",
                              "type" : 0,
                              "characterOrder" : 6,
                              "offsetBetweenCharacters" : "5/2",
                              "suggestedDurationPerCharacter" : 15,
                              "overlapProportion" : "1/5",
                              "movement" : 0,
                              "springDamping" : 5.0,
                              "springStiffness" : 50.0,
                              "bounceBounciness" : 0.45
                            },
                            "parameters" : {
                              "direction" : {
                                "type" : "int",
                                "valueBounds" : {
                                  "minValue" : 0,
                                  "maxValue" : 3,
                                  "defaultValue" : 3
                                },
                                "uiHints" : {
                                  "userInterfaceType" : 2,
                                  "unitType" : 0
                                },
                                "keyframes" : [
                                  {
                                    "endTime" : 0,
                                    "time" : 0,
                                    "value" : 3,
                                    "duration" : 0
                                  }
                                ]
                              }
                            }
                          
                          },
                          "metadata" : {
                            "default-behavior-center-delay" : 0.0,
                            "default-behavior-center-movement" : 12,
                            "default-behavior-center-secondsperloop" : 3.17,
                            "default-behavior-center-shift" : 5.0,
                            "default-behavior-center-style" : "reveal",
                            "default-behavior-center-type" : 1.0,
                            "default-behavior-in-direction" : 0,
                            "default-behavior-in-style" : "reveal",
                            "default-behavior-in-type" : 1.0,
                            "default-behavior-out-direction" : 3,
                            "default-behavior-out-movement" : 6.0,
                            "default-behavior-out-style" : "reveal",
                            "default-behavior-out-type" : 1.0,
                            "presetName" : "Reveal"
                          }
                        }
                    ],
                    "start" : 762,
                    "duration" : 878,
                    "mediaStart" : 0,
                    "mediaDuration" : 1,
                    "scalar" : 1,
                    "metadata" : {
                      "clipSpeedAttribute" : false,
                      "default-height" : 786.0,
                      "default-rotation2" : 0.0,
                      "default-scale0" : 1.0,
                      "default-scale1" : 1.0,
                      "default-translation0" : 0.0,
                      "default-translation1" : 0.0,
                      "default-width" : 524.0
                    },
                    "animationTracks" : {

                    }
                  },
                  {
                    "id" : 153,
                    "_type" : "Callout",
                    "def" : {
                      "kind" : "remix",
                      "shape" : "text",
                      "style" : "basic",
                      "enable-ligatures" : {
                        "type" : "double",
                        "defaultValue" : 1.0,
                        "interp" : "linr"
                      },
                      "height" : {
                        "type" : "double",
                        "defaultValue" : 101.111111111111,
                        "interp" : "linr"
                      },
                      "line-spacing" : {
                        "type" : "double",
                        "defaultValue" : 0.0,
                        "interp" : "linr"
                      },
                      "width" : {
                        "type" : "double",
                        "defaultValue" : 1395.55555555556,
                        "interp" : "linr"
                      },
                      "word-wrap" : {
                        "type" : "double",
                        "defaultValue" : 1.0,
                        "interp" : "linr"
                      },
                      "horizontal-alignment" : "center",
                      "resize-behavior" : "resizeText",
                      "text" : "Kelompok 5 - TI.23.C4 UPB",
                      "vertical-alignment" : "center",
                      "font" : {
                        "color-blue" : {
                          "type" : "double",
                          "defaultValue" : 1.0,
                          "interp" : "linr"
                        },
                        "color-green" : {
                          "type" : "double",
                          "defaultValue" : 1.0,
                          "interp" : "linr"
                        },
                        "color-red" : {
                          "type" : "double",
                          "defaultValue" : 1.0,
                          "interp" : "linr"
                        },
                        "size" : {
                          "type" : "double",
                          "defaultValue" : 64.0,
                          "interp" : "linr"
                        },
                        "tracking" : {
                          "type" : "double",
                          "defaultValue" : 0.0,
                          "interp" : "linr"
                        },
                        "name" : "Montserrat",
                        "weight" : "Regular"
                      },
                      "textAttributes" : {
                        "type" : "textAttributeList",
                        "keyframes" : [
                          {
                            "endTime" : 0,
                            "time" : 0,
                            "value" : [{"name":"kerning","rangeEnd":25,"rangeStart":0,"value":0,"valueType":"double"},{"name":"fontSize","rangeEnd":25,"rangeStart":0,"value":64,"valueType":"double"},{"name":"underline","rangeEnd":25,"rangeStart":0,"value":0,"valueType":"int"},{"name":"fontName","rangeEnd":25,"rangeStart":0,"value":"1942 report","valueType":"string"},{"name":"fgColor","rangeEnd":25,"rangeStart":0,"value":"(0,0,0,255)","valueType":"color"},{"name":"strikethrough","rangeEnd":25,"rangeStart":0,"value":0,"valueType":"int"},{"name":"fontWeight","rangeEnd":25,"rangeStart":0,"value":700,"valueType":"int"},{"name":"fontItalic","rangeEnd":25,"rangeStart":0,"value":0,"valueType":"int"}],
                            "duration" : 0
                          }
                        ]
                      }
                    },
                    "attributes" : {
                      "ident" : "",
                      "autoRotateText" : true
                    },
                    "parameters" : {
                      "translation0" : {
                        "type" : "double",
                        "defaultValue" : -71.6981106981483,
                        "interp" : "eioe"
                      },
                      "translation1" : {
                        "type" : "double",
                        "defaultValue" : 487.801607583678,
                        "interp" : "eioe"
                      },
                      "sourceCrop0" : {
                        "type" : "double",
                        "defaultValue" : 0.0,
                        "interp" : "eioe"
                      },
                      "sourceCrop1" : {
                        "type" : "double",
                        "defaultValue" : 0.0,
                        "interp" : "eioe"
                      },
                      "sourceCrop2" : {
                        "type" : "double",
                        "defaultValue" : 0.0,
                        "interp" : "eioe"
                      },
                      "sourceCrop3" : {
                        "type" : "double",
                        "defaultValue" : 0.0,
                        "interp" : "eioe"
                      },
                      "geometryCrop0" : {
                        "type" : "double",
                        "defaultValue" : 0.0,
                        "interp" : "eioe"
                      },
                      "geometryCrop1" : {
                        "type" : "double",
                        "defaultValue" : 0.0,
                        "interp" : "eioe"
                      },
                      "geometryCrop2" : {
                        "type" : "double",
                        "defaultValue" : 0.0,
                        "interp" : "eioe"
                      },
                      "geometryCrop3" : {
                        "type" : "double",
                        "defaultValue" : 0.0,
                        "interp" : "eioe"
                      }
                    },
                    "effects" : [
                        {
                          "_type" : "GenericBehaviorEffect",
                          "effectName" : "fade",
                          "bypassed" : false,
                          "start" : 0,
                          "duration" : 433                        ,
                          "in" : {
                            "attributes" : {
                              "name" : "fadeIn",
                              "type" : 1,
                              "characterOrder" : 6,
                              "offsetBetweenCharacters" : "1249/100",
                              "suggestedDurationPerCharacter" : 0,
                              "overlapProportion" : 0,
                              "movement" : 0,
                              "springDamping" : 5.0,
                              "springStiffness" : 50.0,
                              "bounceBounciness" : 0.45
                            }
                          
                          },
                          "center" : {
                            "attributes" : {
                              "name" : "none",
                              "type" : 1,
                              "characterOrder" : 6,
                              "offsetBetweenCharacters" : 0,
                              "secondsPerLoop" : 1,
                              "numberOfLoops" : -1,
                              "delayBetweenLoops" : 0
                            }
                          
                          },
                          "out" : {
                            "attributes" : {
                              "name" : "none",
                              "type" : 1,
                              "characterOrder" : 6,
                              "offsetBetweenCharacters" : 0,
                              "suggestedDurationPerCharacter" : 0,
                              "overlapProportion" : 0,
                              "movement" : -1,
                              "springDamping" : 5.0,
                              "springStiffness" : 50.0,
                              "bounceBounciness" : 0.45
                            }
                          
                          },
                          "metadata" : {
                            "default-behavior-in-bounciness" : 0.45,
                            "default-behavior-in-characterorder" : 7.0,
                            "default-behavior-in-duration" : 22.0,
                            "default-behavior-in-movement" : 16.0,
                            "default-behavior-in-offset" : 1.5,
                            "default-behavior-in-style" : "fadeIn",
                            "default-behavior-in-type" : 1.0,
                            "default-behavior-out-style" : "fadeOut",
                            "presetName" : "Fade"
                          }
                        }
                    ],
                    "start" : 11703,
                    "duration" : 433,
                    "mediaStart" : 0,
                    "mediaDuration" : 433,
                    "scalar" : 1,
                    "metadata" : {
                      "clipSpeedAttribute" : false,
                      "default-HAlign" : "center",
                      "default-LineSpace" : 0.0,
                      "default-VAlign" : "center",
                      "default-height" : 250.0,
                      "default-text-attributes" : "[{\"name\":\"fgColor\",\"rangeEnd\":25,\"rangeStart\":0,\"value\":\"(0,0,0,255)\",\"valueType\":\"color\"},{\"name\":\"kerning\",\"rangeEnd\":25,\"rangeStart\":0,\"value\":0,\"valueType\":\"double\"},{\"name\":\"underline\",\"rangeEnd\":25,\"rangeStart\":0,\"value\":0,\"valueType\":\"int\"},{\"name\":\"strikethrough\",\"rangeEnd\":25,\"rangeStart\":0,\"value\":0,\"valueType\":\"int\"},{\"name\":\"fontWeight\",\"rangeEnd\":25,\"rangeStart\":0,\"value\":700,\"valueType\":\"int\"},{\"name\":\"fontItalic\",\"rangeEnd\":25,\"rangeStart\":0,\"value\":0,\"valueType\":\"int\"},{\"name\":\"fontName\",\"rangeEnd\":25,\"rangeStart\":0,\"value\":\"Courier New\",\"valueType\":\"string\"},{\"name\":\"fontSize\",\"rangeEnd\":25,\"rangeStart\":0,\"value\":64,\"valueType\":\"double\"}]",
                      "default-translation0" : 0.0,
                      "default-translation1" : 0.0,
                      "default-width" : 400.0
                    },
                    "animationTracks" : {

                    }
                  }
                ]
              },
              {
                "trackIndex" : 18,
                "medias" : [
                  {
                    "id" : 154,
                    "_type" : "AMFile",
                    "src" : 50,
                    "trackNumber" : 0,
                    "attributes" : {
                      "ident" : "x2mate.com - Swish, Swoosh, Cutscene Sound Effect (128 kbps)",
                      "gain" : 1.0,
                      "mixToMono" : false,
                      "loudnessNormalization" : true,
                      "sourceFileOffset" : 0
                    },
                      "channelNumber" : "0,1",
                    "effects" : [

                    ],
                    "start" : 755,
                    "duration" : 28,
                    "mediaStart" : 114,
                    "mediaDuration" : 28,
                    "scalar" : 1,
                    "metadata" : {
                      "clipSpeedAttribute" : false
                    },
                    "animationTracks" : {

                    }
                  },
                  {
                    "id" : 155,
                    "_type" : "AMFile",
                    "src" : 50,
                    "trackNumber" : 0,
                    "attributes" : {
                      "ident" : "x2mate.com - Swish, Swoosh, Cutscene Sound Effect (128 kbps)",
                      "gain" : 1.0,
                      "mixToMono" : false,
                      "loudnessNormalization" : true,
                      "sourceFileOffset" : 0
                    },
                      "channelNumber" : "0,1",
                    "effects" : [

                    ],
                    "start" : 801,
                    "duration" : 18,
                    "mediaStart" : 191,
                    "mediaDuration" : 18,
                    "scalar" : 1,
                    "metadata" : {
                      "clipSpeedAttribute" : false
                    },
                    "animationTracks" : {

                    }
                  },
                  {
                    "id" : 156,
                    "_type" : "AMFile",
                    "src" : 50,
                    "trackNumber" : 0,
                    "attributes" : {
                      "ident" : "x2mate.com - Swish, Swoosh, Cutscene Sound Effect (128 kbps)",
                      "gain" : 1.0,
                      "mixToMono" : false,
                      "loudnessNormalization" : true,
                      "sourceFileOffset" : 0
                    },
                      "channelNumber" : "0,1",
                    "effects" : [

                    ],
                    "start" : 892,
                    "duration" : 11,
                    "mediaStart" : 412,
                    "mediaDuration" : 11,
                    "scalar" : 1,
                    "metadata" : {
                      "clipSpeedAttribute" : false
                    },
                    "animationTracks" : {

                    }
                  },
                  {
                    "id" : 157,
                    "_type" : "IMFile",
                    "src" : 51,
                    "trackNumber" : 0,
                    "trimStartSum" : -203,
                    "attributes" : {
                      "ident" : "312310232 GILANG PRAYOGA copy2"
                    },
                    "parameters" : {
                      "translation0" : {
                        "type" : "double",
                        "defaultValue" : 509.59757054442,
                        "interp" : "eioe"
                      },
                      "translation1" : {
                        "type" : "double",
                        "defaultValue" : -398.08064516129,
                        "interp" : "eioe"
                      },
                      "scale0" : {
                        "type" : "double",
                        "defaultValue" : 1.20919679870414,
                        "interp" : "eioe"
                      },
                      "scale1" : {
                        "type" : "double",
                        "defaultValue" : 1.20919679870414,
                        "interp" : "eioe"
                      },
                      "sourceCrop0" : {
                        "type" : "double",
                        "defaultValue" : 0.0,
                        "interp" : "eioe"
                      },
                      "sourceCrop1" : {
                        "type" : "double",
                        "defaultValue" : 0.0,
                        "interp" : "eioe"
                      },
                      "sourceCrop2" : {
                        "type" : "double",
                        "defaultValue" : 0.0,
                        "interp" : "eioe"
                      },
                      "sourceCrop3" : {
                        "type" : "double",
                        "defaultValue" : 0.0,
                        "interp" : "eioe"
                      },
                      "geometryCrop0" : {
                        "type" : "double",
                        "defaultValue" : 0.0,
                        "interp" : "eioe"
                      },
                      "geometryCrop1" : {
                        "type" : "double",
                        "defaultValue" : 0.0,
                        "interp" : "eioe"
                      },
                      "geometryCrop2" : {
                        "type" : "double",
                        "defaultValue" : 0.0,
                        "interp" : "eioe"
                      },
                      "geometryCrop3" : {
                        "type" : "double",
                        "defaultValue" : 0.0,
                        "interp" : "eioe"
                      }
                    },
                    "effects" : [
                        {
                          "_type" : "GenericBehaviorEffect",
                          "effectName" : "reveal",
                          "bypassed" : false,
                          "start" : -203,
                          "duration" : 691                        ,
                          "in" : {
                            "attributes" : {
                              "name" : "sliding",
                              "type" : 0,
                              "characterOrder" : 7,
                              "offsetBetweenCharacters" : "3/2",
                              "suggestedDurationPerCharacter" : 30,
                              "overlapProportion" : "11/20",
                              "movement" : 16,
                              "springDamping" : 5.0,
                              "springStiffness" : 50.0,
                              "bounceBounciness" : 0.45
                            },
                            "parameters" : {
                              "direction" : {
                                "type" : "int",
                                "valueBounds" : {
                                  "minValue" : 0,
                                  "maxValue" : 3,
                                  "defaultValue" : 0
                                },
                                "uiHints" : {
                                  "userInterfaceType" : 2,
                                  "unitType" : 0
                                },
                                "keyframes" : [
                                  {
                                    "endTime" : 0,
                                    "time" : 0,
                                    "value" : 3,
                                    "duration" : 0
                                  }
                                ]
                              }
                            }
                          
                          },
                          "center" : {
                            "attributes" : {
                              "name" : "shifting",
                              "type" : 0,
                              "characterOrder" : 3,
                              "offsetBetweenCharacters" : 0,
                              "secondsPerLoop" : "11/50",
                              "numberOfLoops" : -1,
                              "delayBetweenLoops" : "5999/100"
                            },
                            "parameters" : {
                              "movement" : {
                                "type" : "int",
                                "valueBounds" : {
                                  "minValue" : 0,
                                  "maxValue" : 31,
                                  "defaultValue" : 12
                                },
                                "uiHints" : {
                                  "userInterfaceType" : 4,
                                  "unitType" : 0
                                },
                                "keyframes" : [
                                  {
                                    "endTime" : 0,
                                    "time" : 0,
                                    "value" : 15,
                                    "duration" : 0
                                  }
                                ]
                              },
                              "shift" : {
                                "type" : "double",
                                "defaultValue" : 1.0,
                                "interp" : "linr",
                                "valueBounds" : {
                                  "minValue" : 0.0,
                                  "maxValue" : 100.0,
                                  "defaultValue" : 5.0
                                },
                                "uiHints" : {
                                  "userInterfaceType" : 1,
                                  "unitType" : 0
                                }
                              }
                            }
                          
                          },
                          "out" : {
                            "attributes" : {
                              "name" : "drop",
                              "type" : 0,
                              "characterOrder" : 6,
                              "offsetBetweenCharacters" : "5/2",
                              "suggestedDurationPerCharacter" : 15,
                              "overlapProportion" : "1/5",
                              "movement" : 0,
                              "springDamping" : 5.0,
                              "springStiffness" : 50.0,
                              "bounceBounciness" : 0.45
                            },
                            "parameters" : {
                              "direction" : {
                                "type" : "int",
                                "valueBounds" : {
                                  "minValue" : 0,
                                  "maxValue" : 3,
                                  "defaultValue" : 3
                                },
                                "uiHints" : {
                                  "userInterfaceType" : 2,
                                  "unitType" : 0
                                },
                                "keyframes" : [
                                  {
                                    "endTime" : 0,
                                    "time" : 0,
                                    "value" : 3,
                                    "duration" : 0
                                  }
                                ]
                              }
                            }
                          
                          },
                          "metadata" : {
                            "default-behavior-center-delay" : 0.0,
                            "default-behavior-center-movement" : 12,
                            "default-behavior-center-secondsperloop" : 3.17,
                            "default-behavior-center-shift" : 5.0,
                            "default-behavior-center-style" : "reveal",
                            "default-behavior-center-type" : 1.0,
                            "default-behavior-in-direction" : 0,
                            "default-behavior-in-style" : "reveal",
                            "default-behavior-in-type" : 1.0,
                            "default-behavior-out-direction" : 3,
                            "default-behavior-out-movement" : 6.0,
                            "default-behavior-out-style" : "reveal",
                            "default-behavior-out-type" : 1.0,
                            "presetName" : "Reveal"
                          }
                        }
                    ],
                    "start" : 949,
                    "duration" : 691,
                    "mediaStart" : 0,
                    "mediaDuration" : 1,
                    "scalar" : 1,
                    "metadata" : {
                      "clipSpeedAttribute" : false,
                      "default-height" : 1009.0,
                      "default-scale0" : 1.0,
                      "default-scale1" : 1.0,
                      "default-translation0" : -0.5,
                      "default-translation1" : -0.5,
                      "default-width" : 489.0
                    },
                    "animationTracks" : {

                    }
                  },
                  {
                    "id" : 158,
                    "_type" : "AMFile",
                    "src" : 50,
                    "trackNumber" : 0,
                    "attributes" : {
                      "ident" : "x2mate.com - Swish, Swoosh, Cutscene Sound Effect (128 kbps)",
                      "gain" : 0.583345303073829,
                      "mixToMono" : false,
                      "loudnessNormalization" : true,
                      "sourceFileOffset" : 0
                    },
                      "channelNumber" : "0,1",
                    "effects" : [

                    ],
                    "start" : 11693,
                    "duration" : 26,
                    "mediaStart" : 261,
                    "mediaDuration" : 26,
                    "scalar" : 1,
                    "metadata" : {
                      "clipSpeedAttribute" : false
                    },
                    "animationTracks" : {

                    }
                  }
                ]
              },
              {
                "trackIndex" : 19,
                "medias" : [
                  {
                    "id" : 159,
                    "_type" : "AMFile",
                    "src" : 50,
                    "trackNumber" : 0,
                    "attributes" : {
                      "ident" : "x2mate.com - Swish, Swoosh, Cutscene Sound Effect (128 kbps)",
                      "gain" : 1.0,
                      "mixToMono" : false,
                      "loudnessNormalization" : true,
                      "sourceFileOffset" : 0
                    },
                      "channelNumber" : "0,1",
                    "effects" : [

                    ],
                    "start" : 1034,
                    "duration" : 11,
                    "mediaStart" : 412,
                    "mediaDuration" : 11,
                    "scalar" : 1,
                    "metadata" : {
                      "clipSpeedAttribute" : false
                    },
                    "animationTracks" : {

                    }
                  },
                  {
                    "id" : 160,
                    "_type" : "IMFile",
                    "src" : 25,
                    "trackNumber" : 0,
                    "trimStartSum" : 0,
                    "attributes" : {
                      "ident" : "312310262 RIYADI copy"
                    },
                    "parameters" : {
                      "translation0" : -62.9558850886151,
                      "translation1" : -301.748933245353,
                      "scale0" : 0.540829762402098,
                      "scale1" : 0.540829762402098,
                      "sourceCrop0" : 0.0,
                      "sourceCrop1" : 0.0,
                      "sourceCrop2" : 0.0,
                      "sourceCrop3" : 0.0,
                      "geometryCrop0" : 0.0,
                      "geometryCrop1" : 0.0,
                      "geometryCrop2" : 0.0,
                      "geometryCrop3" : 0.0
                    },
                    "effects" : [
                        {
                          "_type" : "GenericBehaviorEffect",
                          "effectName" : "reveal",
                          "bypassed" : false,
                          "start" : 0,
                          "duration" : 530                        ,
                          "in" : {
                            "attributes" : {
                              "name" : "sliding",
                              "type" : 0,
                              "characterOrder" : 7,
                              "offsetBetweenCharacters" : "3/2",
                              "suggestedDurationPerCharacter" : 30,
                              "overlapProportion" : "11/20",
                              "movement" : 16,
                              "springDamping" : 5.0,
                              "springStiffness" : 50.0,
                              "bounceBounciness" : 0.45
                            },
                            "parameters" : {
                              "direction" : {
                                "type" : "int",
                                "valueBounds" : {
                                  "minValue" : 0,
                                  "maxValue" : 3,
                                  "defaultValue" : 0
                                },
                                "uiHints" : {
                                  "userInterfaceType" : 2,
                                  "unitType" : 0
                                },
                                "keyframes" : [
                                  {
                                    "endTime" : 0,
                                    "time" : 0,
                                    "value" : 3,
                                    "duration" : 0
                                  }
                                ]
                              }
                            }
                          
                          },
                          "center" : {
                            "attributes" : {
                              "name" : "shifting",
                              "type" : 0,
                              "characterOrder" : 3,
                              "offsetBetweenCharacters" : 0,
                              "secondsPerLoop" : "11/50",
                              "numberOfLoops" : -1,
                              "delayBetweenLoops" : "5999/100"
                            },
                            "parameters" : {
                              "movement" : {
                                "type" : "int",
                                "valueBounds" : {
                                  "minValue" : 0,
                                  "maxValue" : 31,
                                  "defaultValue" : 12
                                },
                                "uiHints" : {
                                  "userInterfaceType" : 4,
                                  "unitType" : 0
                                },
                                "keyframes" : [
                                  {
                                    "endTime" : 0,
                                    "time" : 0,
                                    "value" : 15,
                                    "duration" : 0
                                  }
                                ]
                              },
                              "shift" : {
                                "type" : "double",
                                "defaultValue" : 1.0,
                                "valueBounds" : {
                                  "minValue" : 0.0,
                                  "maxValue" : 100.0,
                                  "defaultValue" : 5.0
                                },
                                "uiHints" : {
                                  "userInterfaceType" : 1,
                                  "unitType" : 0
                                }
                              }
                            }
                          
                          },
                          "out" : {
                            "attributes" : {
                              "name" : "drop",
                              "type" : 0,
                              "characterOrder" : 6,
                              "offsetBetweenCharacters" : "5/2",
                              "suggestedDurationPerCharacter" : 15,
                              "overlapProportion" : "1/5",
                              "movement" : 0,
                              "springDamping" : 5.0,
                              "springStiffness" : 50.0,
                              "bounceBounciness" : 0.45
                            },
                            "parameters" : {
                              "direction" : {
                                "type" : "int",
                                "valueBounds" : {
                                  "minValue" : 0,
                                  "maxValue" : 3,
                                  "defaultValue" : 3
                                },
                                "uiHints" : {
                                  "userInterfaceType" : 2,
                                  "unitType" : 0
                                },
                                "keyframes" : [
                                  {
                                    "endTime" : 0,
                                    "time" : 0,
                                    "value" : 3,
                                    "duration" : 0
                                  }
                                ]
                              }
                            }
                          
                          },
                          "metadata" : {
                            "default-behavior-center-delay" : 0.0,
                            "default-behavior-center-movement" : 12,
                            "default-behavior-center-secondsperloop" : 3.17,
                            "default-behavior-center-shift" : 5.0,
                            "default-behavior-center-style" : "reveal",
                            "default-behavior-center-type" : 1.0,
                            "default-behavior-in-direction" : 0,
                            "default-behavior-in-style" : "reveal",
                            "default-behavior-in-type" : 1.0,
                            "default-behavior-out-direction" : 3,
                            "default-behavior-out-movement" : 6.0,
                            "default-behavior-out-style" : "reveal",
                            "default-behavior-out-type" : 1.0,
                            "presetName" : "Reveal"
                          }
                        }
                    ],
                    "start" : 1110,
                    "duration" : 530,
                    "mediaStart" : 0,
                    "mediaDuration" : 1,
                    "scalar" : 1,
                    "metadata" : {
                      "clipSpeedAttribute" : false,
                      "default-height" : 1080.0,
                      "default-scale0" : 0.869565217391304,
                      "default-scale1" : 0.869565217391304,
                      "default-translation0" : 0.0,
                      "default-translation1" : 0.0,
                      "default-width" : 890.434782608696
                    },
                    "animationTracks" : {

                    }
                  },
                  {
                    "id" : 161,
                    "_type" : "AMFile",
                    "src" : 50,
                    "trackNumber" : 0,
                    "attributes" : {
                      "ident" : "x2mate.com - Swish, Swoosh, Cutscene Sound Effect (128 kbps)",
                      "gain" : 0.583345303073829,
                      "mixToMono" : false,
                      "loudnessNormalization" : true,
                      "sourceFileOffset" : 0
                    },
                      "channelNumber" : "0,1",
                    "effects" : [

                    ],
                    "start" : 2591,
                    "duration" : 26,
                    "mediaStart" : 261,
                    "mediaDuration" : 26,
                    "scalar" : 1,
                    "metadata" : {
                      "clipSpeedAttribute" : false
                    },
                    "animationTracks" : {

                    }
                  },
                  {
                    "id" : 162,
                    "_type" : "AMFile",
                    "src" : 50,
                    "trackNumber" : 0,
                    "attributes" : {
                      "ident" : "x2mate.com - Swish, Swoosh, Cutscene Sound Effect (128 kbps)",
                      "gain" : 0.583345303073829,
                      "mixToMono" : false,
                      "loudnessNormalization" : true,
                      "sourceFileOffset" : 0
                    },
                      "channelNumber" : "0,1",
                    "effects" : [

                    ],
                    "start" : 2905,
                    "duration" : 26,
                    "mediaStart" : 261,
                    "mediaDuration" : 26,
                    "scalar" : 1,
                    "metadata" : {
                      "clipSpeedAttribute" : false
                    },
                    "animationTracks" : {

                    }
                  }
                ]
              },
              {
                "trackIndex" : 20,
                "medias" : [
                  {
                    "id" : 163,
                    "_type" : "AMFile",
                    "src" : 50,
                    "trackNumber" : 0,
                    "attributes" : {
                      "ident" : "x2mate.com - Swish, Swoosh, Cutscene Sound Effect (128 kbps)",
                      "gain" : 1.0,
                      "mixToMono" : false,
                      "loudnessNormalization" : true,
                      "sourceFileOffset" : 0
                    },
                      "channelNumber" : "0,1",
                    "effects" : [

                    ],
                    "start" : 949,
                    "duration" : 19,
                    "mediaStart" : 481,
                    "mediaDuration" : 19,
                    "scalar" : 1,
                    "metadata" : {
                      "clipSpeedAttribute" : false
                    },
                    "animationTracks" : {

                    }
                  },
                  {
                    "id" : 164,
                    "_type" : "AMFile",
                    "src" : 50,
                    "trackNumber" : 0,
                    "attributes" : {
                      "ident" : "x2mate.com - Swish, Swoosh, Cutscene Sound Effect (128 kbps)",
                      "gain" : 1.0,
                      "mixToMono" : false,
                      "loudnessNormalization" : true,
                      "sourceFileOffset" : 0
                    },
                      "channelNumber" : "0,1",
                    "effects" : [

                    ],
                    "start" : 1105,
                    "duration" : 51,
                    "mediaStart" : 552,
                    "mediaDuration" : 51,
                    "scalar" : 1,
                    "metadata" : {
                      "clipSpeedAttribute" : false
                    },
                    "animationTracks" : {

                    }
                  },
                  {
                    "id" : 165,
                    "_type" : "AMFile",
                    "src" : 50,
                    "trackNumber" : 0,
                    "attributes" : {
                      "ident" : "x2mate.com - Swish, Swoosh, Cutscene Sound Effect (128 kbps)",
                      "gain" : 1.0,
                      "mixToMono" : false,
                      "loudnessNormalization" : true,
                      "sourceFileOffset" : 0
                    },
                      "channelNumber" : "0,1",
                    "effects" : [

                    ],
                    "start" : 1743,
                    "duration" : 18,
                    "mediaStart" : 191,
                    "mediaDuration" : 18,
                    "scalar" : 1,
                    "metadata" : {
                      "clipSpeedAttribute" : false
                    },
                    "animationTracks" : {

                    }
                  },
                  {
                    "id" : 166,
                    "_type" : "AMFile",
                    "src" : 50,
                    "trackNumber" : 0,
                    "attributes" : {
                      "ident" : "x2mate.com - Swish, Swoosh, Cutscene Sound Effect (128 kbps)",
                      "gain" : 1.0,
                      "mixToMono" : false,
                      "loudnessNormalization" : true,
                      "sourceFileOffset" : 0
                    },
                      "channelNumber" : "0,1",
                    "effects" : [

                    ],
                    "start" : 1761,
                    "duration" : 26,
                    "mediaStart" : 261,
                    "mediaDuration" : 26,
                    "scalar" : 1,
                    "metadata" : {
                      "clipSpeedAttribute" : false
                    },
                    "animationTracks" : {

                    }
                  },
                  {
                    "id" : 167,
                    "_type" : "AMFile",
                    "src" : 50,
                    "trackNumber" : 0,
                    "attributes" : {
                      "ident" : "x2mate.com - Swish, Swoosh, Cutscene Sound Effect (128 kbps)",
                      "gain" : 0.583345303073829,
                      "mixToMono" : false,
                      "loudnessNormalization" : true,
                      "sourceFileOffset" : 0
                    },
                      "channelNumber" : "0,1",
                    "effects" : [

                    ],
                    "start" : 2504,
                    "duration" : 26,
                    "mediaStart" : 261,
                    "mediaDuration" : 26,
                    "scalar" : 1,
                    "metadata" : {
                      "clipSpeedAttribute" : false
                    },
                    "animationTracks" : {

                    }
                  },
                  {
                    "id" : 168,
                    "_type" : "AMFile",
                    "src" : 50,
                    "trackNumber" : 0,
                    "attributes" : {
                      "ident" : "x2mate.com - Swish, Swoosh, Cutscene Sound Effect (128 kbps)",
                      "gain" : 0.583345303073829,
                      "mixToMono" : false,
                      "loudnessNormalization" : true,
                      "sourceFileOffset" : 0
                    },
                      "channelNumber" : "0,1",
                    "effects" : [

                    ],
                    "start" : 2580,
                    "duration" : 26,
                    "mediaStart" : 261,
                    "mediaDuration" : 26,
                    "scalar" : 1,
                    "metadata" : {
                      "clipSpeedAttribute" : false
                    },
                    "animationTracks" : {

                    }
                  }
                ]
              },
              {
                "trackIndex" : 21,
                "medias" : [
                  {
                    "id" : 169,
                    "_type" : "AMFile",
                    "src" : 50,
                    "trackNumber" : 0,
                    "attributes" : {
                      "ident" : "x2mate.com - Swish, Swoosh, Cutscene Sound Effect (128 kbps)",
                      "gain" : 1.0,
                      "mixToMono" : false,
                      "loudnessNormalization" : true,
                      "sourceFileOffset" : 0
                    },
                      "channelNumber" : "0,1",
                    "effects" : [

                    ],
                    "start" : 1622,
                    "duration" : 18,
                    "mediaStart" : 191,
                    "mediaDuration" : 18,
                    "scalar" : 1,
                    "metadata" : {
                      "clipSpeedAttribute" : false
                    },
                    "animationTracks" : {

                    }
                  },
                  {
                    "id" : 170,
                    "_type" : "AMFile",
                    "src" : 50,
                    "trackNumber" : 0,
                    "attributes" : {
                      "ident" : "x2mate.com - Swish, Swoosh, Cutscene Sound Effect (128 kbps)",
                      "gain" : 1.0,
                      "mixToMono" : false,
                      "loudnessNormalization" : true,
                      "sourceFileOffset" : 0
                    },
                      "channelNumber" : "0,1",
                    "effects" : [

                    ],
                    "start" : 2410,
                    "duration" : 18,
                    "mediaStart" : 191,
                    "mediaDuration" : 18,
                    "scalar" : 1,
                    "metadata" : {
                      "clipSpeedAttribute" : false
                    },
                    "animationTracks" : {

                    }
                  },
                  {
                    "id" : 171,
                    "_type" : "AMFile",
                    "src" : 50,
                    "trackNumber" : 0,
                    "attributes" : {
                      "ident" : "x2mate.com - Swish, Swoosh, Cutscene Sound Effect (128 kbps)",
                      "gain" : 1.0,
                      "mixToMono" : false,
                      "loudnessNormalization" : true,
                      "sourceFileOffset" : 0
                    },
                      "channelNumber" : "0,1",
                    "effects" : [

                    ],
                    "start" : 2445,
                    "duration" : 28,
                    "mediaStart" : 114,
                    "mediaDuration" : 28,
                    "scalar" : 1,
                    "metadata" : {
                      "clipSpeedAttribute" : false
                    },
                    "animationTracks" : {

                    }
                  },
                  {
                    "id" : 172,
                    "_type" : "AMFile",
                    "src" : 50,
                    "trackNumber" : 0,
                    "attributes" : {
                      "ident" : "x2mate.com - Swish, Swoosh, Cutscene Sound Effect (128 kbps)",
                      "gain" : 0.583345303073829,
                      "mixToMono" : false,
                      "loudnessNormalization" : true,
                      "sourceFileOffset" : 0
                    },
                      "channelNumber" : "0,1",
                    "effects" : [

                    ],
                    "start" : 2484,
                    "duration" : 26,
                    "mediaStart" : 261,
                    "mediaDuration" : 26,
                    "scalar" : 1,
                    "metadata" : {
                      "clipSpeedAttribute" : false
                    },
                    "animationTracks" : {

                    }
                  },
                  {
                    "id" : 173,
                    "_type" : "AMFile",
                    "src" : 50,
                    "trackNumber" : 0,
                    "attributes" : {
                      "ident" : "x2mate.com - Swish, Swoosh, Cutscene Sound Effect (128 kbps)",
                      "gain" : 1.0,
                      "mixToMono" : false,
                      "loudnessNormalization" : true,
                      "sourceFileOffset" : 0
                    },
                      "channelNumber" : "0,1",
                    "effects" : [

                    ],
                    "start" : 2712,
                    "duration" : 51,
                    "mediaStart" : 552,
                    "mediaDuration" : 51,
                    "scalar" : 1,
                    "metadata" : {
                      "clipSpeedAttribute" : false
                    },
                    "animationTracks" : {

                    }
                  }
                ]
              },
              {
                "trackIndex" : 22,
                "medias" : [
                  {
                    "id" : 174,
                    "_type" : "AMFile",
                    "src" : 50,
                    "trackNumber" : 0,
                    "attributes" : {
                      "ident" : "x2mate.com - Swish, Swoosh, Cutscene Sound Effect (128 kbps)",
                      "gain" : 1.0,
                      "mixToMono" : false,
                      "loudnessNormalization" : true,
                      "sourceFileOffset" : 0
                    },
                      "channelNumber" : "0,1",
                    "effects" : [

                    ],
                    "start" : 0,
                    "duration" : 32,
                    "mediaStart" : 39,
                    "mediaDuration" : 32,
                    "scalar" : 1,
                    "metadata" : {
                      "clipSpeedAttribute" : false
                    },
                    "animationTracks" : {

                    }
                  },
                  {
                    "id" : 175,
                    "_type" : "AMFile",
                    "src" : 50,
                    "trackNumber" : 0,
                    "attributes" : {
                      "ident" : "x2mate.com - Swish, Swoosh, Cutscene Sound Effect (128 kbps)",
                      "gain" : 1.0,
                      "mixToMono" : false,
                      "loudnessNormalization" : true,
                      "sourceFileOffset" : 0
                    },
                      "channelNumber" : "0,1",
                    "effects" : [

                    ],
                    "start" : 93,
                    "duration" : 23,
                    "mediaStart" : 336,
                    "mediaDuration" : 23,
                    "scalar" : 1,
                    "metadata" : {
                      "clipSpeedAttribute" : false
                    },
                    "animationTracks" : {

                    }
                  },
                  {
                    "id" : 176,
                    "_type" : "AMFile",
                    "src" : 50,
                    "trackNumber" : 0,
                    "attributes" : {
                      "ident" : "x2mate.com - Swish, Swoosh, Cutscene Sound Effect (128 kbps)",
                      "gain" : 1.0,
                      "mixToMono" : false,
                      "loudnessNormalization" : true,
                      "sourceFileOffset" : 0
                    },
                      "channelNumber" : "0,1",
                    "effects" : [

                    ],
                    "start" : 482,
                    "duration" : 28,
                    "mediaStart" : 114,
                    "mediaDuration" : 28,
                    "scalar" : 1,
                    "metadata" : {
                      "clipSpeedAttribute" : false
                    },
                    "animationTracks" : {

                    }
                  },
                  {
                    "id" : 177,
                    "_type" : "AMFile",
                    "src" : 50,
                    "trackNumber" : 0,
                    "attributes" : {
                      "ident" : "x2mate.com - Swish, Swoosh, Cutscene Sound Effect (128 kbps)",
                      "gain" : 1.0,
                      "mixToMono" : false,
                      "loudnessNormalization" : true,
                      "sourceFileOffset" : 0
                    },
                      "channelNumber" : "0,1",
                    "effects" : [

                    ],
                    "start" : 597,
                    "duration" : 18,
                    "mediaStart" : 191,
                    "mediaDuration" : 18,
                    "scalar" : 1,
                    "metadata" : {
                      "clipSpeedAttribute" : false
                    },
                    "animationTracks" : {

                    }
                  }
                ]
              },
              {
                "trackIndex" : 23,
                "medias" : [
                  {
                    "id" : 178,
                    "_type" : "Callout",
                    "def" : {
                      "kind" : "remix",
                      "shape" : "shape-rectangle",
                      "style" : "urban",
                      "fill-color-blue" : 1.0,
                      "fill-color-green" : 1.0,
                      "fill-color-opacity" : 1.0,
                      "fill-color-red" : 1.0,
                      "height" : 78.8888888888888,
                      "stroke-color-blue" : 1.0,
                      "stroke-color-green" : 1.0,
                      "stroke-color-opacity" : 1.0,
                      "stroke-color-red" : 1.0,
                      "stroke-width" : 0.0,
                      "width" : 442.222223708088,
                      "fill-style" : "solid",
                      "stroke-style" : "solid"
                    },
                    "attributes" : {
                      "ident" : "",
                      "autoRotateText" : true
                    },
                    "parameters" : {
                      "translation0" : -641.275258098795,
                      "translation1" : -222.860046051885,
                      "sourceCrop0" : 0.0,
                      "sourceCrop1" : 0.0,
                      "sourceCrop2" : 0.0,
                      "sourceCrop3" : 0.0,
                      "geometryCrop0" : 0.0,
                      "geometryCrop1" : 0.0,
                      "geometryCrop2" : 0.0,
                      "geometryCrop3" : 0.0
                    },
                    "effects" : [

                    ],
                    "start" : 704,
                    "duration" : 938,
                    "mediaStart" : 0,
                    "mediaDuration" : 938,
                    "scalar" : 1,
                    "metadata" : {
                      "clipSpeedAttribute" : false,
                      "default-height" : 180.0,
                      "default-translation0" : 0.0,
                      "default-translation1" : 0.0,
                      "default-width" : 240.0
                    },
                    "animationTracks" : {

                    }
                  }
                ]
              },
              {
                "trackIndex" : 24,
                "medias" : [
                  {
                    "id" : 179,
                    "_type" : "Callout",
                    "def" : {
                      "kind" : "remix",
                      "shape" : "text",
                      "style" : "basic",
                      "enable-ligatures" : {
                        "type" : "double",
                        "defaultValue" : 1.0,
                        "interp" : "linr"
                      },
                      "height" : {
                        "type" : "double",
                        "defaultValue" : 78.8888888888888,
                        "interp" : "linr"
                      },
                      "line-spacing" : {
                        "type" : "double",
                        "defaultValue" : 0.0,
                        "interp" : "linr"
                      },
                      "width" : {
                        "type" : "double",
                        "defaultValue" : 442.222222222226,
                        "interp" : "linr"
                      },
                      "word-wrap" : {
                        "type" : "double",
                        "defaultValue" : 1.0,
                        "interp" : "linr"
                      },
                      "horizontal-alignment" : "center",
                      "resize-behavior" : "resizeText",
                      "text" : "Nandang Duryat",
                      "vertical-alignment" : "center",
                      "font" : {
                        "color-blue" : {
                          "type" : "double",
                          "defaultValue" : 1.0,
                          "interp" : "linr"
                        },
                        "color-green" : {
                          "type" : "double",
                          "defaultValue" : 1.0,
                          "interp" : "linr"
                        },
                        "color-red" : {
                          "type" : "double",
                          "defaultValue" : 1.0,
                          "interp" : "linr"
                        },
                        "size" : {
                          "type" : "double",
                          "defaultValue" : 64.0,
                          "interp" : "linr"
                        },
                        "tracking" : {
                          "type" : "double",
                          "defaultValue" : 0.0,
                          "interp" : "linr"
                        },
                        "name" : "Montserrat",
                        "weight" : "Regular"
                      },
                      "textAttributes" : {
                        "type" : "textAttributeList",
                        "keyframes" : [
                          {
                            "endTime" : 0,
                            "time" : 0,
                            "value" : [{"name":"underline","rangeEnd":14,"rangeStart":0,"value":0,"valueType":"int"},{"name":"fgColor","rangeEnd":14,"rangeStart":0,"value":"(0,0,0,255)","valueType":"color"},{"name":"fontSize","rangeEnd":14,"rangeStart":0,"value":64,"valueType":"double"},{"name":"fontName","rangeEnd":14,"rangeStart":0,"value":"1942 report","valueType":"string"},{"name":"strikethrough","rangeEnd":14,"rangeStart":0,"value":0,"valueType":"int"},{"name":"kerning","rangeEnd":14,"rangeStart":0,"value":0,"valueType":"double"},{"name":"fontItalic","rangeEnd":14,"rangeStart":0,"value":0,"valueType":"int"},{"name":"fontWeight","rangeEnd":14,"rangeStart":0,"value":700,"valueType":"int"}],
                            "duration" : 0
                          }
                        ]
                      }
                    },
                    "attributes" : {
                      "ident" : "",
                      "autoRotateText" : true
                    },
                    "parameters" : {
                      "translation0" : {
                        "type" : "double",
                        "defaultValue" : -640.886367992684,
                        "interp" : "eioe"
                      },
                      "translation1" : {
                        "type" : "double",
                        "defaultValue" : -222.360046051885,
                        "interp" : "eioe"
                      },
                      "sourceCrop0" : {
                        "type" : "double",
                        "defaultValue" : 0.0,
                        "interp" : "eioe"
                      },
                      "sourceCrop1" : {
                        "type" : "double",
                        "defaultValue" : 0.0,
                        "interp" : "eioe"
                      },
                      "sourceCrop2" : {
                        "type" : "double",
                        "defaultValue" : 0.0,
                        "interp" : "eioe"
                      },
                      "sourceCrop3" : {
                        "type" : "double",
                        "defaultValue" : 0.0,
                        "interp" : "eioe"
                      },
                      "geometryCrop0" : {
                        "type" : "double",
                        "defaultValue" : 0.0,
                        "interp" : "eioe"
                      },
                      "geometryCrop1" : {
                        "type" : "double",
                        "defaultValue" : 0.0,
                        "interp" : "eioe"
                      },
                      "geometryCrop2" : {
                        "type" : "double",
                        "defaultValue" : 0.0,
                        "interp" : "eioe"
                      },
                      "geometryCrop3" : {
                        "type" : "double",
                        "defaultValue" : 0.0,
                        "interp" : "eioe"
                      }
                    },
                    "effects" : [
                        {
                          "_type" : "GenericBehaviorEffect",
                          "effectName" : "fade",
                          "bypassed" : false,
                          "start" : 0,
                          "duration" : 938                        ,
                          "in" : {
                            "attributes" : {
                              "name" : "fadeIn",
                              "type" : 1,
                              "characterOrder" : 6,
                              "offsetBetweenCharacters" : 3,
                              "suggestedDurationPerCharacter" : 0,
                              "overlapProportion" : 0,
                              "movement" : 0,
                              "springDamping" : 5.0,
                              "springStiffness" : 50.0,
                              "bounceBounciness" : 0.45
                            }
                          
                          },
                          "center" : {
                            "attributes" : {
                              "name" : "none",
                              "type" : 1,
                              "characterOrder" : 6,
                              "offsetBetweenCharacters" : 0,
                              "secondsPerLoop" : 1,
                              "numberOfLoops" : -1,
                              "delayBetweenLoops" : 0
                            }
                          
                          },
                          "out" : {
                            "attributes" : {
                              "name" : "none",
                              "type" : 1,
                              "characterOrder" : 6,
                              "offsetBetweenCharacters" : 0,
                              "suggestedDurationPerCharacter" : 0,
                              "overlapProportion" : 0,
                              "movement" : -1,
                              "springDamping" : 5.0,
                              "springStiffness" : 50.0,
                              "bounceBounciness" : 0.45
                            }
                          
                          },
                          "metadata" : {
                            "default-behavior-in-bounciness" : 0.45,
                            "default-behavior-in-characterorder" : 7.0,
                            "default-behavior-in-duration" : 22.0,
                            "default-behavior-in-movement" : 16.0,
                            "default-behavior-in-offset" : 1.5,
                            "default-behavior-in-style" : "fadeIn",
                            "default-behavior-in-type" : 1.0,
                            "default-behavior-out-style" : "fadeOut",
                            "presetName" : "Fade"
                          }
                        }
                    ],
                    "start" : 704,
                    "duration" : 938,
                    "mediaStart" : 0,
                    "mediaDuration" : 938,
                    "scalar" : 1,
                    "metadata" : {
                      "clipSpeedAttribute" : false,
                      "default-HAlign" : "center",
                      "default-LineSpace" : 0.0,
                      "default-VAlign" : "center",
                      "default-height" : 250.0,
                      "default-text-attributes" : "[{\"name\":\"fgColor\",\"rangeEnd\":25,\"rangeStart\":0,\"value\":\"(0,0,0,255)\",\"valueType\":\"color\"},{\"name\":\"kerning\",\"rangeEnd\":25,\"rangeStart\":0,\"value\":0,\"valueType\":\"double\"},{\"name\":\"underline\",\"rangeEnd\":25,\"rangeStart\":0,\"value\":0,\"valueType\":\"int\"},{\"name\":\"strikethrough\",\"rangeEnd\":25,\"rangeStart\":0,\"value\":0,\"valueType\":\"int\"},{\"name\":\"fontWeight\",\"rangeEnd\":25,\"rangeStart\":0,\"value\":700,\"valueType\":\"int\"},{\"name\":\"fontItalic\",\"rangeEnd\":25,\"rangeStart\":0,\"value\":0,\"valueType\":\"int\"},{\"name\":\"fontName\",\"rangeEnd\":25,\"rangeStart\":0,\"value\":\"Courier New\",\"valueType\":\"string\"},{\"name\":\"fontSize\",\"rangeEnd\":25,\"rangeStart\":0,\"value\":64,\"valueType\":\"double\"}]",
                      "default-translation0" : 0.0,
                      "default-translation1" : 0.0,
                      "default-width" : 400.0
                    },
                    "animationTracks" : {

                    }
                  }
                ]
              },
              {
                "trackIndex" : 25,
                "medias" : [
                  {
                    "id" : 180,
                    "_type" : "Callout",
                    "def" : {
                      "kind" : "remix",
                      "shape" : "shape-rectangle",
                      "style" : "urban",
                      "fill-color-blue" : {
                        "type" : "double",
                        "defaultValue" : 1.0,
                        "interp" : "linr"
                      },
                      "fill-color-green" : {
                        "type" : "double",
                        "defaultValue" : 1.0,
                        "interp" : "linr"
                      },
                      "fill-color-opacity" : {
                        "type" : "double",
                        "defaultValue" : 1.0,
                        "interp" : "linr"
                      },
                      "fill-color-red" : {
                        "type" : "double",
                        "defaultValue" : 1.0,
                        "interp" : "linr"
                      },
                      "height" : {
                        "type" : "double",
                        "defaultValue" : 78.8888888888888,
                        "interp" : "linr"
                      },
                      "stroke-color-blue" : {
                        "type" : "double",
                        "defaultValue" : 1.0,
                        "interp" : "linr"
                      },
                      "stroke-color-green" : {
                        "type" : "double",
                        "defaultValue" : 1.0,
                        "interp" : "linr"
                      },
                      "stroke-color-opacity" : {
                        "type" : "double",
                        "defaultValue" : 1.0,
                        "interp" : "linr"
                      },
                      "stroke-color-red" : {
                        "type" : "double",
                        "defaultValue" : 1.0,
                        "interp" : "linr"
                      },
                      "stroke-width" : {
                        "type" : "double",
                        "defaultValue" : 0.0,
                        "interp" : "linr"
                      },
                      "width" : {
                        "type" : "double",
                        "defaultValue" : 442.222223708088,
                        "interp" : "linr"
                      },
                      "fill-style" : "solid",
                      "stroke-style" : "solid"
                    },
                    "attributes" : {
                      "ident" : "",
                      "autoRotateText" : true
                    },
                    "parameters" : {
                      "translation0" : {
                        "type" : "double",
                        "defaultValue" : 304.074906419645,
                        "interp" : "eioe"
                      },
                      "translation1" : {
                        "type" : "double",
                        "defaultValue" : -407.288888888889,
                        "interp" : "eioe"
                      },
                      "sourceCrop0" : {
                        "type" : "double",
                        "defaultValue" : 0.0,
                        "interp" : "eioe"
                      },
                      "sourceCrop1" : {
                        "type" : "double",
                        "defaultValue" : 0.0,
                        "interp" : "eioe"
                      },
                      "sourceCrop2" : {
                        "type" : "double",
                        "defaultValue" : 0.0,
                        "interp" : "eioe"
                      },
                      "sourceCrop3" : {
                        "type" : "double",
                        "defaultValue" : 0.0,
                        "interp" : "eioe"
                      },
                      "geometryCrop0" : {
                        "type" : "double",
                        "defaultValue" : 0.0,
                        "interp" : "eioe"
                      },
                      "geometryCrop1" : {
                        "type" : "double",
                        "defaultValue" : 0.0,
                        "interp" : "eioe"
                      },
                      "geometryCrop2" : {
                        "type" : "double",
                        "defaultValue" : 0.0,
                        "interp" : "eioe"
                      },
                      "geometryCrop3" : {
                        "type" : "double",
                        "defaultValue" : 0.0,
                        "interp" : "eioe"
                      }
                    },
                    "effects" : [

                    ],
                    "start" : 763,
                    "duration" : 879,
                    "mediaStart" : 0,
                    "mediaDuration" : 879,
                    "scalar" : 1,
                    "metadata" : {
                      "clipSpeedAttribute" : false,
                      "default-height" : 180.0,
                      "default-translation0" : 0.0,
                      "default-translation1" : 0.0,
                      "default-width" : 240.0
                    },
                    "animationTracks" : {

                    }
                  }
                ]
              },
              {
                "trackIndex" : 26,
                "medias" : [
                  {
                    "id" : 181,
                    "_type" : "Callout",
                    "def" : {
                      "kind" : "remix",
                      "shape" : "text",
                      "style" : "basic",
                      "enable-ligatures" : {
                        "type" : "double",
                        "defaultValue" : 1.0,
                        "interp" : "linr"
                      },
                      "height" : {
                        "type" : "double",
                        "defaultValue" : 78.8888888888888,
                        "interp" : "linr"
                      },
                      "line-spacing" : {
                        "type" : "double",
                        "defaultValue" : 0.0,
                        "interp" : "linr"
                      },
                      "width" : {
                        "type" : "double",
                        "defaultValue" : 442.222222222226,
                        "interp" : "linr"
                      },
                      "word-wrap" : {
                        "type" : "double",
                        "defaultValue" : 1.0,
                        "interp" : "linr"
                      },
                      "horizontal-alignment" : "center",
                      "resize-behavior" : "resizeText",
                      "text" : "Adam Mubarok",
                      "vertical-alignment" : "center",
                      "font" : {
                        "color-blue" : {
                          "type" : "double",
                          "defaultValue" : 1.0,
                          "interp" : "linr"
                        },
                        "color-green" : {
                          "type" : "double",
                          "defaultValue" : 1.0,
                          "interp" : "linr"
                        },
                        "color-red" : {
                          "type" : "double",
                          "defaultValue" : 1.0,
                          "interp" : "linr"
                        },
                        "size" : {
                          "type" : "double",
                          "defaultValue" : 64.0,
                          "interp" : "linr"
                        },
                        "tracking" : {
                          "type" : "double",
                          "defaultValue" : 0.0,
                          "interp" : "linr"
                        },
                        "name" : "Montserrat",
                        "weight" : "Regular"
                      },
                      "textAttributes" : {
                        "type" : "textAttributeList",
                        "keyframes" : [
                          {
                            "endTime" : 0,
                            "time" : 0,
                            "value" : [{"name":"underline","rangeEnd":12,"rangeStart":0,"value":0,"valueType":"int"},{"name":"kerning","rangeEnd":12,"rangeStart":0,"value":0,"valueType":"double"},{"name":"fontItalic","rangeEnd":12,"rangeStart":0,"value":0,"valueType":"int"},{"name":"strikethrough","rangeEnd":12,"rangeStart":0,"value":0,"valueType":"int"},{"name":"fontWeight","rangeEnd":12,"rangeStart":0,"value":700,"valueType":"int"},{"name":"fontName","rangeEnd":12,"rangeStart":0,"value":"1942 report","valueType":"string"},{"name":"fontSize","rangeEnd":12,"rangeStart":0,"value":64,"valueType":"double"},{"name":"fgColor","rangeEnd":12,"rangeStart":0,"value":"(0,0,0,255)","valueType":"color"}],
                            "duration" : 0
                          }
                        ]
                      }
                    },
                    "attributes" : {
                      "ident" : "",
                      "autoRotateText" : true
                    },
                    "parameters" : {
                      "translation0" : {
                        "type" : "double",
                        "defaultValue" : 304.463796525757,
                        "interp" : "eioe"
                      },
                      "translation1" : {
                        "type" : "double",
                        "defaultValue" : -406.788888888889,
                        "interp" : "eioe"
                      },
                      "sourceCrop0" : {
                        "type" : "double",
                        "defaultValue" : 0.0,
                        "interp" : "eioe"
                      },
                      "sourceCrop1" : {
                        "type" : "double",
                        "defaultValue" : 0.0,
                        "interp" : "eioe"
                      },
                      "sourceCrop2" : {
                        "type" : "double",
                        "defaultValue" : 0.0,
                        "interp" : "eioe"
                      },
                      "sourceCrop3" : {
                        "type" : "double",
                        "defaultValue" : 0.0,
                        "interp" : "eioe"
                      },
                      "geometryCrop0" : {
                        "type" : "double",
                        "defaultValue" : 0.0,
                        "interp" : "eioe"
                      },
                      "geometryCrop1" : {
                        "type" : "double",
                        "defaultValue" : 0.0,
                        "interp" : "eioe"
                      },
                      "geometryCrop2" : {
                        "type" : "double",
                        "defaultValue" : 0.0,
                        "interp" : "eioe"
                      },
                      "geometryCrop3" : {
                        "type" : "double",
                        "defaultValue" : 0.0,
                        "interp" : "eioe"
                      }
                    },
                    "effects" : [
                        {
                          "_type" : "GenericBehaviorEffect",
                          "effectName" : "fade",
                          "bypassed" : false,
                          "start" : 0,
                          "duration" : 879                        ,
                          "in" : {
                            "attributes" : {
                              "name" : "fadeIn",
                              "type" : 1,
                              "characterOrder" : 6,
                              "offsetBetweenCharacters" : 3,
                              "suggestedDurationPerCharacter" : 0,
                              "overlapProportion" : 0,
                              "movement" : 0,
                              "springDamping" : 5.0,
                              "springStiffness" : 50.0,
                              "bounceBounciness" : 0.45
                            }
                          
                          },
                          "center" : {
                            "attributes" : {
                              "name" : "none",
                              "type" : 1,
                              "characterOrder" : 6,
                              "offsetBetweenCharacters" : 0,
                              "secondsPerLoop" : 1,
                              "numberOfLoops" : -1,
                              "delayBetweenLoops" : 0
                            }
                          
                          },
                          "out" : {
                            "attributes" : {
                              "name" : "none",
                              "type" : 1,
                              "characterOrder" : 6,
                              "offsetBetweenCharacters" : 0,
                              "suggestedDurationPerCharacter" : 0,
                              "overlapProportion" : 0,
                              "movement" : -1,
                              "springDamping" : 5.0,
                              "springStiffness" : 50.0,
                              "bounceBounciness" : 0.45
                            }
                          
                          },
                          "metadata" : {
                            "default-behavior-in-bounciness" : 0.45,
                            "default-behavior-in-characterorder" : 7.0,
                            "default-behavior-in-duration" : 22.0,
                            "default-behavior-in-movement" : 16.0,
                            "default-behavior-in-offset" : 1.5,
                            "default-behavior-in-style" : "fadeIn",
                            "default-behavior-in-type" : 1.0,
                            "default-behavior-out-style" : "fadeOut",
                            "presetName" : "Fade"
                          }
                        }
                    ],
                    "start" : 763,
                    "duration" : 879,
                    "mediaStart" : 0,
                    "mediaDuration" : 879,
                    "scalar" : 1,
                    "metadata" : {
                      "clipSpeedAttribute" : false,
                      "default-HAlign" : "center",
                      "default-LineSpace" : 0.0,
                      "default-VAlign" : "center",
                      "default-height" : 250.0,
                      "default-text-attributes" : "[{\"name\":\"fgColor\",\"rangeEnd\":25,\"rangeStart\":0,\"value\":\"(0,0,0,255)\",\"valueType\":\"color\"},{\"name\":\"kerning\",\"rangeEnd\":25,\"rangeStart\":0,\"value\":0,\"valueType\":\"double\"},{\"name\":\"underline\",\"rangeEnd\":25,\"rangeStart\":0,\"value\":0,\"valueType\":\"int\"},{\"name\":\"strikethrough\",\"rangeEnd\":25,\"rangeStart\":0,\"value\":0,\"valueType\":\"int\"},{\"name\":\"fontWeight\",\"rangeEnd\":25,\"rangeStart\":0,\"value\":700,\"valueType\":\"int\"},{\"name\":\"fontItalic\",\"rangeEnd\":25,\"rangeStart\":0,\"value\":0,\"valueType\":\"int\"},{\"name\":\"fontName\",\"rangeEnd\":25,\"rangeStart\":0,\"value\":\"Courier New\",\"valueType\":\"string\"},{\"name\":\"fontSize\",\"rangeEnd\":25,\"rangeStart\":0,\"value\":64,\"valueType\":\"double\"}]",
                      "default-translation0" : 0.0,
                      "default-translation1" : 0.0,
                      "default-width" : 400.0
                    },
                    "animationTracks" : {

                    }
                  }
                ]
              },
              {
                "trackIndex" : 27,
                "medias" : [
                  {
                    "id" : 182,
                    "_type" : "Callout",
                    "def" : {
                      "kind" : "remix",
                      "shape" : "shape-rectangle",
                      "style" : "urban",
                      "fill-color-blue" : {
                        "type" : "double",
                        "defaultValue" : 1.0,
                        "interp" : "linr"
                      },
                      "fill-color-green" : {
                        "type" : "double",
                        "defaultValue" : 1.0,
                        "interp" : "linr"
                      },
                      "fill-color-opacity" : {
                        "type" : "double",
                        "defaultValue" : 1.0,
                        "interp" : "linr"
                      },
                      "fill-color-red" : {
                        "type" : "double",
                        "defaultValue" : 1.0,
                        "interp" : "linr"
                      },
                      "height" : {
                        "type" : "double",
                        "defaultValue" : 78.8888888888888,
                        "interp" : "linr"
                      },
                      "stroke-color-blue" : {
                        "type" : "double",
                        "defaultValue" : 1.0,
                        "interp" : "linr"
                      },
                      "stroke-color-green" : {
                        "type" : "double",
                        "defaultValue" : 1.0,
                        "interp" : "linr"
                      },
                      "stroke-color-opacity" : {
                        "type" : "double",
                        "defaultValue" : 1.0,
                        "interp" : "linr"
                      },
                      "stroke-color-red" : {
                        "type" : "double",
                        "defaultValue" : 1.0,
                        "interp" : "linr"
                      },
                      "stroke-width" : {
                        "type" : "double",
                        "defaultValue" : 0.0,
                        "interp" : "linr"
                      },
                      "width" : {
                        "type" : "double",
                        "defaultValue" : 442.222223708088,
                        "interp" : "linr"
                      },
                      "fill-style" : "solid",
                      "stroke-style" : "solid"
                    },
                    "attributes" : {
                      "ident" : "",
                      "autoRotateText" : true
                    },
                    "parameters" : {
                      "translation0" : {
                        "type" : "double",
                        "defaultValue" : -343.656207088906,
                        "interp" : "eioe"
                      },
                      "translation1" : {
                        "type" : "double",
                        "defaultValue" : 235.125081060501,
                        "interp" : "eioe"
                      },
                      "sourceCrop0" : {
                        "type" : "double",
                        "defaultValue" : 0.0,
                        "interp" : "eioe"
                      },
                      "sourceCrop1" : {
                        "type" : "double",
                        "defaultValue" : 0.0,
                        "interp" : "eioe"
                      },
                      "sourceCrop2" : {
                        "type" : "double",
                        "defaultValue" : 0.0,
                        "interp" : "eioe"
                      },
                      "sourceCrop3" : {
                        "type" : "double",
                        "defaultValue" : 0.0,
                        "interp" : "eioe"
                      },
                      "geometryCrop0" : {
                        "type" : "double",
                        "defaultValue" : 0.0,
                        "interp" : "eioe"
                      },
                      "geometryCrop1" : {
                        "type" : "double",
                        "defaultValue" : 0.0,
                        "interp" : "eioe"
                      },
                      "geometryCrop2" : {
                        "type" : "double",
                        "defaultValue" : 0.0,
                        "interp" : "eioe"
                      },
                      "geometryCrop3" : {
                        "type" : "double",
                        "defaultValue" : 0.0,
                        "interp" : "eioe"
                      }
                    },
                    "effects" : [

                    ],
                    "start" : 801,
                    "duration" : 841,
                    "mediaStart" : 0,
                    "mediaDuration" : 841,
                    "scalar" : 1,
                    "metadata" : {
                      "clipSpeedAttribute" : false,
                      "default-height" : 180.0,
                      "default-translation0" : 0.0,
                      "default-translation1" : 0.0,
                      "default-width" : 240.0
                    },
                    "animationTracks" : {

                    }
                  }
                ]
              },
              {
                "trackIndex" : 28,
                "medias" : [
                  {
                    "id" : 183,
                    "_type" : "Callout",
                    "def" : {
                      "kind" : "remix",
                      "shape" : "text",
                      "style" : "basic",
                      "enable-ligatures" : {
                        "type" : "double",
                        "defaultValue" : 1.0,
                        "interp" : "linr"
                      },
                      "height" : {
                        "type" : "double",
                        "defaultValue" : 78.8888888888888,
                        "interp" : "linr"
                      },
                      "line-spacing" : {
                        "type" : "double",
                        "defaultValue" : 0.0,
                        "interp" : "linr"
                      },
                      "width" : {
                        "type" : "double",
                        "defaultValue" : 442.222222222226,
                        "interp" : "linr"
                      },
                      "word-wrap" : {
                        "type" : "double",
                        "defaultValue" : 1.0,
                        "interp" : "linr"
                      },
                      "horizontal-alignment" : "center",
                      "resize-behavior" : "resizeText",
                      "text" : "Diah Ayu Lestari",
                      "vertical-alignment" : "center",
                      "font" : {
                        "color-blue" : {
                          "type" : "double",
                          "defaultValue" : 1.0,
                          "interp" : "linr"
                        },
                        "color-green" : {
                          "type" : "double",
                          "defaultValue" : 1.0,
                          "interp" : "linr"
                        },
                        "color-red" : {
                          "type" : "double",
                          "defaultValue" : 1.0,
                          "interp" : "linr"
                        },
                        "size" : {
                          "type" : "double",
                          "defaultValue" : 64.0,
                          "interp" : "linr"
                        },
                        "tracking" : {
                          "type" : "double",
                          "defaultValue" : 0.0,
                          "interp" : "linr"
                        },
                        "name" : "Montserrat",
                        "weight" : "Regular"
                      },
                      "textAttributes" : {
                        "type" : "textAttributeList",
                        "keyframes" : [
                          {
                            "endTime" : 0,
                            "time" : 0,
                            "value" : [{"name":"fontSize","rangeEnd":16,"rangeStart":0,"value":64,"valueType":"double"},{"name":"underline","rangeEnd":16,"rangeStart":0,"value":0,"valueType":"int"},{"name":"fontName","rangeEnd":16,"rangeStart":0,"value":"1942 report","valueType":"string"},{"name":"kerning","rangeEnd":16,"rangeStart":0,"value":0,"valueType":"double"},{"name":"fontWeight","rangeEnd":16,"rangeStart":0,"value":700,"valueType":"int"},{"name":"fgColor","rangeEnd":16,"rangeStart":0,"value":"(0,0,0,255)","valueType":"color"},{"name":"fontItalic","rangeEnd":16,"rangeStart":0,"value":0,"valueType":"int"},{"name":"strikethrough","rangeEnd":16,"rangeStart":0,"value":0,"valueType":"int"}],
                            "duration" : 0
                          }
                        ]
                      }
                    },
                    "attributes" : {
                      "ident" : "",
                      "autoRotateText" : true
                    },
                    "parameters" : {
                      "translation0" : {
                        "type" : "double",
                        "defaultValue" : -343.267316982795,
                        "interp" : "eioe"
                      },
                      "translation1" : {
                        "type" : "double",
                        "defaultValue" : 235.625081060501,
                        "interp" : "eioe"
                      },
                      "sourceCrop0" : {
                        "type" : "double",
                        "defaultValue" : 0.0,
                        "interp" : "eioe"
                      },
                      "sourceCrop1" : {
                        "type" : "double",
                        "defaultValue" : 0.0,
                        "interp" : "eioe"
                      },
                      "sourceCrop2" : {
                        "type" : "double",
                        "defaultValue" : 0.0,
                        "interp" : "eioe"
                      },
                      "sourceCrop3" : {
                        "type" : "double",
                        "defaultValue" : 0.0,
                        "interp" : "eioe"
                      },
                      "geometryCrop0" : {
                        "type" : "double",
                        "defaultValue" : 0.0,
                        "interp" : "eioe"
                      },
                      "geometryCrop1" : {
                        "type" : "double",
                        "defaultValue" : 0.0,
                        "interp" : "eioe"
                      },
                      "geometryCrop2" : {
                        "type" : "double",
                        "defaultValue" : 0.0,
                        "interp" : "eioe"
                      },
                      "geometryCrop3" : {
                        "type" : "double",
                        "defaultValue" : 0.0,
                        "interp" : "eioe"
                      }
                    },
                    "effects" : [
                        {
                          "_type" : "GenericBehaviorEffect",
                          "effectName" : "fade",
                          "bypassed" : false,
                          "start" : 0,
                          "duration" : 841                        ,
                          "in" : {
                            "attributes" : {
                              "name" : "fadeIn",
                              "type" : 1,
                              "characterOrder" : 6,
                              "offsetBetweenCharacters" : 3,
                              "suggestedDurationPerCharacter" : 0,
                              "overlapProportion" : 0,
                              "movement" : 0,
                              "springDamping" : 5.0,
                              "springStiffness" : 50.0,
                              "bounceBounciness" : 0.45
                            }
                          
                          },
                          "center" : {
                            "attributes" : {
                              "name" : "none",
                              "type" : 1,
                              "characterOrder" : 6,
                              "offsetBetweenCharacters" : 0,
                              "secondsPerLoop" : 1,
                              "numberOfLoops" : -1,
                              "delayBetweenLoops" : 0
                            }
                          
                          },
                          "out" : {
                            "attributes" : {
                              "name" : "none",
                              "type" : 1,
                              "characterOrder" : 6,
                              "offsetBetweenCharacters" : 0,
                              "suggestedDurationPerCharacter" : 0,
                              "overlapProportion" : 0,
                              "movement" : -1,
                              "springDamping" : 5.0,
                              "springStiffness" : 50.0,
                              "bounceBounciness" : 0.45
                            }
                          
                          },
                          "metadata" : {
                            "default-behavior-in-bounciness" : 0.45,
                            "default-behavior-in-characterorder" : 7.0,
                            "default-behavior-in-duration" : 22.0,
                            "default-behavior-in-movement" : 16.0,
                            "default-behavior-in-offset" : 1.5,
                            "default-behavior-in-style" : "fadeIn",
                            "default-behavior-in-type" : 1.0,
                            "default-behavior-out-style" : "fadeOut",
                            "presetName" : "Fade"
                          }
                        }
                    ],
                    "start" : 801,
                    "duration" : 841,
                    "mediaStart" : 0,
                    "mediaDuration" : 841,
                    "scalar" : 1,
                    "metadata" : {
                      "clipSpeedAttribute" : false,
                      "default-HAlign" : "center",
                      "default-LineSpace" : 0.0,
                      "default-VAlign" : "center",
                      "default-height" : 250.0,
                      "default-text-attributes" : "[{\"name\":\"fgColor\",\"rangeEnd\":25,\"rangeStart\":0,\"value\":\"(0,0,0,255)\",\"valueType\":\"color\"},{\"name\":\"kerning\",\"rangeEnd\":25,\"rangeStart\":0,\"value\":0,\"valueType\":\"double\"},{\"name\":\"underline\",\"rangeEnd\":25,\"rangeStart\":0,\"value\":0,\"valueType\":\"int\"},{\"name\":\"strikethrough\",\"rangeEnd\":25,\"rangeStart\":0,\"value\":0,\"valueType\":\"int\"},{\"name\":\"fontWeight\",\"rangeEnd\":25,\"rangeStart\":0,\"value\":700,\"valueType\":\"int\"},{\"name\":\"fontItalic\",\"rangeEnd\":25,\"rangeStart\":0,\"value\":0,\"valueType\":\"int\"},{\"name\":\"fontName\",\"rangeEnd\":25,\"rangeStart\":0,\"value\":\"Courier New\",\"valueType\":\"string\"},{\"name\":\"fontSize\",\"rangeEnd\":25,\"rangeStart\":0,\"value\":64,\"valueType\":\"double\"}]",
                      "default-translation0" : 0.0,
                      "default-translation1" : 0.0,
                      "default-width" : 400.0
                    },
                    "animationTracks" : {

                    }
                  }
                ]
              },
              {
                "trackIndex" : 29,
                "medias" : [
                  {
                    "id" : 184,
                    "_type" : "Callout",
                    "def" : {
                      "kind" : "remix",
                      "shape" : "shape-rectangle",
                      "style" : "urban",
                      "fill-color-blue" : {
                        "type" : "double",
                        "defaultValue" : 1.0,
                        "interp" : "linr"
                      },
                      "fill-color-green" : {
                        "type" : "double",
                        "defaultValue" : 1.0,
                        "interp" : "linr"
                      },
                      "fill-color-opacity" : {
                        "type" : "double",
                        "defaultValue" : 1.0,
                        "interp" : "linr"
                      },
                      "fill-color-red" : {
                        "type" : "double",
                        "defaultValue" : 1.0,
                        "interp" : "linr"
                      },
                      "height" : {
                        "type" : "double",
                        "defaultValue" : 78.8888888888888,
                        "interp" : "linr"
                      },
                      "stroke-color-blue" : {
                        "type" : "double",
                        "defaultValue" : 1.0,
                        "interp" : "linr"
                      },
                      "stroke-color-green" : {
                        "type" : "double",
                        "defaultValue" : 1.0,
                        "interp" : "linr"
                      },
                      "stroke-color-opacity" : {
                        "type" : "double",
                        "defaultValue" : 1.0,
                        "interp" : "linr"
                      },
                      "stroke-color-red" : {
                        "type" : "double",
                        "defaultValue" : 1.0,
                        "interp" : "linr"
                      },
                      "stroke-width" : {
                        "type" : "double",
                        "defaultValue" : 0.0,
                        "interp" : "linr"
                      },
                      "width" : {
                        "type" : "double",
                        "defaultValue" : 442.222223708088,
                        "interp" : "linr"
                      },
                      "fill-style" : "solid",
                      "stroke-style" : "solid"
                    },
                    "attributes" : {
                      "ident" : "",
                      "autoRotateText" : true
                    },
                    "parameters" : {
                      "translation0" : {
                        "type" : "double",
                        "defaultValue" : 573.355950954056,
                        "interp" : "eioe"
                      },
                      "translation1" : {
                        "type" : "double",
                        "defaultValue" : 224.356808518037,
                        "interp" : "eioe"
                      },
                      "sourceCrop0" : {
                        "type" : "double",
                        "defaultValue" : 0.0,
                        "interp" : "eioe"
                      },
                      "sourceCrop1" : {
                        "type" : "double",
                        "defaultValue" : 0.0,
                        "interp" : "eioe"
                      },
                      "sourceCrop2" : {
                        "type" : "double",
                        "defaultValue" : 0.0,
                        "interp" : "eioe"
                      },
                      "sourceCrop3" : {
                        "type" : "double",
                        "defaultValue" : 0.0,
                        "interp" : "eioe"
                      },
                      "geometryCrop0" : {
                        "type" : "double",
                        "defaultValue" : 0.0,
                        "interp" : "eioe"
                      },
                      "geometryCrop1" : {
                        "type" : "double",
                        "defaultValue" : 0.0,
                        "interp" : "eioe"
                      },
                      "geometryCrop2" : {
                        "type" : "double",
                        "defaultValue" : 0.0,
                        "interp" : "eioe"
                      },
                      "geometryCrop3" : {
                        "type" : "double",
                        "defaultValue" : 0.0,
                        "interp" : "eioe"
                      }
                    },
                    "effects" : [

                    ],
                    "start" : 892,
                    "duration" : 750,
                    "mediaStart" : 0,
                    "mediaDuration" : 750,
                    "scalar" : 1,
                    "metadata" : {
                      "clipSpeedAttribute" : false,
                      "default-height" : 180.0,
                      "default-translation0" : 0.0,
                      "default-translation1" : 0.0,
                      "default-width" : 240.0
                    },
                    "animationTracks" : {

                    }
                  }
                ]
              },
              {
                "trackIndex" : 30,
                "medias" : [
                  {
                    "id" : 185,
                    "_type" : "Callout",
                    "def" : {
                      "kind" : "remix",
                      "shape" : "text",
                      "style" : "basic",
                      "enable-ligatures" : {
                        "type" : "double",
                        "defaultValue" : 1.0,
                        "interp" : "linr"
                      },
                      "height" : {
                        "type" : "double",
                        "defaultValue" : 78.8888888888888,
                        "interp" : "linr"
                      },
                      "line-spacing" : {
                        "type" : "double",
                        "defaultValue" : 0.0,
                        "interp" : "linr"
                      },
                      "width" : {
                        "type" : "double",
                        "defaultValue" : 442.222222222226,
                        "interp" : "linr"
                      },
                      "word-wrap" : {
                        "type" : "double",
                        "defaultValue" : 1.0,
                        "interp" : "linr"
                      },
                      "horizontal-alignment" : "center",
                      "resize-behavior" : "resizeText",
                      "text" : "Eka Salsabila",
                      "vertical-alignment" : "center",
                      "font" : {
                        "color-blue" : {
                          "type" : "double",
                          "defaultValue" : 1.0,
                          "interp" : "linr"
                        },
                        "color-green" : {
                          "type" : "double",
                          "defaultValue" : 1.0,
                          "interp" : "linr"
                        },
                        "color-red" : {
                          "type" : "double",
                          "defaultValue" : 1.0,
                          "interp" : "linr"
                        },
                        "size" : {
                          "type" : "double",
                          "defaultValue" : 64.0,
                          "interp" : "linr"
                        },
                        "tracking" : {
                          "type" : "double",
                          "defaultValue" : 0.0,
                          "interp" : "linr"
                        },
                        "name" : "Montserrat",
                        "weight" : "Regular"
                      },
                      "textAttributes" : {
                        "type" : "textAttributeList",
                        "keyframes" : [
                          {
                            "endTime" : 0,
                            "time" : 0,
                            "value" : [{"name":"fgColor","rangeEnd":13,"rangeStart":0,"value":"(0,0,0,255)","valueType":"color"},{"name":"fontSize","rangeEnd":13,"rangeStart":0,"value":64,"valueType":"double"},{"name":"fontName","rangeEnd":13,"rangeStart":0,"value":"1942 report","valueType":"string"},{"name":"fontItalic","rangeEnd":13,"rangeStart":0,"value":0,"valueType":"int"},{"name":"underline","rangeEnd":13,"rangeStart":0,"value":0,"valueType":"int"},{"name":"fontWeight","rangeEnd":13,"rangeStart":0,"value":700,"valueType":"int"},{"name":"kerning","rangeEnd":13,"rangeStart":0,"value":0,"valueType":"double"},{"name":"strikethrough","rangeEnd":13,"rangeStart":0,"value":0,"valueType":"int"}],
                            "duration" : 0
                          }
                        ]
                      }
                    },
                    "attributes" : {
                      "ident" : "",
                      "autoRotateText" : true
                    },
                    "parameters" : {
                      "translation0" : {
                        "type" : "double",
                        "defaultValue" : 573.744841060167,
                        "interp" : "eioe"
                      },
                      "translation1" : {
                        "type" : "double",
                        "defaultValue" : 224.856808518037,
                        "interp" : "eioe"
                      },
                      "sourceCrop0" : {
                        "type" : "double",
                        "defaultValue" : 0.0,
                        "interp" : "eioe"
                      },
                      "sourceCrop1" : {
                        "type" : "double",
                        "defaultValue" : 0.0,
                        "interp" : "eioe"
                      },
                      "sourceCrop2" : {
                        "type" : "double",
                        "defaultValue" : 0.0,
                        "interp" : "eioe"
                      },
                      "sourceCrop3" : {
                        "type" : "double",
                        "defaultValue" : 0.0,
                        "interp" : "eioe"
                      },
                      "geometryCrop0" : {
                        "type" : "double",
                        "defaultValue" : 0.0,
                        "interp" : "eioe"
                      },
                      "geometryCrop1" : {
                        "type" : "double",
                        "defaultValue" : 0.0,
                        "interp" : "eioe"
                      },
                      "geometryCrop2" : {
                        "type" : "double",
                        "defaultValue" : 0.0,
                        "interp" : "eioe"
                      },
                      "geometryCrop3" : {
                        "type" : "double",
                        "defaultValue" : 0.0,
                        "interp" : "eioe"
                      }
                    },
                    "effects" : [
                        {
                          "_type" : "GenericBehaviorEffect",
                          "effectName" : "fade",
                          "bypassed" : false,
                          "start" : 0,
                          "duration" : 750                        ,
                          "in" : {
                            "attributes" : {
                              "name" : "fadeIn",
                              "type" : 1,
                              "characterOrder" : 6,
                              "offsetBetweenCharacters" : 3,
                              "suggestedDurationPerCharacter" : 0,
                              "overlapProportion" : 0,
                              "movement" : 0,
                              "springDamping" : 5.0,
                              "springStiffness" : 50.0,
                              "bounceBounciness" : 0.45
                            }
                          
                          },
                          "center" : {
                            "attributes" : {
                              "name" : "none",
                              "type" : 1,
                              "characterOrder" : 6,
                              "offsetBetweenCharacters" : 0,
                              "secondsPerLoop" : 1,
                              "numberOfLoops" : -1,
                              "delayBetweenLoops" : 0
                            }
                          
                          },
                          "out" : {
                            "attributes" : {
                              "name" : "none",
                              "type" : 1,
                              "characterOrder" : 6,
                              "offsetBetweenCharacters" : 0,
                              "suggestedDurationPerCharacter" : 0,
                              "overlapProportion" : 0,
                              "movement" : -1,
                              "springDamping" : 5.0,
                              "springStiffness" : 50.0,
                              "bounceBounciness" : 0.45
                            }
                          
                          },
                          "metadata" : {
                            "default-behavior-in-bounciness" : 0.45,
                            "default-behavior-in-characterorder" : 7.0,
                            "default-behavior-in-duration" : 22.0,
                            "default-behavior-in-movement" : 16.0,
                            "default-behavior-in-offset" : 1.5,
                            "default-behavior-in-style" : "fadeIn",
                            "default-behavior-in-type" : 1.0,
                            "default-behavior-out-style" : "fadeOut",
                            "presetName" : "Fade"
                          }
                        }
                    ],
                    "start" : 892,
                    "duration" : 750,
                    "mediaStart" : 0,
                    "mediaDuration" : 750,
                    "scalar" : 1,
                    "metadata" : {
                      "clipSpeedAttribute" : false,
                      "default-HAlign" : "center",
                      "default-LineSpace" : 0.0,
                      "default-VAlign" : "center",
                      "default-height" : 250.0,
                      "default-text-attributes" : "[{\"name\":\"fgColor\",\"rangeEnd\":25,\"rangeStart\":0,\"value\":\"(0,0,0,255)\",\"valueType\":\"color\"},{\"name\":\"kerning\",\"rangeEnd\":25,\"rangeStart\":0,\"value\":0,\"valueType\":\"double\"},{\"name\":\"underline\",\"rangeEnd\":25,\"rangeStart\":0,\"value\":0,\"valueType\":\"int\"},{\"name\":\"strikethrough\",\"rangeEnd\":25,\"rangeStart\":0,\"value\":0,\"valueType\":\"int\"},{\"name\":\"fontWeight\",\"rangeEnd\":25,\"rangeStart\":0,\"value\":700,\"valueType\":\"int\"},{\"name\":\"fontItalic\",\"rangeEnd\":25,\"rangeStart\":0,\"value\":0,\"valueType\":\"int\"},{\"name\":\"fontName\",\"rangeEnd\":25,\"rangeStart\":0,\"value\":\"Courier New\",\"valueType\":\"string\"},{\"name\":\"fontSize\",\"rangeEnd\":25,\"rangeStart\":0,\"value\":64,\"valueType\":\"double\"}]",
                      "default-translation0" : 0.0,
                      "default-translation1" : 0.0,
                      "default-width" : 400.0
                    },
                    "animationTracks" : {

                    }
                  }
                ]
              },
              {
                "trackIndex" : 31,
                "medias" : [
                  {
                    "id" : 186,
                    "_type" : "Callout",
                    "def" : {
                      "kind" : "remix",
                      "shape" : "shape-rectangle",
                      "style" : "urban",
                      "fill-color-blue" : {
                        "type" : "double",
                        "defaultValue" : 1.0,
                        "interp" : "linr"
                      },
                      "fill-color-green" : {
                        "type" : "double",
                        "defaultValue" : 1.0,
                        "interp" : "linr"
                      },
                      "fill-color-opacity" : {
                        "type" : "double",
                        "defaultValue" : 1.0,
                        "interp" : "linr"
                      },
                      "fill-color-red" : {
                        "type" : "double",
                        "defaultValue" : 1.0,
                        "interp" : "linr"
                      },
                      "height" : {
                        "type" : "double",
                        "defaultValue" : 78.8888888888888,
                        "interp" : "linr"
                      },
                      "stroke-color-blue" : {
                        "type" : "double",
                        "defaultValue" : 1.0,
                        "interp" : "linr"
                      },
                      "stroke-color-green" : {
                        "type" : "double",
                        "defaultValue" : 1.0,
                        "interp" : "linr"
                      },
                      "stroke-color-opacity" : {
                        "type" : "double",
                        "defaultValue" : 1.0,
                        "interp" : "linr"
                      },
                      "stroke-color-red" : {
                        "type" : "double",
                        "defaultValue" : 1.0,
                        "interp" : "linr"
                      },
                      "stroke-width" : {
                        "type" : "double",
                        "defaultValue" : 0.0,
                        "interp" : "linr"
                      },
                      "width" : {
                        "type" : "double",
                        "defaultValue" : 442.222223708088,
                        "interp" : "linr"
                      },
                      "fill-style" : "solid",
                      "stroke-style" : "solid"
                    },
                    "attributes" : {
                      "ident" : "",
                      "autoRotateText" : true
                    },
                    "parameters" : {
                      "translation0" : {
                        "type" : "double",
                        "defaultValue" : 692.82602204289,
                        "interp" : "eioe"
                      },
                      "translation1" : {
                        "type" : "double",
                        "defaultValue" : -262.748934940774,
                        "interp" : "eioe"
                      },
                      "sourceCrop0" : {
                        "type" : "double",
                        "defaultValue" : 0.0,
                        "interp" : "eioe"
                      },
                      "sourceCrop1" : {
                        "type" : "double",
                        "defaultValue" : 0.0,
                        "interp" : "eioe"
                      },
                      "sourceCrop2" : {
                        "type" : "double",
                        "defaultValue" : 0.0,
                        "interp" : "eioe"
                      },
                      "sourceCrop3" : {
                        "type" : "double",
                        "defaultValue" : 0.0,
                        "interp" : "eioe"
                      },
                      "geometryCrop0" : {
                        "type" : "double",
                        "defaultValue" : 0.0,
                        "interp" : "eioe"
                      },
                      "geometryCrop1" : {
                        "type" : "double",
                        "defaultValue" : 0.0,
                        "interp" : "eioe"
                      },
                      "geometryCrop2" : {
                        "type" : "double",
                        "defaultValue" : 0.0,
                        "interp" : "eioe"
                      },
                      "geometryCrop3" : {
                        "type" : "double",
                        "defaultValue" : 0.0,
                        "interp" : "eioe"
                      }
                    },
                    "effects" : [

                    ],
                    "start" : 949,
                    "duration" : 693,
                    "mediaStart" : 0,
                    "mediaDuration" : 693,
                    "scalar" : 1,
                    "metadata" : {
                      "clipSpeedAttribute" : false,
                      "default-height" : 180.0,
                      "default-translation0" : 0.0,
                      "default-translation1" : 0.0,
                      "default-width" : 240.0
                    },
                    "animationTracks" : {

                    }
                  }
                ]
              },
              {
                "trackIndex" : 32,
                "medias" : [
                  {
                    "id" : 187,
                    "_type" : "Callout",
                    "def" : {
                      "kind" : "remix",
                      "shape" : "text",
                      "style" : "basic",
                      "enable-ligatures" : {
                        "type" : "double",
                        "defaultValue" : 1.0,
                        "interp" : "linr"
                      },
                      "height" : {
                        "type" : "double",
                        "defaultValue" : 78.8888888888888,
                        "interp" : "linr"
                      },
                      "line-spacing" : {
                        "type" : "double",
                        "defaultValue" : 0.0,
                        "interp" : "linr"
                      },
                      "width" : {
                        "type" : "double",
                        "defaultValue" : 442.222222222226,
                        "interp" : "linr"
                      },
                      "word-wrap" : {
                        "type" : "double",
                        "defaultValue" : 1.0,
                        "interp" : "linr"
                      },
                      "horizontal-alignment" : "center",
                      "resize-behavior" : "resizeText",
                      "text" : "Gilang Prayoga",
                      "vertical-alignment" : "center",
                      "font" : {
                        "color-blue" : {
                          "type" : "double",
                          "defaultValue" : 1.0,
                          "interp" : "linr"
                        },
                        "color-green" : {
                          "type" : "double",
                          "defaultValue" : 1.0,
                          "interp" : "linr"
                        },
                        "color-red" : {
                          "type" : "double",
                          "defaultValue" : 1.0,
                          "interp" : "linr"
                        },
                        "size" : {
                          "type" : "double",
                          "defaultValue" : 64.0,
                          "interp" : "linr"
                        },
                        "tracking" : {
                          "type" : "double",
                          "defaultValue" : 0.0,
                          "interp" : "linr"
                        },
                        "name" : "Montserrat",
                        "weight" : "Regular"
                      },
                      "textAttributes" : {
                        "type" : "textAttributeList",
                        "keyframes" : [
                          {
                            "endTime" : 0,
                            "time" : 0,
                            "value" : [{"name":"fgColor","rangeEnd":14,"rangeStart":0,"value":"(0,0,0,255)","valueType":"color"},{"name":"kerning","rangeEnd":14,"rangeStart":0,"value":0,"valueType":"double"},{"name":"fontName","rangeEnd":14,"rangeStart":0,"value":"1942 report","valueType":"string"},{"name":"fontItalic","rangeEnd":14,"rangeStart":0,"value":0,"valueType":"int"},{"name":"strikethrough","rangeEnd":14,"rangeStart":0,"value":0,"valueType":"int"},{"name":"fontSize","rangeEnd":14,"rangeStart":0,"value":64,"valueType":"double"},{"name":"underline","rangeEnd":14,"rangeStart":0,"value":0,"valueType":"int"},{"name":"fontWeight","rangeEnd":14,"rangeStart":0,"value":700,"valueType":"int"}],
                            "duration" : 0
                          }
                        ]
                      }
                    },
                    "attributes" : {
                      "ident" : "",
                      "autoRotateText" : true
                    },
                    "parameters" : {
                      "translation0" : {
                        "type" : "double",
                        "defaultValue" : 693.214912149002,
                        "interp" : "eioe"
                      },
                      "translation1" : {
                        "type" : "double",
                        "defaultValue" : -262.248934940774,
                        "interp" : "eioe"
                      },
                      "sourceCrop0" : {
                        "type" : "double",
                        "defaultValue" : 0.0,
                        "interp" : "eioe"
                      },
                      "sourceCrop1" : {
                        "type" : "double",
                        "defaultValue" : 0.0,
                        "interp" : "eioe"
                      },
                      "sourceCrop2" : {
                        "type" : "double",
                        "defaultValue" : 0.0,
                        "interp" : "eioe"
                      },
                      "sourceCrop3" : {
                        "type" : "double",
                        "defaultValue" : 0.0,
                        "interp" : "eioe"
                      },
                      "geometryCrop0" : {
                        "type" : "double",
                        "defaultValue" : 0.0,
                        "interp" : "eioe"
                      },
                      "geometryCrop1" : {
                        "type" : "double",
                        "defaultValue" : 0.0,
                        "interp" : "eioe"
                      },
                      "geometryCrop2" : {
                        "type" : "double",
                        "defaultValue" : 0.0,
                        "interp" : "eioe"
                      },
                      "geometryCrop3" : {
                        "type" : "double",
                        "defaultValue" : 0.0,
                        "interp" : "eioe"
                      }
                    },
                    "effects" : [
                        {
                          "_type" : "GenericBehaviorEffect",
                          "effectName" : "fade",
                          "bypassed" : false,
                          "start" : 0,
                          "duration" : 693                        ,
                          "in" : {
                            "attributes" : {
                              "name" : "fadeIn",
                              "type" : 1,
                              "characterOrder" : 6,
                              "offsetBetweenCharacters" : 3,
                              "suggestedDurationPerCharacter" : 0,
                              "overlapProportion" : 0,
                              "movement" : 0,
                              "springDamping" : 5.0,
                              "springStiffness" : 50.0,
                              "bounceBounciness" : 0.45
                            }
                          
                          },
                          "center" : {
                            "attributes" : {
                              "name" : "none",
                              "type" : 1,
                              "characterOrder" : 6,
                              "offsetBetweenCharacters" : 0,
                              "secondsPerLoop" : 1,
                              "numberOfLoops" : -1,
                              "delayBetweenLoops" : 0
                            }
                          
                          },
                          "out" : {
                            "attributes" : {
                              "name" : "none",
                              "type" : 1,
                              "characterOrder" : 6,
                              "offsetBetweenCharacters" : 0,
                              "suggestedDurationPerCharacter" : 0,
                              "overlapProportion" : 0,
                              "movement" : -1,
                              "springDamping" : 5.0,
                              "springStiffness" : 50.0,
                              "bounceBounciness" : 0.45
                            }
                          
                          },
                          "metadata" : {
                            "default-behavior-in-bounciness" : 0.45,
                            "default-behavior-in-characterorder" : 7.0,
                            "default-behavior-in-duration" : 22.0,
                            "default-behavior-in-movement" : 16.0,
                            "default-behavior-in-offset" : 1.5,
                            "default-behavior-in-style" : "fadeIn",
                            "default-behavior-in-type" : 1.0,
                            "default-behavior-out-style" : "fadeOut",
                            "presetName" : "Fade"
                          }
                        }
                    ],
                    "start" : 949,
                    "duration" : 693,
                    "mediaStart" : 0,
                    "mediaDuration" : 693,
                    "scalar" : 1,
                    "metadata" : {
                      "clipSpeedAttribute" : false,
                      "default-HAlign" : "center",
                      "default-LineSpace" : 0.0,
                      "default-VAlign" : "center",
                      "default-height" : 250.0,
                      "default-text-attributes" : "[{\"name\":\"fgColor\",\"rangeEnd\":25,\"rangeStart\":0,\"value\":\"(0,0,0,255)\",\"valueType\":\"color\"},{\"name\":\"kerning\",\"rangeEnd\":25,\"rangeStart\":0,\"value\":0,\"valueType\":\"double\"},{\"name\":\"underline\",\"rangeEnd\":25,\"rangeStart\":0,\"value\":0,\"valueType\":\"int\"},{\"name\":\"strikethrough\",\"rangeEnd\":25,\"rangeStart\":0,\"value\":0,\"valueType\":\"int\"},{\"name\":\"fontWeight\",\"rangeEnd\":25,\"rangeStart\":0,\"value\":700,\"valueType\":\"int\"},{\"name\":\"fontItalic\",\"rangeEnd\":25,\"rangeStart\":0,\"value\":0,\"valueType\":\"int\"},{\"name\":\"fontName\",\"rangeEnd\":25,\"rangeStart\":0,\"value\":\"Courier New\",\"valueType\":\"string\"},{\"name\":\"fontSize\",\"rangeEnd\":25,\"rangeStart\":0,\"value\":64,\"valueType\":\"double\"}]",
                      "default-translation0" : 0.0,
                      "default-translation1" : 0.0,
                      "default-width" : 400.0
                    },
                    "animationTracks" : {

                    }
                  }
                ]
              },
              {
                "trackIndex" : 33,
                "medias" : [
                  {
                    "id" : 188,
                    "_type" : "Callout",
                    "def" : {
                      "kind" : "remix",
                      "shape" : "shape-rectangle",
                      "style" : "urban",
                      "fill-color-blue" : {
                        "type" : "double",
                        "defaultValue" : 1.0,
                        "interp" : "linr"
                      },
                      "fill-color-green" : {
                        "type" : "double",
                        "defaultValue" : 1.0,
                        "interp" : "linr"
                      },
                      "fill-color-opacity" : {
                        "type" : "double",
                        "defaultValue" : 1.0,
                        "interp" : "linr"
                      },
                      "fill-color-red" : {
                        "type" : "double",
                        "defaultValue" : 1.0,
                        "interp" : "linr"
                      },
                      "height" : {
                        "type" : "double",
                        "defaultValue" : 78.8888888888888,
                        "interp" : "linr"
                      },
                      "stroke-color-blue" : {
                        "type" : "double",
                        "defaultValue" : 1.0,
                        "interp" : "linr"
                      },
                      "stroke-color-green" : {
                        "type" : "double",
                        "defaultValue" : 1.0,
                        "interp" : "linr"
                      },
                      "stroke-color-opacity" : {
                        "type" : "double",
                        "defaultValue" : 1.0,
                        "interp" : "linr"
                      },
                      "stroke-color-red" : {
                        "type" : "double",
                        "defaultValue" : 1.0,
                        "interp" : "linr"
                      },
                      "stroke-width" : {
                        "type" : "double",
                        "defaultValue" : 0.0,
                        "interp" : "linr"
                      },
                      "width" : {
                        "type" : "double",
                        "defaultValue" : 442.222223708088,
                        "interp" : "linr"
                      },
                      "fill-style" : "solid",
                      "stroke-style" : "solid"
                    },
                    "attributes" : {
                      "ident" : "",
                      "autoRotateText" : true
                    },
                    "parameters" : {
                      "translation0" : {
                        "type" : "double",
                        "defaultValue" : 112.963795308535,
                        "interp" : "eioe"
                      },
                      "translation1" : {
                        "type" : "double",
                        "defaultValue" : 313.569523809525,
                        "interp" : "eioe"
                      },
                      "sourceCrop0" : {
                        "type" : "double",
                        "defaultValue" : 0.0,
                        "interp" : "eioe"
                      },
                      "sourceCrop1" : {
                        "type" : "double",
                        "defaultValue" : 0.0,
                        "interp" : "eioe"
                      },
                      "sourceCrop2" : {
                        "type" : "double",
                        "defaultValue" : 0.0,
                        "interp" : "eioe"
                      },
                      "sourceCrop3" : {
                        "type" : "double",
                        "defaultValue" : 0.0,
                        "interp" : "eioe"
                      },
                      "geometryCrop0" : {
                        "type" : "double",
                        "defaultValue" : 0.0,
                        "interp" : "eioe"
                      },
                      "geometryCrop1" : {
                        "type" : "double",
                        "defaultValue" : 0.0,
                        "interp" : "eioe"
                      },
                      "geometryCrop2" : {
                        "type" : "double",
                        "defaultValue" : 0.0,
                        "interp" : "eioe"
                      },
                      "geometryCrop3" : {
                        "type" : "double",
                        "defaultValue" : 0.0,
                        "interp" : "eioe"
                      }
                    },
                    "effects" : [

                    ],
                    "start" : 1034,
                    "duration" : 606,
                    "mediaStart" : 0,
                    "mediaDuration" : 606,
                    "scalar" : 1,
                    "metadata" : {
                      "clipSpeedAttribute" : false,
                      "default-height" : 180.0,
                      "default-translation0" : 0.0,
                      "default-translation1" : 0.0,
                      "default-width" : 240.0
                    },
                    "animationTracks" : {

                    }
                  }
                ]
              },
              {
                "trackIndex" : 34,
                "medias" : [
                  {
                    "id" : 189,
                    "_type" : "Callout",
                    "def" : {
                      "kind" : "remix",
                      "shape" : "text",
                      "style" : "basic",
                      "enable-ligatures" : {
                        "type" : "double",
                        "defaultValue" : 1.0,
                        "interp" : "linr"
                      },
                      "height" : {
                        "type" : "double",
                        "defaultValue" : 78.8888888888888,
                        "interp" : "linr"
                      },
                      "line-spacing" : {
                        "type" : "double",
                        "defaultValue" : 0.0,
                        "interp" : "linr"
                      },
                      "width" : {
                        "type" : "double",
                        "defaultValue" : 442.222222222226,
                        "interp" : "linr"
                      },
                      "word-wrap" : {
                        "type" : "double",
                        "defaultValue" : 1.0,
                        "interp" : "linr"
                      },
                      "horizontal-alignment" : "center",
                      "resize-behavior" : "resizeText",
                      "text" : "Maudy Aprilia",
                      "vertical-alignment" : "center",
                      "font" : {
                        "color-blue" : {
                          "type" : "double",
                          "defaultValue" : 1.0,
                          "interp" : "linr"
                        },
                        "color-green" : {
                          "type" : "double",
                          "defaultValue" : 1.0,
                          "interp" : "linr"
                        },
                        "color-red" : {
                          "type" : "double",
                          "defaultValue" : 1.0,
                          "interp" : "linr"
                        },
                        "size" : {
                          "type" : "double",
                          "defaultValue" : 64.0,
                          "interp" : "linr"
                        },
                        "tracking" : {
                          "type" : "double",
                          "defaultValue" : 0.0,
                          "interp" : "linr"
                        },
                        "name" : "Montserrat",
                        "weight" : "Regular"
                      },
                      "textAttributes" : {
                        "type" : "textAttributeList",
                        "keyframes" : [
                          {
                            "endTime" : 0,
                            "time" : 0,
                            "value" : [{"name":"fontSize","rangeEnd":13,"rangeStart":0,"value":64,"valueType":"double"},{"name":"fontName","rangeEnd":13,"rangeStart":0,"value":"1942 report","valueType":"string"},{"name":"fontItalic","rangeEnd":13,"rangeStart":0,"value":0,"valueType":"int"},{"name":"fontWeight","rangeEnd":13,"rangeStart":0,"value":700,"valueType":"int"},{"name":"strikethrough","rangeEnd":13,"rangeStart":0,"value":0,"valueType":"int"},{"name":"underline","rangeEnd":13,"rangeStart":0,"value":0,"valueType":"int"},{"name":"fgColor","rangeEnd":13,"rangeStart":0,"value":"(0,0,0,255)","valueType":"color"},{"name":"kerning","rangeEnd":13,"rangeStart":0,"value":0,"valueType":"double"}],
                            "duration" : 0
                          }
                        ]
                      }
                    },
                    "attributes" : {
                      "ident" : "",
                      "autoRotateText" : true
                    },
                    "parameters" : {
                      "translation0" : {
                        "type" : "double",
                        "defaultValue" : 113.352685414646,
                        "interp" : "eioe"
                      },
                      "translation1" : {
                        "type" : "double",
                        "defaultValue" : 314.069523809525,
                        "interp" : "eioe"
                      },
                      "sourceCrop0" : {
                        "type" : "double",
                        "defaultValue" : 0.0,
                        "interp" : "eioe"
                      },
                      "sourceCrop1" : {
                        "type" : "double",
                        "defaultValue" : 0.0,
                        "interp" : "eioe"
                      },
                      "sourceCrop2" : {
                        "type" : "double",
                        "defaultValue" : 0.0,
                        "interp" : "eioe"
                      },
                      "sourceCrop3" : {
                        "type" : "double",
                        "defaultValue" : 0.0,
                        "interp" : "eioe"
                      },
                      "geometryCrop0" : {
                        "type" : "double",
                        "defaultValue" : 0.0,
                        "interp" : "eioe"
                      },
                      "geometryCrop1" : {
                        "type" : "double",
                        "defaultValue" : 0.0,
                        "interp" : "eioe"
                      },
                      "geometryCrop2" : {
                        "type" : "double",
                        "defaultValue" : 0.0,
                        "interp" : "eioe"
                      },
                      "geometryCrop3" : {
                        "type" : "double",
                        "defaultValue" : 0.0,
                        "interp" : "eioe"
                      }
                    },
                    "effects" : [
                        {
                          "_type" : "GenericBehaviorEffect",
                          "effectName" : "fade",
                          "bypassed" : false,
                          "start" : 0,
                          "duration" : 606                        ,
                          "in" : {
                            "attributes" : {
                              "name" : "fadeIn",
                              "type" : 1,
                              "characterOrder" : 6,
                              "offsetBetweenCharacters" : 3,
                              "suggestedDurationPerCharacter" : 0,
                              "overlapProportion" : 0,
                              "movement" : 0,
                              "springDamping" : 5.0,
                              "springStiffness" : 50.0,
                              "bounceBounciness" : 0.45
                            }
                          
                          },
                          "center" : {
                            "attributes" : {
                              "name" : "none",
                              "type" : 1,
                              "characterOrder" : 6,
                              "offsetBetweenCharacters" : 0,
                              "secondsPerLoop" : 1,
                              "numberOfLoops" : -1,
                              "delayBetweenLoops" : 0
                            }
                          
                          },
                          "out" : {
                            "attributes" : {
                              "name" : "none",
                              "type" : 1,
                              "characterOrder" : 6,
                              "offsetBetweenCharacters" : 0,
                              "suggestedDurationPerCharacter" : 0,
                              "overlapProportion" : 0,
                              "movement" : -1,
                              "springDamping" : 5.0,
                              "springStiffness" : 50.0,
                              "bounceBounciness" : 0.45
                            }
                          
                          },
                          "metadata" : {
                            "default-behavior-in-bounciness" : 0.45,
                            "default-behavior-in-characterorder" : 7.0,
                            "default-behavior-in-duration" : 22.0,
                            "default-behavior-in-movement" : 16.0,
                            "default-behavior-in-offset" : 1.5,
                            "default-behavior-in-style" : "fadeIn",
                            "default-behavior-in-type" : 1.0,
                            "default-behavior-out-style" : "fadeOut",
                            "presetName" : "Fade"
                          }
                        }
                    ],
                    "start" : 1034,
                    "duration" : 606,
                    "mediaStart" : 0,
                    "mediaDuration" : 606,
                    "scalar" : 1,
                    "metadata" : {
                      "clipSpeedAttribute" : false,
                      "default-HAlign" : "center",
                      "default-LineSpace" : 0.0,
                      "default-VAlign" : "center",
                      "default-height" : 250.0,
                      "default-text-attributes" : "[{\"name\":\"fgColor\",\"rangeEnd\":25,\"rangeStart\":0,\"value\":\"(0,0,0,255)\",\"valueType\":\"color\"},{\"name\":\"kerning\",\"rangeEnd\":25,\"rangeStart\":0,\"value\":0,\"valueType\":\"double\"},{\"name\":\"underline\",\"rangeEnd\":25,\"rangeStart\":0,\"value\":0,\"valueType\":\"int\"},{\"name\":\"strikethrough\",\"rangeEnd\":25,\"rangeStart\":0,\"value\":0,\"valueType\":\"int\"},{\"name\":\"fontWeight\",\"rangeEnd\":25,\"rangeStart\":0,\"value\":700,\"valueType\":\"int\"},{\"name\":\"fontItalic\",\"rangeEnd\":25,\"rangeStart\":0,\"value\":0,\"valueType\":\"int\"},{\"name\":\"fontName\",\"rangeEnd\":25,\"rangeStart\":0,\"value\":\"Courier New\",\"valueType\":\"string\"},{\"name\":\"fontSize\",\"rangeEnd\":25,\"rangeStart\":0,\"value\":64,\"valueType\":\"double\"}]",
                      "default-translation0" : 0.0,
                      "default-translation1" : 0.0,
                      "default-width" : 400.0
                    },
                    "animationTracks" : {

                    }
                  }
                ]
              },
              {
                "trackIndex" : 35,
                "medias" : [
                  {
                    "id" : 190,
                    "_type" : "Callout",
                    "def" : {
                      "kind" : "remix",
                      "shape" : "shape-rectangle",
                      "style" : "urban",
                      "fill-color-blue" : {
                        "type" : "double",
                        "defaultValue" : 1.0,
                        "interp" : "linr"
                      },
                      "fill-color-green" : {
                        "type" : "double",
                        "defaultValue" : 1.0,
                        "interp" : "linr"
                      },
                      "fill-color-opacity" : {
                        "type" : "double",
                        "defaultValue" : 1.0,
                        "interp" : "linr"
                      },
                      "fill-color-red" : {
                        "type" : "double",
                        "defaultValue" : 1.0,
                        "interp" : "linr"
                      },
                      "height" : {
                        "type" : "double",
                        "defaultValue" : 78.8888888888888,
                        "interp" : "linr"
                      },
                      "stroke-color-blue" : {
                        "type" : "double",
                        "defaultValue" : 1.0,
                        "interp" : "linr"
                      },
                      "stroke-color-green" : {
                        "type" : "double",
                        "defaultValue" : 1.0,
                        "interp" : "linr"
                      },
                      "stroke-color-opacity" : {
                        "type" : "double",
                        "defaultValue" : 1.0,
                        "interp" : "linr"
                      },
                      "stroke-color-red" : {
                        "type" : "double",
                        "defaultValue" : 1.0,
                        "interp" : "linr"
                      },
                      "stroke-width" : {
                        "type" : "double",
                        "defaultValue" : 0.0,
                        "interp" : "linr"
                      },
                      "width" : {
                        "type" : "double",
                        "defaultValue" : 442.222223708088,
                        "interp" : "linr"
                      },
                      "fill-style" : "solid",
                      "stroke-style" : "solid"
                    },
                    "attributes" : {
                      "ident" : "",
                      "autoRotateText" : true
                    },
                    "parameters" : {
                      "translation0" : {
                        "type" : "double",
                        "defaultValue" : -174.802164796434,
                        "interp" : "eioe"
                      },
                      "translation1" : {
                        "type" : "double",
                        "defaultValue" : -406.844444444445,
                        "interp" : "eioe"
                      },
                      "sourceCrop0" : {
                        "type" : "double",
                        "defaultValue" : 0.0,
                        "interp" : "eioe"
                      },
                      "sourceCrop1" : {
                        "type" : "double",
                        "defaultValue" : 0.0,
                        "interp" : "eioe"
                      },
                      "sourceCrop2" : {
                        "type" : "double",
                        "defaultValue" : 0.0,
                        "interp" : "eioe"
                      },
                      "sourceCrop3" : {
                        "type" : "double",
                        "defaultValue" : 0.0,
                        "interp" : "eioe"
                      },
                      "geometryCrop0" : {
                        "type" : "double",
                        "defaultValue" : 0.0,
                        "interp" : "eioe"
                      },
                      "geometryCrop1" : {
                        "type" : "double",
                        "defaultValue" : 0.0,
                        "interp" : "eioe"
                      },
                      "geometryCrop2" : {
                        "type" : "double",
                        "defaultValue" : 0.0,
                        "interp" : "eioe"
                      },
                      "geometryCrop3" : {
                        "type" : "double",
                        "defaultValue" : 0.0,
                        "interp" : "eioe"
                      }
                    },
                    "effects" : [

                    ],
                    "start" : 1110,
                    "duration" : 532,
                    "mediaStart" : 0,
                    "mediaDuration" : 532,
                    "scalar" : 1,
                    "metadata" : {
                      "clipSpeedAttribute" : false,
                      "default-height" : 180.0,
                      "default-translation0" : 0.0,
                      "default-translation1" : 0.0,
                      "default-width" : 240.0
                    },
                    "animationTracks" : {

                    }
                  }
                ]
              },
              {
                "trackIndex" : 36,
                "medias" : [
                  {
                    "id" : 191,
                    "_type" : "Callout",
                    "def" : {
                      "kind" : "remix",
                      "shape" : "text",
                      "style" : "basic",
                      "enable-ligatures" : {
                        "type" : "double",
                        "defaultValue" : 1.0,
                        "interp" : "linr"
                      },
                      "height" : {
                        "type" : "double",
                        "defaultValue" : 78.8888888888888,
                        "interp" : "linr"
                      },
                      "line-spacing" : {
                        "type" : "double",
                        "defaultValue" : 0.0,
                        "interp" : "linr"
                      },
                      "width" : {
                        "type" : "double",
                        "defaultValue" : 442.222222222226,
                        "interp" : "linr"
                      },
                      "word-wrap" : {
                        "type" : "double",
                        "defaultValue" : 1.0,
                        "interp" : "linr"
                      },
                      "horizontal-alignment" : "center",
                      "resize-behavior" : "resizeText",
                      "text" : "Riyadi",
                      "vertical-alignment" : "center",
                      "font" : {
                        "color-blue" : {
                          "type" : "double",
                          "defaultValue" : 1.0,
                          "interp" : "linr"
                        },
                        "color-green" : {
                          "type" : "double",
                          "defaultValue" : 1.0,
                          "interp" : "linr"
                        },
                        "color-red" : {
                          "type" : "double",
                          "defaultValue" : 1.0,
                          "interp" : "linr"
                        },
                        "size" : {
                          "type" : "double",
                          "defaultValue" : 64.0,
                          "interp" : "linr"
                        },
                        "tracking" : {
                          "type" : "double",
                          "defaultValue" : 0.0,
                          "interp" : "linr"
                        },
                        "name" : "Montserrat",
                        "weight" : "Regular"
                      },
                      "textAttributes" : {
                        "type" : "textAttributeList",
                        "keyframes" : [
                          {
                            "endTime" : 0,
                            "time" : 0,
                            "value" : [{"name":"strikethrough","rangeEnd":6,"rangeStart":0,"value":0,"valueType":"int"},{"name":"fontName","rangeEnd":6,"rangeStart":0,"value":"1942 report","valueType":"string"},{"name":"fontItalic","rangeEnd":6,"rangeStart":0,"value":0,"valueType":"int"},{"name":"fontSize","rangeEnd":6,"rangeStart":0,"value":64,"valueType":"double"},{"name":"fontWeight","rangeEnd":6,"rangeStart":0,"value":700,"valueType":"int"},{"name":"kerning","rangeEnd":6,"rangeStart":0,"value":0,"valueType":"double"},{"name":"underline","rangeEnd":6,"rangeStart":0,"value":0,"valueType":"int"},{"name":"fgColor","rangeEnd":6,"rangeStart":0,"value":"(0,0,0,255)","valueType":"color"}],
                            "duration" : 0
                          }
                        ]
                      }
                    },
                    "attributes" : {
                      "ident" : "",
                      "autoRotateText" : true
                    },
                    "parameters" : {
                      "translation0" : {
                        "type" : "double",
                        "defaultValue" : -174.413274690323,
                        "interp" : "eioe"
                      },
                      "translation1" : {
                        "type" : "double",
                        "defaultValue" : -406.344444444445,
                        "interp" : "eioe"
                      },
                      "sourceCrop0" : {
                        "type" : "double",
                        "defaultValue" : 0.0,
                        "interp" : "eioe"
                      },
                      "sourceCrop1" : {
                        "type" : "double",
                        "defaultValue" : 0.0,
                        "interp" : "eioe"
                      },
                      "sourceCrop2" : {
                        "type" : "double",
                        "defaultValue" : 0.0,
                        "interp" : "eioe"
                      },
                      "sourceCrop3" : {
                        "type" : "double",
                        "defaultValue" : 0.0,
                        "interp" : "eioe"
                      },
                      "geometryCrop0" : {
                        "type" : "double",
                        "defaultValue" : 0.0,
                        "interp" : "eioe"
                      },
                      "geometryCrop1" : {
                        "type" : "double",
                        "defaultValue" : 0.0,
                        "interp" : "eioe"
                      },
                      "geometryCrop2" : {
                        "type" : "double",
                        "defaultValue" : 0.0,
                        "interp" : "eioe"
                      },
                      "geometryCrop3" : {
                        "type" : "double",
                        "defaultValue" : 0.0,
                        "interp" : "eioe"
                      }
                    },
                    "effects" : [
                        {
                          "_type" : "GenericBehaviorEffect",
                          "effectName" : "fade",
                          "bypassed" : false,
                          "start" : 0,
                          "duration" : 532                        ,
                          "in" : {
                            "attributes" : {
                              "name" : "fadeIn",
                              "type" : 1,
                              "characterOrder" : 6,
                              "offsetBetweenCharacters" : 3,
                              "suggestedDurationPerCharacter" : 0,
                              "overlapProportion" : 0,
                              "movement" : 0,
                              "springDamping" : 5.0,
                              "springStiffness" : 50.0,
                              "bounceBounciness" : 0.45
                            }
                          
                          },
                          "center" : {
                            "attributes" : {
                              "name" : "none",
                              "type" : 1,
                              "characterOrder" : 6,
                              "offsetBetweenCharacters" : 0,
                              "secondsPerLoop" : 1,
                              "numberOfLoops" : -1,
                              "delayBetweenLoops" : 0
                            }
                          
                          },
                          "out" : {
                            "attributes" : {
                              "name" : "none",
                              "type" : 1,
                              "characterOrder" : 6,
                              "offsetBetweenCharacters" : 0,
                              "suggestedDurationPerCharacter" : 0,
                              "overlapProportion" : 0,
                              "movement" : -1,
                              "springDamping" : 5.0,
                              "springStiffness" : 50.0,
                              "bounceBounciness" : 0.45
                            }
                          
                          },
                          "metadata" : {
                            "default-behavior-in-bounciness" : 0.45,
                            "default-behavior-in-characterorder" : 7.0,
                            "default-behavior-in-duration" : 22.0,
                            "default-behavior-in-movement" : 16.0,
                            "default-behavior-in-offset" : 1.5,
                            "default-behavior-in-style" : "fadeIn",
                            "default-behavior-in-type" : 1.0,
                            "default-behavior-out-style" : "fadeOut",
                            "presetName" : "Fade"
                          }
                        }
                    ],
                    "start" : 1110,
                    "duration" : 532,
                    "mediaStart" : 0,
                    "mediaDuration" : 532,
                    "scalar" : 1,
                    "metadata" : {
                      "clipSpeedAttribute" : false,
                      "default-HAlign" : "center",
                      "default-LineSpace" : 0.0,
                      "default-VAlign" : "center",
                      "default-height" : 250.0,
                      "default-text-attributes" : "[{\"name\":\"fgColor\",\"rangeEnd\":25,\"rangeStart\":0,\"value\":\"(0,0,0,255)\",\"valueType\":\"color\"},{\"name\":\"kerning\",\"rangeEnd\":25,\"rangeStart\":0,\"value\":0,\"valueType\":\"double\"},{\"name\":\"underline\",\"rangeEnd\":25,\"rangeStart\":0,\"value\":0,\"valueType\":\"int\"},{\"name\":\"strikethrough\",\"rangeEnd\":25,\"rangeStart\":0,\"value\":0,\"valueType\":\"int\"},{\"name\":\"fontWeight\",\"rangeEnd\":25,\"rangeStart\":0,\"value\":700,\"valueType\":\"int\"},{\"name\":\"fontItalic\",\"rangeEnd\":25,\"rangeStart\":0,\"value\":0,\"valueType\":\"int\"},{\"name\":\"fontName\",\"rangeEnd\":25,\"rangeStart\":0,\"value\":\"Courier New\",\"valueType\":\"string\"},{\"name\":\"fontSize\",\"rangeEnd\":25,\"rangeStart\":0,\"value\":64,\"valueType\":\"double\"}]",
                      "default-translation0" : 0.0,
                      "default-translation1" : 0.0,
                      "default-width" : 400.0
                    },
                    "animationTracks" : {

                    }
                  }
                ]
              },
              {
                "trackIndex" : 37,
                "medias" : [
                  {
                    "id" : 192,
                    "_type" : "Callout",
                    "def" : {
                      "kind" : "remix",
                      "shape" : "text",
                      "style" : "basic",
                      "enable-ligatures" : {
                        "type" : "double",
                        "defaultValue" : 1.0,
                        "interp" : "linr"
                      },
                      "height" : {
                        "type" : "double",
                        "defaultValue" : 61.111111111111,
                        "interp" : "linr"
                      },
                      "line-spacing" : {
                        "type" : "double",
                        "defaultValue" : 0.0,
                        "interp" : "linr"
                      },
                      "width" : {
                        "type" : "double",
                        "defaultValue" : 542.222222222227,
                        "interp" : "linr"
                      },
                      "word-wrap" : {
                        "type" : "double",
                        "defaultValue" : 1.0,
                        "interp" : "linr"
                      },
                      "horizontal-alignment" : "center",
                      "resize-behavior" : "resizeText",
                      "text" : "Video created by: nandur",
                      "vertical-alignment" : "center",
                      "font" : {
                        "color-blue" : {
                          "type" : "double",
                          "defaultValue" : 1.0,
                          "interp" : "linr"
                        },
                        "color-green" : {
                          "type" : "double",
                          "defaultValue" : 1.0,
                          "interp" : "linr"
                        },
                        "color-red" : {
                          "type" : "double",
                          "defaultValue" : 1.0,
                          "interp" : "linr"
                        },
                        "size" : {
                          "type" : "double",
                          "defaultValue" : 64.0,
                          "interp" : "linr"
                        },
                        "tracking" : {
                          "type" : "double",
                          "defaultValue" : 0.0,
                          "interp" : "linr"
                        },
                        "name" : "Montserrat",
                        "weight" : "Regular"
                      },
                      "textAttributes" : {
                        "type" : "textAttributeList",
                        "keyframes" : [
                          {
                            "endTime" : 0,
                            "time" : 0,
                            "value" : [{"name":"underline","rangeEnd":24,"rangeStart":0,"value":0,"valueType":"int"},{"name":"fontWeight","rangeEnd":24,"rangeStart":0,"value":700,"valueType":"int"},{"name":"fontSize","rangeEnd":24,"rangeStart":0,"value":64,"valueType":"double"},{"name":"fontItalic","rangeEnd":24,"rangeStart":0,"value":0,"valueType":"int"},{"name":"fgColor","rangeEnd":24,"rangeStart":0,"value":"(255,255,255,255)","valueType":"color"},{"name":"kerning","rangeEnd":24,"rangeStart":0,"value":0,"valueType":"double"},{"name":"strikethrough","rangeEnd":24,"rangeStart":0,"value":0,"valueType":"int"},{"name":"fontName","rangeEnd":24,"rangeStart":0,"value":"1942 report","valueType":"string"}],
                            "duration" : 0
                          }
                        ]
                      }
                    },
                    "attributes" : {
                      "ident" : "",
                      "autoRotateText" : true
                    },
                    "parameters" : {
                      "translation0" : {
                        "type" : "double",
                        "defaultValue" : 664.833323160805,
                        "interp" : "eioe"
                      },
                      "translation1" : {
                        "type" : "double",
                        "defaultValue" : -509.000000211928,
                        "interp" : "eioe"
                      },
                      "sourceCrop0" : {
                        "type" : "double",
                        "defaultValue" : 0.0,
                        "interp" : "eioe"
                      },
                      "sourceCrop1" : {
                        "type" : "double",
                        "defaultValue" : 0.0,
                        "interp" : "eioe"
                      },
                      "sourceCrop2" : {
                        "type" : "double",
                        "defaultValue" : 0.0,
                        "interp" : "eioe"
                      },
                      "sourceCrop3" : {
                        "type" : "double",
                        "defaultValue" : 0.0,
                        "interp" : "eioe"
                      },
                      "geometryCrop0" : {
                        "type" : "double",
                        "defaultValue" : 0.0,
                        "interp" : "eioe"
                      },
                      "geometryCrop1" : {
                        "type" : "double",
                        "defaultValue" : 0.0,
                        "interp" : "eioe"
                      },
                      "geometryCrop2" : {
                        "type" : "double",
                        "defaultValue" : 0.0,
                        "interp" : "eioe"
                      },
                      "geometryCrop3" : {
                        "type" : "double",
                        "defaultValue" : 0.0,
                        "interp" : "eioe"
                      },
                      "opacity" : {
                        "type" : "double",
                        "defaultValue" : 0.2,
                        "interp" : "linr"
                      }
                    },
                    "effects" : [
                        {
                          "_type" : "GenericBehaviorEffect",
                          "effectName" : "fade",
                          "bypassed" : false,
                          "start" : 0,
                          "duration" : 12278                        ,
                          "in" : {
                            "attributes" : {
                              "name" : "fadeIn",
                              "type" : 1,
                              "characterOrder" : 6,
                              "offsetBetweenCharacters" : "1249/100",
                              "suggestedDurationPerCharacter" : 0,
                              "overlapProportion" : 0,
                              "movement" : 0,
                              "springDamping" : 5.0,
                              "springStiffness" : 50.0,
                              "bounceBounciness" : 0.45
                            }
                          
                          },
                          "center" : {
                            "attributes" : {
                              "name" : "none",
                              "type" : 1,
                              "characterOrder" : 6,
                              "offsetBetweenCharacters" : 0,
                              "secondsPerLoop" : 1,
                              "numberOfLoops" : -1,
                              "delayBetweenLoops" : 0
                            }
                          
                          },
                          "out" : {
                            "attributes" : {
                              "name" : "none",
                              "type" : 1,
                              "characterOrder" : 6,
                              "offsetBetweenCharacters" : 0,
                              "suggestedDurationPerCharacter" : 0,
                              "overlapProportion" : 0,
                              "movement" : -1,
                              "springDamping" : 5.0,
                              "springStiffness" : 50.0,
                              "bounceBounciness" : 0.45
                            }
                          
                          },
                          "metadata" : {
                            "default-behavior-in-bounciness" : 0.45,
                            "default-behavior-in-characterorder" : 7.0,
                            "default-behavior-in-duration" : 22.0,
                            "default-behavior-in-movement" : 16.0,
                            "default-behavior-in-offset" : 1.5,
                            "default-behavior-in-style" : "fadeIn",
                            "default-behavior-in-type" : 1.0,
                            "default-behavior-out-style" : "fadeOut",
                            "presetName" : "Fade"
                          }
                        }
                    ],
                    "start" : 0,
                    "duration" : 12278,
                    "mediaStart" : 0,
                    "mediaDuration" : 12278,
                    "scalar" : 1,
                    "metadata" : {
                      "clipSpeedAttribute" : false,
                      "default-HAlign" : "center",
                      "default-LineSpace" : 0.0,
                      "default-VAlign" : "center",
                      "default-height" : 250.0,
                      "default-opacity" : 1.0,
                      "default-text-attributes" : "[{\"name\":\"fgColor\",\"rangeEnd\":25,\"rangeStart\":0,\"value\":\"(0,0,0,255)\",\"valueType\":\"color\"},{\"name\":\"kerning\",\"rangeEnd\":25,\"rangeStart\":0,\"value\":0,\"valueType\":\"double\"},{\"name\":\"underline\",\"rangeEnd\":25,\"rangeStart\":0,\"value\":0,\"valueType\":\"int\"},{\"name\":\"strikethrough\",\"rangeEnd\":25,\"rangeStart\":0,\"value\":0,\"valueType\":\"int\"},{\"name\":\"fontWeight\",\"rangeEnd\":25,\"rangeStart\":0,\"value\":700,\"valueType\":\"int\"},{\"name\":\"fontItalic\",\"rangeEnd\":25,\"rangeStart\":0,\"value\":0,\"valueType\":\"int\"},{\"name\":\"fontName\",\"rangeEnd\":25,\"rangeStart\":0,\"value\":\"Courier New\",\"valueType\":\"string\"},{\"name\":\"fontSize\",\"rangeEnd\":25,\"rangeStart\":0,\"value\":64,\"valueType\":\"double\"}]",
                      "default-translation0" : 0.0,
                      "default-translation1" : 0.0,
                      "default-width" : 400.0
                    },
                    "animationTracks" : {

                    }
                  }
                ]
              }            ]
          }
        }
      ]
    },
    "trackAttributes" : [
      {
        "ident" : "",
        "audioMuted" : false,
        "videoHidden" : false,
        "magnetic" : false,
        "matte" : 0,
        "solo" : false,
        "metadata" : {
          "IsLocked" : "False",
          "WinTrackHeight" : "34.6153846153846"
        }
      },
      {
        "ident" : "",
        "audioMuted" : false,
        "videoHidden" : false,
        "magnetic" : false,
        "matte" : 0,
        "solo" : false,
        "metadata" : {
          "IsLocked" : "False",
          "WinTrackHeight" : "34.6153846153846"
        }
      },
      {
        "ident" : "Title",
        "audioMuted" : false,
        "videoHidden" : false,
        "magnetic" : false,
        "matte" : 0,
        "solo" : false,
        "metadata" : {
          "IsLocked" : "False",
          "WinTrackHeight" : "34.6153846153846"
        }
      },
      {
        "ident" : "sfx",
        "audioMuted" : false,
        "videoHidden" : false,
        "magnetic" : false,
        "matte" : 0,
        "solo" : false,
        "metadata" : {
          "IsLocked" : "False",
          "WinTrackHeight" : "34.6153846153846"
        }
      },
      {
        "ident" : "",
        "audioMuted" : false,
        "videoHidden" : false,
        "magnetic" : false,
        "matte" : 0,
        "solo" : false,
        "metadata" : {
          "IsLocked" : "False",
          "WinTrackHeight" : "34.6153846153846"
        }
      },
      {
        "ident" : "",
        "audioMuted" : false,
        "videoHidden" : false,
        "magnetic" : false,
        "matte" : 0,
        "solo" : false,
        "metadata" : {
          "IsLocked" : "False",
          "WinTrackHeight" : "34.6153846153846"
        }
      },
      {
        "ident" : "",
        "audioMuted" : false,
        "videoHidden" : false,
        "magnetic" : false,
        "matte" : 0,
        "solo" : false,
        "metadata" : {
          "IsLocked" : "False",
          "WinTrackHeight" : "34.6153846153846"
        }
      },
      {
        "ident" : "",
        "audioMuted" : false,
        "videoHidden" : false,
        "magnetic" : false,
        "matte" : 0,
        "solo" : false,
        "metadata" : {
          "IsLocked" : "False",
          "WinTrackHeight" : "34.6153846153846"
        }
      },
      {
        "ident" : "",
        "audioMuted" : false,
        "videoHidden" : false,
        "magnetic" : false,
        "matte" : 0,
        "solo" : false,
        "metadata" : {
          "IsLocked" : "True",
          "WinTrackHeight" : "34.6153846153846"
        }
      },
      {
        "ident" : "",
        "audioMuted" : false,
        "videoHidden" : false,
        "magnetic" : false,
        "matte" : 0,
        "solo" : false,
        "metadata" : {
          "IsLocked" : "False",
          "WinTrackHeight" : "34.6153846153846"
        }
      },
      {
        "ident" : "",
        "audioMuted" : false,
        "videoHidden" : false,
        "magnetic" : false,
        "matte" : 0,
        "solo" : false,
        "metadata" : {
          "IsLocked" : "False",
          "WinTrackHeight" : "34.6153846153846"
        }
      },
      {
        "ident" : "",
        "audioMuted" : false,
        "videoHidden" : false,
        "magnetic" : false,
        "matte" : 0,
        "solo" : false,
        "metadata" : {
          "IsLocked" : "False",
          "WinTrackHeight" : "34.6153846153846"
        }
      },
      {
        "ident" : "",
        "audioMuted" : false,
        "videoHidden" : false,
        "magnetic" : false,
        "matte" : 0,
        "solo" : false,
        "metadata" : {
          "IsLocked" : "False",
          "WinTrackHeight" : "34.6153846153846"
        }
      },
      {
        "ident" : "",
        "audioMuted" : false,
        "videoHidden" : false,
        "magnetic" : false,
        "matte" : 0,
        "solo" : false,
        "metadata" : {
          "IsLocked" : "False",
          "WinTrackHeight" : "34.6153846153846"
        }
      },
      {
        "ident" : "",
        "audioMuted" : false,
        "videoHidden" : false,
        "magnetic" : false,
        "matte" : 0,
        "solo" : false,
        "metadata" : {
          "IsLocked" : "False",
          "WinTrackHeight" : "34.6153846153846"
        }
      },
      {
        "ident" : "",
        "audioMuted" : false,
        "videoHidden" : false,
        "magnetic" : false,
        "matte" : 0,
        "solo" : false,
        "metadata" : {
          "IsLocked" : "False",
          "WinTrackHeight" : "34.6153846153846"
        }
      },
      {
        "ident" : "",
        "audioMuted" : false,
        "videoHidden" : false,
        "magnetic" : false,
        "matte" : 0,
        "solo" : false,
        "metadata" : {
          "IsLocked" : "False",
          "WinTrackHeight" : "34.6153846153846"
        }
      },
      {
        "ident" : "",
        "audioMuted" : false,
        "videoHidden" : false,
        "magnetic" : false,
        "matte" : 0,
        "solo" : false,
        "metadata" : {
          "IsLocked" : "False",
          "WinTrackHeight" : "34.6153846153846"
        }
      },
      {
        "ident" : "",
        "audioMuted" : false,
        "videoHidden" : false,
        "magnetic" : false,
        "matte" : 0,
        "solo" : false,
        "metadata" : {
          "IsLocked" : "False",
          "WinTrackHeight" : "34.6153846153846"
        }
      },
      {
        "ident" : "",
        "audioMuted" : false,
        "videoHidden" : false,
        "magnetic" : false,
        "matte" : 0,
        "solo" : false,
        "metadata" : {
          "IsLocked" : "False",
          "WinTrackHeight" : "34.6153846153846"
        }
      },
      {
        "ident" : "",
        "audioMuted" : false,
        "videoHidden" : false,
        "magnetic" : false,
        "matte" : 0,
        "solo" : false,
        "metadata" : {
          "IsLocked" : "False",
          "WinTrackHeight" : "34.6153846153846"
        }
      },
      {
        "ident" : "",
        "audioMuted" : false,
        "videoHidden" : false,
        "magnetic" : false,
        "matte" : 0,
        "solo" : false,
        "metadata" : {
          "IsLocked" : "False",
          "WinTrackHeight" : "34.6153846153846"
        }
      },
      {
        "ident" : "",
        "audioMuted" : false,
        "videoHidden" : false,
        "magnetic" : false,
        "matte" : 0,
        "solo" : false,
        "metadata" : {
          "IsLocked" : "False",
          "WinTrackHeight" : "34.6153846153846"
        }
      },
      {
        "ident" : "",
        "audioMuted" : false,
        "videoHidden" : false,
        "magnetic" : false,
        "matte" : 0,
        "solo" : false,
        "metadata" : {
          "IsLocked" : "False",
          "WinTrackHeight" : "34.6153846153846"
        }
      },
      {
        "ident" : "",
        "audioMuted" : false,
        "videoHidden" : false,
        "magnetic" : false,
        "matte" : 0,
        "solo" : false,
        "metadata" : {
          "IsLocked" : "False",
          "WinTrackHeight" : "34.6153846153846"
        }
      },
      {
        "ident" : "",
        "audioMuted" : false,
        "videoHidden" : false,
        "magnetic" : false,
        "matte" : 0,
        "solo" : false,
        "metadata" : {
          "IsLocked" : "False",
          "WinTrackHeight" : "34.6153846153846"
        }
      },
      {
        "ident" : "",
        "audioMuted" : false,
        "videoHidden" : false,
        "magnetic" : false,
        "matte" : 0,
        "solo" : false,
        "metadata" : {
          "IsLocked" : "False",
          "WinTrackHeight" : "34.6153846153846"
        }
      },
      {
        "ident" : "",
        "audioMuted" : false,
        "videoHidden" : false,
        "magnetic" : false,
        "matte" : 0,
        "solo" : false,
        "metadata" : {
          "IsLocked" : "False",
          "WinTrackHeight" : "34.6153846153846"
        }
      },
      {
        "ident" : "",
        "audioMuted" : false,
        "videoHidden" : false,
        "magnetic" : false,
        "matte" : 0,
        "solo" : false,
        "metadata" : {
          "IsLocked" : "False",
          "WinTrackHeight" : "34.6153846153846"
        }
      },
      {
        "ident" : "",
        "audioMuted" : false,
        "videoHidden" : false,
        "magnetic" : false,
        "matte" : 0,
        "solo" : false,
        "metadata" : {
          "IsLocked" : "False",
          "WinTrackHeight" : "34.6153846153846"
        }
      },
      {
        "ident" : "",
        "audioMuted" : false,
        "videoHidden" : false,
        "magnetic" : false,
        "matte" : 0,
        "solo" : false,
        "metadata" : {
          "IsLocked" : "False",
          "WinTrackHeight" : "34.6153846153846"
        }
      },
      {
        "ident" : "",
        "audioMuted" : false,
        "videoHidden" : false,
        "magnetic" : false,
        "matte" : 0,
        "solo" : false,
        "metadata" : {
          "IsLocked" : "False",
          "WinTrackHeight" : "34.6153846153846"
        }
      },
      {
        "ident" : "",
        "audioMuted" : false,
        "videoHidden" : false,
        "magnetic" : false,
        "matte" : 0,
        "solo" : false,
        "metadata" : {
          "IsLocked" : "False",
          "WinTrackHeight" : "34.6153846153846"
        }
      },
      {
        "ident" : "",
        "audioMuted" : false,
        "videoHidden" : false,
        "magnetic" : false,
        "matte" : 0,
        "solo" : false,
        "metadata" : {
          "IsLocked" : "False",
          "WinTrackHeight" : "34.6153846153846"
        }
      },
      {
        "ident" : "",
        "audioMuted" : false,
        "videoHidden" : false,
        "magnetic" : false,
        "matte" : 0,
        "solo" : false,
        "metadata" : {
          "IsLocked" : "False",
          "WinTrackHeight" : "34.6153846153846"
        }
      },
      {
        "ident" : "",
        "audioMuted" : false,
        "videoHidden" : false,
        "magnetic" : false,
        "matte" : 0,
        "solo" : false,
        "metadata" : {
          "IsLocked" : "False",
          "WinTrackHeight" : "34.6153846153846"
        }
      },
      {
        "ident" : "",
        "audioMuted" : false,
        "videoHidden" : false,
        "magnetic" : false,
        "matte" : 0,
        "solo" : false,
        "metadata" : {
          "IsLocked" : "False",
          "WinTrackHeight" : "34.6153846153846"
        }
      },
      {
        "ident" : "",
        "audioMuted" : false,
        "videoHidden" : false,
        "magnetic" : false,
        "matte" : 0,
        "solo" : false,
        "metadata" : {
          "IsLocked" : "False",
          "WinTrackHeight" : "34.6153846153846"
        }
      }
    ],
    "captionAttributes" : {
      "enabled" : true,
      "fontName" : "Arial",
      "fontSize" : 64,
      "backgroundColor" : [ 0, 0, 0, 191],
      "foregroundColor" : [ 255, 255, 255, 255],
      "lang" : "en",
      "alignment" : 0,
      "defaultFontSize" : true,
      "opacity" : 0.5,
      "backgroundEnabled" : true,
      "backgroundOnlyAroundText" : true
    },
    "gain" : 1.0,
    "legacyAttenuateAudioMix" : false,
    "backgroundColor" : [ 0, 0, 0, 255]
  },
  "metadata" : {
    "AutoSaveFile" : "",
    "CanvasZoom" : 45,
    "Date" : "2023-10-22 07:12:38 PM",
    "Fit" : 1,
    "IsAutoSave" : false,
    "IsStandalone" : false,
    "Language" : "ENU",
    "ProfileName" : "",
    "ProjectDimensionsChanged" : "1",
    "Title" : "Pancasila",
    "audioNarrationNotes" : "",
    "calloutStyle" : "All"
  }
}
